<?xml version="1.0" encoding="UTF-8" standalone="no"?>
<!-- Created with Inkscape (http://www.inkscape.org/) -->

<svg
   width="320mm"
   height="180mm"
   viewBox="0 0 320 180"
   version="1.1"
   id="svg1"
   xmlns:xlink="http://www.w3.org/1999/xlink"
   xmlns="http://www.w3.org/2000/svg"
   xmlns:svg="http://www.w3.org/2000/svg">
  <defs
     id="defs1">
    <linearGradient
       id="linearGradient424">
      <stop
         style="stop-color:#99ff00;stop-opacity:1;"
         offset="0"
         id="stop423" />
      <stop
         style="stop-color:#ffff92;stop-opacity:1;"
         offset="1"
         id="stop424" />
    </linearGradient>
    <linearGradient
       xlink:href="#linearGradient424"
       id="linearGradient18"
       x1="179.05956"
       y1="105.43103"
       x2="210.48671"
       y2="105.43103"
       gradientUnits="userSpaceOnUse"
       gradientTransform="translate(12.802141,-1.3929569)" />
    <linearGradient
       xlink:href="#linearGradient424"
       id="linearGradient19"
       x1="145.50923"
       y1="114.29207"
       x2="171.61186"
       y2="114.29207"
       gradientUnits="userSpaceOnUse"
       gradientTransform="translate(12.802141,-1.3929569)" />
    <linearGradient
       xlink:href="#linearGradient424"
       id="linearGradient20"
       x1="138.65475"
       y1="103.87993"
       x2="147.94131"
       y2="103.87993"
       gradientUnits="userSpaceOnUse"
       gradientTransform="translate(12.802141,-1.3929569)" />
    <linearGradient
       xlink:href="#linearGradient424"
       id="linearGradient21"
       x1="99.411125"
       y1="107.25636"
       x2="105.68652"
       y2="107.25636"
       gradientUnits="userSpaceOnUse"
       gradientTransform="translate(12.802141,-1.3929569)" />
    <linearGradient
       xlink:href="#linearGradient424"
       id="linearGradient22"
       x1="62.97456"
       y1="79.786118"
       x2="146.49475"
       y2="79.786118"
       gradientUnits="userSpaceOnUse"
       gradientTransform="translate(12.802141,-1.3929569)" />
  </defs>
  <g
     id="layer1">
    <path
       style="opacity:0.15;fill:url(#linearGradient22);fill-opacity:1;stroke:none;stroke-width:0.499999"
       id="path1"
       d="m 79.21734,82.910356 c 0.94287,-1.224097 2.43268,-2.047443 3.818128,-2.664886 0.783778,-0.349303 1.575121,-0.695626 2.401052,-0.928343 1.310955,-0.369377 2.661113,-0.581925 3.991671,-0.872887 8.400202,-1.181044 16.858179,-0.268372 25.234069,0.607751 2.43592,0.254799 4.86121,0.628687 7.3052,0.788521 2.63539,0.172353 5.28023,0.138147 7.92035,0.207219 7.78375,-0.07548 15.47377,-1.308076 23.04993,-3.007672 2.13179,-0.478234 4.23943,-1.05837 6.35915,-1.587555 0,0 -2.28957,-1.576541 -2.28957,-1.576541 v 0 c -2.07419,0.555262 -4.13323,1.170538 -6.22255,1.665782 -7.51862,1.782188 -15.17376,2.986193 -22.91861,3.027505 -2.66643,-0.09669 -5.33794,-0.09936 -7.9993,-0.290068 -2.45349,-0.175807 -4.88932,-0.544726 -7.33489,-0.808722 -8.54212,-0.922118 -17.149853,-1.859788 -25.73663,-0.862148 -1.422437,0.249793 -2.863683,0.409438 -4.267308,0.749377 -0.867471,0.210092 -1.69736,0.55754 -2.523538,0.895284 -1.525635,0.623681 -3.116931,1.451284 -4.227792,2.698337 z" />
    <path
       style="opacity:0.15;fill:url(#linearGradient21);fill-opacity:1;stroke:none;stroke-width:0.499999"
       id="path2"
       d="m 115.04036,83.004016 c -0.0443,0.450554 -0.10706,0.899673 -0.13302,1.351659 -0.18355,3.195507 -0.27648,6.395698 -0.44873,9.591836 -0.45557,8.453609 -0.99059,16.899329 -1.59142,25.343719 -0.21798,2.77119 -0.43595,5.54239 -0.65393,8.31358 0,0 2.15635,1.11799 2.15635,1.11799 v 0 c 0.17628,-2.79259 0.35256,-5.58519 0.52884,-8.37779 0.80905,-10.70859 0.50895,-7.32267 1.47886,-17.87006 0.34497,-3.751457 0.80862,-8.953133 1.29962,-12.802735 0.34751,-2.724531 0.39482,-2.835802 0.81173,-4.818502 z" />
    <path
       style="opacity:0.15;fill:url(#linearGradient20);fill-opacity:1;stroke:none;stroke-width:0.499999"
       id="path3"
       d="m 157.24352,77.373709 c -0.46785,3.452765 -0.53964,6.941127 -0.78651,10.411992 -0.14064,1.977364 -0.32492,3.95138 -0.48738,5.927071 -1.00927,10.058368 -2.2419,20.099328 -4.07796,30.042618 -0.14493,0.72212 -0.28985,1.44423 -0.43477,2.16635 0,0 3.1628,1.6785 3.1628,1.6785 v 0 c 0.10209,-0.74627 0.20417,-1.49253 0.30625,-2.2388 1.31315,-10.09006 2.33157,-20.21518 3.60678,-30.309995 0.63632,-5.285978 1.17441,-10.605092 2.21072,-15.831415 z" />
    <path
       style="opacity:0.15;fill:url(#linearGradient19);stroke:none;stroke-width:0.499999"
       id="path4"
       d="m 161.6853,104.61968 c 1.61768,-1.4286 3.49841,-2.51691 5.40514,-3.50779 1.58279,-0.71262 3.24971,-1.379127 4.98905,-1.590017 0.85948,-0.10421 1.34472,-0.0291 2.19748,0.0319 0.34215,0.0667 0.69388,0.0956 1.02646,0.19998 0.32358,0.10162 1.2195,0.589837 0.92935,0.414217 -0.75873,-0.459267 -1.50533,-0.965867 -2.3393,-1.267647 -0.36029,-0.13038 0.60456,0.47314 0.87994,0.73955 0.74203,0.717897 0.92321,1.053837 1.51989,1.891487 1.17516,1.83562 1.74281,3.77279 1.74373,5.95283 2.1e-4,0.50135 -0.0461,1.00164 -0.0691,1.50246 -0.31593,2.90959 -1.02651,5.75434 -1.51303,8.6364 -0.18259,1.61158 -0.41206,3.23237 -0.35445,4.85895 0.0308,0.86845 0.087,1.09973 0.20977,1.93103 0.1638,0.7387 0.3595,1.65318 1.09018,2.05962 3.89181,2.16475 2.44482,2.15182 4.55026,1.99497 0.85695,-0.22109 1.6607,-0.58874 2.46333,-0.95226 l -3.19304,-2.12141 v 0 c -0.77714,0.34011 -1.55277,0.69685 -2.40686,0.79478 -1.76854,-0.14152 5.28192,3.32726 2.22587,1.70455 -1.23399,-0.65523 -1.47078,-2.40243 -1.55861,-3.69404 -0.10096,-1.60951 0.11484,-3.2186 0.29963,-4.81383 0.44811,-2.90625 1.10424,-5.77673 1.48765,-8.69323 0.0967,-1.42614 0.19753,-2.86296 -0.1023,-4.2774 -0.25354,-1.19599 -0.82074,-2.32513 -1.41787,-3.37816 -0.57095,-0.85493 -0.76347,-1.22174 -1.47082,-1.97056 -1.42761,-1.511297 -3.07055,-2.180417 -5.03773,-3.251781 -0.30272,-0.164869 -0.6395,-0.264027 -0.97384,-0.347937 -0.34262,-0.08599 -0.69846,-0.106278 -1.04769,-0.159417 -0.95624,-0.03245 -1.27586,-0.08741 -2.23497,0.06132 -1.74908,0.271233 -3.41579,0.950757 -5.00376,1.703798 -1.96798,1.023307 -3.90116,2.132787 -5.66829,3.480027 z" />
    <path
       style="opacity:0.15;fill:url(#linearGradient18);stroke:none;stroke-width:0.499999"
       id="path7"
       d="m 204.74368,83.626409 c 1.45547,-0.868712 3.10662,-1.257197 4.75043,-1.594655 0.55995,-0.114953 1.11814,-0.252211 1.68709,-0.307485 0.59013,-0.05733 1.18566,-0.01947 1.77849,-0.0292 1.30366,0.172958 1.92214,0.220706 3.33251,0.940297 0.51288,0.261678 0.94877,0.566659 1.32376,0.988449 0.35463,0.398897 0.64236,0.852586 0.96354,1.278877 1.14933,1.87996 1.68257,3.950899 1.24735,6.143755 -0.33029,1.66416 -0.64239,2.011354 -1.41437,3.528036 -2.14838,3.181898 -5.25988,5.433617 -8.63159,7.179687 -0.533,0.27602 -1.08533,0.51297 -1.62799,0.76946 -1.30986,0.56298 -2.67703,0.94731 -4.08421,1.16366 -0.29069,0.0447 -0.58393,0.071 -0.87642,0.10185 -0.12651,0.0133 -0.48197,-0.046 -0.3804,0.0306 1.11331,0.83945 2.32426,1.54089 3.48639,2.31133 1.7469,0.007 3.51043,-0.004 5.25084,0.17602 1.18699,0.12289 1.60839,0.24373 2.74339,0.48786 0.35441,0.11484 0.71885,0.20238 1.06322,0.34451 0.31572,0.13031 1.21177,0.63098 0.91048,0.47009 -0.8268,-0.44152 -1.59769,-1.01612 -2.48707,-1.31201 -0.30484,-0.10142 0.45988,0.45125 0.65859,0.70369 0.57535,0.73087 0.65594,1.03004 1.05395,1.87501 0.79648,2.10742 0.9648,4.35419 0.4706,6.55712 -0.11886,0.52987 -0.30075,1.0436 -0.45113,1.5654 -0.81593,2.13119 -1.99068,4.13543 -3.69909,5.67714 -1.17579,1.06107 -1.57816,1.19484 -2.96157,1.99749 -0.61821,0.26054 -1.21645,0.57478 -1.85464,0.78163 -3.36623,1.09107 -7.06508,1.19897 -10.56248,0.90014 -0.83286,-0.0712 -1.65814,-0.21311 -2.48721,-0.31967 l -2.08445,-0.41799 2.8777,2.17328 v 0 c 0.67959,0.11806 1.35917,0.23611 2.03876,0.35417 0.82319,0.0908 1.64345,0.21398 2.46957,0.27237 3.52042,0.24881 7.36772,0.12159 10.75673,-0.95477 0.65692,-0.20864 1.27008,-0.53587 1.90512,-0.80381 1.4467,-0.84221 1.81872,-0.95219 3.04124,-2.06838 1.74033,-1.58896 2.92704,-3.65542 3.79836,-5.82155 0.16432,-0.53189 0.3613,-1.05476 0.49294,-1.59566 0.54576,-2.24248 0.44331,-4.5401 -0.30534,-6.71935 -0.2958,-0.70596 -0.95615,-2.29041 -1.60958,-2.74586 -0.42713,-0.29771 -3.43787,-2.34001 -4.97288,-2.8863 -0.34427,-0.12251 -0.70404,-0.19606 -1.05606,-0.29409 -1.18089,-0.2199 -1.49617,-0.30519 -2.73447,-0.4179 -1.81082,-0.16481 -3.63564,-0.15331 -5.44715,-0.3135 0.9723,0.76136 1.89825,1.58595 2.9169,2.28408 0.0845,0.0579 0.19598,-0.061 0.2963,-0.0819 0.27792,-0.0579 0.55979,-0.0958 0.83756,-0.15439 1.39093,-0.29365 2.75305,-0.69866 4.04347,-1.30501 4.03113,-2.05238 7.67891,-4.41569 10.34866,-8.166913 0.8123,-1.547612 1.14321,-1.921418 1.52135,-3.62149 0.51579,-2.31898 0.0448,-4.349168 -1.10934,-6.381787 -0.31866,-0.446037 -0.60316,-0.918578 -0.95598,-1.338109 -1.6644,-1.97907 -3.19942,-2.597767 -5.77165,-4.076451 -0.99387,-0.571344 -2.30978,-0.995913 -3.43066,-1.204164 -0.60053,-0.111575 -1.21437,-0.132816 -1.82155,-0.199223 -0.60831,0.02238 -1.2199,1.43e-4 -1.82492,0.06713 -0.57009,0.06312 -1.12864,0.205867 -1.69031,0.322091 -1.71549,0.354975 -3.42487,0.749141 -5.01452,1.505707 z" />
    <circle
       id="path13"
       style="opacity:0.15;fill:#ffad00;fill-opacity:1;stroke:#000000;stroke-width:0.264583"
       cx="308.76315"
       cy="65.367203"
       r="0.068034969" />
    <circle
       id="path14"
       style="opacity:0.15;fill:#ffad00;fill-opacity:1;stroke:#000000;stroke-width:0.264583"
       cx="240.11105"
       cy="95.909302"
       r="0.068034969" />
    <path
       style="opacity:0.15;fill:#ffad00;fill-opacity:1;stroke:none;stroke-width:0.499999"
       id="path425"
       d="m 86.718598,145.07299 c 20.704982,-2.73617 41.525992,-4.43961 62.331372,-6.19584 22.52697,-1.78814 45.10986,-3.06845 67.71119,-3.29323 9.49949,-0.0945 12.78721,0.0354 21.8217,0.22418 0,0 -3.33143,-2.42313 -3.33143,-2.42313 v 0 c -7.64683,0.084 -13.22293,0.11277 -21.0429,0.35578 -22.44095,0.69735 -44.84702,2.23092 -67.25075,3.64131 -21.65503,1.58357 -43.30627,3.29751 -64.99752,4.31361 z" />
    <path
       style="opacity:0.15;fill:#ffad00;fill-opacity:1;stroke:none;stroke-width:0.499999"
       id="path426"
       d="m 145.82371,152.52349 c 0.30911,-0.0937 0.61322,-0.20578 0.92732,-0.28103 3.73617,-0.89509 7.61811,-1.36556 11.41622,-1.86084 6.83313,-0.89107 9.12637,-1.09503 16.23457,-1.86187 8.98258,-0.92065 17.99547,-1.46421 27.00706,-1.9959 0,0 -2.36444,-1.69469 -2.36444,-1.69469 v 0 c -8.98348,0.63038 -17.96806,1.25351 -26.93814,2.05799 -6.97747,0.6631 -9.81649,0.91257 -16.57715,1.62762 -3.3856,0.35808 -6.40178,0.67877 -9.72498,1.16253 -1.98007,0.28824 -1.78278,0.2659 -3.25872,0.62192 z" />
    <path
       style="opacity:0.15;fill:#ffad00;fill-opacity:1;stroke:none;stroke-width:0.499999"
       id="path434"
       d="m 118.09063,104.8652 c 1.11743,-0.10338 2.23968,-0.14085 3.35987,-0.2012 3.28909,-0.1772 0.90766,-0.0728 4.56947,-0.2092 0.98456,-0.036 1.96886,-0.0803 2.95369,-0.10805 1.03034,-0.0291 2.06112,-0.0395 3.09161,-0.0625 1.05292,-0.0236 2.10565,-0.0555 3.15861,-0.0772 2.75531,-0.0568 5.51132,-0.0957 8.26691,-0.13716 2.90454,-0.0729 5.81296,-0.0924 8.71377,-0.26983 0.74874,-0.0699 1.50544,-0.10439 2.24371,-0.25657 0.18664,-0.0411 0.0981,-0.022 0.26555,-0.0575 0,0 -1.60957,-1.1112 -1.60957,-1.1112 v 0 c -0.15448,0.0436 -0.0732,0.0209 -0.24388,0.0679 -0.67096,0.16533 -1.35482,0.27435 -2.03856,0.37091 -2.729,0.31279 -5.47119,0.48911 -8.21453,0.61835 -1.95265,0.0877 -3.08579,0.14339 -5.07512,0.21148 -4.11586,0.14087 -8.23476,0.20817 -12.35299,0.20302 -3.76294,0.0104 -1.41445,0.0197 -4.89667,-0.0277 -1.26023,-0.0172 -2.52262,-0.0162 -3.78043,-0.10766 z" />
    <path
       style="opacity:0.15;fill:#ffad00;fill-opacity:1;stroke:none;stroke-width:0.499999"
       id="path435"
       d="m 126.11297,104.15927 c -0.0328,0.57805 -0.018,1.15718 -0.0399,1.73575 -0.009,0.24825 -0.024,0.49627 -0.036,0.7444 -0.0766,1.05751 -0.12937,2.11558 -0.17656,3.17472 -0.0211,0.47409 -0.0493,0.94788 -0.0649,1.42218 -0.216,6.52123 0.15106,-3.20875 -0.1012,3.31772 -0.0819,2.49861 -0.32664,4.9879 -0.63303,7.46781 -0.1202,1.04373 -0.2511,2.08497 -0.43567,3.11932 -0.0574,0.36123 -0.12443,0.7227 -0.29055,1.05122 0,0 1.59711,1.1159 1.59711,1.1159 v 0 c 0.14736,-0.36445 0.20148,-0.75181 0.25582,-1.1393 0.11943,-1.07396 0.21887,-2.15009 0.2856,-3.22873 0.14802,-2.54594 0.26645,-5.09337 0.37894,-7.64112 0.0666,-1.55322 0.13871,-3.10775 0.28602,-4.65601 0.0393,-0.41301 0.0966,-0.82413 0.14193,-1.23651 0.31951,-2.8602 -0.0927,0.74375 0.20352,-1.82853 0.0267,-0.23927 0.0534,-0.47855 0.0802,-0.71782 0.0227,-0.19289 0.0455,-0.38576 0.0672,-0.57875 0.0264,-0.23646 0.0449,-0.4738 0.0743,-0.70991 0.0126,-0.0988 0.0384,-0.23354 0.0573,-0.33569 z" />
    <path
       style="opacity:0.15;fill:#ffad00;fill-opacity:1;stroke:none;stroke-width:0.499999"
       id="path436"
       d="m 137.58439,104.41346 c 0.12333,2.48182 -0.0775,4.96557 -0.22529,7.4419 -0.0618,0.72032 -0.1236,1.44065 -0.18565,2.16097 -0.17717,2.05928 -0.19697,2.41243 -0.41431,4.43941 -0.17686,1.64981 -0.39154,3.29211 -0.63168,4.93363 -0.15351,1.00491 -0.31177,2.00926 -0.49131,3.00989 0,0 1.56145,1.13848 1.56145,1.13848 v 0 c 0.0417,-1.09115 0.0533,-2.18355 0.12991,-3.27328 0.26459,-3.90006 0.58949,-7.79611 1.03501,-11.68006 0.078,-0.65857 0.16121,-1.31654 0.23371,-1.97573 0.18501,-1.68191 0.3009,-3.37281 0.56812,-5.04484 z" />
    <path
       style="opacity:0.15;fill:#ffad00;fill-opacity:1;stroke:none;stroke-width:0.473723"
       id="path437"
       d="m 139.33066,118.76484 c 0.14286,-0.4307 0.31548,-0.86296 0.57198,-1.22689 0.074,-0.10505 0.15996,-0.19882 0.23994,-0.29823 0.1059,-0.0878 0.20584,-0.18544 0.3177,-0.26359 0.54596,-0.38142 1.20829,-0.59251 1.84546,-0.66648 0.17961,-0.0209 0.36077,-0.0186 0.54111,-0.0287 0.52894,0.0978 0.75831,0.10571 1.26385,0.34482 0.21556,0.10199 0.81119,0.51867 0.62035,0.36744 -1.6837,-1.33423 -0.33852,-0.0698 -0.25305,0.0305 0.13735,0.16015 0.2528,0.34195 0.37922,0.51293 0.0979,0.17989 0.21345,0.34931 0.29393,0.53967 0.4345,1.02787 0.38609,2.20141 0.33648,3.30433 -0.0169,0.38315 -0.0425,0.76575 -0.0638,1.14864 -0.10165,1.29709 -0.15885,2.59644 -0.17335,3.89807 0,0 1.35023,0.82301 1.35023,0.82301 v 0 c -0.0161,-0.25769 -0.0392,-0.51493 -0.0477,-0.77308 -0.0377,-1.06105 0.0152,-2.12155 0.10071,-3.17823 0.0804,-0.83521 0.13699,-1.29493 0.17202,-2.11866 0.0124,-0.30158 0.0308,-0.604 0.0172,-0.90553 -0.0182,-0.41228 -0.12351,-1.04645 -0.27035,-1.43359 -0.0763,-0.20149 -0.19645,-0.37865 -0.29467,-0.56798 -0.26126,-0.36851 -0.51179,-0.77342 -0.86195,-1.05135 -0.59747,-0.47422 -1.21903,-0.91058 -1.84587,-1.33516 -0.60558,-0.41015 -1.2837,-0.60472 -1.98251,-0.68326 -0.18625,0.0128 -0.37338,0.0147 -0.55865,0.0394 -0.65339,0.0862 -1.36135,0.32061 -1.92448,0.70677 -0.12232,0.0839 -0.23207,0.18864 -0.34811,0.28295 -0.0882,0.10348 -0.18228,0.201 -0.26453,0.31032 -0.27213,0.36178 -0.44946,0.79515 -0.66938,1.19468 z" />
    <path
       style="opacity:0.15;fill:#ffad00;fill-opacity:1;stroke:none;stroke-width:0.499999"
       id="path458"
       d="m 127.1577,118.30319 c 0.0607,-0.002 0.12129,-0.004 0.18196,-0.004 1.06892,0.003 2.13557,0.10932 3.19907,0.20492 1.37172,0.1282 2.74078,0.28205 4.1117,0.4182 0.65306,0.0601 1.30482,0.13619 1.95879,0.18615 0.0844,0.007 0.16721,0.008 0.25085,-0.004 0,0 -0.36716,-0.31606 -0.36716,-0.31606 v 0 c -0.0751,0.0102 -0.1504,0.0152 -0.22632,0.0142 -0.62674,-0.0111 -1.25183,-0.065 -1.8764,-0.11454 -0.43663,-0.0364 -0.72634,-0.0595 -1.1675,-0.10041 -0.96572,-0.0896 -1.93025,-0.19203 -2.89662,-0.27475 -0.7848,-0.0712 -1.56979,-0.14073 -2.35399,-0.21826 -0.20345,-0.0199 -0.40656,-0.0432 -0.61006,-0.0625 -0.1854,-0.0179 -0.37734,-0.0325 -0.56409,-0.0465 z" />
    <path
       style="opacity:0.15;fill:#ffad00;fill-opacity:1;stroke:none;stroke-width:0.499999"
       id="path459"
       d="m 128.4935,118.32374 c -0.0121,0.65598 -0.0755,1.31031 -0.13076,1.96375 -0.12436,1.45867 -0.28176,2.9141 -0.44651,4.36865 -0.0723,0.70127 -0.18797,1.39728 -0.25255,2.09933 -0.0101,0.0845 -0.0102,0.16952 -0.01,0.25446 0,0 0.40575,0.25779 0.40575,0.25779 v 0 c -0.003,-0.0876 -0.008,-0.17511 -0.008,-0.26278 -0.005,-0.72789 0.0674,-1.45317 0.12687,-2.17787 0.13559,-1.45176 0.29883,-2.90068 0.47865,-4.34762 0.0788,-0.63099 0.15853,-1.26187 0.24662,-1.89163 z" />
    <path
       style="opacity:0.15;fill:#ffad00;fill-opacity:1;stroke:none;stroke-width:0.499999"
       id="path460"
       d="m 132.13219,118.67826 c -0.0457,0.50578 -0.0842,1.01228 -0.12305,1.51869 -0.0115,0.14718 -0.024,0.29431 -0.0353,0.44154 -0.0413,0.53762 -0.084,1.07468 -0.14246,1.61082 -0.0356,0.32603 -0.0893,0.73921 -0.13076,1.0667 -0.0987,0.78113 -0.22176,1.55895 -0.32286,2.33973 -0.054,0.43499 -0.1122,0.87006 -0.15125,1.30673 -0.009,0.12252 -0.006,0.0649 -0.0137,0.17266 0,0 0.39258,0.27545 0.39258,0.27545 v 0 c 9.9e-4,-0.1121 3.3e-4,-0.0523 0.003,-0.17938 0.0149,-0.44692 0.0478,-0.89351 0.10346,-1.33725 0.0954,-0.7892 0.20403,-1.57678 0.28395,-2.3678 0.11309,-1.03419 0.23904,-2.06699 0.3327,-3.10322 0.0493,-0.48797 0.0919,-0.97884 0.20412,-1.45744 z" />
    <path
       style="opacity:0.15;fill:#ffad00;fill-opacity:1;stroke:none;stroke-width:0.499999"
       id="path461"
       d="m 132.36138,123.68063 c 0.0257,-0.11377 0.0613,-0.23301 0.13016,-0.32899 0.0192,-0.0267 0.0433,-0.0496 0.065,-0.0743 0.0285,-0.0236 0.0548,-0.0503 0.0854,-0.0708 0.18051,-0.12077 0.40778,-0.16396 0.61975,-0.18378 0.0713,-0.007 0.14311,-0.007 0.21464,-0.0109 0.24422,4.2e-4 0.4935,0.0305 0.69244,0.18541 0.0417,0.0325 0.15975,0.13756 0.11473,0.10976 -0.0831,-0.0514 -0.15355,-0.12082 -0.23034,-0.18118 0.0291,0.0465 0.0613,0.0913 0.0875,0.13961 0.10583,0.19556 0.17102,0.42109 0.19931,0.64103 0.007,0.0577 0.009,0.11605 0.0143,0.17409 0.0164,0.48948 -0.0911,0.97135 -0.17518,1.4507 -0.0767,0.43782 -0.15684,0.87558 -0.21051,1.31697 -0.0154,0.14569 -0.0132,0.29132 0.004,0.43644 0,0 0.38226,0.28962 0.38226,0.28962 v 0 c -0.0316,-0.14531 -0.039,-0.29173 -0.0295,-0.44041 0.0325,-0.44764 0.1082,-0.8907 0.18604,-1.33236 0.0459,-0.26354 0.0976,-0.52614 0.13942,-0.79037 0.0173,-0.11249 0.0533,-0.3523 0.0613,-0.47085 0.004,-0.0607 6.6e-4,-0.12158 0.001,-0.18238 -0.004,-0.0589 -0.004,-0.11794 -0.0101,-0.17654 -0.0239,-0.21967 -0.09,-0.45625 -0.1886,-0.65423 -0.0248,-0.0497 -0.0554,-0.0962 -0.0831,-0.14422 -0.14455,-0.14438 -0.28673,-0.29115 -0.43365,-0.43311 -0.0383,-0.0371 -0.0779,-0.0735 -0.1218,-0.10359 -0.20684,-0.142 -0.45916,-0.15935 -0.70198,-0.15666 -0.29593,0.0152 -0.61708,0.0287 -0.87405,0.19585 -0.033,0.0216 -0.0616,0.0494 -0.0924,0.074 -0.0247,0.0264 -0.0521,0.0506 -0.0741,0.0791 -0.0187,0.0243 -0.0325,0.0522 -0.0473,0.0791 -0.044,0.0796 -0.0751,0.16466 -0.10702,0.24952 z" />
    <path
       style="opacity:0.15;fill:#ffad00;fill-opacity:1;stroke:none;stroke-width:0.499999"
       id="path462"
       d="m 128.57279,123.62675 c 0.0629,0.004 0.12555,0.0115 0.18845,0.0152 0.16589,0.01 0.33223,0.0113 0.49829,0.0179 0.44296,0.0176 0.43892,0.0194 0.90055,0.0456 0.4391,0.0258 0.87737,0.063 1.31555,0.10083 0,0 -0.31971,-0.28736 -0.31971,-0.28736 v 0 c -0.43362,-0.0276 -0.86721,-0.0555 -1.30057,-0.0867 -0.54979,-0.038 -1.10136,-0.0672 -1.64825,-0.13669 z" />
    <path
       style="opacity:0.15;fill:#ffad00;fill-opacity:1;stroke:none;stroke-width:0.499999"
       id="path469"
       d="m 163.66824,120.46412 c 0.0625,-0.0179 0.12394,-0.0397 0.18737,-0.0538 0.75916,-0.16862 1.54376,-0.23841 2.31697,-0.29893 1.16853,-0.0914 1.56145,-0.0952 2.75019,-0.14238 1.53127,-0.0394 2.17467,-0.0534 3.70593,-0.0204 l -1.46079,-1.05811 c -1.43595,0.0797 -1.98357,0.17634 -3.42072,0.23058 -1.89891,0.0553 -3.79964,0.0836 -5.69596,0.20289 z" />
    <path
       style="opacity:0.15;fill:#ffad00;fill-opacity:1;stroke:none;stroke-width:0.499999"
       id="path470"
       d="m 173.02644,119.35305 c -0.33518,-1.94046 -0.83883,-2.97542 -1.12533,-3.42727 -0.0811,-0.12797 -0.17118,-0.25007 -0.25677,-0.3751 -0.27222,-0.34285 -0.30432,-0.41001 -0.6284,-0.70985 -0.1834,-0.16968 -0.53203,-0.44997 -0.74865,-0.57863 -1.78908,-1.06254 -1.34244,-0.84657 -2.39092,-1.31404 -0.62713,-0.19755 -1.35634,-0.44503 -2.0248,-0.39036 -0.13778,0.0113 -0.27277,0.0451 -0.40916,0.0677 -0.35997,0.10458 -0.56391,0.14918 -0.90917,0.31204 -0.17395,0.0821 -0.34033,0.17949 -0.50682,0.27578 -0.31375,0.18148 -0.6855,0.41857 -0.97867,0.63362 -0.14444,0.10596 -0.28139,0.22177 -0.42208,0.33265 -0.12907,0.13408 -0.26638,0.26069 -0.38721,0.40224 -0.45926,0.53799 -0.83347,1.17972 -1.07559,1.8439 -0.0598,0.16394 -0.10445,0.333 -0.15667,0.4995 -0.22577,0.80796 -0.36315,1.64248 -0.40467,2.48073 -0.008,0.15975 -0.007,0.31982 -0.0111,0.47973 0.008,0.27963 0.01,0.6774 0.0602,0.95487 0.10929,0.60432 0.34722,1.18621 0.63993,1.72279 0.10935,0.20044 0.23485,0.39163 0.35227,0.58745 0.59449,0.88386 1.31578,1.68099 2.17781,2.31114 0.14041,0.10263 0.28892,0.19371 0.43337,0.29057 0.85641,0.48271 1.52652,1.01456 2.42637,1.2709 0.59886,0.1706 1.2285,0.20664 1.84624,0.24644 0.13536,-7.9e-4 0.27134,0.0105 0.40609,-0.002 0.30244,-0.029 0.58833,-0.11846 0.87366,-0.21732 0.54369,-0.18837 0.99062,-0.41633 1.49515,-0.68758 0.66205,-0.4077 1.32318,-0.85101 1.84229,-1.43798 0.0735,-0.0831 0.13887,-0.17317 0.20831,-0.25975 0.15088,-0.20223 0.26831,-0.4239 0.37872,-0.64957 l -1.67624,-0.9429 v 0 c -0.0847,0.22137 -0.17744,0.43816 -0.31496,0.63347 -0.0614,0.0844 -0.11818,0.17235 -0.18411,0.25325 -0.47873,0.58746 -1.10162,1.03964 -1.74688,1.42609 -0.16472,0.0856 -0.32612,0.17799 -0.49416,0.25692 -0.70824,0.33266 -1.47585,0.57232 -2.2648,0.54023 -0.60907,-0.0386 -1.21919,-0.0885 -1.80323,-0.2804 -0.14615,-0.048 -0.55345,-0.25995 -0.42963,-0.16864 0.34846,0.25698 0.74117,0.44779 1.11175,0.67169 -0.15153,-0.0945 -0.30732,-0.18236 -0.45458,-0.28334 -0.88473,-0.6067 -1.62863,-1.38737 -2.23959,-2.26612 -0.26378,-0.43212 -0.43178,-0.67201 -0.63168,-1.13532 -0.27469,-0.63662 -0.39777,-1.31592 -0.39419,-2.00717 7.9e-4,-0.15743 -0.004,-0.31497 0.002,-0.47229 0.0312,-0.82659 0.15723,-1.65203 0.37582,-2.44935 0.0496,-0.16161 0.0916,-0.32574 0.14869,-0.48485 0.22688,-0.63216 0.58549,-1.28508 1.02957,-1.79098 0.11861,-0.13512 0.255,-0.25352 0.3825,-0.38028 0.13453,-0.10973 0.26485,-0.22485 0.40359,-0.3292 0.71152,-0.53513 1.51179,-0.95858 2.39438,-1.11635 0.13673,-0.011 0.27305,-0.0297 0.41017,-0.0329 0.66984,-0.0156 1.33017,0.19499 1.94903,0.42608 0.64954,0.30725 1.01612,0.49659 -0.7317,-0.48588 -0.13605,-0.0765 0.26433,0.1664 0.39091,0.2577 0.23196,0.16731 0.51604,0.40336 0.71228,0.61259 0.10464,0.11157 0.19453,0.2361 0.29179,0.35415 0.0854,0.11984 0.17561,0.23639 0.25617,0.35953 0.36057,0.56689 0.89409,2.11358 1.02684,3.2989 z" />
    <path
       style="opacity:0.15;fill:#ffad00;fill-opacity:1;stroke:none;stroke-width:0.499999"
       id="path471"
       d="m 202.56842,82.199902 c 0.17347,1.055386 0.44958,2.089693 0.65375,3.139409 0.16225,0.699198 0.36541,1.388263 0.55418,2.080725 0,0 1.74544,0.829331 1.74544,0.829331 v 0 c -0.20507,-0.694396 -0.40352,-1.390401 -0.60161,-2.086771 -0.21144,-1.024935 -0.48113,-2.043718 -0.5881,-3.086095 z" />
    <path
       style="opacity:0.15;fill:#ffad00;fill-opacity:1;stroke:none;stroke-width:0.499999"
       id="path472"
       d="m 206.23716,88.382815 c 0.85034,-0.496863 1.77593,-0.866081 2.7302,-1.109501 0.26456,-0.06748 0.53351,-0.116358 0.80026,-0.17454 0.98104,-0.1427 1.9769,-0.337471 2.97398,-0.287875 0.44981,0.02238 0.57544,0.0678 0.99564,0.162066 0.12089,0.04827 0.24492,0.08932 0.36267,0.144814 0.10093,0.04758 0.38935,0.218239 0.29197,0.16374 -0.46741,-0.261609 -0.92372,-0.544108 -1.4021,-0.785072 -0.0942,-0.04745 0.17018,0.126164 0.24384,0.20165 0.2408,0.246756 0.37191,0.469823 0.56667,0.756618 0.52438,0.808104 0.9278,1.701414 1.10792,2.652427 0.0325,0.171654 0.0447,0.346535 0.0671,0.519803 0.003,0.165423 0.023,0.331494 0.008,0.496268 -0.0872,0.966658 -0.84887,1.646778 -1.50248,2.276751 -1.05669,0.922289 -2.18533,1.755835 -3.38052,2.488609 -1.01887,0.5988 -2.0617,1.154743 -3.1045,1.710209 -1.1658,0.615749 -2.37498,1.136621 -3.58895,1.647961 -0.82324,0.33311 -1.66834,0.60521 -2.4995,0.916737 -0.50117,0.18232 -1.0312,0.24979 -1.55249,0.34684 -0.0971,0.0164 -0.19431,0.0329 -0.29146,0.0493 0,0 1.59126,1.11535 1.59126,1.11535 v 0 c 0.0974,-0.0169 0.19472,-0.0338 0.29208,-0.0507 0.53206,-0.0921 1.0687,-0.16841 1.57092,-0.37916 0.81553,-0.32475 1.64439,-0.61452 2.45353,-0.95564 1.21105,-0.526097 2.4254,-1.043167 3.59228,-1.664047 1.05307,-0.550196 2.10891,-1.097847 3.12581,-1.713424 1.18634,-0.765251 2.29593,-1.635429 3.38825,-2.528868 0.69332,-0.661125 1.49438,-1.382798 1.60218,-2.398001 0.0182,-0.171469 -0.002,-0.344853 -0.004,-0.517282 -0.0207,-0.180914 -0.0298,-0.36354 -0.0622,-0.542742 -0.17347,-0.961255 -0.56201,-1.877521 -1.07097,-2.705939 -0.0818,-0.130101 -0.40332,-0.652944 -0.51423,-0.789014 -0.0682,-0.0836 -0.14148,-0.167243 -0.23262,-0.224914 -0.85435,-0.540589 -1.62951,-1.108483 -2.5837,-1.385703 -0.42799,-0.07147 -0.53784,-0.105476 -0.99307,-0.109791 -0.99604,-0.0094 -1.98455,0.189772 -2.9642,0.339175 -0.27266,0.05963 -0.54763,0.109527 -0.81798,0.178903 -0.9853,0.252854 -1.9258,0.648264 -2.84816,1.07066 z" />
    <path
       style="opacity:0.15;fill:#ffad00;fill-opacity:1;stroke:none;stroke-width:0.499999"
       id="path473"
       d="m 199.6148,101.48771 c 0.20009,0.95829 0.44603,2.18558 0.55048,3.12432 0.0285,0.35494 0.0228,0.57192 0.0113,1.41024 l 1.22344,0.43262 c 0.10051,-0.79728 0.0469,-0.38864 0.0867,-1.19074 0.002,-0.97266 0.0153,-1.94817 -0.10437,-2.91551 z" />
    <path
       style="opacity:0.15;fill:#ffad00;fill-opacity:1;stroke:none;stroke-width:0.499999"
       id="path475"
       d="m 190.88626,122.3361 c 0.0687,0.49144 0.11488,0.98554 0.14428,1.48086 0.023,0.3754 0.0182,0.75097 -7.9e-4,1.12625 0,0 1.63453,0.82631 1.63453,0.82631 v 0 c -0.0419,-0.39009 -0.0747,-0.78093 -0.0868,-1.17325 -0.0146,-0.45705 -0.0269,-0.91815 0.0556,-1.3701 z" />
    <path
       style="opacity:0.15;fill:#ffad00;fill-opacity:1;stroke:none;stroke-width:0.499999"
       id="path494"
       d="m 160.03331,77.150549 c 1.07954,1.598189 2.25831,3.126036 3.41308,4.670012 2.63464,3.560093 5.28894,7.105439 7.95171,10.644518 0.48149,0.637583 0.9629,1.275223 1.44446,1.91275 1.44936,1.918761 1.51526,2.013252 2.99285,3.93586 1.07839,1.403174 2.17253,2.794221 3.24695,4.200421 0.56653,0.74147 1.12379,1.48997 1.68568,2.23495 2.4728,3.34324 4.91592,6.7082 7.31697,10.10331 1.00443,1.43042 2.00052,2.8663 2.97682,4.31605 0.29826,0.44384 0.61625,0.87294 0.97081,1.27321 0.0325,0.0411 0.0649,0.0821 0.0974,0.1232 0,0 1.79592,0.77475 1.79592,0.77475 v 0 c -0.0322,-0.0459 -0.0645,-0.0917 -0.0967,-0.13762 -0.29544,-0.35554 0.0702,0.0752 -0.25701,-0.27975 -0.29387,-0.31879 -0.53845,-0.68007 -0.81205,-1.01537 -1.06911,-1.47109 -2.12147,-2.95428 -3.20221,-4.41698 -2.54452,-3.42053 -5.11287,-6.82323 -7.64959,-10.24962 -0.7341,-0.97723 -2.5744,-3.43074 -3.32345,-4.41311 -0.50807,-0.6663 -1.02517,-1.325687 -1.5345,-1.991017 -1.48202,-1.935913 -2.93821,-3.89125 -4.40917,-5.835525 -2.62546,-3.490685 -5.23363,-6.994377 -7.75842,-10.558973 -0.37566,-0.525634 -1.27655,-1.782659 -1.67652,-2.354757 -0.36318,-0.519475 -0.67323,-0.966782 -1.0001,-1.500264 -0.15542,-0.253664 -0.23397,-0.408377 -0.36199,-0.650658 z" />
    <path
       style="opacity:0.15;fill:#ffad00;fill-opacity:1;stroke:none;stroke-width:0.499999"
       id="path497"
       d="m 181.29583,99.756833 c 0.27199,0.354127 0.54733,0.705657 0.8045,1.070847 0.20093,0.28532 0.26281,0.38484 0.45168,0.67305 0.23125,0.3818 0.12436,0.19763 0.32249,0.55144 0,0 1.61389,0.71351 1.61389,0.71351 v 0 c -0.24853,-0.37557 -0.12027,-0.18041 -0.38449,-0.58567 -0.27572,-0.40938 -0.17763,-0.26168 -0.45122,-0.67624 -0.17835,-0.27026 -0.36325,-0.53898 -0.52111,-0.82213 -0.0252,-0.0451 -0.0463,-0.0924 -0.0694,-0.13864 z" />
    <path
       style="opacity:0.15;fill:#ffad00;fill-opacity:1;stroke:none;stroke-width:0.499999"
       id="path498"
       d="m 184.73408,99.760203 c -0.0261,0.19707 -0.10262,0.381827 -0.15871,0.570917 -0.0351,0.11836 -0.0636,0.23862 -0.0985,0.35702 -0.11821,0.40026 -0.14335,0.45404 -0.28554,0.85657 -0.26756,0.82121 -0.63243,1.60519 -1.01324,2.37872 -0.0804,0.16311 -0.17051,0.32228 -0.23347,0.49346 -0.0384,0.10454 -0.0697,0.21338 -0.0997,0.32063 -0.0395,0.12477 -0.0568,0.25473 -0.0875,0.38169 0,0 1.70486,0.91016 1.70486,0.91016 v 0 c 0.019,-0.12682 0.0366,-0.25381 0.0713,-0.3776 0.0161,-0.0696 0.0342,-0.13882 0.049,-0.20873 0.0463,-0.21893 0.0778,-0.44128 0.14686,-0.6551 0.24619,-0.83246 0.53159,-1.65516 0.89502,-2.44442 0.0759,-0.17671 0.26972,-0.63387 0.3577,-0.81598 0.0514,-0.10641 0.10959,-0.20941 0.1651,-0.31373 0.0883,-0.1659 0.17427,-0.33555 0.29536,-0.4808 z" />
    <path
       style="opacity:0.15;fill:#ffad00;fill-opacity:1;stroke:none;stroke-width:0.499999"
       id="path499"
       d="m 187.44674,98.301349 c -0.0419,0.306884 -0.0917,0.613824 -0.17388,0.912914 -0.0262,0.0953 -0.0576,0.18918 -0.0864,0.28377 -0.10718,0.33521 -0.26855,0.647427 -0.43119,0.957967 0,0 0.79909,0.45305 0.79909,0.45305 v 0 c 0.14111,-0.32597 0.28809,-0.64978 0.40832,-0.984297 0.0325,-0.0942 0.0667,-0.18782 0.0975,-0.28258 0.0937,-0.28836 0.16196,-0.58411 0.24968,-0.87408 z" />
    <path
       style="opacity:0.15;fill:#ffad00;fill-opacity:1;stroke:none;stroke-width:0.499999"
       id="path500"
       d="m 195.71882,87.350763 c 0.85407,1.865831 1.65578,3.754824 2.46815,5.639041 0,0 1.54932,0.708988 1.54932,0.708988 v 0 c -0.83724,-1.806398 -1.63193,-3.640177 -2.25204,-5.533705 z" />
    <path
       style="opacity:0.15;fill:#ffad00;fill-opacity:1;stroke:none;stroke-width:0.499999"
       id="path501"
       d="m 200.61281,86.010754 c 0.0274,0.06519 0.0578,0.129207 0.0823,0.195559 0.18129,0.491704 0.31757,0.9983 0.49765,1.490739 0.22916,0.626642 0.31115,0.797142 0.57474,1.417765 0.42201,0.863055 0.21353,0.447439 0.62388,1.247627 0,0 1.66102,0.746818 1.66102,0.746818 v 0 c -0.43853,-0.802733 -0.21821,-0.387538 -0.6592,-1.246502 -0.41327,-0.979821 -0.80315,-1.981674 -0.97672,-3.035986 z" />
    <path
       style="opacity:0.15;fill:#ffad00;fill-opacity:1;stroke:none;stroke-width:0.499999"
       id="path502"
       d="m 189.93478,95.830214 c 0.34662,0.811443 0.61987,1.6515 0.92018,2.480726 0.20965,0.556783 0.36841,1.133593 0.64246,1.664333 0.14085,0.272787 0.17393,0.304377 0.34291,0.547547 0.67045,0.70542 0.3546,0.41348 2.12494,1.281 0.077,0.0377 0.93494,0.15533 0.96583,0.15923 0.52127,0.0658 0.78268,0.0825 1.31446,0.12802 1.18322,0.10144 2.36725,0.0114 3.54645,-0.0906 0,0 -1.45265,-1.03169 -1.45265,-1.03169 v 0 c -0.46683,0.0612 -0.72728,0.10256 -1.21121,0.13271 -0.75789,0.0472 -1.51769,0.0293 -2.27354,-0.0417 -0.63744,-0.0693 -1.28004,-0.1316 -1.90522,-0.28152 -0.15078,-0.0362 -0.56766,-0.22742 -0.44641,-0.13078 0.32157,0.2563 1.86325,1.22483 1.06649,0.62003 -0.0649,-0.0795 -0.13447,-0.15535 -0.19458,-0.23851 -0.42399,-0.58653 -0.64776,-1.281247 -0.88577,-1.956107 -0.28994,-0.789362 -0.57742,-1.58203 -0.77527,-2.400513 z" />
    <path
       style="opacity:0.15;fill:#ffad00;fill-opacity:1;stroke:none;stroke-width:0.499999"
       id="path503"
       d="m 75.62232,82.016951 c 0.279066,0.399015 0.584224,0.841581 0.875839,1.218419 2.542599,3.285628 5.246368,6.452082 7.888611,9.656877 5.889159,7.081446 11.633214,14.282013 17.35855,21.496043 3.0474,3.86194 5.96745,7.82379 8.8195,11.83176 0.83543,1.25805 0.44806,0.6486 1.1682,1.82447 0,0 1.70571,0.75315 1.70571,0.75315 v 0 c -0.75279,-1.20297 -0.34595,-0.57957 -1.2279,-1.86536 -2.97902,-4.0167 -5.94724,-8.04519 -9.07318,-11.94913 -5.790647,-7.18808 -11.644757,-14.32505 -17.421431,-21.524519 -2.530843,-3.129838 -5.132208,-6.220478 -7.500501,-9.477676 -0.294936,-0.405638 -0.52302,-0.761053 -0.789673,-1.168517 z" />
    <path
       style="opacity:0.15;fill:#ffad00;fill-opacity:1;stroke:none;stroke-width:0.499999"
       id="path512"
       d="m 99.078373,84.792894 c 5.2e-4,0.06017 0.002,0.120335 0.002,0.180496 -7.9e-4,0.06152 -0.0188,0.690433 -0.0188,0.691443 -0.007,0.662313 0.006,1.32525 0.0132,1.987497 0.002,0.212294 0.004,0.424585 0.005,0.636879 0,0 0.736985,0.373684 0.736985,0.373684 v 0 c -0.007,-0.214474 -0.0133,-0.428948 -0.02,-0.643424 -0.002,-0.232691 -0.007,-0.465386 -0.005,-0.698069 0.007,-0.697463 0.0604,-1.394206 0.15761,-2.08485 z" />
    <path
       style="opacity:0.15;fill:#ffad00;fill-opacity:1;stroke:none;stroke-width:0.499999"
       id="path513"
       d="m 102.94026,85.240172 c -0.0135,0.05729 -0.0305,0.113874 -0.0404,0.171884 -0.0286,0.166653 -0.10918,0.797851 -0.12473,0.913048 -0.0806,0.597204 -0.16676,1.193482 -0.25663,1.789355 0,0 0.74756,0.393917 0.74756,0.393917 v 0 c 0.0749,-0.596148 0.1554,-1.190627 0.26634,-1.781407 0.0686,-0.365525 0.0995,-0.524267 0.2039,-0.857192 0.0167,-0.05314 0.0394,-0.104167 0.0592,-0.156253 z" />
    <path
       style="opacity:0.15;fill:#ffad00;fill-opacity:1;stroke:none;stroke-width:0.499999"
       id="path514"
       d="m 106.41809,85.638034 c 10e-4,0.790119 -0.0326,1.579435 -0.0774,2.368065 0,0 0.74021,0.382797 0.74021,0.382797 v 0 c 0.0491,-0.768416 0.0854,-1.541002 0.20375,-2.3025 z" />
    <path
       style="opacity:0.15;fill:#ffad00;fill-opacity:1;stroke:none;stroke-width:0.499999"
       id="path516"
       d="m 99.636248,91.591934 c 0.0143,0.665488 -0.0668,1.328954 -0.14571,1.988537 -0.0196,0.131953 -0.0393,0.263903 -0.0589,0.395856 0,0 0.788152,0.415002 0.788152,0.415002 v 0 c 0.0163,-0.134157 0.0326,-0.268312 0.0489,-0.402469 0.0802,-0.650155 0.1605,-1.300257 0.24508,-1.949825 z" />
    <path
       style="opacity:0.15;fill:#ffad00;fill-opacity:1;stroke:none;stroke-width:0.499999"
       id="path517"
       d="m 103.01138,91.484227 c 0.005,0.06222 0.0122,0.124309 0.0153,0.186661 0.0136,0.271478 0.01,0.435978 0.008,0.718796 -0.002,0.53349 -0.0158,1.06575 -0.0333,1.59893 -0.006,0.157104 -0.0112,0.314209 -0.0169,0.471313 0,0 0.77544,0.397402 0.77544,0.397402 v 0 c 0.002,-0.158973 0.004,-0.317942 0.005,-0.476912 0.0169,-0.820729 0.0549,-1.639914 0.11929,-2.458363 z" />
    <path
       style="opacity:0.15;fill:#ffad00;fill-opacity:1;stroke:none;stroke-width:0.499999"
       id="path518"
       d="m 106.83355,91.135445 c -0.0774,1.026674 -0.16656,2.052484 -0.25056,3.078684 -0.0165,0.192731 -0.0331,0.385461 -0.0496,0.578191 0,0 0.74723,0.387533 0.74723,0.387533 v 0 c 0.0114,-0.195173 0.0229,-0.390345 0.0343,-0.585515 0.076,-1.005358 0.14333,-2.018366 0.38497,-3.00069 z" />
    <path
       style="opacity:0.15;fill:#ffad00;fill-opacity:1;stroke:none;stroke-width:0.499999"
       id="path519"
       d="m 100.21581,88.706671 c 0.55989,0.58525 1.0688,1.215358 1.57464,1.847006 0.10217,0.131948 0.20435,0.263898 0.30653,0.395846 0,0 0.79237,0.339251 0.79237,0.339251 v 0 c -0.10773,-0.134593 -0.21546,-0.269184 -0.32318,-0.403775 -0.48025,-0.598379 -0.95438,-1.202018 -1.44233,-1.794018 z" />
    <path
       style="opacity:0.15;fill:#ffad00;fill-opacity:1;stroke:none;stroke-width:0.499999"
       id="path520"
       d="m 103.0531,88.406975 c 0.67064,0.629153 1.32404,1.276286 1.98835,1.912085 0.37814,0.363342 0.78502,0.701075 1.11199,1.113412 0.0266,0.03845 0.0532,0.0769 0.0798,0.115356 0,0 0.88069,0.384569 0.88069,0.384569 v 0 c -0.0272,-0.04091 -0.0543,-0.08182 -0.0815,-0.122732 -0.33795,-0.44618 -0.79231,-0.782791 -1.1972,-1.164291 -0.64384,-0.604052 -1.27442,-1.222293 -1.88012,-1.864752 z" />
    <path
       style="opacity:0.15;fill:#ffad00;fill-opacity:1;stroke:none;stroke-width:0.499999"
       id="path527"
       d="m 101.36623,92.330047 c 0.27347,-0.01072 0.54718,-0.0099 0.82079,-0.0074 0.20659,0.0067 0.4204,-0.01791 0.61982,0.04602 0.11793,0.04031 0.0601,0.01564 0.17323,0.07461 0,0 -0.76256,-0.604785 -0.76256,-0.604785 v 0 c -0.1243,-0.04761 -0.0616,-0.02697 -0.18791,-0.06217 -0.20568,-0.03143 -0.41288,-0.01961 -0.6203,-0.01873 -0.28036,0.0027 -0.5608,0.0029 -0.84104,-0.0074 z" />
    <path
       style="opacity:0.15;fill:#ffad00;fill-opacity:1;stroke:none;stroke-width:0.499999"
       id="path528"
       d="m 104.03722,88.587828 c 0.39406,0.0011 0.78547,0.04741 1.1754,0.09949 0.0598,0.0083 0.11948,0.01683 0.17929,0.02482 0.0517,0.0069 0.10384,0.01082 0.15522,0.01982 0.13703,0.024 0.26967,0.07109 0.40526,0.101787 0.095,0.02223 0.19249,0.02625 0.28946,0.03127 0,0 -0.78965,-0.581975 -0.78965,-0.581975 v 0 c -0.0934,-0.0079 -0.18642,-0.01918 -0.27756,-0.04205 -0.23694,-0.05694 -0.47516,-0.100883 -0.71884,-0.118142 -0.4042,-0.04767 -0.80927,-0.08573 -1.21532,-0.113887 z" />
    <path
       style="opacity:0.15;fill:#ffad00;fill-opacity:1;stroke:none;stroke-width:0.499999"
       id="path529"
       d="m 100.18328,84.968299 c 0.19344,-0.213482 0.42205,-0.394293 0.64952,-0.569627 0.3295,-0.253981 0.47451,-0.351316 0.82392,-0.599376 0.5163,-0.381124 1.06639,-0.711846 1.61415,-1.04467 0,0 -0.5685,-0.365133 -0.5685,-0.365133 v 0 c -0.16207,0.111485 -0.32199,0.226152 -0.4862,0.334459 -0.50936,0.335963 -0.61846,0.389965 -1.14707,0.698699 -0.56931,0.349123 -1.138162,0.70018 -1.723637,1.021725 z" />
    <path
       style="opacity:0.15;fill:#ffad00;fill-opacity:1;stroke:none;stroke-width:0.499999"
       id="path530"
       d="m 103.42747,82.278852 c 0.0339,0.03386 0.0692,0.06631 0.10158,0.101573 0.13644,0.14853 0.2187,0.256096 0.34803,0.418489 0.29021,0.364424 0.57373,0.733841 0.85792,1.102963 0.32437,0.430448 0.65002,0.860031 0.98692,1.280785 0.1084,0.120766 0.18968,0.261932 0.29055,0.388236 0.0255,0.03285 0.0518,0.06513 0.0779,0.09753 0,0 0.91249,0.366082 0.91249,0.366082 v 0 c -0.0395,-0.02019 -0.0712,-0.04653 -0.0988,-0.08206 -0.0975,-0.124671 0.0311,0.03711 -0.0772,-0.09002 -0.0827,-0.09707 -0.0102,-0.0204 -0.0999,-0.134565 -0.0513,-0.06525 -0.11132,-0.123338 -0.16242,-0.188732 -0.39721,-0.434369 -0.78263,-0.879885 -1.14537,-1.343589 -0.0961,-0.124102 -0.19434,-0.246578 -0.28831,-0.372305 -0.26183,-0.35034 -0.25031,-0.349073 -0.48035,-0.690706 -0.0874,-0.129783 -0.17771,-0.257582 -0.26453,-0.387749 -0.0207,-0.03096 -0.0402,-0.06262 -0.0604,-0.09394 z" />
    <path
       style="opacity:0.15;fill:#ffad00;fill-opacity:1;stroke:none;stroke-width:0.499999"
       id="path531"
       d="m 99.933678,94.470045 c 0.265462,0.270142 0.520502,0.5505 0.789702,0.817083 0.25401,0.251537 0.51417,0.496771 0.7707,0.745731 0.45416,0.456814 0.92733,0.896284 1.35039,1.3828 0.11349,0.144621 0.0611,0.07519 0.15795,0.207674 0,0 0.8759,0.376822 0.8759,0.376822 v 0 c -0.11087,-0.140967 -0.0521,-0.06648 -0.17642,-0.223393 -0.46147,-0.509389 -0.99287,-0.949994 -1.47343,-1.44078 -0.48501,-0.47547 -0.97988,-0.948365 -1.39074,-1.491467 z" />
    <path
       style="opacity:0.15;fill:#ffad00;fill-opacity:1;stroke:none;stroke-width:0.499999"
       id="path532"
       d="m 106.11193,95.102253 c -0.20326,0.177247 -0.3882,0.373872 -0.589,0.553895 -0.17096,0.153276 -0.31106,0.266462 -0.48811,0.413213 -0.23627,0.186455 -0.47145,0.374806 -0.71334,0.554011 -0.17937,0.132892 -0.36494,0.255527 -0.54201,0.391499 -0.0926,0.07435 -0.19303,0.140927 -0.2793,0.223073 -0.0464,0.04422 -0.087,0.09262 -0.13507,0.135339 0,0 0.83295,0.51339 0.83295,0.51339 v 0 c 0.0447,-0.04505 0.0815,-0.09444 0.12379,-0.141457 0.0761,-0.08466 0.16271,-0.159718 0.24638,-0.236487 0.16365,-0.145026 0.33597,-0.275117 0.50777,-0.410316 0.2357,-0.185497 0.46636,-0.377389 0.70081,-0.564452 0.084,-0.06869 0.16797,-0.137374 0.25195,-0.20606 0.0829,-0.06749 0.16585,-0.134831 0.2486,-0.202459 0.21138,-0.172744 0.41582,-0.362164 0.65931,-0.489577 z" />
    <path
       style="opacity:0.15;fill:#ffad00;fill-opacity:1;stroke:none;stroke-width:0.499999"
       id="path533"
       d="m 159.13694,78.270075 c -0.0844,0.100354 -0.17068,0.199075 -0.25304,0.301062 -0.64897,0.803584 -0.30449,0.421661 -1.11809,1.375029 -1.15009,1.347663 -2.36141,2.636612 -3.5754,3.926326 -2.86111,2.948213 -0.35825,0.378257 -3.36498,3.438134 -2.38917,2.431399 -1.89389,1.954593 -4.40176,4.454173 -0.48661,0.484997 -4.49467,4.447251 -4.93905,4.886669 -5.24242,5.094162 -10.28318,10.387562 -15.29577,15.706002 -0.77356,0.81334 -1.54737,1.62645 -2.32069,2.44002 -1.8089,1.90306 -2.04822,2.1685 -3.7919,3.96377 -1.14771,1.18167 -2.30704,2.35195 -3.45408,3.53431 -1.09883,1.1979 -2.22099,2.37551 -3.29786,3.59344 -0.25694,0.31444 -0.51372,0.6308 -0.80595,0.91351 0,0 0.83669,0.51194 0.83669,0.51194 v 0 c 0.27877,-0.29579 0.52656,-0.61882 0.77137,-0.94281 1.02332,-1.25358 2.13335,-2.43174 3.20108,-3.64696 3.07386,-3.39024 6.18169,-6.75007 9.29742,-10.10172 1.64279,-1.73772 3.27329,-3.48706 4.92028,-5.22081 3.38688,-3.56528 6.86312,-7.04438 10.3823,-10.478796 4.30301,-4.214016 8.626,-8.408352 12.87356,-12.678394 1.22842,-1.25595 1.55284,-1.576345 2.71486,-2.8047 0.73931,-0.781505 1.44763,-1.588627 2.17716,-2.378543 0.0903,-0.09776 0.18645,-0.189942 0.27967,-0.284914 z" />
    <path
       style="opacity:0.15;fill:#ffad00;fill-opacity:1;stroke:none;stroke-width:0.499999"
       id="path537"
       d="m 85.78595,94.601653 c 0.07205,2.722753 -0.151562,5.442987 -0.364448,8.154797 0,0 0.68121,0.35413 0.68121,0.35413 v 0 c 0.228473,-2.68393 0.451926,-5.370624 0.559368,-8.062516 z" />
    <path
       style="opacity:0.15;fill:#ffad00;fill-opacity:1;stroke:none;stroke-width:0.499999"
       id="path538"
       d="m 87.520331,95.645562 c 2.192562,0.724212 4.318251,1.633513 6.441641,2.536436 0.353956,0.161083 0.707911,0.322167 1.061868,0.483255 0,0 -0.696397,-0.552566 -0.696397,-0.552566 v 0 C 93.97814,97.956168 93.628837,97.799648 93.279534,97.643129 91.117336,96.730994 88.953692,95.81453 86.736738,95.042235 Z" />
    <path
       style="opacity:0.15;fill:#ffad00;fill-opacity:1;stroke:none;stroke-width:0.499999"
       id="path539"
       d="m 167.66074,87.453959 c -0.0909,1.842441 -0.001,3.685537 0.0804,5.526283 0.0723,1.665605 0.0387,0.85757 0.10108,2.424083 0,0 0.79523,0.400677 0.79523,0.400677 v 0 c -0.0796,-1.573315 -0.0401,-0.762558 -0.11789,-2.432299 -0.074,-1.820328 -0.15265,-3.646296 0.0131,-5.464442 z" />
    <path
       style="opacity:0.15;fill:#ffad00;fill-opacity:1;stroke:none;stroke-width:0.499999"
       id="path540"
       d="m 169.30559,88.253725 c 1.60666,0.680151 3.24219,1.285042 4.87569,1.897539 1.43826,0.530738 2.87696,1.060487 4.32247,1.57118 0,0 -0.71812,-0.559699 -0.71812,-0.559699 v 0 c -1.43741,-0.500364 -2.86763,-1.021136 -4.29419,-1.551625 -0.78074,-0.294397 -1.56469,-0.58039 -2.34259,-0.882227 -0.76612,-0.29727 -1.5128,-0.636156 -2.27329,-0.946333 -0.11512,-0.04696 -0.23219,-0.08901 -0.34829,-0.133506 z" />
    <path
       style="opacity:0.15;fill:#ffad00;fill-opacity:1;stroke:none;stroke-width:0.499999"
       id="path541"
       d="m 221.71183,122.45071 c 0.29183,-0.0882 0.31791,-0.10265 0.73186,-0.16167 0.59848,-0.0853 1.43585,-0.14474 2.02053,-0.18417 1.06112,-0.0716 1.41325,-0.0822 2.47513,-0.13117 0.36995,-0.0101 0.73991,-0.0201 1.10986,-0.0301 0,0 -1.14952,-0.82629 -1.14952,-0.82629 v 0 c -0.34711,0.0264 -0.69422,0.0528 -1.04132,0.0792 -0.40826,0.0218 -0.81633,0.0473 -1.22477,0.0654 -0.86791,0.0384 -1.62393,0.0578 -2.49065,0.0674 -2.04503,0.0226 -0.13615,-0.003 -1.79284,-0.0161 -0.0832,-8e-4 -0.16626,0.007 -0.24938,0.0107 z" />
    <path
       style="opacity:0.15;fill:#ffad00;fill-opacity:1;stroke:none;stroke-width:0.499999"
       id="path542"
       d="m 222.22938,125.88814 c 0.30269,-0.0594 0.15779,-0.0338 0.56333,-0.095 0.21319,-0.0322 0.42569,-0.0695 0.63971,-0.0955 0.86613,-0.10545 1.73718,-0.14748 2.60797,-0.19081 1.09749,-0.0495 2.19609,-0.0441 3.29416,-0.0262 0.083,0.002 0.16599,0.005 0.24897,0.007 0,0 -1.51624,-1.09835 -1.51624,-1.09835 v 0 c -0.0739,0.005 -0.1479,0.009 -0.22186,0.0138 -1.0147,0.0602 -2.02697,0.15674 -3.0418,0.2156 -1.29912,0.0806 -2.6001,0.17092 -3.90262,0.13493 -0.0852,-0.002 -0.17018,-0.0107 -0.25527,-0.0161 z" />
    <path
       style="opacity:0.15;fill:#ffad00;fill-opacity:1;stroke:none;stroke-width:0.499999"
       id="path545"
       d="m 233.12248,121.62983 c -0.0108,-0.0632 -0.0223,-0.0986 -0.001,-0.16816 0.0619,-0.20491 0.22674,-0.3794 0.3872,-0.51205 0.0732,-0.0605 0.15469,-0.11038 0.23203,-0.16557 0.42458,-0.26137 0.90796,-0.39909 1.40475,-0.42943 0.34674,-0.0212 0.53472,0.007 0.88018,0.0356 0.92427,0.11255 1.78256,0.48243 2.64446,0.81177 0.17097,0.0611 0.33923,0.13048 0.51293,0.18337 0.19081,0.0581 0.38478,0.10589 0.57947,0.14922 0.63823,0.14202 1.29515,0.23025 1.95046,0.20985 0.21416,-0.007 0.42691,-0.0372 0.64037,-0.0558 0.78343,-0.11324 1.51399,-0.41803 2.21534,-0.7728 0.15092,-0.0763 0.29876,-0.15859 0.44814,-0.23789 0,0 -1.3572,-0.88328 -1.3572,-0.88328 v 0 c -0.33377,0.20039 -0.52671,0.32713 -0.88392,0.49511 -0.52626,0.24747 -1.07974,0.43098 -1.6557,0.51857 -0.20621,0.0168 -0.41179,0.0459 -0.61863,0.0505 -1.06258,0.0238 -2.1015,-0.24895 -3.08169,-0.63826 -0.33161,-0.13162 -0.66034,-0.27074 -0.99483,-0.39485 -0.55899,-0.20741 -1.13776,-0.36273 -1.73276,-0.41857 -0.36551,-0.0208 -0.54021,-0.0424 -0.90749,-0.0158 -0.41808,0.0304 -0.83833,0.12005 -1.2254,0.28345 -0.10688,0.0451 -0.20711,0.10461 -0.31067,0.15691 -0.0872,0.058 -0.17741,0.11151 -0.26144,0.1739 -0.23092,0.17148 -0.47594,0.40433 -0.60887,0.6644 -0.01,0.0191 -0.0124,0.041 -0.0186,0.0615 z" />
    <path
       style="opacity:0.15;fill:#ffad00;fill-opacity:1;stroke:none;stroke-width:0.536884"
       id="path547"
       d="m 235.23276,120.38964 c 0.002,0.0366 0.004,0.073 0.007,0.10953 0.001,0.0691 1.2e-4,0.13823 0.004,0.20714 0.008,0.13942 0.0237,0.27815 0.0317,0.41756 0.0378,0.6505 0.046,1.30312 0.0588,1.95468 0.008,0.72706 0.0173,1.45456 -0.006,2.18143 -0.006,0.18643 -0.0176,0.37254 -0.0262,0.55883 -0.0223,0.4858 -0.0177,0.38552 -0.0348,0.8299 -0.004,0.0957 -0.007,0.19135 -0.0105,0.28702 0,0 1.60839,0.93166 1.60839,0.93166 v 0 c -0.0134,-0.10435 -0.0268,-0.2088 -0.0402,-0.3132 -0.1306,-1.21911 -0.1803,-2.4484 -0.13409,-3.67635 0.033,-0.81325 0.0321,-1.6627 0.28949,-2.43331 z" />
    <path
       style="opacity:0.15;fill:#ffad00;fill-opacity:1;stroke:none;stroke-width:0.499999"
       id="path548"
       d="m 239.7309,121.56149 c 0.0479,0.23917 0.006,0.0213 0.0637,0.36293 0.0273,0.16103 0.0621,0.32089 0.0834,0.48282 0.0909,0.69063 0.10774,1.38807 0.12969,2.08323 0.0218,0.68904 0.005,1.37831 0.005,2.06743 -2.6e-4,1.01496 0.0167,0.23965 -0.0117,1.16155 0,0 1.40851,0.71387 1.40851,0.71387 v 0 c -0.0133,-0.18753 -0.0306,-0.37482 -0.04,-0.56258 -0.0105,-0.21124 -0.0123,-0.42283 -0.0197,-0.6342 -0.0245,-0.69868 -0.0596,-1.39713 -0.063,-2.09641 0.003,-0.54828 -0.002,-0.86692 0.0271,-1.40933 0.0101,-0.19096 0.021,-0.38213 0.0436,-0.57202 0.0162,-0.13614 0.0494,-0.26971 0.0725,-0.40484 0.0478,-0.2796 0.008,-0.10767 0.0558,-0.29825 z" />
    <path
       style="opacity:0.15;fill:#ffff00;fill-opacity:1;stroke:none;stroke-width:0.499999"
       id="path549"
       d="m 68.715393,70.344408 c -1.356601,-1.62152 -2.654787,-3.292626 -3.959481,-4.9563 0,0 -1.674498,-0.717245 -1.674498,-0.717245 v 0 c 1.282359,1.632373 2.555078,3.272107 3.83363,4.906708 z" />
    <path
       style="opacity:0.15;fill:#ffff00;fill-opacity:1;stroke:none;stroke-width:0.499999"
       id="path550"
       d="m 110.7817,67.000154 c -0.2331,-2.932269 -0.45338,-5.868448 -0.80191,-8.789562 0,0 -1.65286,-0.816184 -1.65286,-0.816184 v 0 c 0.38496,2.888435 0.59558,5.799656 0.69981,8.711547 z" />
    <path
       style="opacity:0.15;fill:#ffff00;fill-opacity:1;stroke:none;stroke-width:0.499999"
       id="path551"
       d="m 170.57754,67.000154 c -0.11164,-2.511478 0.036,-5.015897 0.20064,-7.520993 0.0438,-0.60248 0.0876,-1.20496 0.13144,-1.80744 0,0 -1.62111,-0.840529 -1.62111,-0.840529 v 0 c -0.0419,0.603544 -0.0837,1.20709 -0.1256,1.810634 -0.18569,2.485715 -0.36482,4.969494 -0.34034,7.464129 z" />
    <path
       style="opacity:0.15;fill:#ffff00;fill-opacity:1;stroke:none;stroke-width:0.499999"
       id="path552"
       d="m 228.89219,75.835684 c 2.11247,-3.628774 4.90659,-6.818225 7.55001,-10.064988 0.50176,-0.61939 1.00353,-1.238782 1.50529,-1.858172 0,0 -1.52002,-0.908597 -1.52002,-0.908597 v 0 c -0.4938,0.623684 -0.98759,1.24737 -1.48139,1.871054 -2.65312,3.273946 -5.43091,6.47252 -7.76831,9.984538 z" />
    <path
       style="opacity:0.15;fill:#ffff00;fill-opacity:1;stroke:none;stroke-width:0.499999"
       id="path553"
       d="m 62.361927,112.52841 c -0.354861,-0.005 -0.710149,0.004 -1.064588,-0.0137 -2.073463,-0.10505 -2.832878,-0.22418 -5.062767,-0.49877 -3.445452,-0.42428 -6.882308,-0.90649 -10.319409,-1.39273 0,0 1.355196,1.0134 1.355196,1.0134 v 0 c 4.464746,0.60506 8.926515,1.28954 13.403127,1.80088 1.681835,0.19211 1.872983,0.18314 3.277005,0.2451 z" />
    <path
       style="opacity:0.15;fill:#ffff00;fill-opacity:1;stroke:none;stroke-width:0.499999"
       id="path554"
       d="m 67.712367,145.00353 c -2.199794,2.74631 -4.618265,5.30731 -7.063875,7.83341 0,0 1.485117,0.90661 1.485117,0.90661 v 0 c 2.453142,-2.5419 4.888891,-5.10131 7.254578,-7.72516 z" />
    <path
       style="opacity:0.15;fill:#ffff00;fill-opacity:1;stroke:none;stroke-width:0.499999"
       id="path555"
       d="m 251.75757,100.97031 c 2.93048,-0.95199 5.98921,-1.451137 9.01683,-1.986187 0,0 -1.44516,-1.011612 -1.44516,-1.011612 v 0 c -3.07711,0.55018 -6.16962,1.065582 -9.19203,1.873832 z" />
    <path
       style="opacity:0.15;fill:#ffff00;fill-opacity:1;stroke:none;stroke-width:0.499999"
       id="path556"
       d="m 249.13763,146.01076 c 1.82384,1.7574 3.7009,3.54365 5.75871,5.12127 0.45502,0.334 0.91003,0.668 1.36505,1.002 l 2.12906,0.27938 v 0 c -0.45736,-0.33349 -0.91472,-0.66697 -1.37209,-1.00046 -2.02265,-1.54757 -4.0311,-3.11531 -6.03861,-4.68142 z" />
    <path
       style="opacity:0.15;fill:#ffff00;fill-opacity:1;stroke:none;stroke-width:0.499999"
       id="path558"
       d="m 122.30291,157.71408 c -0.097,1.91106 -0.84085,3.74519 -1.505,5.51823 -0.66492,1.66739 -0.32978,0.86842 -0.99976,2.39927 0,0 1.60088,0.89859 1.60088,0.89859 v 0 c 0.64229,-1.55179 0.3162,-0.74516 0.97525,-2.42112 0.68725,-1.78129 1.44021,-3.59185 1.69171,-5.49664 z" />
    <path
       style="opacity:0.15;fill:#ffff00;fill-opacity:1;stroke:none;stroke-width:0.499999"
       id="path559"
       d="m 191.57944,154.77594 c 0.96651,2.11957 2.07389,4.17017 3.13724,6.24171 0,0 1.57582,0.71129 1.57582,0.71129 v 0 c -1.0248,-2.0147 -2.08025,-4.02045 -2.92314,-6.12046 z" />
    <path
       style="opacity:0.15;fill:#ffad00;fill-opacity:1;stroke:none;stroke-width:0.499999"
       id="path560"
       d="m 202.09499,107.5693 c 0.82419,0.0708 0.94434,0.0909 1.74658,0.15537 0.68499,0.0717 1.36701,0.17091 2.04272,0.30461 0.2365,0.0468 0.47391,0.0909 0.707,0.1524 0.6593,0.17411 0.81283,0.26186 1.44584,0.52194 0.22739,0.11774 0.87836,0.51779 0.68218,0.35322 -0.216,-0.18121 -0.4616,-0.38652 -0.74299,-0.40424 -0.22114,-0.0139 0.36361,0.25376 0.53733,0.39129 0.28698,0.22719 0.62383,0.53224 0.8554,0.81948 0.13389,0.16606 0.24474,0.34944 0.36711,0.52416 0.10084,0.19269 0.21264,0.38002 0.30253,0.57805 0.33333,0.73437 0.5355,1.58962 0.59304,2.39352 0.0136,0.18925 0.01,0.37935 0.0144,0.56903 -0.014,0.18517 -0.015,0.37181 -0.0422,0.55552 -0.14202,0.9605 -0.57437,1.84108 -1.09343,2.6512 -0.13866,0.21641 -0.29308,0.42229 -0.43962,0.63344 -0.56732,0.75148 -1.22324,1.43309 -1.95919,2.02093 -0.48146,0.38457 -0.60846,0.44901 -1.12617,0.78548 -1.06448,0.65715 -2.21223,1.16795 -3.41827,1.5023 -0.26292,0.0729 -0.52999,0.12991 -0.79499,0.19487 -1.66906,0.34658 -3.37796,0.40569 -5.07696,0.42362 -0.99506,0.002 -1.99088,-0.0465 -2.98069,-0.14965 -0.38689,-0.0403 -0.91988,-0.1126 -1.30719,-0.16329 -0.53251,-0.0853 -1.0706,-0.14455 -1.60025,-0.24788 -0.12336,-0.0241 -0.247,-0.0488 -0.3673,-0.0852 -0.0918,-0.0278 -0.34945,-0.15565 -0.26706,-0.10665 0.47616,0.2832 0.96726,0.5405 1.45089,0.81076 l -1.76882,-0.6809 v 0 c 0.59439,0.3356 1.17909,0.68896 1.78316,1.00678 0.0893,0.047 0.51287,0.0996 0.57555,0.10765 0.50535,0.0651 1.0126,0.11628 1.51781,0.18268 0.42007,0.0495 0.87004,0.10573 1.29113,0.14265 0.97412,0.0854 1.95253,0.10734 2.92997,0.0933 1.70547,-0.039 3.41906,-0.10981 5.09539,-0.45227 0.71669,-0.16918 0.89235,-0.19236 1.58321,-0.42625 0.95106,-0.32198 1.85833,-0.76112 2.71887,-1.27653 0.50932,-0.33062 0.6737,-0.41818 1.14486,-0.79978 0.74026,-0.59952 1.38022,-1.31079 1.93686,-2.08199 0.14799,-0.21434 0.30241,-0.42439 0.44398,-0.64303 0.41238,-0.63691 0.78411,-1.30869 1.04019,-2.02501 0.0746,-0.20874 0.14823,-0.41957 0.19041,-0.6372 0.0365,-0.18832 0.0295,-0.38251 0.0443,-0.57376 -0.005,-0.19567 -2.6e-4,-0.39183 -0.0149,-0.58702 -0.0605,-0.80722 -0.28347,-1.71486 -0.59823,-2.45962 -0.0853,-0.20172 -0.19053,-0.39437 -0.28579,-0.59155 -0.11092,-0.17976 -0.20596,-0.37034 -0.33276,-0.53927 -0.22468,-0.29934 -0.60151,-0.63608 -0.88897,-0.86715 -0.9785,-0.78657 -2.10439,-1.37072 -3.2308,-1.91556 -0.61872,-0.24367 -0.84285,-0.35383 -1.48954,-0.52047 -0.23197,-0.0598 -0.46878,-0.099 -0.70397,-0.14443 -0.69407,-0.13412 -1.36725,-0.2395 -2.0804,-0.33367 -0.2187,-0.0344 -0.37928,-0.044 -0.64369,-0.07 -0.27596,-0.0121 -0.77342,-0.0687 -1.05774,-0.0692 z" />
    <g
       id="text561"
       style="font-size:0.529167px;font-family:'Virgil 3 YOFF';-inkscape-font-specification:'Virgil 3 YOFF';opacity:0.15;fill:#ffad00;stroke-width:0.499999"
       aria-label="picoCTF{&#10;r3curs10n_&#10;d3pth_&#10;3xc33d3d}">
      <path
         style="stroke-width:0.5"
         d="m 128.35176,124.51824 q 0.008,-0.0259 0.0243,-0.0413 0.0164,-0.0154 0.0429,-0.0259 0.0111,-0.003 0.018,-0.003 0.004,0 0.0175,0.002 0.0624,0.0164 0.0884,0.055 0.0339,0.0328 0.027,0.10001 -0.008,0.0249 -0.0376,0.0418 -0.0291,0.0164 -0.0561,0.0148 -0.0243,0.006 -0.0466,-0.008 -0.0217,-0.0143 -0.0439,-0.0386 h -0.002 q 0,0.005 -0.001,0.0408 -5.3e-4,0.0354 -5.3e-4,0.0529 -0.004,0.0566 0.027,0.11006 0.005,0.0101 0,0.0238 -0.0106,0.0122 -0.0169,0.0132 -0.004,5.3e-4 -0.006,5.3e-4 -0.002,5.3e-4 -0.006,-0.003 -0.004,-0.003 -0.005,-0.005 -0.002,-0.002 -0.005,-0.005 -0.003,-0.004 -0.004,-0.005 -0.0212,-0.0381 -0.027,-0.127 0,-0.004 -5.3e-4,-0.0318 0,-0.027 0,-0.0339 0,-0.007 5.3e-4,-0.0286 5.3e-4,-0.0222 0.002,-0.0339 0.002,-0.0122 0.004,-0.0302 0.003,-0.0185 0.007,-0.0354 z m 0.0741,0.0667 q 0.002,0.003 0.0127,0.0143 0.0106,0.0106 0.0138,0.0127 0.0111,0.006 0.0259,0.006 0.0318,0 0.0413,-0.0233 0.007,-0.0222 -5.3e-4,-0.0397 -0.007,-0.018 -0.0265,-0.037 -0.007,-0.006 -0.0106,-0.009 -0.004,-0.003 -0.0106,-0.005 -0.006,-0.003 -0.0122,5.3e-4 -0.0222,0.0106 -0.037,0.0497 0,0.003 -5.3e-4,0.01 0,0.007 5.3e-4,0.0116 10e-4,0.005 0.004,0.009 z m 0.16775,-0.22013 q 0.003,-0.008 0.0111,-0.0127 0.008,-0.005 0.0175,-0.004 0.003,-5.3e-4 0.006,0 0.003,5.3e-4 0.005,0.002 0.003,0.002 0.005,0.003 0.002,0.001 0.004,0.005 0.003,0.004 0.004,0.005 0.001,5.3e-4 0.004,0.005 l 0.003,0.004 q 0.002,0.005 0.0201,0.0233 0.004,0.005 0.004,0.0127 5.3e-4,0.007 -0.004,0.0111 h -0.0116 q -0.009,0.002 -0.0185,-0.001 -0.009,-0.003 -0.0243,-0.0106 -0.0148,-0.008 -0.0159,-0.008 -0.009,-0.005 -0.0122,-0.0148 -0.003,-0.0101 0.002,-0.0191 z m 0.0339,0.26828 q -0.001,-0.006 -0.003,-0.0275 -0.002,-0.0217 -0.004,-0.045 -0.002,-0.0238 -0.003,-0.028 -0.001,-0.0143 0,-0.0302 0.008,-0.0138 0.0265,-0.01 0.007,0.003 0.0138,0.0201 0,0.0111 0.002,0.0233 0.002,0.0122 0.004,0.0206 0.002,0.008 0.006,0.0222 0.004,0.0138 0.005,0.0212 0,0.004 -0.001,0.0138 -5.2e-4,0.009 -0.002,0.0175 -5.3e-4,0.008 -5.3e-4,0.009 -5.3e-4,0.002 -0.002,0.006 -5.3e-4,0.004 -0.002,0.007 -5.3e-4,0.003 -0.003,0.006 -0.002,0.003 -0.004,0.004 -0.0143,0.003 -0.0233,-0.006 -0.009,-0.0159 -0.01,-0.0233 z m 0.0831,-0.0767 q 0.004,-0.0249 0.0143,-0.0418 0.0111,-0.0169 0.0328,-0.0354 0.018,-0.0206 0.0434,-0.0312 0.0254,-0.0106 0.0503,-0.006 0.0111,-5.3e-4 0.0228,0.006 0.0122,0.006 0.0169,0.0111 0.005,0.005 0.0175,0.0169 0.0122,0.0164 0.0101,0.0503 -0.007,0.0127 -0.0138,0.0132 -0.002,0 -0.009,0.001 -0.007,5.3e-4 -0.0116,-0.001 -0.004,-0.002 -0.006,-0.007 -0.0106,-0.028 -0.0164,-0.0312 -0.008,-0.005 -0.0185,-0.006 -0.0106,-5.3e-4 -0.019,5.3e-4 -0.0127,0.003 -0.0249,0.0132 -0.0122,0.01 -0.0185,0.0175 -0.006,0.007 -0.0169,0.0228 0,0.002 -0.002,0.0106 -0.002,0.009 -0.001,0.0164 0.001,0.007 0.007,0.0101 0.0169,0.0206 0.036,0.0275 0.0228,0.009 0.081,0.0191 l 0.064,0.0138 q 0.004,0.003 0.007,0.0101 0.004,0.006 0.003,0.01 -0.002,0.007 -0.0106,0.0138 -0.008,0.007 -0.0164,0.01 -0.0206,0.002 -0.0534,-0.007 -0.0577,-0.0106 -0.0773,-0.0164 -0.0519,-0.0169 -0.0773,-0.0497 -0.0169,-0.0228 -0.0132,-0.0603 z m 0.27252,0.0328 v -0.0572 q -0.004,-0.006 -0.004,-0.0169 0,-0.0111 0.004,-0.0164 0.008,-0.006 0.0185,-0.0122 0.0106,-0.006 0.0233,-0.0138 0.0127,-0.007 0.0185,-0.0111 0.0222,-0.0132 0.0556,-0.0132 0.0392,0 0.0752,0.0169 0.0365,0.0169 0.0603,0.0466 0.0275,0.0376 0.0132,0.0704 -0.0339,0.0582 -0.10054,0.0736 -0.008,0.003 -0.019,0.005 -0.0101,0.002 -0.0164,0.002 -0.006,5.3e-4 -0.0201,0 -0.0138,0 -0.018,0 -0.027,-0.006 -0.0376,-0.008 -0.01,-0.003 -0.0217,-0.0106 -0.0116,-0.008 -0.0175,-0.0196 -0.005,-0.0111 -0.0138,-0.0344 z m 0.0503,0 q 0.004,0.007 0.0122,0.0164 0.008,0.008 0.0148,0.0101 0.0122,0.006 0.0349,0.006 0.0212,0 0.0439,-0.006 0.0233,-0.006 0.0429,-0.0212 0.0196,-0.0153 0.0222,-0.036 5.3e-4,-0.006 5.3e-4,-0.0101 0,-0.004 -0.004,-0.008 -0.003,-0.005 -0.006,-0.008 -0.003,-0.003 -0.007,-0.007 -0.005,-0.004 -0.007,-0.007 -0.045,-0.0249 -0.0683,-0.0249 -0.0116,0 -0.0222,0.005 -0.005,0.002 -0.0101,0.007 -0.0153,0.0143 -0.0201,0.0164 -0.002,0.002 -0.006,0.006 -0.004,0.004 -0.007,0.007 -0.003,0.003 -0.006,0.007 -0.003,0.004 -0.003,0.007 -0.003,0.006 -0.004,0.0132 -5.3e-4,0.007 0,0.0137 10e-4,0.006 0,0.0132 z m 0.27781,-0.18573 q 0.0355,-0.0482 0.0704,-0.0635 0.0206,-0.0127 0.0418,-0.0106 0.003,0 0.01,5.3e-4 0.006,0 0.009,0 h 0.003 q 0.001,0 0.007,0.002 0.006,0.002 0.007,0.001 h 0.002 q 5.3e-4,-0.002 0.004,-0.007 0.004,-0.005 0.006,-0.006 0.0111,-0.003 0.0196,0.01 0.004,0.008 0.008,0.0249 0.002,0.004 0.006,0.0116 0.0238,0.0302 0.0238,0.072 0,0.002 -5.3e-4,0.0101 0,0.007 0,0.008 -0.006,0.0169 -0.0201,0.0169 -0.0206,-0.005 -0.0233,-0.007 l -0.001,-0.001 q -0.001,-5.3e-4 -0.002,-0.001 l -5.3e-4,-10e-4 q -0.007,-0.019 -0.0138,-0.0471 -0.003,-0.0117 -0.006,-0.0164 -0.003,-0.003 -0.0101,-0.01 -0.006,-0.007 -0.0122,-0.0111 -0.006,-0.004 -0.0132,-0.003 -0.009,0 -0.018,0.003 -0.008,0.003 -0.0143,0.006 -0.006,0.003 -0.0143,0.0111 -0.008,0.007 -0.0122,0.0116 -0.004,0.004 -0.0122,0.0148 -0.008,0.0101 -0.0111,0.0132 -0.0482,0.081 -0.006,0.12383 0.028,0.0349 0.0868,0.0503 0.005,0.002 0.006,0.003 0.002,0 0.0233,-0.002 0.0222,-0.002 0.036,-0.005 0.009,-0.002 0.019,-0.002 0.007,0 0.0212,0.002 0.0143,0.002 0.0175,0.005 0.004,0.005 0.004,0.0122 0,0.006 -0.004,0.0111 -0.0116,0.01 -0.0164,0.0101 -0.0402,0.0132 -0.0661,0.0153 -0.0317,0 -0.0672,-0.0106 -0.0354,-0.0111 -0.0598,-0.0291 -0.0233,-0.0132 -0.0413,-0.036 -0.0175,-0.0227 -0.0228,-0.0476 -0.0116,-0.0561 0.037,-0.13388 z m 0.4662,0.0799 q 0,-0.007 0.002,-0.0233 0.002,-0.0164 0.002,-0.0291 0,-0.0127 -0.003,-0.0217 -0.003,-0.003 -0.004,-0.003 -0.0423,-0.001 -0.0635,0.007 l -0.0603,0.0164 q -0.008,0.008 -0.0132,0.0101 -0.0185,0.0106 -0.0365,0.0138 -0.0259,-0.0169 -0.0238,-0.0323 -0.001,-0.007 0.007,-0.0217 0.0524,-0.0222 0.0831,-0.0265 0.0444,-0.0127 0.0937,-0.0169 0.003,-5.3e-4 0.0111,-0.002 0.009,-0.002 0.0148,-0.003 0.006,-0.002 0.0111,-0.005 0.002,0 0.008,5.3e-4 0.007,0 0.0138,5.3e-4 0.006,0 0.0159,-5.3e-4 0.003,0 0.0323,-0.003 0.0302,-0.003 0.0688,-0.004 0.008,10e-4 0.0275,0 0.0201,-0.002 0.0333,0.002 0.0138,0.003 0.0228,0.0153 0.003,0.004 0.003,0.008 0.001,0.005 5.3e-4,0.009 -5.3e-4,0.004 0,0.009 -5.3e-4,10e-4 -0.003,0.004 -0.003,0.003 -0.004,0.003 -0.0127,-5.3e-4 -0.0556,-5.3e-4 -0.0423,0 -0.055,5.3e-4 -0.006,0 -0.018,0.002 -0.0111,0.002 -0.0175,0.002 h -0.0101 q -0.003,0 -0.005,5.3e-4 l -0.0164,0.002 q -0.003,5.3e-4 -0.005,5.3e-4 -0.008,0.0143 -0.007,0.0185 -0.003,0.004 -0.003,0.0598 5.3e-4,0.055 5.3e-4,0.0593 5.3e-4,0.006 0.003,0.0471 0.003,0.0407 0.008,0.0593 v 0.002 q -0.001,0.005 -0.0138,0.0217 -0.002,0.002 -0.005,0.005 -0.003,0.003 -0.004,0.003 -5.3e-4,5.3e-4 -0.004,0.002 -0.003,0.002 -0.006,0 -0.0111,0.002 -0.0217,-0.0169 -0.004,-0.003 -0.003,-0.0238 5.3e-4,-0.0212 0,-0.0244 0,-0.01 -0.002,-0.0635 -0.001,-0.0534 5.3e-4,-0.0614 z m 0.27781,0.1487 v -0.2376 l -0.0169,-0.0233 q -0.003,-0.0228 0.0233,-0.0349 0.0233,-0.008 0.0672,-0.0175 0.0439,-0.009 0.0635,-0.0148 0.0296,-0.0122 0.0736,-0.0164 0.002,5.3e-4 0.01,0 0.008,-0.001 0.0196,-0.002 0.0116,-0.001 0.0196,-0.001 0.0132,0 0.0185,0.003 0.0122,0 0.0228,0.0116 0.0106,0.0116 0.007,0.0243 0.002,0.006 -0.002,0.0127 -0.004,0.006 -0.0106,0.008 -0.006,0.002 -0.0127,-0.003 l -0.006,-0.004 q -0.003,-0.003 -0.006,-0.003 -0.0714,-0.007 -0.18097,0.0302 -0.004,0.002 -0.0148,0.006 -0.0106,0.004 -0.0116,0.004 -0.005,0.002 -0.0101,0.007 l -0.007,0.007 v 0.0333 q 0,0.0407 0.004,0.0603 0.005,0 0.008,5.3e-4 l 0.0265,0.002 q 0.004,5.3e-4 0.008,5.3e-4 0.0175,-0.002 0.0466,-0.01 0.0291,-0.008 0.0476,-0.01 0.0365,-0.004 0.0423,-0.004 0.0132,0 0.0238,0.004 0.01,0.005 0.0106,0.0143 10e-4,0.009 -0.007,0.0159 -0.008,0.004 -0.0339,0.008 -0.0254,0.004 -0.0296,0.005 -0.0159,0.006 -0.0519,0.0148 -0.0355,0.009 -0.0455,0.0122 -0.002,0 -0.0122,0.005 -0.0101,0.004 -0.0111,0.005 h -0.004 l -0.0164,-0.003 -0.003,0.003 q -0.004,0.0503 0.003,0.0736 v 0.004 q 10e-4,0.0318 -0.0132,0.0392 -0.006,0.005 -0.019,0.007 -0.0143,-0.0101 -0.0169,-0.0169 -0.001,-0.003 -0.001,-0.006 -0.003,-0.007 -0.003,-0.0138 z m 0.34555,-0.0741 q 0.008,-0.0106 0.0349,-0.0354 0.027,-0.0254 0.0381,-0.0444 -5.3e-4,-0.005 -0.005,-0.008 -0.004,-0.004 -0.0143,-0.008 -0.01,-0.005 -0.0116,-0.006 -0.008,-0.005 -0.0164,-0.003 l -0.0127,0.006 q -0.003,-10e-4 -0.0153,-0.003 -0.0122,-0.002 -0.0185,-0.006 -0.006,-0.004 -0.009,-0.0111 -0.007,-0.027 -0.003,-0.0397 0.002,-0.005 0.0111,-0.0143 0.009,-0.009 0.0111,-0.0159 0.002,-0.003 0.001,-0.004 0,-0.002 -0.002,-0.004 -0.002,-0.003 -0.002,-0.004 -0.0217,-0.027 -0.0117,-0.0545 0.006,-0.0175 0.0196,-0.027 0.0138,-0.01 0.0339,-0.018 0.0201,-0.008 0.0312,-0.0164 0.008,-0.003 0.0318,-0.0106 0.0238,-0.008 0.037,-0.0127 0.0138,-0.004 0.0328,-0.008 0.0196,-0.004 0.0333,-0.004 0.0169,0.005 0.0233,0.0127 0.003,0.008 -0.002,0.0159 -0.005,0.007 -0.0143,0.0101 -0.007,0.004 -0.0169,0.007 -0.01,0.003 -0.0217,0.006 -0.0122,0.003 -0.0185,0.005 -0.0773,0.0249 -0.10054,0.0476 -0.006,0.008 -0.004,0.018 0.002,0.009 0.009,0.0164 0.004,0.003 0.0116,0.009 0.008,0.005 0.0122,0.009 0.005,0.004 0.009,0.0106 0.004,0.006 0.005,0.0138 0,0.003 -0.003,0.0127 -0.002,0.0101 5.3e-4,0.0122 0.018,0.0132 0.0196,0.0143 0.002,0.001 0.005,0.003 0.004,0.002 0.006,0.003 0.002,0.001 0.005,0.004 0.003,0.003 0.004,0.007 0.009,0.0101 0.007,0.0249 -0.002,0.0143 -0.008,0.027 -0.006,0.0122 -0.0143,0.0217 -0.007,0.0106 -0.028,0.0307 -0.0201,0.0196 -0.0286,0.0339 -0.0164,0.0148 -0.008,0.0397 0.008,0.0148 0.0243,0.027 0.0164,0.0122 0.0328,0.0164 0.004,0.002 0.0122,0.005 0.008,0.003 0.0143,0.006 0.006,0.003 0.0117,0.007 l 5.3e-4,0.002 q 0.001,0.002 0.001,0.003 0.004,0.0132 -0.008,0.0217 -0.0159,0.007 -0.0296,0.007 -0.0132,0 -0.028,-0.007 -0.0291,-0.008 -0.0609,-0.0407 -0.0318,-0.0318 -0.0333,-0.0593 -5.3e-4,-0.0106 0.005,-0.0264 0.006,-0.0159 0.0138,-0.0238 z"
         id="path566" />
      <path
         style="stroke-width:0.5"
         d="m 128.34435,125.17917 q 0.004,-0.0233 0.0159,-0.0402 0.0122,-0.0169 0.0344,-0.037 0.019,-0.01 0.0492,-0.01 0.037,0 0.0609,0.0127 0.045,0.028 0.064,0.0471 0,0.002 5.3e-4,0.008 5.3e-4,0.006 -5.3e-4,0.0106 -5.3e-4,0.004 -0.004,0.005 -0.0169,0.003 -0.0344,-0.005 -0.004,-0.003 -0.0138,-0.008 -0.01,-0.006 -0.0143,-0.008 -0.005,-0.003 -0.0127,-0.005 -0.008,-0.003 -0.0153,-0.003 -0.004,0 -0.0138,0 -0.01,-5.3e-4 -0.0153,0 -0.005,0 -0.0132,0.002 -0.008,0.002 -0.0143,0.005 l -0.003,0.003 q -0.019,0.0254 -0.0238,0.0392 0.001,0.0159 0,0.0286 -0.001,0.0122 -5.3e-4,0.028 0.001,0.0159 0.004,0.028 0.004,0.006 0.004,0.0127 5.3e-4,0.006 -0.003,0.0138 -0.003,0.008 -0.005,0.0111 -0.001,0.003 -0.007,0.0122 -0.005,0.006 -0.0116,0.006 -0.007,0 -0.0153,-0.006 -0.0127,-0.008 -0.0201,-0.0296 0,-0.0836 0.007,-0.12012 z m 0.23389,0.1217 q 0,-0.002 0,-0.007 5.3e-4,-0.006 5.3e-4,-0.008 5.3e-4,-0.002 0.001,-0.006 0.001,-0.004 0.002,-0.006 0.002,-0.002 0.004,-0.004 0.003,-0.003 0.006,-0.004 0.0132,0.002 0.0376,0.0111 0.0243,0.009 0.0328,0.0111 0.0434,0.0111 0.0825,0.0111 0.0339,0 0.0619,-0.007 0.002,-0.001 0.008,-0.005 0.007,-0.004 0.0106,-0.006 0.004,-0.003 0.009,-0.007 0.006,-0.004 0.009,-0.008 0.003,-0.004 0.005,-0.009 0.002,-0.0148 -0.007,-0.0302 -0.008,-0.0153 -0.0153,-0.0217 -0.007,-0.006 -0.0228,-0.0196 -0.0148,-0.0101 -0.0355,-0.0169 -0.0201,-0.007 -0.036,-0.01 -0.0153,-0.003 -0.0397,-0.007 -0.0243,-0.004 -0.0365,-0.006 -0.004,-0.001 -0.01,-0.003 -0.005,-0.002 -0.007,-0.002 -0.002,-0.001 -0.004,-0.004 -0.003,-0.003 -0.005,-0.009 -0.007,-0.01 -0.006,-0.0243 0.001,-0.0148 0.01,-0.0217 0.006,-0.002 0.0275,-0.008 0.0217,-0.006 0.0386,-0.0122 0.0175,-0.006 0.0259,-0.0106 0.004,0.002 0.006,-0.003 0.002,-0.004 0.001,-0.01 -0.008,-0.001 -0.0291,-0.006 -0.0206,-0.006 -0.0312,-0.006 -0.0122,-0.002 -0.0254,-0.002 -0.0392,0 -0.0693,0.0164 l -0.0106,-0.008 q -0.0132,-0.0238 0.003,-0.0344 0.007,-0.01 0.0259,-0.018 0.004,-5.3e-4 0.0201,-0.003 0.0169,-0.003 0.0275,-0.004 0.0111,-0.001 0.0196,0 0.0894,0.01 0.14023,0.0423 0,0.002 0.002,0.008 0.002,0.006 0.002,0.0111 0,0.004 -0.003,0.008 -0.002,0.0153 -0.0122,0.0259 -0.01,0.0101 -0.0259,0.0196 -0.0154,0.009 -0.0212,0.0148 -5.3e-4,0.003 0.004,0.006 0.0381,0.004 0.0958,0.054 5.3e-4,5.3e-4 0.007,0.008 0.006,0.007 0.007,0.008 0.001,0.002 0.006,0.008 0.006,0.006 0.007,0.009 0.002,0.003 0.005,0.009 0.004,0.006 0.006,0.0106 0.002,0.004 0.004,0.0106 0.003,0.006 0.004,0.0116 0.001,0.006 0.002,0.0122 0.003,0.0365 -0.0418,0.073 -0.0312,0.0153 -0.0884,0.0196 -0.006,-5.3e-4 -0.0228,-0.002 -0.0169,-5.3e-4 -0.0254,-0.001 -0.008,-5.3e-4 -0.0233,-0.002 -0.0153,-0.001 -0.0259,-0.003 -0.0101,-0.002 -0.0228,-0.004 -0.0127,-0.002 -0.0238,-0.005 -0.0333,10e-4 -0.0397,-0.0259 z m 0.34343,-0.0831 q 0.004,-0.0249 0.0143,-0.0418 0.0111,-0.0169 0.0328,-0.0354 0.018,-0.0206 0.0434,-0.0312 0.0254,-0.0106 0.0503,-0.006 0.0111,-5.3e-4 0.0228,0.006 0.0122,0.006 0.0169,0.0111 0.005,0.005 0.0175,0.0169 0.0122,0.0164 0.0101,0.0503 -0.007,0.0127 -0.0138,0.0132 -0.002,0 -0.009,0.001 -0.007,5.3e-4 -0.0116,-0.001 -0.004,-0.002 -0.006,-0.007 -0.0106,-0.028 -0.0164,-0.0312 -0.008,-0.005 -0.0185,-0.006 -0.0106,-5.3e-4 -0.019,5.3e-4 -0.0127,0.003 -0.0249,0.0132 -0.0122,0.01 -0.0185,0.0175 -0.006,0.007 -0.0169,0.0228 0,0.002 -0.002,0.0106 -0.002,0.009 -0.001,0.0164 0.001,0.007 0.007,0.0101 0.0169,0.0206 0.036,0.0275 0.0228,0.009 0.081,0.0191 l 0.064,0.0138 q 0.004,0.003 0.007,0.0101 0.004,0.006 0.003,0.01 -0.002,0.007 -0.0106,0.0138 -0.008,0.007 -0.0164,0.01 -0.0206,0.002 -0.0534,-0.007 -0.0577,-0.0106 -0.0773,-0.0164 -0.0519,-0.0169 -0.0773,-0.0497 -0.0169,-0.0228 -0.0132,-0.0603 z m 0.47837,-0.046 0.003,5.3e-4 q 0.002,-0.0217 0.009,-0.0291 0.006,-0.007 0.01,-0.007 0.002,0 0.004,0 0.004,-5.3e-4 0.006,5.3e-4 0.003,0.001 0.007,0.005 0.005,0.004 0.006,0.005 0.008,0.0138 0.007,0.0333 0,0.001 -0.0101,0.0249 -0.004,0.0196 -10e-4,0.0402 0.003,0.0201 0.0148,0.0365 0.0101,0.0233 0.002,0.0339 -0.002,0.005 -0.008,0.005 -0.003,0 -0.008,-0.002 -0.004,-0.002 -0.0101,-0.004 -0.006,-0.003 -0.008,-0.003 -0.019,-0.0127 -0.0243,-0.0418 -0.0212,0.0228 -0.0407,0.0333 -0.019,0.0101 -0.0519,0.0175 -0.0175,0.002 -0.0344,-0.004 -0.0164,-0.006 -0.0243,-0.0127 -0.008,-0.006 -0.027,-0.0233 -0.007,-0.0101 -0.0122,-0.0191 -0.004,-0.009 -0.006,-0.0196 -0.002,-0.0106 -0.002,-0.0153 -5.3e-4,-0.005 0,-0.0196 5.2e-4,-0.0148 5.2e-4,-0.0201 0.003,-0.003 0.003,-0.0101 v -0.003 q -0.002,-0.008 0.007,-0.037 10e-4,-0.002 0.006,-0.007 0.005,-0.005 0.007,-0.006 0.005,-10e-4 0.0169,0.001 0.0122,0.002 0.0132,0.002 0.004,0.001 0.006,0.004 0.003,0.003 0.003,0.007 0.001,0.004 0.001,0.007 0,0.003 -5.3e-4,0.008 0,0.005 0,0.007 0,0.001 -0.002,0.004 l -0.002,0.003 q -0.0106,0.0228 -0.0106,0.0476 -0.002,0.0138 0.007,0.0286 0.008,0.0143 0.0206,0.0243 0.0254,0.006 0.0312,0.006 0.0111,0 0.0222,-0.006 0.008,-0.003 0.0159,-0.008 0.008,-0.006 0.0127,-0.0106 0.005,-0.005 0.0116,-0.0148 0.007,-0.01 0.01,-0.0138 0.003,-0.005 0.01,-0.0169 0.007,-0.0122 0.009,-0.0153 0,-0.003 0,-0.008 5.3e-4,-0.005 5.3e-4,-0.007 z m 0.0984,0.007 q 0.004,-0.0233 0.0159,-0.0402 0.0122,-0.0169 0.0344,-0.037 0.019,-0.01 0.0492,-0.01 0.037,0 0.0609,0.0127 0.045,0.028 0.064,0.0471 0,0.002 5.3e-4,0.008 5.3e-4,0.006 -5.3e-4,0.0106 -5.3e-4,0.004 -0.004,0.005 -0.0169,0.003 -0.0344,-0.005 -0.004,-0.003 -0.0138,-0.008 -0.01,-0.006 -0.0143,-0.008 -0.005,-0.003 -0.0127,-0.005 -0.008,-0.003 -0.0154,-0.003 -0.004,0 -0.0138,0 -0.01,-5.3e-4 -0.0153,0 -0.005,0 -0.0132,0.002 -0.008,0.002 -0.0143,0.005 l -0.003,0.003 q -0.019,0.0254 -0.0238,0.0392 0.001,0.0159 0,0.0286 -0.001,0.0122 -5.3e-4,0.028 0.001,0.0159 0.004,0.028 0.004,0.006 0.004,0.0127 5.3e-4,0.006 -0.003,0.0138 -0.003,0.008 -0.005,0.0111 -0.001,0.003 -0.007,0.0122 -0.005,0.006 -0.0116,0.006 -0.007,0 -0.0153,-0.006 -0.0127,-0.008 -0.0201,-0.0296 0,-0.0836 0.007,-0.12012 z m 0.24341,0.10477 q 0.001,-0.002 0.005,-0.008 0.004,-0.006 0.005,-0.009 0.0275,0.005 0.0466,0.0233 0.0101,0.007 0.0238,0.0116 0.0143,0.004 0.0212,0.005 0.007,5.3e-4 0.0286,5.3e-4 0.0212,-5.3e-4 0.0238,-5.3e-4 0.0116,0 0.0302,-0.007 0.005,-0.002 0.006,-0.007 0.001,-0.005 -0.003,-0.009 -0.0101,-0.007 -0.0524,-0.0281 -0.0418,-0.0206 -0.0445,-0.0222 -0.054,-0.0164 -0.0942,-0.0471 -0.003,-0.004 -0.009,-0.008 -0.006,-0.005 -0.01,-0.0101 -0.004,-0.005 -0.005,-0.0116 -5.3e-4,-0.0206 0.0201,-0.0365 0.003,-10e-4 0.0206,-0.006 0.018,-0.005 0.0265,-0.0106 0.0492,-0.0196 0.0937,-0.0228 0.001,0 0.006,5.3e-4 0.005,5.3e-4 0.006,5.3e-4 10e-4,0 0.005,5.3e-4 0.004,5.3e-4 0.005,10e-4 0.001,5.3e-4 0.004,0.002 0.003,10e-4 0.004,0.003 0.002,10e-4 0.004,0.003 0.002,0.002 0.003,0.004 0.002,0.002 0.003,0.005 0.003,0.0185 -0.0101,0.0302 -0.003,0 -0.0169,5.3e-4 -0.0143,5.3e-4 -0.0185,0.001 -0.004,0 -0.0159,0.002 -0.0117,0.001 -0.018,0.003 -0.006,0.002 -0.0148,0.005 -0.008,0.003 -0.0159,0.007 -0.007,0.003 -0.0101,0.008 -0.002,0.006 0.006,0.0101 0.0243,0.0169 0.072,0.0386 0.0476,0.0217 0.0651,0.0318 0.0175,0.0111 0.0302,0.027 0.0132,0.0153 0.0164,0.0349 0.004,0.0196 -0.0164,0.0349 -0.0127,0.0101 -0.0333,0.0153 -0.0201,0.005 -0.0323,0.006 -0.0122,10e-4 -0.0376,0.002 -0.0265,0.001 -0.0566,-0.008 -0.0302,-0.009 -0.0513,-0.0254 -0.0212,-0.008 -0.0164,-0.0397 z m 0.30692,-0.004 q 0,-0.0201 0.003,-0.0931 0.003,-0.0735 0.005,-0.0947 0,-0.0132 -0.001,-0.018 -0.003,0.004 -0.0159,0.008 -0.0122,0.004 -0.0185,0.004 -0.0106,0 -0.019,-0.005 -0.008,-0.005 -0.007,-0.01 0.0444,-0.0646 0.0635,-0.0847 0.0175,-0.018 0.0312,-0.018 0.005,0 0.0116,0.002 0.004,0.001 0.004,0.006 v 0.13653 q 0,0.006 -5.3e-4,0.0148 l -0.003,0.0577 q -5.3e-4,0.008 -5.3e-4,0.0148 0,0.0497 -0.002,0.10478 0.003,0.0138 -0.0101,0.0275 -0.009,0.003 -0.0154,0.003 -0.0101,0 -0.018,-0.006 -5.3e-4,0 -0.002,-0.002 -0.001,-0.001 -0.001,-0.002 -0.007,-0.009 -0.007,-0.0249 0,-0.001 0.003,-0.0217 z m 0.15663,-0.26935 q 0.0307,-0.0847 0.0677,-0.091 0.003,-0.001 0.005,0 0.003,0.001 0.006,0.005 0.004,0.003 0.004,0.003 v 0.0206 q 0,0.004 0.003,0.004 0.0291,-0.0101 0.0503,-0.0101 0.0444,0 0.0794,0.0349 0.0296,0.0302 0.0386,0.09 0.01,0.0598 -0.01,0.10531 -0.0238,0.0725 -0.0725,0.11588 -0.0487,0.0434 -0.10213,0.046 -0.027,0.004 -0.0699,-0.037 -0.007,-0.007 -0.0132,-0.0175 -0.005,-0.0101 -0.0116,-0.0265 -0.006,-0.0164 -0.01,-0.0238 l -0.002,-0.007 q -0.005,-0.0323 -0.005,-0.0561 -5.3e-4,-0.0238 0.006,-0.0492 0.007,-0.0254 0.019,-0.0582 0.0122,-0.0333 0.0169,-0.0487 z m 0.005,0.14764 q 0.004,0.0481 0.0127,0.0646 0.018,0.0339 0.0349,0.0487 0.0175,0.0148 0.0408,0.009 0.064,-0.0222 0.10054,-0.10795 0.0169,-0.0275 0.0164,-0.0752 0,-0.0481 -0.0201,-0.072 -0.0153,-0.0191 -0.0296,-0.027 -0.0138,-0.008 -0.0328,-0.008 -0.0243,0 -0.046,0.01 -0.008,0.005 -0.0222,0.036 -0.007,0.002 -0.0106,0.001 -0.003,-0.002 -0.007,-0.0111 -0.0323,0.0788 -0.0365,0.13229 z m 0.4371,0.019 q -0.0349,0.0296 -0.0635,0.0736 -0.001,0.002 -0.0138,0.0233 -0.0122,0.0206 -0.0164,0.0302 -0.006,0.01 -0.0169,0.007 l -0.0233,-0.0238 v -0.0164 q 0.003,-0.0138 0.006,-0.0534 0.003,-0.0397 0.004,-0.0471 0,-0.003 -5.3e-4,-0.005 l -0.002,-0.0138 q -5.3e-4,-0.002 -5.3e-4,-0.005 v -0.002 q 0,-0.008 0.005,-0.0138 0.006,-0.005 0.0143,-0.005 0.0169,0 0.0238,0.0106 0.004,0.0143 0.004,0.037 0,0.005 -5.3e-4,0.0122 0,0.007 0,0.007 0.004,-0.003 0.0169,-0.0159 0.0132,-0.0132 0.0164,-0.0175 0.004,-0.005 0.009,-0.0127 0.006,-0.008 0.0111,-0.0143 0.005,-0.006 0.0127,-0.0122 0.003,-0.004 0.006,-0.005 0.004,-0.002 0.007,-0.002 0.004,-5.3e-4 0.008,-5.3e-4 0.004,0 0.008,0 0.006,-0.002 0.0116,10e-4 0.006,0.003 0.0132,0.0116 0.007,0.008 0.008,0.0116 0.002,0.003 0.008,0.0132 0.0164,0.0381 0.0164,0.0831 l 0.0101,0.0434 q 0,0.002 0.003,0.0106 0.004,0.009 0.004,0.01 10e-4,0.0143 -0.007,0.0201 -0.002,5.3e-4 -0.008,0.003 -0.006,0.002 -0.009,0.002 -0.005,0 -0.006,-0.005 -0.001,-0.002 -0.007,-0.0116 -0.006,-0.0106 -0.01,-0.0148 -0.0101,-0.0349 -0.0132,-0.0672 -0.002,-0.004 -0.005,-0.0159 -0.003,-0.0127 -0.005,-0.0175 -0.0111,-0.0127 -0.0148,-0.0138 -0.004,0 -0.005,5.3e-4 z m 0.0884,0.17939 q 0,-0.0132 0.007,-0.0201 l 0.0201,-0.0201 h 5.2e-4 l 0.002,-5.3e-4 q 0.003,0 0.0138,0.004 h 0.006 q 0.003,0 0.01,5.3e-4 0.006,0 0.009,0 0.0254,0.002 0.0725,-0.003 0.0471,-0.004 0.0672,-0.005 0.0995,-0.008 0.18415,-0.0201 0.003,0 0.0132,-0.003 0.0101,-0.003 0.0138,-0.007 h 0.0169 q 0.006,0.002 0.006,0.004 l 0.0201,0.0201 q 0.002,5.2e-4 0.004,0.006 v 0.007 q -0.004,0.0117 -0.0148,0.0328 -0.01,0.018 -0.0328,0.018 -0.006,0 -0.0169,-0.0106 -0.0101,-0.0101 -0.0127,-0.0101 h -0.0333 q -0.002,0 -0.0106,0.002 -0.008,0.002 -0.01,0.002 h -0.0571 q -0.0132,5.3e-4 -0.0587,0.003 -0.0455,0.003 -0.0672,0.004 -0.0212,0.002 -0.0556,0.006 -0.0339,0.005 -0.0593,0.0111 -0.003,0 -0.008,0.002 -0.005,0.002 -0.01,0.002 -0.006,0 -0.0127,-0.007 -0.007,-0.007 -0.007,-0.0164 z"
         id="path567" />
      <path
         style="stroke-width:0.5"
         d="m 128.32848,125.89195 v -0.004 q 0.005,-0.0423 0.0402,-0.0746 0.0349,-0.0328 0.0767,-0.0259 0.0196,10e-4 0.0349,0.0148 0.0159,0.0138 0.0153,0.0323 0,0.005 -0.003,0.007 -0.003,0.001 -0.009,5.3e-4 -0.006,-10e-4 -0.008,-5.3e-4 -0.027,-0.01 -0.0503,-0.007 -0.054,0.0275 -0.0534,0.0704 -0.004,0.0175 0.007,0.0275 0.0116,0.0101 0.0291,0.0101 0.0122,0 0.0206,-0.004 0.0566,-0.0296 0.0937,-0.11377 0,-0.0116 5.3e-4,-0.0212 l 0.002,-0.0646 q 5.3e-4,-0.01 5.3e-4,-0.0212 0.005,-0.0513 0.0101,-0.0672 5.3e-4,-0.007 0.003,-0.0196 0.002,-0.0127 0.004,-0.0259 0.003,-0.0138 0.003,-0.018 0.002,-0.0153 0.0169,-0.0201 0.008,5.3e-4 0.0185,0.006 0.01,0.005 0.0111,0.0111 0.003,0.006 0.003,0.0143 0.001,0.008 5.3e-4,0.0143 -5.3e-4,0.006 0,0.0148 -5.3e-4,0.004 0.001,0.0206 0.002,0.0164 0.002,0.0196 0,0.0196 -0.007,0.0767 -0.002,0.0111 -0.0101,0.0318 -0.008,0.0206 -0.0101,0.0318 v 0.0339 q 5.3e-4,5.3e-4 5.3e-4,0.002 l 0.003,0.006 5.3e-4,0.002 0.0101,0.0339 q 0.003,0.0127 0.008,0.0249 0.005,0.0116 0.0122,0.0291 0.007,0.0169 0.0101,0.0228 10e-4,0.0164 -0.007,0.0228 -0.002,0.003 -0.006,0.003 -0.003,0 -0.0175,-0.009 -0.005,-0.005 -0.0106,-0.0122 -0.005,-0.007 -0.008,-0.0132 -0.003,-0.006 -0.008,-0.0159 -0.004,-0.0106 -0.006,-0.0148 -0.002,-0.005 -0.006,-0.0164 -0.004,-0.0122 -0.005,-0.0148 -0.007,0.004 -0.0228,0.0249 -0.0153,0.0201 -0.0175,0.0222 -0.0381,0.0392 -0.0704,0.0497 -0.0323,0.004 -0.0391,0.004 -0.0259,0 -0.0413,-0.0138 -0.007,-0.006 -0.0132,-0.0138 -0.008,-0.0138 -0.0106,-0.0355 -0.002,-0.0217 5.3e-4,-0.0376 z m 0.32332,0.0704 q 0,-0.002 0,-0.007 5.3e-4,-0.006 5.3e-4,-0.008 5.3e-4,-0.002 0.001,-0.006 10e-4,-0.004 0.002,-0.006 0.002,-0.002 0.004,-0.004 0.003,-0.003 0.006,-0.004 0.0132,0.002 0.0376,0.0111 0.0243,0.009 0.0328,0.0111 0.0434,0.0111 0.0825,0.0111 0.0339,0 0.0619,-0.007 0.002,-10e-4 0.008,-0.005 0.007,-0.004 0.0106,-0.006 0.004,-0.003 0.009,-0.007 0.006,-0.004 0.009,-0.008 0.003,-0.004 0.005,-0.009 0.002,-0.0148 -0.007,-0.0302 -0.008,-0.0153 -0.0153,-0.0217 -0.007,-0.006 -0.0228,-0.0196 -0.0148,-0.0101 -0.0354,-0.0169 -0.0201,-0.007 -0.036,-0.0101 -0.0154,-0.003 -0.0397,-0.007 -0.0243,-0.004 -0.0365,-0.006 -0.004,-10e-4 -0.01,-0.003 -0.005,-0.002 -0.007,-0.002 -0.002,-10e-4 -0.004,-0.004 -0.003,-0.003 -0.005,-0.009 -0.007,-0.01 -0.006,-0.0243 10e-4,-0.0148 0.01,-0.0217 0.006,-0.002 0.0275,-0.008 0.0217,-0.006 0.0386,-0.0122 0.0175,-0.006 0.0259,-0.0106 0.004,0.002 0.006,-0.003 0.002,-0.004 0.001,-0.01 -0.008,-10e-4 -0.0291,-0.006 -0.0206,-0.006 -0.0312,-0.006 -0.0122,-0.002 -0.0254,-0.002 -0.0392,0 -0.0693,0.0164 l -0.0106,-0.008 q -0.0132,-0.0238 0.003,-0.0344 0.007,-0.0101 0.0259,-0.018 0.004,-5.3e-4 0.0201,-0.003 0.0169,-0.003 0.0275,-0.004 0.0111,-0.001 0.0196,0 0.0894,0.01 0.14023,0.0423 0,0.002 0.002,0.008 0.002,0.006 0.002,0.0111 0,0.004 -0.003,0.008 -0.002,0.0153 -0.0122,0.0259 -0.0101,0.0101 -0.0259,0.0196 -0.0153,0.009 -0.0212,0.0148 -5.3e-4,0.003 0.004,0.006 0.0381,0.004 0.0958,0.054 5.3e-4,5.3e-4 0.007,0.008 0.006,0.007 0.007,0.008 10e-4,0.002 0.006,0.008 0.006,0.006 0.007,0.009 0.002,0.003 0.005,0.009 0.004,0.006 0.006,0.0106 0.002,0.004 0.004,0.0106 0.003,0.006 0.004,0.0116 0.001,0.006 0.002,0.0122 0.003,0.0365 -0.0418,0.073 -0.0312,0.0153 -0.0884,0.0196 -0.006,-5.2e-4 -0.0228,-0.002 -0.0169,-5.3e-4 -0.0254,-0.001 -0.008,-5.3e-4 -0.0233,-0.002 -0.0153,-0.001 -0.0259,-0.003 -0.01,-0.002 -0.0227,-0.004 -0.0127,-0.002 -0.0238,-0.005 -0.0333,0.001 -0.0397,-0.0259 z m 0.36142,-0.12118 q 0.008,-0.0259 0.0243,-0.0413 0.0164,-0.0153 0.0429,-0.0259 0.0111,-0.003 0.018,-0.003 0.004,0 0.0175,0.002 0.0624,0.0164 0.0884,0.055 0.0339,0.0328 0.027,0.10002 -0.008,0.0249 -0.0376,0.0418 -0.0291,0.0164 -0.0561,0.0148 -0.0243,0.006 -0.0466,-0.008 -0.0217,-0.0143 -0.0439,-0.0386 h -0.002 q 0,0.005 -0.001,0.0408 -5.3e-4,0.0354 -5.3e-4,0.0529 -0.004,0.0566 0.027,0.11007 0.005,0.01 0,0.0238 -0.0106,0.0122 -0.0169,0.0132 -0.004,5.3e-4 -0.006,5.3e-4 -0.002,5.3e-4 -0.006,-0.003 -0.004,-0.003 -0.005,-0.005 -0.002,-0.002 -0.005,-0.005 -0.003,-0.004 -0.004,-0.005 -0.0212,-0.0381 -0.027,-0.127 0,-0.004 -5.3e-4,-0.0318 0,-0.027 0,-0.0339 0,-0.007 5.3e-4,-0.0286 5.3e-4,-0.0222 0.002,-0.0339 0.002,-0.0122 0.004,-0.0302 0.003,-0.0185 0.007,-0.0355 z m 0.0741,0.0667 q 0.002,0.003 0.0127,0.0143 0.0106,0.0106 0.0138,0.0127 0.0111,0.006 0.0259,0.006 0.0317,0 0.0413,-0.0233 0.007,-0.0222 -5.3e-4,-0.0397 -0.007,-0.018 -0.0265,-0.037 -0.007,-0.006 -0.0106,-0.009 -0.004,-0.003 -0.0106,-0.005 -0.006,-0.003 -0.0122,5.3e-4 -0.0222,0.0106 -0.037,0.0497 0,0.003 -5.3e-4,0.01 0,0.007 5.3e-4,0.0116 0.001,0.005 0.004,0.009 z m 0.24924,-0.0249 0.001,-0.0434 q 0,-0.0153 -0.003,-0.0471 -0.003,-0.0122 -0.006,-0.0143 -0.0349,0.003 -0.0534,0.0116 -0.005,0 -0.0138,0.004 -0.009,0.004 -0.0154,0.003 -0.004,-0.002 -0.007,-0.005 -0.004,-0.003 -0.007,-0.007 -0.004,-0.005 -0.007,-0.007 -0.002,-0.005 -0.002,-0.0148 5.3e-4,-0.01 0.004,-0.0143 l 0.0175,-0.0153 q 0.0275,-5.3e-4 0.082,-0.0106 l 0.004,-0.004 0.001,-0.0831 q 0.0122,-0.0132 0.0302,-0.01 0.0143,0.0111 0.0159,0.0275 0.002,0.003 0.002,0.0265 5.3e-4,0.0233 0.004,0.027 5.3e-4,0 0.005,0.002 0.005,0.001 0.005,0.002 0.0106,-10e-4 0.027,-0.004 0.0164,-0.003 0.0238,-0.004 0.007,-5.3e-4 0.027,5.3e-4 l 0.0243,0.001 q 0.0228,0.003 0.0169,0.0265 -0.009,0.009 -0.0138,0.0101 -0.0122,0.001 -0.0249,0.003 -0.0127,0.002 -0.0317,0.007 -0.0185,0.004 -0.0249,0.005 l -0.001,5.3e-4 q -0.0137,5.3e-4 -0.0312,0.007 l -0.003,0.004 q 0,0.006 -0.001,0.0212 -5.3e-4,0.0143 0,0.0249 5.3e-4,0.0101 0.003,0.0206 0,0.0926 0.01,0.11535 0.0106,0.01 0.0191,0.0101 0.005,0 0.0122,-0.002 0.002,-5.3e-4 0.006,-0.002 0.004,-10e-4 0.006,-10e-4 0.002,-5.2e-4 0.005,-0.002 0.003,-10e-4 0.004,-0.002 0.002,-5.3e-4 0.004,-0.002 0.003,-0.002 0.004,-0.003 0.002,-0.002 0.004,-0.004 0.002,-0.002 0.004,-0.005 0.002,-0.003 0.004,-0.006 0.002,-0.004 0.005,-0.008 -5.3e-4,-0.003 0.002,-0.0127 0.002,-0.01 0.003,-0.0127 0.006,-0.0164 0.0212,-0.0159 0.007,-0.001 0.0111,0.003 0.004,0.004 0.007,0.0132 l 0.003,0.009 q -0.004,0.0259 -0.008,0.0323 -0.0106,0.0212 -0.0164,0.0291 -0.005,0.008 -0.0196,0.0164 -0.0143,0.009 -0.0439,0.0185 -0.002,5.3e-4 -0.0122,0.004 -0.0106,0.004 -0.0164,0.004 -0.0243,-10e-4 -0.036,-0.0159 -0.002,-0.003 -0.01,-0.0164 -0.008,-0.0138 -0.0111,-0.0238 -0.003,-0.0106 -0.002,-0.0222 -5.3e-4,-0.01 -0.003,-0.0275 -0.002,-0.018 -0.003,-0.0227 -5.3e-4,-5.3e-4 -5.3e-4,-0.001 z m 0.37677,-0.0265 q -0.0148,0.006 -0.0286,0.0175 -0.0132,0.0111 -0.0196,0.0185 -0.006,0.007 -0.0201,0.027 -0.0137,0.0196 -0.0175,0.0243 -0.009,0.0243 -0.0265,0.0397 -0.007,0.004 -0.0132,0.004 -0.0116,0 -0.0169,-0.0101 -0.001,-0.002 -0.004,-0.005 -0.003,-0.003 -0.005,-0.006 l -0.002,-0.003 q 0,-0.002 -5.3e-4,-0.007 0,-0.006 0,-0.009 0,-0.004 5.3e-4,-0.008 0.001,-0.004 0.003,-0.006 0.002,-0.0175 0.003,-0.0376 0.001,-0.0201 5.3e-4,-0.0333 -5.3e-4,-0.0138 -0.002,-0.0381 -0.001,-0.0243 -0.002,-0.0344 0.001,-0.0138 -0.002,-0.0439 -0.003,-0.0302 -0.002,-0.0434 v -0.0302 q -5.3e-4,-0.006 0.006,-0.007 0.007,-0.001 0.0111,5.3e-4 5.3e-4,5.3e-4 0.005,0.005 0.004,0.004 0.007,0.008 0.004,0.004 0.004,0.007 0.0143,0.0683 0.0138,0.0905 0,0.005 0.002,0.0487 0.002,0.0434 0.002,0.0481 v 0.0101 h 0.003 q 0.004,-0.004 0.0355,-0.0355 0.0312,-0.0323 0.0519,-0.0444 0.01,-0.004 0.0212,-0.004 0.0175,0 0.0286,0.0132 0.018,0.0196 0.0265,0.0434 0.008,0.0233 0.0137,0.0572 0.0154,0.0471 0.0138,0.0699 l -0.002,0.003 q -0.001,0.003 -0.002,0.004 -0.003,0.004 -0.009,0.004 -0.004,0 -0.0143,-0.004 -0.0159,-0.0196 -0.027,-0.0497 -0.0127,-0.0376 -0.0132,-0.0434 -0.008,-0.036 -0.0249,-0.0407 z m 0.082,0.16139 q 0,-0.0132 0.007,-0.0201 l 0.0201,-0.0201 h 5.2e-4 l 0.002,-5.3e-4 q 0.003,0 0.0138,0.004 h 0.006 q 0.003,0 0.01,5.3e-4 0.006,0 0.009,0 0.0254,0.002 0.0725,-0.003 0.0471,-0.004 0.0672,-0.005 0.0995,-0.008 0.18415,-0.0201 0.003,0 0.0132,-0.003 0.0101,-0.003 0.0138,-0.007 h 0.0169 q 0.006,0.002 0.006,0.004 l 0.0201,0.0201 q 0.002,5.3e-4 0.004,0.006 v 0.007 q -0.004,0.0116 -0.0148,0.0328 -0.01,0.018 -0.0328,0.018 -0.006,0 -0.0169,-0.0106 -0.0101,-0.01 -0.0127,-0.01 h -0.0333 q -0.002,0 -0.0106,0.002 -0.008,0.002 -0.01,0.002 h -0.0572 q -0.0132,5.3e-4 -0.0587,0.003 -0.0455,0.003 -0.0672,0.004 -0.0212,0.002 -0.0556,0.006 -0.0339,0.005 -0.0593,0.0111 -0.003,0 -0.008,0.002 -0.005,0.002 -0.01,0.002 -0.006,0 -0.0127,-0.007 -0.007,-0.007 -0.007,-0.0164 z"
         id="path568" />
      <path
         style="stroke-width:0.5"
         d="m 128.3507,126.62379 q 0,-0.002 0,-0.007 5.3e-4,-0.006 5.3e-4,-0.008 5.3e-4,-0.002 0.001,-0.006 0.001,-0.004 0.002,-0.006 0.002,-0.002 0.004,-0.004 0.003,-0.003 0.006,-0.004 0.0132,0.002 0.0376,0.0111 0.0243,0.009 0.0328,0.0111 0.0434,0.0111 0.0825,0.0111 0.0339,0 0.0619,-0.007 0.002,-10e-4 0.008,-0.005 0.007,-0.004 0.0106,-0.006 0.004,-0.003 0.009,-0.007 0.006,-0.004 0.009,-0.008 0.003,-0.004 0.005,-0.009 0.002,-0.0148 -0.007,-0.0302 -0.008,-0.0153 -0.0153,-0.0217 -0.007,-0.006 -0.0228,-0.0196 -0.0148,-0.01 -0.0355,-0.0169 -0.0201,-0.007 -0.036,-0.01 -0.0154,-0.003 -0.0397,-0.007 -0.0243,-0.004 -0.0365,-0.006 -0.004,-10e-4 -0.01,-0.003 -0.005,-0.002 -0.007,-0.002 -0.002,-0.001 -0.004,-0.004 -0.003,-0.003 -0.005,-0.009 -0.007,-0.01 -0.006,-0.0243 0.001,-0.0148 0.01,-0.0217 0.006,-0.002 0.0275,-0.008 0.0217,-0.006 0.0386,-0.0122 0.0175,-0.006 0.0259,-0.0106 0.004,0.002 0.006,-0.003 0.002,-0.004 0.001,-0.01 -0.008,-0.001 -0.0291,-0.006 -0.0206,-0.006 -0.0312,-0.006 -0.0122,-0.002 -0.0254,-0.002 -0.0392,0 -0.0693,0.0164 l -0.0106,-0.008 q -0.0132,-0.0238 0.003,-0.0344 0.007,-0.0101 0.0259,-0.018 0.004,-5.3e-4 0.0201,-0.003 0.0169,-0.003 0.0275,-0.004 0.0111,-0.001 0.0196,0 0.0894,0.01 0.14023,0.0423 0,0.002 0.002,0.008 0.002,0.006 0.002,0.0111 0,0.004 -0.003,0.008 -0.002,0.0153 -0.0122,0.0259 -0.0101,0.01 -0.0259,0.0196 -0.0153,0.009 -0.0212,0.0148 -5.3e-4,0.003 0.004,0.006 0.0381,0.004 0.0958,0.054 5.3e-4,5.3e-4 0.007,0.008 0.006,0.007 0.007,0.008 0.001,0.002 0.006,0.008 0.006,0.006 0.007,0.009 0.002,0.003 0.005,0.009 0.004,0.006 0.006,0.0106 0.002,0.004 0.004,0.0106 0.003,0.006 0.004,0.0116 0.001,0.006 0.002,0.0122 0.003,0.0365 -0.0418,0.073 -0.0312,0.0153 -0.0884,0.0196 -0.006,-5.3e-4 -0.0228,-0.002 -0.0169,-5.3e-4 -0.0254,-0.001 -0.008,-5.3e-4 -0.0233,-0.002 -0.0153,-0.001 -0.0259,-0.003 -0.0101,-0.002 -0.0228,-0.004 -0.0127,-0.002 -0.0238,-0.005 -0.0333,0.001 -0.0397,-0.0259 z m 0.34661,0.008 v -0.002 q 0.004,-0.005 0.0233,-0.0201 0.005,-0.002 0.0328,-0.0185 0.004,-0.004 0.0212,-0.0185 0.018,-0.0153 0.0233,-0.0265 -0.003,-0.005 -0.007,-0.0101 -0.004,-0.005 -0.0106,-0.0106 -0.006,-0.006 -0.009,-0.01 -0.0249,-0.0259 -0.0302,-0.0365 v -0.0238 q 0.001,-0.004 0.0138,-0.0164 0.003,-0.004 0.007,-0.004 0.002,0 0.004,5.3e-4 0.002,5.3e-4 0.005,0.002 0.003,0.001 0.004,0.002 5.3e-4,0 0.003,0.003 0.003,0.002 0.006,0.006 0.004,0.004 0.005,0.005 0.006,0.006 0.0217,0.0286 0.0164,0.0222 0.0286,0.0318 0.003,5.2e-4 0.004,5.2e-4 0.001,0 0.003,-5.2e-4 h 0.003 q 0.004,-0.002 0.0286,-0.0201 0.0254,-0.018 0.0381,-0.0233 0.0503,-0.0312 0.0958,-0.0339 0.001,-0.001 0.003,0 0.002,5.3e-4 0.002,0.001 0.001,0 0.002,0.002 0.002,0.002 0.002,0.003 5.3e-4,5.3e-4 0.002,0.003 0.001,0.002 0.001,0.002 0,0.002 0,0.007 5.3e-4,0.005 -5.2e-4,0.008 -5.3e-4,0.003 -0.003,0.005 -0.0111,0.01 -0.0265,0.0138 -0.005,0.002 -0.0228,0.0106 -0.0175,0.008 -0.0228,0.0111 -0.005,0.003 -0.018,0.0101 -0.0132,0.007 -0.0201,0.0122 -0.006,0.005 -0.0159,0.0127 -0.01,0.008 -0.018,0.0169 -0.001,0.003 0,0.007 l 0.0302,0.0302 q 10e-4,10e-4 0.0138,0.006 0.002,5.3e-4 0.007,0.002 0.006,5.3e-4 0.0101,0.002 0.004,0.001 0.006,0.003 0.008,0.0143 0.007,0.0212 0,0.0138 -0.0169,0.0191 -0.007,-5.3e-4 -0.0127,0 -0.006,5.3e-4 -0.0127,0 -0.006,-0.001 -0.0116,-0.004 -0.0111,-0.007 -0.0312,-0.0249 -0.0196,-0.0185 -0.0291,-0.0249 -0.001,-5.2e-4 -0.004,-5.2e-4 -0.003,0 -0.004,0 -0.01,0.004 -0.0175,0.01 -0.007,0.006 -0.0185,0.0175 -0.0106,0.0111 -0.0132,0.0132 -0.003,0.003 -0.0164,0.018 -0.0132,0.0153 -0.0206,0.0217 -0.0101,0.008 -0.0164,0.007 -0.006,0.001 -0.0169,-0.007 -0.0138,-0.0228 -0.0101,-0.0376 z m 0.29421,-0.091 q 0.004,-0.0249 0.0143,-0.0418 0.0111,-0.0169 0.0328,-0.0355 0.018,-0.0206 0.0434,-0.0312 0.0254,-0.0106 0.0503,-0.006 0.0111,-5.3e-4 0.0228,0.006 0.0122,0.006 0.0169,0.0111 0.005,0.005 0.0175,0.0169 0.0122,0.0164 0.0101,0.0503 -0.007,0.0127 -0.0138,0.0132 -0.002,0 -0.009,10e-4 -0.007,5.3e-4 -0.0116,-10e-4 -0.004,-0.002 -0.006,-0.007 -0.0106,-0.0281 -0.0164,-0.0312 -0.008,-0.005 -0.0185,-0.006 -0.0106,-5.3e-4 -0.019,5.3e-4 -0.0127,0.003 -0.0249,0.0132 -0.0122,0.01 -0.0185,0.0175 -0.006,0.007 -0.0169,0.0227 0,0.002 -0.002,0.0106 -0.002,0.009 -0.001,0.0164 0.001,0.007 0.007,0.01 0.0169,0.0206 0.036,0.0275 0.0227,0.009 0.081,0.0191 l 0.064,0.0138 q 0.004,0.003 0.007,0.01 0.004,0.006 0.003,0.01 -0.002,0.007 -0.0106,0.0138 -0.008,0.007 -0.0164,0.01 -0.0206,0.002 -0.0534,-0.007 -0.0577,-0.0106 -0.0773,-0.0164 -0.0519,-0.0169 -0.0773,-0.0497 -0.0169,-0.0228 -0.0132,-0.0603 z m 0.28258,0.0831 q 0,-0.002 0,-0.007 5.3e-4,-0.006 5.3e-4,-0.008 5.3e-4,-0.002 0.001,-0.006 0.001,-0.004 0.002,-0.006 0.002,-0.002 0.004,-0.004 0.003,-0.003 0.006,-0.004 0.0132,0.002 0.0376,0.0111 0.0243,0.009 0.0328,0.0111 0.0434,0.0111 0.0825,0.0111 0.0339,0 0.0619,-0.007 0.002,-0.001 0.008,-0.005 0.007,-0.004 0.0106,-0.006 0.004,-0.003 0.009,-0.007 0.006,-0.004 0.009,-0.008 0.003,-0.004 0.005,-0.009 0.002,-0.0148 -0.007,-0.0302 -0.008,-0.0153 -0.0153,-0.0217 -0.007,-0.006 -0.0228,-0.0196 -0.0148,-0.01 -0.0354,-0.0169 -0.0201,-0.007 -0.036,-0.01 -0.0153,-0.003 -0.0397,-0.007 -0.0243,-0.004 -0.0365,-0.006 -0.004,-0.001 -0.01,-0.003 -0.005,-0.002 -0.007,-0.002 -0.002,-0.001 -0.004,-0.004 -0.003,-0.003 -0.005,-0.009 -0.007,-0.01 -0.006,-0.0243 0.001,-0.0148 0.01,-0.0217 0.006,-0.002 0.0275,-0.008 0.0217,-0.006 0.0386,-0.0122 0.0175,-0.006 0.0259,-0.0106 0.004,0.002 0.006,-0.003 0.002,-0.004 10e-4,-0.01 -0.008,-0.001 -0.0291,-0.006 -0.0206,-0.006 -0.0312,-0.006 -0.0122,-0.002 -0.0254,-0.002 -0.0392,0 -0.0693,0.0164 l -0.0106,-0.008 q -0.0132,-0.0238 0.003,-0.0344 0.007,-0.0101 0.0259,-0.018 0.004,-5.3e-4 0.0201,-0.003 0.0169,-0.003 0.0275,-0.004 0.0111,-0.001 0.0196,0 0.0894,0.01 0.14023,0.0423 0,0.002 0.002,0.008 0.002,0.006 0.002,0.0111 0,0.004 -0.003,0.008 -0.002,0.0153 -0.0122,0.0259 -0.0101,0.01 -0.0259,0.0196 -0.0153,0.009 -0.0212,0.0148 -5.3e-4,0.003 0.004,0.006 0.0381,0.004 0.0958,0.054 5.3e-4,5.3e-4 0.007,0.008 0.006,0.007 0.007,0.008 0.001,0.002 0.006,0.008 0.006,0.006 0.007,0.009 0.002,0.003 0.005,0.009 0.004,0.006 0.006,0.0106 0.002,0.004 0.004,0.0106 0.003,0.006 0.004,0.0116 0.001,0.006 0.002,0.0122 0.003,0.0365 -0.0418,0.073 -0.0312,0.0153 -0.0884,0.0196 -0.006,-5.3e-4 -0.0228,-0.002 -0.0169,-5.3e-4 -0.0254,-0.001 -0.008,-5.3e-4 -0.0233,-0.002 -0.0153,-0.001 -0.0259,-0.003 -0.0101,-0.002 -0.0228,-0.004 -0.0127,-0.002 -0.0238,-0.005 -0.0333,10e-4 -0.0397,-0.0259 z m 0.36036,0 q 0,-0.002 0,-0.007 5.3e-4,-0.006 5.3e-4,-0.008 5.3e-4,-0.002 0.001,-0.006 0.001,-0.004 0.002,-0.006 0.002,-0.002 0.004,-0.004 0.003,-0.003 0.006,-0.004 0.0132,0.002 0.0376,0.0111 0.0243,0.009 0.0328,0.0111 0.0434,0.0111 0.0825,0.0111 0.0339,0 0.0619,-0.007 0.002,-0.001 0.008,-0.005 0.007,-0.004 0.0106,-0.006 0.004,-0.003 0.009,-0.007 0.006,-0.004 0.009,-0.008 0.003,-0.004 0.005,-0.009 0.002,-0.0148 -0.007,-0.0302 -0.008,-0.0153 -0.0153,-0.0217 -0.007,-0.006 -0.0228,-0.0196 -0.0148,-0.01 -0.0355,-0.0169 -0.0201,-0.007 -0.036,-0.01 -0.0154,-0.003 -0.0397,-0.007 -0.0243,-0.004 -0.0365,-0.006 -0.004,-0.001 -0.01,-0.003 -0.005,-0.002 -0.007,-0.002 -0.002,-0.001 -0.004,-0.004 -0.003,-0.003 -0.005,-0.009 -0.007,-0.01 -0.006,-0.0243 0.001,-0.0148 0.01,-0.0217 0.006,-0.002 0.0275,-0.008 0.0217,-0.006 0.0386,-0.0122 0.0175,-0.006 0.0259,-0.0106 0.004,0.002 0.006,-0.003 0.002,-0.004 0.001,-0.01 -0.008,-0.001 -0.0291,-0.006 -0.0206,-0.006 -0.0312,-0.006 -0.0122,-0.002 -0.0254,-0.002 -0.0392,0 -0.0693,0.0164 l -0.0106,-0.008 q -0.0132,-0.0238 0.003,-0.0344 0.007,-0.0101 0.0259,-0.018 0.004,-5.3e-4 0.0201,-0.003 0.0169,-0.003 0.0275,-0.004 0.0111,-0.001 0.0196,0 0.0894,0.01 0.14023,0.0423 0,0.002 0.002,0.008 0.002,0.006 0.002,0.0111 0,0.004 -0.003,0.008 -0.002,0.0153 -0.0122,0.0259 -0.0101,0.01 -0.0259,0.0196 -0.0153,0.009 -0.0212,0.0148 -5.3e-4,0.003 0.004,0.006 0.0381,0.004 0.0958,0.054 5.3e-4,5.3e-4 0.007,0.008 0.006,0.007 0.007,0.008 0.001,0.002 0.006,0.008 0.006,0.006 0.007,0.009 0.002,0.003 0.005,0.009 0.004,0.006 0.006,0.0106 0.002,0.004 0.004,0.0106 0.003,0.006 0.004,0.0116 0.001,0.006 0.002,0.0122 0.003,0.0365 -0.0418,0.073 -0.0312,0.0153 -0.0884,0.0196 -0.006,-5.3e-4 -0.0228,-0.002 -0.0169,-5.3e-4 -0.0254,-0.001 -0.008,-5.3e-4 -0.0233,-0.002 -0.0153,-0.001 -0.0259,-0.003 -0.0101,-0.002 -0.0228,-0.004 -0.0127,-0.002 -0.0238,-0.005 -0.0333,10e-4 -0.0397,-0.0259 z m 0.33814,-0.0704 v -0.004 q 0.005,-0.0423 0.0402,-0.0746 0.0349,-0.0328 0.0767,-0.0259 0.0196,0.001 0.0349,0.0148 0.0159,0.0138 0.0153,0.0323 0,0.005 -0.003,0.007 -0.003,0.001 -0.009,5.3e-4 -0.006,-0.001 -0.008,-5.3e-4 -0.027,-0.01 -0.0503,-0.007 -0.054,0.0275 -0.0534,0.0704 -0.004,0.0175 0.007,0.0275 0.0116,0.01 0.0291,0.01 0.0122,0 0.0206,-0.004 0.0566,-0.0296 0.0937,-0.11377 0,-0.0116 5.3e-4,-0.0212 l 0.002,-0.0646 q 5.3e-4,-0.01 5.3e-4,-0.0212 0.005,-0.0513 0.01,-0.0672 5.3e-4,-0.007 0.003,-0.0196 0.002,-0.0127 0.004,-0.0259 0.003,-0.0138 0.003,-0.018 0.002,-0.0153 0.0169,-0.0201 0.008,5.3e-4 0.0185,0.006 0.0101,0.005 0.0111,0.0111 0.003,0.006 0.003,0.0143 0.001,0.008 5.3e-4,0.0143 -5.3e-4,0.006 0,0.0148 -5.3e-4,0.004 0.001,0.0206 0.002,0.0164 0.002,0.0196 0,0.0196 -0.007,0.0767 -0.002,0.0111 -0.0101,0.0318 -0.008,0.0206 -0.01,0.0317 v 0.0339 q 5.2e-4,5.3e-4 5.2e-4,0.002 l 0.003,0.006 5.3e-4,0.002 0.0101,0.0339 q 0.003,0.0127 0.008,0.0249 0.005,0.0117 0.0122,0.0291 0.007,0.0169 0.0101,0.0228 0.001,0.0164 -0.007,0.0228 -0.002,0.003 -0.006,0.003 -0.003,0 -0.0175,-0.009 -0.005,-0.005 -0.0106,-0.0122 -0.005,-0.007 -0.008,-0.0132 -0.003,-0.006 -0.008,-0.0159 -0.004,-0.0106 -0.006,-0.0148 -0.002,-0.005 -0.006,-0.0164 -0.004,-0.0122 -0.005,-0.0148 -0.007,0.004 -0.0228,0.0249 -0.0154,0.0201 -0.0175,0.0222 -0.0381,0.0392 -0.0704,0.0497 -0.0323,0.004 -0.0392,0.004 -0.0259,0 -0.0413,-0.0138 -0.007,-0.006 -0.0132,-0.0138 -0.008,-0.0138 -0.0106,-0.0355 -0.002,-0.0217 5.3e-4,-0.0376 z m 0.32332,0.0704 q 0,-0.002 0,-0.007 5.3e-4,-0.006 5.3e-4,-0.008 5.3e-4,-0.002 0.001,-0.006 0.001,-0.004 0.002,-0.006 0.002,-0.002 0.004,-0.004 0.003,-0.003 0.006,-0.004 0.0132,0.002 0.0376,0.0111 0.0243,0.009 0.0328,0.0111 0.0434,0.0111 0.0826,0.0111 0.0339,0 0.0619,-0.007 0.002,-0.001 0.008,-0.005 0.007,-0.004 0.0106,-0.006 0.004,-0.003 0.009,-0.007 0.006,-0.004 0.009,-0.008 0.003,-0.004 0.005,-0.009 0.002,-0.0148 -0.007,-0.0302 -0.008,-0.0153 -0.0153,-0.0217 -0.007,-0.006 -0.0228,-0.0196 -0.0148,-0.01 -0.0354,-0.0169 -0.0201,-0.007 -0.036,-0.01 -0.0153,-0.003 -0.0397,-0.007 -0.0243,-0.004 -0.0365,-0.006 -0.004,-0.001 -0.01,-0.003 -0.005,-0.002 -0.007,-0.002 -0.002,-0.001 -0.004,-0.004 -0.003,-0.003 -0.005,-0.009 -0.007,-0.01 -0.006,-0.0243 0.001,-0.0148 0.01,-0.0217 0.006,-0.002 0.0275,-0.008 0.0217,-0.006 0.0386,-0.0122 0.0175,-0.006 0.0259,-0.0106 0.004,0.002 0.006,-0.003 0.002,-0.004 0.001,-0.01 -0.008,-0.001 -0.0291,-0.006 -0.0206,-0.006 -0.0312,-0.006 -0.0122,-0.002 -0.0254,-0.002 -0.0392,0 -0.0693,0.0164 l -0.0106,-0.008 q -0.0132,-0.0238 0.003,-0.0344 0.007,-0.0101 0.0259,-0.018 0.004,-5.3e-4 0.0201,-0.003 0.0169,-0.003 0.0275,-0.004 0.0111,-0.001 0.0196,0 0.0894,0.01 0.14023,0.0423 0,0.002 0.002,0.008 0.002,0.006 0.002,0.0111 0,0.004 -0.003,0.008 -0.002,0.0153 -0.0122,0.0259 -0.0101,0.01 -0.0259,0.0196 -0.0154,0.009 -0.0212,0.0148 -5.3e-4,0.003 0.004,0.006 0.0381,0.004 0.0958,0.054 5.3e-4,5.3e-4 0.007,0.008 0.006,0.007 0.007,0.008 0.001,0.002 0.006,0.008 0.006,0.006 0.007,0.009 0.002,0.003 0.005,0.009 0.004,0.006 0.006,0.0106 0.002,0.004 0.004,0.0106 0.003,0.006 0.004,0.0116 0.001,0.006 0.002,0.0122 0.003,0.0365 -0.0418,0.073 -0.0312,0.0153 -0.0884,0.0196 -0.006,-5.3e-4 -0.0227,-0.002 -0.0169,-5.3e-4 -0.0254,-0.001 -0.008,-5.3e-4 -0.0233,-0.002 -0.0153,-0.001 -0.0259,-0.003 -0.0101,-0.002 -0.0228,-0.004 -0.0127,-0.002 -0.0238,-0.005 -0.0333,10e-4 -0.0397,-0.0259 z m 0.33814,-0.0704 v -0.004 q 0.005,-0.0423 0.0402,-0.0746 0.0349,-0.0328 0.0767,-0.0259 0.0196,0.001 0.0349,0.0148 0.0159,0.0138 0.0153,0.0323 0,0.005 -0.003,0.007 -0.003,0.001 -0.009,5.3e-4 -0.006,-0.001 -0.008,-5.3e-4 -0.027,-0.01 -0.0503,-0.007 -0.054,0.0275 -0.0534,0.0704 -0.004,0.0175 0.007,0.0275 0.0116,0.01 0.0291,0.01 0.0122,0 0.0206,-0.004 0.0566,-0.0296 0.0937,-0.11377 0,-0.0116 5.3e-4,-0.0212 l 0.002,-0.0646 q 5.3e-4,-0.01 5.3e-4,-0.0212 0.005,-0.0513 0.0101,-0.0672 5.3e-4,-0.007 0.003,-0.0196 0.002,-0.0127 0.004,-0.0259 0.003,-0.0138 0.003,-0.018 0.002,-0.0153 0.0169,-0.0201 0.008,5.3e-4 0.0185,0.006 0.0101,0.005 0.0111,0.0111 0.003,0.006 0.003,0.0143 0.001,0.008 5.3e-4,0.0143 -5.3e-4,0.006 0,0.0148 -5.3e-4,0.004 0.001,0.0206 0.002,0.0164 0.002,0.0196 0,0.0196 -0.007,0.0767 -0.002,0.0111 -0.0101,0.0318 -0.008,0.0206 -0.0101,0.0317 v 0.0339 q 5.3e-4,5.3e-4 5.3e-4,0.002 l 0.003,0.006 5.3e-4,0.002 0.0101,0.0339 q 0.003,0.0127 0.008,0.0249 0.005,0.0117 0.0122,0.0291 0.007,0.0169 0.0101,0.0228 0.001,0.0164 -0.007,0.0228 -0.002,0.003 -0.006,0.003 -0.003,0 -0.0175,-0.009 -0.005,-0.005 -0.0106,-0.0122 -0.005,-0.007 -0.008,-0.0132 -0.003,-0.006 -0.008,-0.0159 -0.004,-0.0106 -0.006,-0.0148 -0.002,-0.005 -0.006,-0.0164 -0.004,-0.0122 -0.005,-0.0148 -0.007,0.004 -0.0228,0.0249 -0.0153,0.0201 -0.0175,0.0222 -0.0381,0.0392 -0.0704,0.0497 -0.0323,0.004 -0.0392,0.004 -0.0259,0 -0.0413,-0.0138 -0.007,-0.006 -0.0132,-0.0138 -0.008,-0.0138 -0.0106,-0.0355 -0.002,-0.0217 5.3e-4,-0.0376 z m 0.32014,0.0497 q 0.009,-0.003 0.0191,-0.003 0.0169,0 0.028,0.006 0.0122,0.002 0.0233,-0.003 0.002,-0.0138 -0.003,-0.0339 -0.005,-0.006 -0.0101,-0.0148 -0.004,-0.009 -0.006,-0.0148 -0.002,-0.006 -0.006,-0.0175 -0.003,-0.0122 -0.005,-0.0164 -5.3e-4,-0.003 -0.003,-0.0153 -0.002,-0.0122 -0.003,-0.0175 -5.3e-4,-0.006 5.3e-4,-0.0148 10e-4,-0.009 0.005,-0.0159 0.005,-0.007 0.0217,-0.0164 0.0169,-0.009 0.0222,-0.0169 5.3e-4,-0.001 0.004,-0.0169 0.004,-0.0159 0.006,-0.0201 0.001,-0.004 0.0127,-0.018 0.0116,-0.0148 0.0111,-0.0222 -0.01,-0.0413 -0.0439,-0.0667 -0.003,-0.002 -0.0175,-0.009 -0.0148,-0.007 -0.0196,-0.0111 -0.0222,-0.0222 -0.007,-0.0402 0.009,-0.007 0.0222,-0.007 0.0164,0 0.0275,0.01 0.008,0.005 0.0106,0.008 0.0429,0.0317 0.0704,0.0799 0.007,0.0212 0.01,0.0344 0.002,0.0127 5.2e-4,0.0296 -0.001,0.003 -0.0111,0.0222 -0.01,0.0185 -0.009,0.0281 0.008,0.007 0.0132,0.01 0.003,-5.3e-4 0.0238,-5.3e-4 0.0286,0 0.0402,0.007 0.0127,0.0169 0.0101,0.0307 0.002,0.006 -0.001,0.0122 -0.003,0.005 -0.0111,0.0132 -0.008,0.007 -0.008,0.008 -0.004,0.003 -0.009,0.003 -0.004,0 -0.0101,-0.002 -0.006,-0.002 -0.009,-0.002 -0.0111,5.3e-4 -0.0397,-0.002 -0.0281,-0.003 -0.046,-0.001 -0.009,0.008 -0.007,0.027 0.002,0.008 0.005,0.0185 0.004,0.01 0.007,0.0164 0.004,0.007 0.01,0.0185 0.006,0.0111 0.008,0.0169 0.01,0.0423 -0.0101,0.0566 -0.0164,0.0196 -0.0402,0.0265 -0.009,10e-4 -0.0238,-5.2e-4 -0.0143,-0.002 -0.0185,-0.002 -0.009,0 -0.0169,0.003 -0.0101,0.001 -0.0206,-0.009 -0.0106,-0.0101 -0.0106,-0.0212 -0.005,-0.0238 0.0132,-0.0333 z"
         id="path569" />
    </g>
  </g>
</svg>
