<svg version="1.1" viewBox="0.0 0.0 759.0 469.0" fill="none" stroke="none" stroke-linecap="square" stroke-miterlimit="10" width="759" height="469" xmlns:xlink="http://www.w3.org/1999/xlink" xmlns="http://www.w3.org/2000/svg"><path fill="#ffffff" d="M0 0L759.0 0L759.0 469.0L0 469.0L0 0Z" fill-rule="nonzero"/><path stroke="#cccccc" stroke-width="1.0" stroke-linecap="butt" d="M94.5 99.5L94.5 388.5" fill-rule="nonzero"/><path stroke="#cccccc" stroke-width="1.0" stroke-linecap="butt" d="M221.5 99.5L221.5 388.5" fill-rule="nonzero"/><path stroke="#cccccc" stroke-width="1.0" stroke-linecap="butt" d="M348.5 99.5L348.5 388.5" fill-rule="nonzero"/><path stroke="#cccccc" stroke-width="1.0" stroke-linecap="butt" d="M474.5 99.5L474.5 388.5" fill-rule="nonzero"/><path stroke="#cccccc" stroke-width="1.0" stroke-linecap="butt" d="M601.5 99.5L601.5 388.5" fill-rule="nonzero"/><path stroke="#cccccc" stroke-width="1.0" stroke-linecap="butt" d="M728.5 99.5L728.5 388.5" fill-rule="nonzero"/><path stroke="#cccccc" stroke-width="1.0" stroke-linecap="butt" d="M87.5 388.5L735.5 388.5" fill-rule="nonzero"/><path stroke="#cccccc" stroke-width="1.0" stroke-linecap="butt" d="M87.5 330.5L735.5 330.5" fill-rule="nonzero"/><path stroke="#cccccc" stroke-width="1.0" stroke-linecap="butt" d="M87.5 273.5L735.5 273.5" fill-rule="nonzero"/><path stroke="#cccccc" stroke-width="1.0" stroke-linecap="butt" d="M87.5 215.5L735.5 215.5" fill-rule="nonzero"/><path stroke="#cccccc" stroke-width="1.0" stroke-linecap="butt" d="M87.5 157.5L735.5 157.5" fill-rule="nonzero"/><path stroke="#cccccc" stroke-width="1.0" stroke-linecap="butt" d="M87.5 99.5L735.5 99.5" fill-rule="nonzero"/><clipPath id="id_0"><path d="M87.45 99.71667L735.55 99.71667L735.55 388.55L87.45 388.55L87.45 99.71667Z" clip-rule="nonzero"/></clipPath><path stroke="#4285f4" stroke-width="2.0" stroke-linecap="butt" stroke-opacity="0.4" clip-path="url(#id_0)" d="M0 417.1963C0 417.1963 2.6666667 415.32727 4.0 414.39944C5.3333335 413.47162 6.6666665 412.5483 8.0 411.6293C9.333333 410.7103 10.666667 409.79572 12.0 408.88535C13.333333 407.97498 14.666667 407.06897 16.0 406.16708C17.333334 405.2652 18.666666 404.36758 20.0 403.47403C21.333334 402.58044 22.666666 401.6911 24.0 400.80573C25.333334 399.92032 26.666666 399.03906 28.0 398.1617C29.333334 397.28436 30.666666 396.41104 32.0 395.54156C33.333332 394.6721 34.666668 393.8066 36.0 392.9449C37.333332 392.08313 38.666668 391.2253 40.0 390.3712C41.333332 389.51706 42.666668 388.66678 44.0 387.82013C45.333332 386.97348 46.666668 386.13058 48.0 385.2913C49.333332 384.45197 50.666668 383.61636 52.0 382.78427C53.333332 381.95218 54.666668 381.12372 56.0 380.2987C57.333332 379.47372 58.666668 378.6523 60.0 377.8343C61.333332 377.01627 62.666668 376.20175 64.0 375.39056C65.333336 374.5794 66.666664 373.7717 68.0 372.96725C69.333336 372.16284 70.666664 371.36182 72.0 370.56403C73.333336 369.76624 74.666664 368.97177 76.0 368.1805C77.333336 367.38925 78.666664 366.60126 80.0 365.8164C81.333336 365.03156 82.666664 364.24994 84.0 363.4714C85.333336 362.69287 86.666664 361.9175 88.0 361.14517C89.333336 360.37286 90.666664 359.60367 92.0 358.83746C93.333336 358.07126 94.666664 357.3081 96.0 356.5479C97.333336 355.78775 98.666664 355.03058 100.0 354.2763C101.333336 353.52206 102.666664 352.77078 104.0 352.02234C105.333336 351.2739 106.666664 350.5284 108.0 349.78574C109.333336 349.04303 110.666664 348.30325 112.0 347.56622C113.333336 346.8292 114.666664 346.095 116.0 345.36353C117.333336 344.63208 118.666664 343.9034 120.0 343.17746C121.333336 342.45148 122.666664 341.72827 124.0 341.0077C125.333336 340.28714 126.666664 339.5693 128.0 338.85406C129.33333 338.1388 130.66667 337.42624 132.0 336.71625C133.33333 336.00626 134.66667 335.29892 136.0 334.5941C137.33333 333.88925 138.66667 333.18704 140.0 332.48734C141.33333 331.7876 142.66667 331.09042 144.0 330.39572C145.33333 329.70102 146.66667 329.00885 148.0 328.3191C149.33333 327.62936 150.66667 326.94208 152.0 326.25723C153.33333 325.57236 154.66667 324.88995 156.0 324.20987C157.33333 323.52982 158.66667 322.8522 160.0 322.17688C161.33333 321.50156 162.66667 320.82864 164.0 320.15802C165.33333 319.4874 166.66667 318.81912 168.0 318.1531C169.33333 317.4871 170.66667 316.8234 172.0 316.16193C173.33333 315.50046 174.66667 314.84128 176.0 314.18433C177.33333 313.52734 178.66667 312.87262 180.0 312.2201C181.33333 311.56754 182.66667 310.91724 184.0 310.26904C185.33333 309.62088 186.66667 308.9749 188.0 308.33105C189.33333 307.6872 190.66667 307.0455 192.0 306.4059C193.33333 305.7663 194.66667 305.12885 196.0 304.49344C197.33333 303.85803 198.66667 303.22473 200.0 302.59348C201.33333 301.96222 202.66667 301.33304 204.0 300.70587C205.33333 300.0787 206.66667 299.45358 208.0 298.83047C209.33333 298.20734 210.66667 297.58624 212.0 296.9671C213.33333 296.34796 214.66667 295.7308 216.0 295.1156C217.33333 294.5004 218.66667 293.88718 220.0 293.27585C221.33333 292.66452 222.66667 292.05518 224.0 291.4477C225.33333 290.8402 226.66667 290.23465 228.0 289.63095C229.33333 289.02725 230.66667 288.42548 232.0 287.82553C233.33333 287.22556 234.66667 286.6275 236.0 286.03125C237.33333 285.435 238.66667 284.8406 240.0 284.248C241.33333 283.6554 242.66667 283.06464 244.0 282.47562C245.33333 281.88663 246.66667 281.29944 248.0 280.71402C249.33333 280.1286 250.66667 279.54495 252.0 278.96304C253.33333 278.38113 254.66667 277.80096 256.0 277.22253C257.33334 276.6441 258.66666 276.0674 260.0 275.49243C261.33334 274.91742 262.66666 274.34418 264.0 273.77255C265.33334 273.20096 266.66666 272.63107 268.0 272.06284C269.33334 271.49457 270.66666 270.928 272.0 270.3631C273.33334 269.79816 274.66666 269.2349 276.0 268.67325C277.33334 268.1116 278.66666 267.5516 280.0 266.9932C281.33334 266.43478 282.66666 265.87802 284.0 265.3228C285.33334 264.7676 286.66666 264.21402 288.0 263.662C289.33334 263.10995 290.66666 262.5595 292.0 262.0106C293.33334 261.4617 294.66666 260.91437 296.0 260.36856C297.33334 259.82272 298.66666 259.27847 300.0 258.73575C301.33334 258.193 302.66666 257.65176 304.0 257.11206C305.33334 256.57233 306.66666 256.03415 308.0 255.4974C309.33334 254.96068 310.66666 254.42546 312.0 253.8917C313.33334 253.35793 314.66666 252.82564 316.0 252.2948C317.33334 251.76396 318.66666 251.23459 320.0 250.70665C321.33334 250.17871 322.66666 249.65222 324.0 249.12714C325.33334 248.60207 326.66666 248.07843 328.0 247.55618C329.33334 247.03394 330.66666 246.5131 332.0 245.99367C333.33334 245.47423 334.66666 244.95619 336.0 244.43953C337.33334 243.92285 338.66666 243.40758 340.0 242.89366C341.33334 242.37973 342.66666 241.86719 344.0 241.35597C345.33334 240.84477 346.66666 240.33492 348.0 239.8264C349.33334 239.31787 350.66666 238.8107 352.0 238.30484C353.33334 237.79897 354.66666 237.29445 356.0 236.79121C357.33334 236.28798 358.66666 235.78606 360.0 235.28543C361.33334 234.78479 362.66666 234.28548 364.0 233.78741C365.33334 233.28937 366.66666 232.7926 368.0 232.2971C369.33334 231.80159 370.66666 231.30737 372.0 230.81439C373.33334 230.32141 374.66666 229.8297 376.0 229.33922C377.33334 228.84874 378.66666 228.35951 380.0 227.8715C381.33334 227.3835 382.66666 226.89673 384.0 226.41116C385.33334 225.92561 386.66666 225.44128 388.0 224.95815C389.33334 224.475 390.66666 223.99309 392.0 223.51236C393.33334 223.03162 394.66666 222.5521 396.0 222.07373C397.33334 221.59537 398.66666 221.11821 400.0 220.6422C401.33334 220.1662 402.66666 219.69138 404.0 219.2177C405.33334 218.74402 406.66666 218.27151 408.0 217.80014C409.33334 217.32877 410.66666 216.85857 412.0 216.38948C413.33334 215.9204 414.66666 215.45245 416.0 214.98564C417.33334 214.51881 418.66666 214.05313 420.0 213.58855C421.33334 213.12398 422.66666 212.66052 424.0 212.19815C425.33334 211.7358 426.66666 211.27455 428.0 210.81439C429.33334 210.35423 430.66666 209.89517 432.0 209.43718C433.33334 208.9792 434.66666 208.52231 436.0 208.06648C437.33334 207.61066 438.66666 207.15591 440.0 206.70222C441.33334 206.24854 442.66666 205.79591 444.0 205.34435C445.33334 204.89278 446.66666 204.44226 448.0 203.99278C449.33334 203.5433 450.66666 203.0949 452.0 202.64749C453.33334 202.20009 454.66666 201.75374 456.0 201.3084C457.33334 200.86307 458.66666 200.41876 460.0 199.97546C461.33334 199.53217 462.66666 199.08989 464.0 198.6486C465.33334 198.20734 466.66666 197.76707 468.0 197.32779C469.33334 196.88852 470.66666 196.45026 472.0 196.01297C473.33334 195.57567 474.66666 195.13939 476.0 194.70406C477.33334 194.26874 478.66666 193.83441 480.0 193.40103C481.33334 192.96767 482.66666 192.53526 484.0 192.10382C485.33334 191.67238 486.66666 191.24191 488.0 190.8124C489.33334 190.38286 490.66666 189.9543 492.0 189.52667C493.33334 189.09904 494.66666 188.67238 496.0 188.24663C497.33334 187.82088 498.66666 187.39607 500.0 186.9722C501.33334 186.54831 502.66666 186.12537 504.0 185.70334C505.33334 185.28131 506.66666 184.8602 508.0 184.44C509.33334 184.0198 510.66666 183.60052 512.0 183.18214C513.3333 182.76375 514.6667 182.34628 516.0 181.9297C517.3333 181.51312 518.6667 181.09744 520.0 180.68265C521.3333 180.26785 522.6667 179.85394 524.0 179.44092C525.3333 179.0279 526.6667 178.61575 528.0 178.20448C529.3333 177.79321 530.6667 177.38283 532.0 176.9733C533.3333 176.56377 534.6667 176.1551 536.0 175.7473C537.3333 175.3395 538.6667 174.93256 540.0 174.52646C541.3333 174.12038 542.6667 173.71513 544.0 173.31075C545.3333 172.90634 546.6667 172.50279 548.0 172.10008C549.3333 171.69737 550.6667 171.2955 552.0 170.89445C553.3333 170.49341 554.6667 170.0932 556.0 169.69382C557.3333 169.29443 558.6667 168.89587 560.0 168.49812C561.3333 168.10037 562.6667 167.70345 564.0 167.30733C565.3333 166.91121 566.6667 166.5159 568.0 166.1214C569.3333 165.7269 570.6667 165.3332 572.0 164.94029C573.3333 164.5474 574.6667 164.15529 576.0 163.76398C577.3333 163.37267 578.6667 162.98215 580.0 162.5924C581.3333 162.20267 582.6667 161.81372 584.0 161.42555C585.3333 161.03737 586.6667 160.64998 588.0 160.26335C589.3333 159.87674 590.6667 159.49089 592.0 159.1058C593.3333 158.72072 594.6667 158.3364 596.0 157.95284C597.3333 157.56927 598.6667 157.1865 600.0 156.80444C601.3333 156.4224 602.6667 156.0411 604.0 155.66057C605.3333 155.28003 606.6667 154.90024 608.0 154.52118C609.3333 154.14214 610.6667 153.76382 612.0 153.38625C613.3333 153.00868 614.6667 152.63185 616.0 152.25574C617.3333 151.87964 618.6667 151.50426 620.0 151.12961C621.3333 150.75496 622.6667 150.38104 624.0 150.00784C625.3333 149.63463 626.6667 149.26216 628.0 148.89038C629.3333 148.51862 630.6667 148.14755 632.0 147.7772C633.3333 147.40686 634.6667 147.03723 636.0 146.66829C637.3333 146.29935 638.6667 145.93112 640.0 145.56358C641.3333 145.19606 642.6667 144.82922 644.0 144.46307C645.3333 144.09692 646.6667 143.73149 648.0 143.36671C649.3333 143.00195 650.6667 142.63788 652.0 142.27449C653.3333 141.91109 654.6667 141.54839 656.0 141.18634C657.3333 140.82431 658.6667 140.46295 660.0 140.10228C661.3333 139.7416 662.6667 139.38158 664.0 139.02223C665.3333 138.66289 666.6667 138.30421 668.0 137.9462C669.3333 137.58817 670.6667 137.23082 672.0 136.87413C673.3333 136.51743 674.6667 136.16139 676.0 135.806C677.3333 135.4506 678.6667 135.09589 680.0 134.74179C681.3333 134.38771 682.6667 134.03427 684.0 133.68147C685.3333 133.32867 686.6667 132.97653 688.0 132.62502C689.3333 132.2735 690.6667 131.92262 692.0 131.57239C693.3333 131.22214 694.6667 130.87254 696.0 130.52356C697.3333 130.17458 698.6667 129.82623 700.0 129.4785C701.3333 129.13078 702.6667 128.78368 704.0 128.4372C705.3333 128.09071 706.6667 127.744865 708.0 127.39962C709.3333 127.054375 710.6667 126.70975 712.0 126.36573C713.3333 126.02171 714.6667 125.678314 716.0 125.33551C717.3333 124.992714 718.6667 124.65053 720.0 124.30894C721.3333 123.96735 722.6667 123.626366 724.0 123.28598C725.3333 122.94559 726.6667 122.605804 728.0 122.26661C729.3333 121.927414 732.0 121.25081 732.0 121.25081" fill-rule="nonzero"/><path fill="#ff0000" clip-path="url(#id_0)" d="M98.80199 372.02875C98.80199 374.514 96.78727 376.52875 94.30199 376.52875C91.8167 376.52875 89.80199 374.514 89.80199 372.02875C89.80199 369.54346 91.8167 367.52875 94.30199 367.52875C96.78727 367.52875 98.80199 369.54346 98.80199 372.02875Z" fill-rule="nonzero"/><path fill="#ff0000" clip-path="url(#id_0)" d="M606.3188 160.94934C606.3188 163.43462 604.3041 165.44934 601.8188 165.44934C599.33356 165.44934 597.3188 163.43462 597.3188 160.94934C597.3188 158.46405 599.33356 156.44934 601.8188 156.44934C604.3041 156.44934 606.3188 158.46405 606.3188 160.94934Z" fill-rule="nonzero"/><path fill="#4285f4" clip-path="url(#id_0)" d="M225.6812 295.77673C225.6812 298.26202 223.66647 300.27673 221.1812 300.27673C218.6959 300.27673 216.6812 298.26202 216.6812 295.77673C216.6812 293.29144 218.6959 291.27673 221.1812 291.27673C223.66647 291.27673 225.6812 293.29144 225.6812 295.77673Z" fill-rule="nonzero"/><path fill="#4285f4" clip-path="url(#id_0)" d="M352.5604 233.04213C352.5604 235.52742 350.5457 237.54213 348.0604 237.54213C345.5751 237.54213 343.5604 235.52742 343.5604 233.04213C343.5604 230.55685 345.5751 228.54213 348.0604 228.54213C350.5457 228.54213 352.5604 230.55685 352.5604 233.04213Z" fill-rule="nonzero"/><path fill="#4285f4" clip-path="url(#id_0)" d="M479.4396 198.84427C479.4396 201.32954 477.4249 203.34427 474.9396 203.34427C472.4543 203.34427 470.4396 201.32954 470.4396 198.84427C470.4396 196.35898 472.4543 194.34427 474.9396 194.34427C477.4249 194.34427 479.4396 196.35898 479.4396 198.84427Z" fill-rule="nonzero"/><path fill="#4285f4" clip-path="url(#id_0)" d="M733.198 122.0146C733.198 124.49988 731.1833 126.5146 728.698 126.5146C726.2127 126.5146 724.198 124.49988 724.198 122.0146C724.198 119.52932 726.2127 117.5146 728.698 117.5146C731.1833 117.5146 733.198 119.52932 733.198 122.0146Z" fill-rule="nonzero"/><path fill="#000000" d="M409.5625 442.55L408.42188 442.55L408.42188 432.53436L409.64062 432.53436L409.64062 436.09686Q410.42188 435.1281 411.64062 435.1281Q412.3125 435.1281 412.90625 435.39374Q413.5 435.65936 413.89062 436.15936Q414.28125 436.64374 414.5 437.33124Q414.71875 438.01874 414.71875 438.8156Q414.71875 440.675 413.78125 441.70624Q412.85938 442.72186 411.57812 442.72186Q410.29688 442.72186 409.5625 441.64374L409.5625 442.55ZM409.54688 438.8625Q409.54688 440.175 409.90625 440.7531Q410.48438 441.70624 411.46875 441.70624Q412.28125 441.70624 412.85938 441.0031Q413.45312 440.3 413.45312 438.90936Q413.45312 437.4875 412.89062 436.8156Q412.32812 436.14374 411.53125 436.14374Q410.71875 436.14374 410.125 436.84686Q409.54688 437.53436 409.54688 438.8625Z" fill-rule="nonzero"/><path fill="#000000" d="M36.44999 294.52396L26.434362 294.52396L26.434362 287.27396L27.606237 287.27396L27.606237 293.19583L30.684362 293.19583L30.684362 287.64896L31.856237 287.64896L31.856237 293.19583L35.26249 293.19583L35.26249 287.03958L36.44999 287.03958L36.44999 294.52396ZM36.44999 286.52396L32.66874 283.88333L29.184362 286.33646L29.184362 284.78958L30.887487 283.6802Q31.371862 283.3677 31.699987 283.1802Q31.246862 282.8677 30.903112 282.6177L29.184362 281.39896L29.184362 279.9302L32.60624 282.4302L36.44999 279.7427L36.44999 281.2427L34.19999 282.7427L33.590614 283.13333L36.44999 285.03958L36.44999 286.52396ZM35.35624 277.02396L36.434364 276.85208Q36.54374 277.3677 36.54374 277.77396Q36.54374 278.44583 36.340614 278.82083Q36.121864 279.1802 35.778114 279.33646Q35.434364 279.47708 34.32499 279.47708L30.153112 279.47708L30.153112 280.38333L29.184362 280.38333L29.184362 279.47708L27.387487 279.47708L26.653112 278.25833L29.184362 278.25833L29.184362 277.02396L30.153112 277.02396L30.153112 278.25833L34.38749 278.25833Q34.91874 278.25833 35.07499 278.19583Q35.215614 278.13333 35.309364 277.9927Q35.403114 277.83646 35.403114 277.57083Q35.403114 277.35208 35.35624 277.02396ZM36.44999 275.72708L29.184362 275.72708L29.184362 274.6177L30.293737 274.6177Q29.512487 274.19583 29.278112 273.83646Q29.028112 273.47708 29.028112 273.03958Q29.028112 272.41458 29.418737 271.77396L30.559362 272.19583Q30.293737 272.64896 30.293737 273.10208Q30.293737 273.50833 30.543737 273.83646Q30.778112 274.14896 31.215612 274.28958Q31.871862 274.4927 32.653114 274.4927L36.44999 274.4927L36.44999 275.72708ZM35.559364 265.97708Q36.13749 266.64896 36.38749 267.28958Q36.621864 267.91458 36.621864 268.64896Q36.621864 269.83646 36.04374 270.4927Q35.44999 271.13333 34.528114 271.13333Q33.996864 271.13333 33.559364 270.89896Q33.121864 270.64896 32.85624 270.25833Q32.590614 269.85208 32.44999 269.3677Q32.35624 269.00833 32.26249 268.27396Q32.090614 266.77396 31.840612 266.07083Q31.590612 266.07083 31.528112 266.07083Q30.762487 266.07083 30.465612 266.41458Q30.043737 266.88333 30.043737 267.82083Q30.043737 268.6802 30.356237 269.10208Q30.653112 269.50833 31.418737 269.71146L31.262487 270.91458Q30.481237 270.75833 30.012487 270.38333Q29.543737 269.9927 29.293737 269.28958Q29.028112 268.57083 29.028112 267.63333Q29.028112 266.71146 29.246862 266.13333Q29.465612 265.5552 29.793737 265.28958Q30.121862 265.00833 30.637487 264.89896Q30.949987 264.83646 31.762487 264.83646L33.403114 264.83646Q35.121864 264.83646 35.57499 264.75833Q36.028114 264.6802 36.44999 264.44583L36.44999 265.72708Q36.059364 265.91458 35.559364 265.97708ZM32.809364 266.07083Q33.07499 266.7427 33.278114 268.08646Q33.38749 268.83646 33.528114 269.16458Q33.653114 269.47708 33.91874 269.64896Q34.184364 269.82083 34.496864 269.82083Q34.996864 269.82083 35.32499 269.44583Q35.653114 269.07083 35.653114 268.35208Q35.653114 267.63333 35.340614 267.08646Q35.028114 266.53958 34.48124 266.27396Q34.07499 266.07083 33.26249 266.07083L32.809364 266.07083ZM35.559364 253.97708Q36.13749 254.64896 36.38749 255.28958Q36.621864 255.91458 36.621864 256.64896Q36.621864 257.83646 36.04374 258.4927Q35.44999 259.13333 34.528114 259.13333Q33.996864 259.13333 33.559364 258.89896Q33.121864 258.64896 32.85624 258.25833Q32.590614 257.85208 32.44999 257.3677Q32.35624 257.00833 32.26249 256.27396Q32.090614 254.77396 31.840612 254.07083Q31.590612 254.07083 31.528112 254.07083Q30.762487 254.07083 30.465612 254.41458Q30.043737 254.88333 30.043737 255.82083Q30.043737 256.6802 30.356237 257.10208Q30.653112 257.50833 31.418737 257.71146L31.262487 258.91458Q30.481237 258.75833 30.012487 258.38333Q29.543737 257.9927 29.293737 257.28958Q29.028112 256.57083 29.028112 255.63333Q29.028112 254.71146 29.246862 254.13333Q29.465612 253.5552 29.793737 253.28958Q30.121862 253.00833 30.637487 252.89896Q30.949987 252.83646 31.762487 252.83646L33.403114 252.83646Q35.121864 252.83646 35.57499 252.75833Q36.028114 252.6802 36.44999 252.44583L36.44999 253.72708Q36.059364 253.91458 35.559364 253.97708ZM32.809364 254.07083Q33.07499 254.7427 33.278114 256.08646Q33.38749 256.83646 33.528114 257.16458Q33.653114 257.47708 33.91874 257.64896Q34.184364 257.82083 34.496864 257.82083Q34.996864 257.82083 35.32499 257.44583Q35.653114 257.07083 35.653114 256.35208Q35.653114 255.63333 35.340614 255.08646Q35.028114 254.53958 34.48124 254.27396Q34.07499 254.07083 33.26249 254.07083L32.809364 254.07083ZM35.35624 248.02396L36.434364 247.85208Q36.54374 248.3677 36.54374 248.77396Q36.54374 249.44583 36.340614 249.82083Q36.121864 250.1802 35.778114 250.33646Q35.434364 250.47708 34.32499 250.47708L30.153112 250.47708L30.153112 251.38333L29.184362 251.38333L29.184362 250.47708L27.387487 250.47708L26.653112 249.25833L29.184362 249.25833L29.184362 248.02396L30.153112 248.02396L30.153112 249.25833L34.38749 249.25833Q34.91874 249.25833 35.07499 249.19583Q35.215614 249.13333 35.309364 248.9927Q35.403114 248.83646 35.403114 248.57083Q35.403114 248.35208 35.35624 248.02396ZM35.35624 244.02396L36.434364 243.85208Q36.54374 244.3677 36.54374 244.77396Q36.54374 245.44583 36.340614 245.82083Q36.121864 246.1802 35.778114 246.33646Q35.434364 246.47708 34.32499 246.47708L30.153112 246.47708L30.153112 247.38333L29.184362 247.38333L29.184362 246.47708L27.387487 246.47708L26.653112 245.25833L29.184362 245.25833L29.184362 244.02396L30.153112 244.02396L30.153112 245.25833L34.38749 245.25833Q34.91874 245.25833 35.07499 245.19583Q35.215614 245.13333 35.309364 244.9927Q35.403114 244.83646 35.403114 244.57083Q35.403114 244.35208 35.35624 244.02396ZM34.10624 237.7427L34.26249 236.46146Q35.38749 236.77396 36.01249 237.58646Q36.621864 238.39896 36.621864 239.66458Q36.621864 241.25833 35.63749 242.19583Q34.653114 243.1177 32.88749 243.1177Q31.043737 243.1177 30.043737 242.1802Q29.028112 241.22708 29.028112 239.72708Q29.028112 238.27396 30.028112 237.35208Q31.012487 236.4302 32.809364 236.4302Q32.91874 236.4302 33.13749 236.4302L33.13749 241.85208Q34.32499 241.77396 34.965614 241.1802Q35.60624 240.57083 35.60624 239.64896Q35.60624 238.97708 35.246864 238.50833Q34.88749 238.02396 34.10624 237.7427ZM32.121864 241.77396L32.121864 237.72708Q31.199987 237.8052 30.746862 238.19583Q30.043737 238.77396 30.043737 239.71146Q30.043737 240.57083 30.606237 241.14896Q31.168737 241.71146 32.121864 241.77396ZM36.44999 234.71146L29.184362 234.71146L29.184362 233.60208L30.215612 233.60208Q29.668737 233.27396 29.356237 232.71146Q29.028112 232.13333 29.028112 231.41458Q29.028112 230.60208 29.371862 230.08646Q29.699987 229.57083 30.293737 229.35208Q29.028112 228.4927 29.028112 227.1177Q29.028112 226.03958 29.621862 225.46146Q30.215612 224.8677 31.465612 224.8677L36.44999 224.8677L36.44999 226.10208L31.871862 226.10208Q31.137487 226.10208 30.809362 226.22708Q30.481237 226.33646 30.293737 226.64896Q30.090612 226.96146 30.090612 227.38333Q30.090612 228.14896 30.606237 228.66458Q31.106237 229.16458 32.23124 229.16458L36.44999 229.16458L36.44999 230.39896L31.731237 230.39896Q30.918737 230.39896 30.512487 230.69583Q30.090612 230.9927 30.090612 231.6802Q30.090612 232.19583 30.371862 232.64896Q30.637487 233.08646 31.168737 233.28958Q31.684362 233.47708 32.684364 233.47708L36.44999 233.47708L36.44999 234.71146ZM39.23124 223.71146L29.184362 223.71146L29.184362 222.58646L30.137487 222.58646Q29.574987 222.19583 29.309362 221.69583Q29.028112 221.19583 29.028112 220.47708Q29.028112 219.5552 29.512487 218.85208Q29.981237 218.13333 30.856237 217.77396Q31.731237 217.41458 32.76249 217.41458Q33.871864 217.41458 34.778114 217.82083Q35.66874 218.21146 36.153114 218.97708Q36.621864 219.72708 36.621864 220.57083Q36.621864 221.1802 36.35624 221.6802Q36.090614 222.16458 35.69999 222.47708L39.23124 222.47708L39.23124 223.71146ZM32.85624 222.60208Q34.26249 222.60208 34.934364 222.03958Q35.60624 221.46146 35.60624 220.64896Q35.60624 219.83646 34.91874 219.25833Q34.215614 218.66458 32.76249 218.66458Q31.371862 218.66458 30.684362 219.2427Q29.996862 219.8052 29.996862 220.60208Q29.996862 221.38333 30.731237 221.9927Q31.465612 222.60208 32.85624 222.60208ZM35.35624 213.02396L36.434364 212.85208Q36.54374 213.3677 36.54374 213.77396Q36.54374 214.44583 36.340614 214.82083Q36.121864 215.1802 35.778114 215.33646Q35.434364 215.47708 34.32499 215.47708L30.153112 215.47708L30.153112 216.38333L29.184362 216.38333L29.184362 215.47708L27.387487 215.47708L26.653112 214.25833L29.184362 214.25833L29.184362 213.02396L30.153112 213.02396L30.153112 214.25833L34.38749 214.25833Q34.91874 214.25833 35.07499 214.19583Q35.215614 214.13333 35.309364 213.9927Q35.403114 213.83646 35.403114 213.57083Q35.403114 213.35208 35.35624 213.02396ZM34.278114 212.19583L34.090614 210.9927Q34.82499 210.88333 35.215614 210.41458Q35.60624 209.94583 35.60624 209.10208Q35.60624 208.25833 35.26249 207.85208Q34.91874 207.4302 34.44999 207.4302Q34.028114 207.4302 33.79374 207.8052Q33.621864 208.0552 33.371864 209.0552Q33.028114 210.41458 32.778114 210.94583Q32.528114 211.46146 32.090614 211.72708Q31.653112 211.9927 31.121862 211.9927Q30.637487 211.9927 30.231237 211.77396Q29.809362 211.5552 29.528112 211.16458Q29.324987 210.88333 29.184362 210.39896Q29.028112 209.89896 29.028112 209.32083Q29.028112 208.47708 29.278112 207.83646Q29.512487 207.1802 29.934362 206.8677Q30.356237 206.5552 31.059362 206.44583L31.231237 207.64896Q30.668737 207.72708 30.356237 208.13333Q30.043737 208.52396 30.043737 209.2427Q30.043737 210.08646 30.324987 210.44583Q30.590612 210.8052 30.981237 210.8052Q31.215612 210.8052 31.403112 210.66458Q31.606237 210.50833 31.731237 210.1802Q31.793737 210.00833 32.04374 209.10208Q32.403114 207.78958 32.621864 207.27396Q32.840614 206.75833 33.26249 206.47708Q33.684364 206.1802 34.309364 206.1802Q34.934364 206.1802 35.48124 206.53958Q36.01249 206.88333 36.32499 207.57083Q36.621864 208.2427 36.621864 209.10208Q36.621864 210.50833 36.028114 211.25833Q35.434364 211.9927 34.278114 212.19583Z" fill-rule="nonzero"/><path fill="#000000" d="M70.49687 391.53436L70.49687 392.55L64.80937 392.55Q64.80937 392.175 64.93437 391.8156Q65.15312 391.2375 65.62187 390.675Q66.10625 390.1125 67.0125 389.3781Q68.41875 388.22186 68.90312 387.55Q69.40312 386.8781 69.40312 386.28436Q69.40312 385.65936 68.95 385.2375Q68.49687 384.8 67.77812 384.8Q67.0125 384.8 66.55937 385.2531Q66.10625 385.70624 66.09062 386.51874L65.0125 386.40936Q65.12187 385.1906 65.84062 384.5656Q66.575 383.925 67.80937 383.925Q69.04375 383.925 69.7625 384.6125Q70.48125 385.3 70.48125 386.3156Q70.48125 386.83124 70.2625 387.33124Q70.05937 387.8156 69.55937 388.3781Q69.075 388.925 67.95 389.8781Q66.99687 390.675 66.71562 390.97186Q66.45 391.2531 66.27812 391.53436L70.49687 391.53436ZM72.54375 392.55L72.54375 391.34686L73.74687 391.34686L73.74687 392.55L72.54375 392.55ZM74.95 390.3L76.05937 390.20624Q76.18437 391.01874 76.62187 391.425Q77.075 391.83124 77.71562 391.83124Q78.46562 391.83124 78.99687 391.2531Q79.52812 390.675 79.52812 389.7375Q79.52812 388.83124 79.0125 388.3156Q78.5125 387.78436 77.68437 387.78436Q77.18437 387.78436 76.7625 388.01874Q76.35625 388.2531 76.12187 388.6125L75.1375 388.4875L75.96562 384.08124L80.24687 384.08124L80.24687 385.08124L76.80937 385.08124L76.35625 387.39374Q77.12187 386.84686 77.96562 386.84686Q79.09062 386.84686 79.85625 387.6281Q80.6375 388.40936 80.6375 389.64374Q80.6375 390.8 79.96562 391.65936Q79.1375 392.6906 77.71562 392.6906Q76.54375 392.6906 75.79375 392.03436Q75.05937 391.3781 74.95 390.3Z" fill-rule="nonzero"/><path fill="#000000" d="M64.95 332.5177L66.0125 332.37708Q66.18437 333.2677 66.62187 333.67395Q67.05937 334.06458 67.68437 334.06458Q68.43437 334.06458 68.95 333.54895Q69.46562 333.03333 69.46562 332.2677Q69.46562 331.54895 68.98125 331.0802Q68.5125 330.59583 67.77812 330.59583Q67.48125 330.59583 67.02812 330.72083L67.15312 329.78333Q67.2625 329.79895 67.325 329.79895Q67.99687 329.79895 68.52812 329.4552Q69.075 329.09583 69.075 328.36145Q69.075 327.78333 68.68437 327.40833Q68.29375 327.0177 67.66875 327.0177Q67.05937 327.0177 66.6375 327.40833Q66.23125 327.79895 66.12187 328.56458L65.05937 328.37708Q65.24687 327.3302 65.93437 326.75208Q66.62187 326.15833 67.6375 326.15833Q68.34062 326.15833 68.93437 326.47083Q69.52812 326.7677 69.84062 327.28333Q70.15312 327.79895 70.15312 328.3927Q70.15312 328.93958 69.85625 329.40833Q69.55937 329.86145 68.98125 330.12708Q69.73125 330.29895 70.15312 330.86145Q70.575 331.40833 70.575 332.25208Q70.575 333.37708 69.74687 334.15833Q68.93437 334.93958 67.68437 334.93958Q66.55937 334.93958 65.80937 334.2677Q65.05937 333.5802 64.95 332.5177ZM72.54375 334.78333L72.54375 333.5802L73.74687 333.5802L73.74687 334.78333L72.54375 334.78333ZM74.95 330.54895Q74.95 329.0177 75.2625 328.09583Q75.575 327.15833 76.18437 326.65833Q76.80937 326.15833 77.74687 326.15833Q78.43437 326.15833 78.95 326.43958Q79.48125 326.72083 79.825 327.25208Q80.16875 327.7677 80.35625 328.5177Q80.54375 329.2677 80.54375 330.54895Q80.54375 332.06458 80.23125 332.98645Q79.93437 333.90833 79.30937 334.42395Q78.7 334.92395 77.74687 334.92395Q76.5125 334.92395 75.79375 334.03333Q74.95 332.97083 74.95 330.54895ZM76.02812 330.54895Q76.02812 332.65833 76.52812 333.36145Q77.02812 334.06458 77.74687 334.06458Q78.48125 334.06458 78.96562 333.36145Q79.46562 332.65833 79.46562 330.54895Q79.46562 328.42395 78.96562 327.73645Q78.48125 327.03333 77.73125 327.03333Q77.0125 327.03333 76.575 327.6427Q76.02812 328.42395 76.02812 330.54895Z" fill-rule="nonzero"/><path fill="#000000" d="M64.95 274.75104L66.0125 274.6104Q66.18437 275.50104 66.62187 275.9073Q67.05937 276.2979 67.68437 276.2979Q68.43437 276.2979 68.95 275.7823Q69.46562 275.26666 69.46562 274.50104Q69.46562 273.7823 68.98125 273.31354Q68.5125 272.82916 67.77812 272.82916Q67.48125 272.82916 67.02812 272.95416L67.15312 272.01666Q67.2625 272.0323 67.325 272.0323Q67.99687 272.0323 68.52812 271.68854Q69.075 271.32916 69.075 270.5948Q69.075 270.01666 68.68437 269.64166Q68.29375 269.25104 67.66875 269.25104Q67.05937 269.25104 66.6375 269.64166Q66.23125 270.0323 66.12187 270.7979L65.05937 270.6104Q65.24687 269.56354 65.93437 268.9854Q66.62187 268.39166 67.6375 268.39166Q68.34062 268.39166 68.93437 268.70416Q69.52812 269.00104 69.84062 269.51666Q70.15312 270.0323 70.15312 270.62604Q70.15312 271.1729 69.85625 271.64166Q69.55937 272.0948 68.98125 272.3604Q69.73125 272.5323 70.15312 273.0948Q70.575 273.64166 70.575 274.4854Q70.575 275.6104 69.74687 276.39166Q68.93437 277.1729 67.68437 277.1729Q66.55937 277.1729 65.80937 276.50104Q65.05937 275.81354 64.95 274.75104ZM72.54375 277.01666L72.54375 275.81354L73.74687 275.81354L73.74687 277.01666L72.54375 277.01666ZM74.95 274.76666L76.05937 274.6729Q76.18437 275.4854 76.62187 275.89166Q77.075 276.2979 77.71562 276.2979Q78.46562 276.2979 78.99687 275.7198Q79.52812 275.14166 79.52812 274.20416Q79.52812 273.2979 79.0125 272.7823Q78.5125 272.25104 77.68437 272.25104Q77.18437 272.25104 76.7625 272.4854Q76.35625 272.7198 76.12187 273.07916L75.1375 272.95416L75.96562 268.5479L80.24687 268.5479L80.24687 269.5479L76.80937 269.5479L76.35625 271.8604Q77.12187 271.31354 77.96562 271.31354Q79.09062 271.31354 79.85625 272.0948Q80.6375 272.87604 80.6375 274.1104Q80.6375 275.26666 79.96562 276.12604Q79.1375 277.1573 77.71562 277.1573Q76.54375 277.1573 75.79375 276.50104Q75.05937 275.8448 74.95 274.76666Z" fill-rule="nonzero"/><path fill="#000000" d="M68.325 219.25L68.325 217.1875L64.60625 217.1875L64.60625 216.21875L68.52812 210.65625L69.3875 210.65625L69.3875 216.21875L70.54375 216.21875L70.54375 217.1875L69.3875 217.1875L69.3875 219.25L68.325 219.25ZM68.325 216.21875L68.325 212.35938L65.6375 216.21875L68.325 216.21875ZM72.54375 219.25L72.54375 218.04688L73.74687 218.04688L73.74687 219.25L72.54375 219.25ZM74.95 215.01562Q74.95 213.48438 75.2625 212.5625Q75.575 211.625 76.18437 211.125Q76.80937 210.625 77.74687 210.625Q78.43437 210.625 78.95 210.90625Q79.48125 211.1875 79.825 211.71875Q80.16875 212.23438 80.35625 212.98438Q80.54375 213.73438 80.54375 215.01562Q80.54375 216.53125 80.23125 217.45312Q79.93437 218.375 79.30937 218.89062Q78.7 219.39062 77.74687 219.39062Q76.5125 219.39062 75.79375 218.5Q74.95 217.4375 74.95 215.01562ZM76.02812 215.01562Q76.02812 217.125 76.52812 217.82812Q77.02812 218.53125 77.74687 218.53125Q78.48125 218.53125 78.96562 217.82812Q79.46562 217.125 79.46562 215.01562Q79.46562 212.89062 78.96562 212.20312Q78.48125 211.5 77.73125 211.5Q77.0125 211.5 76.575 212.10938Q76.02812 212.89062 76.02812 215.01562Z" fill-rule="nonzero"/><path fill="#000000" d="M68.325 161.48334L68.325 159.42084L64.60625 159.42084L64.60625 158.45209L68.52812 152.88959L69.3875 152.88959L69.3875 158.45209L70.54375 158.45209L70.54375 159.42084L69.3875 159.42084L69.3875 161.48334L68.325 161.48334ZM68.325 158.45209L68.325 154.59271L65.6375 158.45209L68.325 158.45209ZM72.54375 161.48334L72.54375 160.28021L73.74687 160.28021L73.74687 161.48334L72.54375 161.48334ZM74.95 159.23334L76.05937 159.13959Q76.18437 159.95209 76.62187 160.35834Q77.075 160.76459 77.71562 160.76459Q78.46562 160.76459 78.99687 160.18646Q79.52812 159.60834 79.52812 158.67084Q79.52812 157.76459 79.0125 157.24896Q78.5125 156.71771 77.68437 156.71771Q77.18437 156.71771 76.7625 156.95209Q76.35625 157.18646 76.12187 157.54584L75.1375 157.42084L75.96562 153.01459L80.24687 153.01459L80.24687 154.01459L76.80937 154.01459L76.35625 156.32709Q77.12187 155.78021 77.96562 155.78021Q79.09062 155.78021 79.85625 156.56146Q80.6375 157.34271 80.6375 158.57709Q80.6375 159.73334 79.96562 160.59271Q79.1375 161.62396 77.71562 161.62396Q76.54375 161.62396 75.79375 160.96771Q75.05937 160.31146 74.95 159.23334Z" fill-rule="nonzero"/><path fill="#000000" d="M64.95 101.46667L66.05937 101.37292Q66.18437 102.18542 66.62187 102.59167Q67.075 102.99792 67.71562 102.99792Q68.46562 102.99792 68.99687 102.41979Q69.52812 101.84167 69.52812 100.90417Q69.52812 99.99792 69.0125 99.48229Q68.5125 98.95104 67.68437 98.95104Q67.18437 98.95104 66.7625 99.18542Q66.35625 99.41979 66.12187 99.77917L65.1375 99.65417L65.96562 95.24792L70.24687 95.24792L70.24687 96.24792L66.80937 96.24792L66.35625 98.56042Q67.12187 98.01354 67.96562 98.01354Q69.09062 98.01354 69.85625 98.79479Q70.6375 99.57604 70.6375 100.81042Q70.6375 101.96667 69.96562 102.82604Q69.1375 103.85729 67.71562 103.85729Q66.54375 103.85729 65.79375 103.20104Q65.05937 102.54479 64.95 101.46667ZM72.54375 103.71667L72.54375 102.51354L73.74687 102.51354L73.74687 103.71667L72.54375 103.71667ZM74.95 99.48229Q74.95 97.95104 75.2625 97.02917Q75.575 96.09167 76.18437 95.59167Q76.80937 95.09167 77.74687 95.09167Q78.43437 95.09167 78.95 95.37292Q79.48125 95.65417 79.825 96.18542Q80.16875 96.70104 80.35625 97.45104Q80.54375 98.20104 80.54375 99.48229Q80.54375 100.99792 80.23125 101.91979Q79.93437 102.84167 79.30937 103.35729Q78.7 103.85729 77.74687 103.85729Q76.5125 103.85729 75.79375 102.96667Q74.95 101.90417 74.95 99.48229ZM76.02812 99.48229Q76.02812 101.59167 76.52812 102.29479Q77.02812 102.99792 77.74687 102.99792Q78.48125 102.99792 78.96562 102.29479Q79.46562 101.59167 79.46562 99.48229Q79.46562 97.35729 78.96562 96.66979Q78.48125 95.96667 77.73125 95.96667Q77.0125 95.96667 76.575 96.57604Q76.02812 97.35729 76.02812 99.48229Z" fill-rule="nonzero"/><path fill="#000000" d="M94.67699 405.55L94.67699 403.4875L90.95824 403.4875L90.95824 402.51874L94.88011 396.95624L95.73949 396.95624L95.73949 402.51874L96.89574 402.51874L96.89574 403.4875L95.73949 403.4875L95.73949 405.55L94.67699 405.55ZM94.67699 402.51874L94.67699 398.65936L91.98949 402.51874L94.67699 402.51874Z" fill-rule="nonzero"/><path fill="#000000" d="M218.1812 403.3L219.29057 403.20624Q219.41557 404.01874 219.85307 404.425Q220.3062 404.83124 220.94682 404.83124Q221.69682 404.83124 222.22807 404.2531Q222.75932 403.675 222.75932 402.7375Q222.75932 401.83124 222.2437 401.3156Q221.7437 400.78436 220.91557 400.78436Q220.41557 400.78436 219.9937 401.01874Q219.58745 401.2531 219.35307 401.6125L218.3687 401.4875L219.19682 397.08124L223.47807 397.08124L223.47807 398.08124L220.04057 398.08124L219.58745 400.39374Q220.35307 399.84686 221.19682 399.84686Q222.32182 399.84686 223.08745 400.6281Q223.8687 401.40936 223.8687 402.64374Q223.8687 403.8 223.19682 404.65936Q222.3687 405.6906 220.94682 405.6906Q219.77495 405.6906 219.02495 405.03436Q218.29057 404.3781 218.1812 403.3Z" fill-rule="nonzero"/><path fill="#000000" d="M350.52914 399.0656L349.48227 399.14374Q349.34164 398.51874 349.09164 398.2375Q348.65414 397.78436 348.02914 397.78436Q347.52914 397.78436 347.13852 398.0656Q346.65414 398.4406 346.35727 399.14374Q346.07602 399.83124 346.0604 401.1125Q346.4354 400.53436 346.98227 400.2531Q347.54477 399.97186 348.15414 399.97186Q349.20102 399.97186 349.9354 400.7531Q350.6854 401.53436 350.6854 402.7531Q350.6854 403.5656 350.32602 404.26874Q349.98227 404.95624 349.3729 405.33124Q348.76352 405.6906 347.9979 405.6906Q346.66977 405.6906 345.84164 404.72186Q345.01352 403.7531 345.01352 401.53436Q345.01352 399.03436 345.9354 397.90936Q346.73227 396.925 348.09164 396.925Q349.10727 396.925 349.7479 397.5031Q350.40414 398.0656 350.52914 399.0656ZM346.23227 402.76874Q346.23227 403.3156 346.45102 403.8156Q346.6854 404.3 347.09164 404.5656Q347.51352 404.83124 347.98227 404.83124Q348.63852 404.83124 349.1229 404.3Q349.60727 403.7531 349.60727 402.83124Q349.60727 401.9406 349.1229 401.425Q348.65414 400.90936 347.9354 400.90936Q347.21664 400.90936 346.71664 401.425Q346.23227 401.9406 346.23227 402.76874Z" fill-rule="nonzero"/><path fill="#000000" d="M472.0021 398.08124L472.0021 397.0656L477.5646 397.0656L477.5646 397.89374Q476.7521 398.76874 475.9396 400.22186Q475.14273 401.65936 474.70523 403.1906Q474.3771 404.26874 474.29898 405.55L473.20523 405.55Q473.22086 404.53436 473.59586 403.09686Q473.98648 401.65936 474.6896 400.33124Q475.40836 399.0031 476.22086 398.08124L472.0021 398.08124Z" fill-rule="nonzero"/><path fill="#000000" d="M600.4438 400.89374Q599.78754 400.64374 599.4594 400.20624Q599.1469 399.7531 599.1469 399.14374Q599.1469 398.20624 599.8188 397.5656Q600.5063 396.925 601.61566 396.925Q602.74066 396.925 603.42816 397.58124Q604.11566 398.2375 604.11566 399.175Q604.11566 399.76874 603.80316 400.20624Q603.49066 400.64374 602.85004 400.89374Q603.6469 401.14374 604.05316 401.72186Q604.4594 402.3 604.4594 403.09686Q604.4594 404.1906 603.67816 404.9406Q602.91254 405.6906 601.6313 405.6906Q600.36566 405.6906 599.5844 404.9406Q598.80316 404.1906 598.80316 403.0656Q598.80316 402.22186 599.22504 401.65936Q599.66254 401.09686 600.4438 400.89374ZM600.22504 399.09686Q600.22504 399.70624 600.61566 400.09686Q601.0219 400.4875 601.6469 400.4875Q602.2563 400.4875 602.6469 400.1125Q603.03754 399.72186 603.03754 399.15936Q603.03754 398.58124 602.6313 398.1906Q602.22504 397.78436 601.6313 397.78436Q601.0219 397.78436 600.61566 398.175Q600.22504 398.5656 600.22504 399.09686ZM599.8969 403.0656Q599.8969 403.51874 600.10004 403.9406Q600.3188 404.3625 600.74066 404.59686Q601.16254 404.83124 601.6469 404.83124Q602.3969 404.83124 602.8813 404.34686Q603.3813 403.8625 603.3813 403.1125Q603.3813 402.34686 602.8813 401.84686Q602.3813 401.34686 601.61566 401.34686Q600.86566 401.34686 600.3813 401.84686Q599.8969 402.33124 599.8969 403.0656Z" fill-rule="nonzero"/><path fill="#000000" d="M725.85425 403.5656L726.8699 403.47186Q726.9949 404.1906 727.35425 404.51874Q727.72925 404.83124 728.29175 404.83124Q728.7761 404.83124 729.1355 404.6125Q729.5105 404.3781 729.7449 404.01874Q729.97925 403.64374 730.1355 403.01874Q730.29175 402.3781 730.29175 401.72186Q730.29175 401.64374 730.29175 401.5031Q729.97925 402.0031 729.4324 402.33124Q728.8855 402.64374 728.2449 402.64374Q727.16675 402.64374 726.4324 401.8781Q725.698 401.09686 725.698 399.83124Q725.698 398.51874 726.4636 397.72186Q727.2449 396.925 728.4011 396.925Q729.22925 396.925 729.91675 397.3781Q730.6199 397.83124 730.97925 398.675Q731.3386 399.5031 731.3386 401.08124Q731.3386 402.72186 730.97925 403.70624Q730.6355 404.675 729.91675 405.1906Q729.2136 405.6906 728.2761 405.6906Q727.2605 405.6906 726.6199 405.14374Q725.97925 404.58124 725.85425 403.5656ZM730.16675 399.76874Q730.16675 398.8625 729.6824 398.33124Q729.2136 397.8 728.5261 397.8Q727.823 397.8 727.29175 398.3781Q726.7761 398.9406 726.7761 399.8625Q726.7761 400.675 727.2761 401.1906Q727.7761 401.70624 728.4949 401.70624Q729.22925 401.70624 729.698 401.1906Q730.16675 400.675 730.16675 399.76874Z" fill-rule="nonzero"/><path fill="#ff0000" d="M288.0 70.083336C288.0 73.39704 285.31372 76.083336 282.0 76.083336C278.68628 76.083336 276.0 73.39704 276.0 70.083336C276.0 66.76962 278.68628 64.083336 282.0 64.083336C285.31372 64.083336 288.0 66.76962 288.0 70.083336Z" fill-rule="nonzero"/><path fill="#1a1a1a" d="M296.92188 74.083336L296.92188 65.489586L300.17188 65.489586Q301.01562 65.489586 301.46875 65.56771Q302.10938 65.677086 302.53125 65.97396Q302.96875 66.270836 303.21875 66.802086Q303.48438 67.333336 303.48438 67.97396Q303.48438 69.06771 302.78125 69.833336Q302.09375 70.583336 300.26562 70.583336L298.0625 70.583336L298.0625 74.083336L296.92188 74.083336ZM298.0625 69.583336L300.28125 69.583336Q301.39062 69.583336 301.84375 69.177086Q302.3125 68.75521 302.3125 68.00521Q302.3125 67.47396 302.03125 67.09896Q301.76562 66.708336 301.32812 66.583336Q301.03125 66.50521 300.26562 66.50521L298.0625 66.50521L298.0625 69.583336ZM304.40625 70.97396Q304.40625 69.239586 305.35938 68.41146Q306.15625 67.72396 307.3125 67.72396Q308.59375 67.72396 309.40625 68.56771Q310.23438 69.395836 310.23438 70.88021Q310.23438 72.083336 309.875 72.770836Q309.51562 73.458336 308.8125 73.84896Q308.125 74.22396 307.3125 74.22396Q306.01562 74.22396 305.20312 73.395836Q304.40625 72.552086 304.40625 70.97396ZM305.48438 70.97396Q305.48438 72.16146 306.0 72.75521Q306.53125 73.34896 307.3125 73.34896Q308.10938 73.34896 308.625 72.75521Q309.14062 72.16146 309.14062 70.94271Q309.14062 69.78646 308.60938 69.19271Q308.09375 68.59896 307.3125 68.59896Q306.53125 68.59896 306.0 69.19271Q305.48438 69.770836 305.48438 70.97396ZM312.9375 74.083336L311.03125 67.864586L312.125 67.864586L313.10938 71.458336L313.48438 72.78646Q313.51562 72.69271 313.8125 71.50521L314.79688 67.864586L315.875 67.864586L316.8125 71.47396L317.125 72.66146L317.48438 71.458336L318.54688 67.864586L319.57812 67.864586L317.625 74.083336L316.53125 74.083336L315.54688 70.34896L315.29688 69.302086L314.04688 74.083336L312.9375 74.083336ZM325.04688 72.083336L326.14062 72.208336Q325.89062 73.16146 325.1875 73.69271Q324.48438 74.22396 323.40625 74.22396Q322.04688 74.22396 321.23438 73.38021Q320.4375 72.53646 320.4375 71.020836Q320.4375 69.458336 321.25 68.59896Q322.0625 67.72396 323.34375 67.72396Q324.59375 67.72396 325.375 68.56771Q326.17188 69.41146 326.17188 70.958336Q326.17188 71.052086 326.17188 71.239586L321.53125 71.239586Q321.59375 72.270836 322.10938 72.81771Q322.625 73.34896 323.40625 73.34896Q323.98438 73.34896 324.39062 73.052086Q324.8125 72.739586 325.04688 72.083336ZM321.59375 70.38021L325.0625 70.38021Q325.0 69.583336 324.67188 69.19271Q324.15625 68.583336 323.35938 68.583336Q322.625 68.583336 322.125 69.06771Q321.64062 69.552086 321.59375 70.38021ZM327.78125 74.083336L327.78125 67.864586L328.73438 67.864586L328.73438 68.802086Q329.09375 68.145836 329.39062 67.94271Q329.70312 67.72396 330.07812 67.72396Q330.60938 67.72396 331.15625 68.052086L330.79688 69.03646Q330.40625 68.802086 330.03125 68.802086Q329.67188 68.802086 329.39062 69.020836Q329.125 69.22396 329.01562 69.59896Q328.82812 70.16146 328.82812 70.81771L328.82812 74.083336L327.78125 74.083336ZM331.375 72.22396L332.40625 72.06771Q332.5 72.69271 332.89062 73.020836Q333.29688 73.34896 334.03125 73.34896Q334.75 73.34896 335.09375 73.06771Q335.45312 72.770836 335.45312 72.364586Q335.45312 72.00521 335.14062 71.802086Q334.92188 71.66146 334.0625 71.44271Q332.90625 71.145836 332.45312 70.94271Q332.01562 70.72396 331.78125 70.34896Q331.54688 69.97396 331.54688 69.50521Q331.54688 69.09896 331.73438 68.739586Q331.92188 68.38021 332.25 68.145836Q332.5 67.97396 332.92188 67.84896Q333.34375 67.72396 333.84375 67.72396Q334.5625 67.72396 335.10938 67.94271Q335.67188 68.145836 335.9375 68.50521Q336.20312 68.864586 336.29688 69.458336L335.26562 69.59896Q335.20312 69.13021 334.85938 68.864586Q334.53125 68.583336 333.90625 68.583336Q333.1875 68.583336 332.875 68.833336Q332.5625 69.06771 332.5625 69.395836Q332.5625 69.59896 332.6875 69.75521Q332.82812 69.927086 333.09375 70.03646Q333.25 70.09896 334.03125 70.302086Q335.15625 70.614586 335.59375 70.802086Q336.03125 70.989586 336.28125 71.34896Q336.53125 71.708336 336.53125 72.25521Q336.53125 72.78646 336.21875 73.25521Q335.92188 73.708336 335.34375 73.97396Q334.76562 74.22396 334.03125 74.22396Q332.8125 74.22396 332.17188 73.72396Q331.54688 73.208336 331.375 72.22396ZM341.40625 70.97396Q341.40625 69.239586 342.35938 68.41146Q343.15625 67.72396 344.3125 67.72396Q345.59375 67.72396 346.40625 68.56771Q347.23438 69.395836 347.23438 70.88021Q347.23438 72.083336 346.875 72.770836Q346.51562 73.458336 345.8125 73.84896Q345.125 74.22396 344.3125 74.22396Q343.01562 74.22396 342.20312 73.395836Q341.40625 72.552086 341.40625 70.97396ZM342.48438 70.97396Q342.48438 72.16146 343.0 72.75521Q343.53125 73.34896 344.3125 73.34896Q345.10938 73.34896 345.625 72.75521Q346.14062 72.16146 346.14062 70.94271Q346.14062 69.78646 345.60938 69.19271Q345.09375 68.59896 344.3125 68.59896Q343.53125 68.59896 343.0 69.19271Q342.48438 69.770836 342.48438 70.97396ZM349.04688 74.083336L349.04688 68.677086L348.10938 68.677086L348.10938 67.864586L349.04688 67.864586L349.04688 67.19271Q349.04688 66.56771 349.15625 66.270836Q349.3125 65.84896 349.6875 65.59896Q350.07812 65.34896 350.76562 65.34896Q351.21875 65.34896 351.75 65.458336L351.59375 66.364586Q351.26562 66.31771 350.96875 66.31771Q350.48438 66.31771 350.28125 66.520836Q350.09375 66.72396 350.09375 67.28646L350.09375 67.864586L351.3125 67.864586L351.3125 68.677086L350.09375 68.677086L350.09375 74.083336L349.04688 74.083336ZM360.04688 73.06771L360.04688 74.083336L354.35938 74.083336Q354.35938 73.708336 354.48438 73.34896Q354.70312 72.770836 355.17188 72.208336Q355.65625 71.645836 356.5625 70.91146Q357.96875 69.75521 358.45312 69.083336Q358.95312 68.41146 358.95312 67.81771Q358.95312 67.19271 358.5 66.770836Q358.04688 66.333336 357.32812 66.333336Q356.5625 66.333336 356.10938 66.78646Q355.65625 67.239586 355.64062 68.052086L354.5625 67.94271Q354.67188 66.72396 355.39062 66.09896Q356.125 65.458336 357.35938 65.458336Q358.59375 65.458336 359.3125 66.145836Q360.03125 66.833336 360.03125 67.84896Q360.03125 68.364586 359.8125 68.864586Q359.60938 69.34896 359.10938 69.91146Q358.625 70.458336 357.5 71.41146Q356.54688 72.208336 356.26562 72.50521Q356.0 72.78646 355.82812 73.06771L360.04688 73.06771Z" fill-rule="nonzero"/><path fill="#4285f4" d="M389.0 70.083336C389.0 73.39704 386.31372 76.083336 383.0 76.083336C379.68628 76.083336 377.0 73.39704 377.0 70.083336C377.0 66.76962 379.68628 64.083336 383.0 64.083336C386.31372 64.083336 389.0 66.76962 389.0 70.083336Z" fill-rule="nonzero"/><path fill="#1a1a1a" d="M397.92188 74.083336L397.92188 65.489586L399.07812 65.489586L403.59375 72.239586L403.59375 65.489586L404.6875 65.489586L404.6875 74.083336L403.51562 74.083336L399.0 67.333336L399.0 74.083336L397.92188 74.083336ZM406.40625 70.97396Q406.40625 69.239586 407.35938 68.41146Q408.15625 67.72396 409.3125 67.72396Q410.59375 67.72396 411.40625 68.56771Q412.23438 69.395836 412.23438 70.88021Q412.23438 72.083336 411.875 72.770836Q411.51562 73.458336 410.8125 73.84896Q410.125 74.22396 409.3125 74.22396Q408.01562 74.22396 407.20312 73.395836Q406.40625 72.552086 406.40625 70.97396ZM407.48438 70.97396Q407.48438 72.16146 408.0 72.75521Q408.53125 73.34896 409.3125 73.34896Q410.10938 73.34896 410.625 72.75521Q411.14062 72.16146 411.14062 70.94271Q411.14062 69.78646 410.60938 69.19271Q410.09375 68.59896 409.3125 68.59896Q408.53125 68.59896 408.0 69.19271Q407.48438 69.770836 407.48438 70.97396ZM416.09375 73.145836L416.25 74.06771Q415.79688 74.16146 415.45312 74.16146Q414.875 74.16146 414.5625 73.989586Q414.25 73.802086 414.10938 73.50521Q413.98438 73.208336 413.98438 72.25521L413.98438 68.677086L413.21875 68.677086L413.21875 67.864586L413.98438 67.864586L413.98438 66.31771L415.03125 65.69271L415.03125 67.864586L416.09375 67.864586L416.09375 68.677086L415.03125 68.677086L415.03125 72.31771Q415.03125 72.770836 415.07812 72.895836Q415.14062 73.020836 415.26562 73.09896Q415.39062 73.177086 415.625 73.177086Q415.8125 73.177086 416.09375 73.145836ZM419.79688 76.47396L419.79688 67.864586L420.75 67.864586L420.75 68.66146Q421.09375 68.19271 421.51562 67.958336Q421.95312 67.72396 422.5625 67.72396Q423.35938 67.72396 423.96875 68.13021Q424.57812 68.53646 424.875 69.28646Q425.1875 70.03646 425.1875 70.927086Q425.1875 71.88021 424.84375 72.645836Q424.51562 73.41146 423.85938 73.81771Q423.20312 74.22396 422.48438 74.22396Q421.95312 74.22396 421.53125 74.00521Q421.10938 73.770836 420.84375 73.44271L420.84375 76.47396L419.79688 76.47396ZM420.75 71.00521Q420.75 72.208336 421.23438 72.78646Q421.71875 73.34896 422.40625 73.34896Q423.10938 73.34896 423.60938 72.75521Q424.10938 72.16146 424.10938 70.91146Q424.10938 69.72396 423.625 69.145836Q423.14062 68.552086 422.45312 68.552086Q421.78125 68.552086 421.26562 69.177086Q420.75 69.802086 420.75 71.00521ZM426.40625 70.97396Q426.40625 69.239586 427.35938 68.41146Q428.15625 67.72396 429.3125 67.72396Q430.59375 67.72396 431.40625 68.56771Q432.23438 69.395836 432.23438 70.88021Q432.23438 72.083336 431.875 72.770836Q431.51562 73.458336 430.8125 73.84896Q430.125 74.22396 429.3125 74.22396Q428.01562 74.22396 427.20312 73.395836Q426.40625 72.552086 426.40625 70.97396ZM427.48438 70.97396Q427.48438 72.16146 428.0 72.75521Q428.53125 73.34896 429.3125 73.34896Q430.10938 73.34896 430.625 72.75521Q431.14062 72.16146 431.14062 70.94271Q431.14062 69.78646 430.60938 69.19271Q430.09375 68.59896 429.3125 68.59896Q428.53125 68.59896 428.0 69.19271Q427.48438 69.770836 427.48438 70.97396ZM434.9375 74.083336L433.03125 67.864586L434.125 67.864586L435.10938 71.458336L435.48438 72.78646Q435.51562 72.69271 435.8125 71.50521L436.79688 67.864586L437.875 67.864586L438.8125 71.47396L439.125 72.66146L439.48438 71.458336L440.54688 67.864586L441.57812 67.864586L439.625 74.083336L438.53125 74.083336L437.54688 70.34896L437.29688 69.302086L436.04688 74.083336L434.9375 74.083336ZM447.04688 72.083336L448.14062 72.208336Q447.89062 73.16146 447.1875 73.69271Q446.48438 74.22396 445.40625 74.22396Q444.04688 74.22396 443.23438 73.38021Q442.4375 72.53646 442.4375 71.020836Q442.4375 69.458336 443.25 68.59896Q444.0625 67.72396 445.34375 67.72396Q446.59375 67.72396 447.375 68.56771Q448.17188 69.41146 448.17188 70.958336Q448.17188 71.052086 448.17188 71.239586L443.53125 71.239586Q443.59375 72.270836 444.10938 72.81771Q444.625 73.34896 445.40625 73.34896Q445.98438 73.34896 446.39062 73.052086Q446.8125 72.739586 447.04688 72.083336ZM443.59375 70.38021L447.0625 70.38021Q447.0 69.583336 446.67188 69.19271Q446.15625 68.583336 445.35938 68.583336Q444.625 68.583336 444.125 69.06771Q443.64062 69.552086 443.59375 70.38021ZM449.78125 74.083336L449.78125 67.864586L450.73438 67.864586L450.73438 68.802086Q451.09375 68.145836 451.39062 67.94271Q451.70312 67.72396 452.07812 67.72396Q452.60938 67.72396 453.15625 68.052086L452.79688 69.03646Q452.40625 68.802086 452.03125 68.802086Q451.67188 68.802086 451.39062 69.020836Q451.125 69.22396 451.01562 69.59896Q450.82812 70.16146 450.82812 70.81771L450.82812 74.083336L449.78125 74.083336ZM453.375 72.22396L454.40625 72.06771Q454.5 72.69271 454.89062 73.020836Q455.29688 73.34896 456.03125 73.34896Q456.75 73.34896 457.09375 73.06771Q457.45312 72.770836 457.45312 72.364586Q457.45312 72.00521 457.14062 71.802086Q456.92188 71.66146 456.0625 71.44271Q454.90625 71.145836 454.45312 70.94271Q454.01562 70.72396 453.78125 70.34896Q453.54688 69.97396 453.54688 69.50521Q453.54688 69.09896 453.73438 68.739586Q453.92188 68.38021 454.25 68.145836Q454.5 67.97396 454.92188 67.84896Q455.34375 67.72396 455.84375 67.72396Q456.5625 67.72396 457.10938 67.94271Q457.67188 68.145836 457.9375 68.50521Q458.20312 68.864586 458.29688 69.458336L457.26562 69.59896Q457.20312 69.13021 456.85938 68.864586Q456.53125 68.583336 455.90625 68.583336Q455.1875 68.583336 454.875 68.833336Q454.5625 69.06771 454.5625 69.395836Q454.5625 69.59896 454.6875 69.75521Q454.82812 69.927086 455.09375 70.03646Q455.25 70.09896 456.03125 70.302086Q457.15625 70.614586 457.59375 70.802086Q458.03125 70.989586 458.28125 71.34896Q458.53125 71.708336 458.53125 72.25521Q458.53125 72.78646 458.21875 73.25521Q457.92188 73.708336 457.34375 73.97396Q456.76562 74.22396 456.03125 74.22396Q454.8125 74.22396 454.17188 73.72396Q453.54688 73.208336 453.375 72.22396ZM463.40625 70.97396Q463.40625 69.239586 464.35938 68.41146Q465.15625 67.72396 466.3125 67.72396Q467.59375 67.72396 468.40625 68.56771Q469.23438 69.395836 469.23438 70.88021Q469.23438 72.083336 468.875 72.770836Q468.51562 73.458336 467.8125 73.84896Q467.125 74.22396 466.3125 74.22396Q465.01562 74.22396 464.20312 73.395836Q463.40625 72.552086 463.40625 70.97396ZM464.48438 70.97396Q464.48438 72.16146 465.0 72.75521Q465.53125 73.34896 466.3125 73.34896Q467.10938 73.34896 467.625 72.75521Q468.14062 72.16146 468.14062 70.94271Q468.14062 69.78646 467.60938 69.19271Q467.09375 68.59896 466.3125 68.59896Q465.53125 68.59896 465.0 69.19271Q464.48438 69.770836 464.48438 70.97396ZM471.04688 74.083336L471.04688 68.677086L470.10938 68.677086L470.10938 67.864586L471.04688 67.864586L471.04688 67.19271Q471.04688 66.56771 471.15625 66.270836Q471.3125 65.84896 471.6875 65.59896Q472.07812 65.34896 472.76562 65.34896Q473.21875 65.34896 473.75 65.458336L473.59375 66.364586Q473.26562 66.31771 472.96875 66.31771Q472.48438 66.31771 472.28125 66.520836Q472.09375 66.72396 472.09375 67.28646L472.09375 67.864586L473.3125 67.864586L473.3125 68.677086L472.09375 68.677086L472.09375 74.083336L471.04688 74.083336ZM482.04688 73.06771L482.04688 74.083336L476.35938 74.083336Q476.35938 73.708336 476.48438 73.34896Q476.70312 72.770836 477.17188 72.208336Q477.65625 71.645836 478.5625 70.91146Q479.96875 69.75521 480.45312 69.083336Q480.95312 68.41146 480.95312 67.81771Q480.95312 67.19271 480.5 66.770836Q480.04688 66.333336 479.32812 66.333336Q478.5625 66.333336 478.10938 66.78646Q477.65625 67.239586 477.64062 68.052086L476.5625 67.94271Q476.67188 66.72396 477.39062 66.09896Q478.125 65.458336 479.35938 65.458336Q480.59375 65.458336 481.3125 66.145836Q482.03125 66.833336 482.03125 67.84896Q482.03125 68.364586 481.8125 68.864586Q481.60938 69.34896 481.10938 69.91146Q480.625 70.458336 479.5 71.41146Q478.54688 72.208336 478.26562 72.50521Q478.0 72.78646 477.82812 73.06771L482.04688 73.06771Z" fill-rule="nonzero"/><path fill="#757575" d="M24.121876 37.2625Q24.121876 34.3875 25.715626 32.996876Q27.059376 31.840626 28.98125 31.840626Q31.121876 31.840626 32.465626 33.246876Q33.825 34.653126 33.825 37.121876Q33.825 39.121876 33.23125 40.278126Q32.6375 41.41875 31.48125 42.059376Q30.340626 42.684376 28.98125 42.684376Q26.79375 42.684376 25.45 41.29375Q24.121876 39.8875 24.121876 37.2625ZM25.91875 37.2625Q25.91875 39.2625 26.778126 40.246876Q27.653126 41.23125 28.98125 41.23125Q30.29375 41.23125 31.153126 40.246876Q32.028126 39.246876 32.028126 37.2Q32.028126 35.278126 31.153126 34.29375Q30.278126 33.29375 28.98125 33.29375Q27.653126 33.29375 26.778126 34.29375Q25.91875 35.278126 25.91875 37.2625ZM35.7625 46.41875L35.7625 32.075L37.371876 32.075L37.371876 33.41875Q37.934376 32.6375 38.6375 32.246876Q39.35625 31.840626 40.371876 31.840626Q41.7 31.840626 42.715626 32.528126Q43.73125 33.215626 44.246876 34.465626Q44.778126 35.7 44.778126 37.184376Q44.778126 38.778126 44.2 40.059376Q43.6375 41.325 42.54375 42.0125Q41.45 42.684376 40.246876 42.684376Q39.371876 42.684376 38.66875 42.309376Q37.98125 41.934376 37.528126 41.371876L37.528126 46.41875L35.7625 46.41875ZM37.35625 37.325Q37.35625 39.325 38.16875 40.278126Q38.98125 41.23125 40.1375 41.23125Q41.309376 41.23125 42.1375 40.246876Q42.98125 39.2625 42.98125 37.16875Q42.98125 35.2 42.153126 34.215626Q41.340626 33.215626 40.215626 33.215626Q39.090626 33.215626 38.215626 34.278126Q37.35625 35.325 37.35625 37.325ZM50.60625 40.871876L50.85625 42.434376Q50.121876 42.590626 49.528126 42.590626Q48.575 42.590626 48.04375 42.29375Q47.528126 41.98125 47.309376 41.496876Q47.090626 40.996876 47.090626 39.41875L47.090626 33.45L45.809376 33.45L45.809376 32.075L47.090626 32.075L47.090626 29.5125L48.840626 28.45L48.840626 32.075L50.60625 32.075L50.60625 33.45L48.840626 33.45L48.840626 39.5125Q48.840626 40.2625 48.934376 40.48125Q49.028126 40.684376 49.23125 40.825Q49.45 40.95 49.840626 40.95Q50.121876 40.95 50.60625 40.871876ZM52.778126 30.153126L52.778126 28.1375L54.54375 28.1375L54.54375 30.153126L52.778126 30.153126ZM52.778126 42.45L52.778126 32.075L54.54375 32.075L54.54375 42.45L52.778126 42.45ZM56.121876 37.2625Q56.121876 34.3875 57.715626 32.996876Q59.059376 31.840626 60.98125 31.840626Q63.121876 31.840626 64.46562 33.246876Q65.825 34.653126 65.825 37.121876Q65.825 39.121876 65.23125 40.278126Q64.6375 41.41875 63.48125 42.059376Q62.340626 42.684376 60.98125 42.684376Q58.79375 42.684376 57.45 41.29375Q56.121876 39.8875 56.121876 37.2625ZM57.91875 37.2625Q57.91875 39.2625 58.778126 40.246876Q59.653126 41.23125 60.98125 41.23125Q62.29375 41.23125 63.153126 40.246876Q64.02812 39.246876 64.02812 37.2Q64.02812 35.278126 63.153126 34.29375Q62.278126 33.29375 60.98125 33.29375Q59.653126 33.29375 58.778126 34.29375Q57.91875 35.278126 57.91875 37.2625ZM67.7625 42.45L67.7625 32.075L69.35625 32.075L69.35625 33.559376Q70.49687 31.840626 72.65312 31.840626Q73.59062 31.840626 74.37187 32.184376Q75.16875 32.5125 75.55937 33.059376Q75.95 33.60625 76.10625 34.35625Q76.2 34.85625 76.2 36.075L76.2 42.45L74.43437 42.45L74.43437 36.1375Q74.43437 35.059376 74.23125 34.528126Q74.02812 33.996876 73.49687 33.684376Q72.98125 33.371876 72.27812 33.371876Q71.15312 33.371876 70.34062 34.090626Q69.52812 34.79375 69.52812 36.778126L69.52812 42.45L67.7625 42.45ZM77.05937 39.35625L78.80937 39.075Q78.95 40.121876 79.62187 40.684376Q80.29375 41.23125 81.49687 41.23125Q82.7 41.23125 83.27812 40.746876Q83.87187 40.246876 83.87187 39.590626Q83.87187 38.996876 83.35625 38.653126Q82.99687 38.41875 81.55937 38.059376Q79.62187 37.559376 78.87187 37.215626Q78.1375 36.85625 77.74687 36.23125Q77.35625 35.590626 77.35625 34.825Q77.35625 34.1375 77.66875 33.54375Q77.99687 32.95 78.54375 32.559376Q78.95 32.2625 79.65312 32.059376Q80.37187 31.840626 81.18437 31.840626Q82.40312 31.840626 83.325 32.2Q84.24687 32.54375 84.68437 33.153126Q85.12187 33.746876 85.29375 34.746876L83.575 34.98125Q83.45 34.184376 82.8875 33.746876Q82.325 33.29375 81.30937 33.29375Q80.09062 33.29375 79.575 33.7Q79.05937 34.090626 79.05937 34.621876Q79.05937 34.965626 79.27812 35.246876Q79.48125 35.528126 79.95 35.715626Q80.21562 35.809376 81.49687 36.153126Q83.37187 36.653126 84.10625 36.98125Q84.84062 37.29375 85.2625 37.903126Q85.68437 38.496876 85.68437 39.403126Q85.68437 40.278126 85.16875 41.059376Q84.65312 41.840626 83.68437 42.2625Q82.71562 42.684376 81.49687 42.684376Q79.48125 42.684376 78.41875 41.840626Q77.35625 40.996876 77.05937 39.35625ZM103.0125 34.028126L93.55937 34.028126L93.55937 32.3875L103.0125 32.3875L103.0125 34.028126ZM103.0125 38.371876L93.55937 38.371876L93.55937 36.73125L103.0125 36.73125L103.0125 38.371876ZM120.5125 40.7625L120.5125 42.45L111.05937 42.45Q111.04375 41.809376 111.2625 41.23125Q111.62187 40.2625 112.41875 39.325Q113.21562 38.3875 114.71562 37.153126Q117.05937 35.246876 117.87187 34.1375Q118.7 33.0125 118.7 32.0125Q118.7 30.965626 117.95 30.246876Q117.2 29.528126 115.99687 29.528126Q114.73125 29.528126 113.96562 30.29375Q113.2 31.059376 113.2 32.403126L111.3875 32.215626Q111.575 30.2 112.77812 29.1375Q113.99687 28.075 116.04375 28.075Q118.09062 28.075 119.29375 29.215626Q120.49687 30.35625 120.49687 32.04375Q120.49687 32.903126 120.1375 33.746876Q119.79375 34.575 118.98125 35.496876Q118.16875 36.403126 116.27812 38.0125Q114.68437 39.340626 114.23125 39.809376Q113.79375 40.278126 113.49687 40.7625L120.5125 40.7625ZM123.23125 42.45L123.23125 40.45L125.23125 40.45L125.23125 42.45Q125.23125 43.559376 124.84062 44.23125Q124.45 44.91875 123.60625 45.278126L123.10625 44.528126Q123.66875 44.29375 123.93437 43.809376Q124.2 43.340626 124.23125 42.45L123.23125 42.45ZM141.54375 41.16875Q140.55937 41.996876 139.65312 42.340626Q138.74687 42.684376 137.71562 42.684376Q136.0125 42.684376 135.09062 41.85625Q134.16875 41.0125 134.16875 39.715626Q134.16875 38.95 134.5125 38.325Q134.87187 37.7 135.43437 37.325Q135.99687 36.934376 136.7 36.73125Q137.21562 36.60625 138.2625 36.465626Q140.3875 36.215626 141.3875 35.871876Q141.40312 35.5125 141.40312 35.403126Q141.40312 34.340626 140.90312 33.8875Q140.23125 33.29375 138.90312 33.29375Q137.65312 33.29375 137.05937 33.73125Q136.48125 34.16875 136.2 35.278126L134.48125 35.04375Q134.71562 33.934376 135.24687 33.2625Q135.77812 32.575 136.79375 32.215626Q137.80937 31.840626 139.15312 31.840626Q140.48125 31.840626 141.30937 32.153126Q142.1375 32.465626 142.52812 32.95Q142.91875 33.41875 143.075 34.1375Q143.16875 34.590626 143.16875 35.7625L143.16875 38.10625Q143.16875 40.559376 143.27812 41.215626Q143.3875 41.85625 143.73125 42.45L141.8875 42.45Q141.62187 41.903126 141.54375 41.16875ZM141.3875 37.246876Q140.43437 37.6375 138.5125 37.903126Q137.43437 38.059376 136.98125 38.2625Q136.54375 38.45 136.29375 38.825Q136.04375 39.2 136.04375 39.66875Q136.04375 40.371876 136.575 40.840626Q137.10625 41.309376 138.1375 41.309376Q139.15312 41.309376 139.93437 40.871876Q140.73125 40.41875 141.10625 39.653126Q141.3875 39.04375 141.3875 37.8875L141.3875 37.246876ZM161.0125 34.028126L151.55937 34.028126L151.55937 32.3875L161.0125 32.3875L161.0125 34.028126ZM161.0125 38.371876L151.55937 38.371876L151.55937 36.73125L161.0125 36.73125L161.0125 38.371876ZM178.5125 40.7625L178.5125 42.45L169.05937 42.45Q169.04375 41.809376 169.2625 41.23125Q169.62187 40.2625 170.41875 39.325Q171.21562 38.3875 172.71562 37.153126Q175.05937 35.246876 175.87187 34.1375Q176.7 33.0125 176.7 32.0125Q176.7 30.965626 175.95 30.246876Q175.2 29.528126 173.99687 29.528126Q172.73125 29.528126 171.96562 30.29375Q171.2 31.059376 171.2 32.403126L169.3875 32.215626Q169.575 30.2 170.77812 29.1375Q171.99687 28.075 174.04375 28.075Q176.09062 28.075 177.29375 29.215626Q178.49687 30.35625 178.49687 32.04375Q178.49687 32.903126 178.1375 33.746876Q177.79375 34.575 176.98125 35.496876Q176.16875 36.403126 174.27812 38.0125Q172.68437 39.340626 172.23125 39.809376Q171.79375 40.278126 171.49687 40.7625L178.5125 40.7625Z" fill-rule="nonzero"/></svg>