<svg version="1.1" viewBox="0.0 0.0 759.0 469.0" fill="none" stroke="none" stroke-linecap="square" stroke-miterlimit="10" width="759" height="469" xmlns:xlink="http://www.w3.org/1999/xlink" xmlns="http://www.w3.org/2000/svg"><path fill="#ffffff" d="M0 0L759.0 0L759.0 469.0L0 469.0L0 0Z" fill-rule="nonzero"/><path stroke="#cccccc" stroke-width="1.0" stroke-linecap="butt" d="M94.5 99.5L94.5 388.5" fill-rule="nonzero"/><path stroke="#cccccc" stroke-width="1.0" stroke-linecap="butt" d="M275.5 99.5L275.5 388.5" fill-rule="nonzero"/><path stroke="#cccccc" stroke-width="1.0" stroke-linecap="butt" d="M456.5 99.5L456.5 388.5" fill-rule="nonzero"/><path stroke="#cccccc" stroke-width="1.0" stroke-linecap="butt" d="M638.5 99.5L638.5 388.5" fill-rule="nonzero"/><path stroke="#cccccc" stroke-width="1.0" stroke-linecap="butt" d="M87.5 388.5L735.5 388.5" fill-rule="nonzero"/><path stroke="#cccccc" stroke-width="1.0" stroke-linecap="butt" d="M87.5 292.5L735.5 292.5" fill-rule="nonzero"/><path stroke="#cccccc" stroke-width="1.0" stroke-linecap="butt" d="M87.5 195.5L735.5 195.5" fill-rule="nonzero"/><path stroke="#cccccc" stroke-width="1.0" stroke-linecap="butt" d="M87.5 99.5L735.5 99.5" fill-rule="nonzero"/><clipPath id="id_0"><path d="M87.45 99.71667L735.55 99.71667L735.55 388.55L87.45 388.55L87.45 99.71667Z" clip-rule="nonzero"/></clipPath><path stroke="#4285f4" stroke-width="2.0" stroke-linecap="butt" stroke-opacity="0.4" clip-path="url(#id_0)" d="M0 433.22232C0 433.22232 2.6666667 429.0698 4.0 427.05984C5.3333335 425.04993 6.6666665 423.08783 8.0 421.16266C9.333333 419.2375 10.666667 417.3561 12.0 415.50882C13.333333 413.66156 14.666667 411.8545 16.0 410.07907C17.333334 408.30368 18.666666 406.56528 20.0 404.85632C21.333334 403.14737 22.666666 401.47263 24.0 399.82535C25.333334 398.17807 26.666666 396.5625 28.0 394.97256C29.333334 393.38266 30.666666 391.82224 32.0 390.2858C33.333332 388.7494 34.666668 387.24045 36.0 385.75406C37.333332 384.26764 38.666668 382.80695 40.0 381.3674C41.333332 379.92786 42.666668 378.51236 44.0 377.11682C45.333332 375.72128 46.666668 374.34833 48.0 372.99417C49.333332 371.64 50.666668 370.30707 52.0 368.99194C53.333332 367.6768 54.666668 366.38162 56.0 365.10327C57.333332 363.82495 58.666668 362.5655 60.0 361.32196C61.333332 360.07846 62.666668 358.85275 64.0 357.64218C65.333336 356.43164 66.666664 355.23795 68.0 354.05865C69.333336 352.8794 70.666664 351.71606 72.0 350.56647C73.333336 349.41687 74.666664 348.28244 76.0 347.16107C77.333336 346.03973 78.666664 344.93277 80.0 343.8383C81.333336 342.7438 82.666664 341.66302 84.0 340.59415C85.333336 339.52527 86.666664 338.46948 88.0 337.42505C89.333336 336.3806 90.666664 335.34866 92.0 334.3276C93.333336 333.30652 94.666664 332.29736 96.0 331.2986C97.333336 330.2999 98.666664 329.31253 100.0 328.33514C101.333336 327.3578 102.666664 326.39133 104.0 325.43442C105.333336 324.47754 106.666664 323.5311 108.0 322.59384C109.333336 321.6566 110.666664 320.72934 112.0 319.81094C113.333336 318.89255 114.666664 317.98373 116.0 317.08347C117.333336 316.18317 118.666664 315.29208 120.0 314.40918C121.333336 313.5263 122.666664 312.65225 124.0 311.78613C125.333336 310.91998 126.666664 310.06235 128.0 309.21234C129.33333 308.3623 130.66667 307.52048 132.0 306.686C133.33333 305.8515 134.66667 305.0249 136.0 304.20538C137.33333 303.3859 138.66667 302.57397 140.0 301.76892C141.33333 300.96384 142.66667 300.1661 144.0 299.375C145.33333 298.58386 146.66667 297.79984 148.0 297.0222C149.33333 296.24454 150.66667 295.47372 152.0 294.70908C153.33333 293.94446 154.66667 293.18643 156.0 292.4344C157.33333 291.68234 158.66667 290.9367 160.0 290.19684C161.33333 289.457 162.66667 288.72333 164.0 287.99527C165.33333 287.26718 166.66667 286.5451 168.0 285.8285C169.33333 285.11185 170.66667 284.401 172.0 283.69543C173.33333 282.98987 174.66667 282.28992 176.0 281.5951C177.33333 280.90027 178.66667 280.21088 180.0 279.52646C181.33333 278.84204 182.66667 278.1629 184.0 277.4886C185.33333 276.81427 186.66667 276.14508 188.0 275.4806C189.33333 274.81607 190.66667 274.15656 192.0 273.5016C193.33333 272.8466 194.66667 272.19647 196.0 271.55075C197.33333 270.90503 198.66667 270.264 200.0 269.6273C201.33333 268.9906 202.66667 268.35846 204.0 267.7305C205.33333 267.10254 206.66667 266.479 208.0 265.8596C209.33333 265.24014 210.66667 264.625 212.0 264.01385C213.33333 263.4027 214.66667 262.79578 216.0 262.1927C217.33333 261.5896 218.66667 260.9906 220.0 260.3954C221.33333 259.80017 222.66667 259.20892 224.0 258.62137C225.33333 258.0338 226.66667 257.45013 228.0 256.87003C229.33333 256.28992 230.66667 255.71361 232.0 255.14078C233.33333 254.56796 234.66667 253.99881 236.0 253.43309C237.33333 252.86736 238.66667 252.30522 240.0 251.74641C241.33333 251.1876 242.66667 250.63231 244.0 250.08026C245.33333 249.52821 246.66667 248.97957 248.0 248.43411C249.33333 247.88866 250.66667 247.34653 252.0 246.80751C253.33333 246.2685 254.66667 245.73273 256.0 245.2C257.33334 244.66727 258.66666 244.13771 260.0 243.61111C261.33334 243.08453 262.66666 242.56105 264.0 242.04045C265.33334 241.51987 266.66666 241.00232 268.0 240.4876C269.33334 239.97287 270.66666 239.46112 272.0 238.95213C273.33334 238.44315 274.66666 237.93706 276.0 237.43369C277.33334 236.93031 278.66666 236.42976 280.0 235.93188C281.33334 235.43399 282.66666 234.93887 284.0 234.44637C285.33334 233.95384 286.66666 233.46404 288.0 232.97678C289.33334 232.48952 290.66666 232.0049 292.0 231.52278C293.33334 231.04066 294.66666 230.56114 296.0 230.08406C297.33334 229.60698 298.66666 229.13243 300.0 228.66028C301.33334 228.18813 302.66666 227.71846 304.0 227.25114C305.33334 226.78383 306.66666 226.31894 308.0 225.85635C309.33334 225.39377 310.66666 224.93358 312.0 224.47562C313.33334 224.01767 314.66666 223.56207 316.0 223.10866C317.33334 222.65526 318.66666 222.20415 320.0 221.7552C321.33334 221.30626 322.66666 220.85956 324.0 220.415C325.33334 219.97041 326.66666 219.52805 328.0 219.08775C329.33334 218.64746 330.66666 218.20934 332.0 217.77325C333.33334 217.33716 334.66666 216.9032 336.0 216.47124C337.33334 216.03928 338.66666 215.60939 340.0 215.18147C341.33334 214.75356 342.66666 214.32768 344.0 213.90375C345.33334 213.47981 346.66666 213.05786 348.0 212.63782C349.33334 212.21777 350.66666 211.7997 352.0 211.38348C353.33334 210.96727 354.66666 210.55298 356.0 210.14053C357.33334 209.72807 358.66666 209.3175 360.0 208.90875C361.33334 208.49998 362.66666 208.09308 364.0 207.68794C365.33334 207.28279 366.66666 206.87949 368.0 206.4779C369.33334 206.07632 370.66666 205.67654 372.0 205.27847C373.33334 204.8804 374.66666 204.48409 376.0 204.08945C377.33334 203.69481 378.66666 203.30191 380.0 202.91064C381.33334 202.5194 382.66666 202.12984 384.0 201.74191C385.33334 201.35397 386.66666 200.96771 388.0 200.58305C389.33334 200.19838 390.66666 199.81537 392.0 199.43391C393.33334 199.05246 394.66666 198.67262 396.0 198.29433C397.33334 197.91603 398.66666 197.53934 400.0 197.16414C401.33334 196.78896 402.66666 196.41533 404.0 196.04321C405.33334 195.67108 406.66666 195.30049 408.0 194.93137C409.33334 194.56224 410.66666 194.19464 412.0 193.82848C413.33334 193.46231 414.66666 193.09764 416.0 192.73439C417.33334 192.37114 418.66666 192.00935 420.0 191.64897C421.33334 191.28859 422.66666 190.92964 424.0 190.57208C425.33334 190.21452 426.66666 189.85838 428.0 189.5036C429.33334 189.1488 430.66666 188.79543 432.0 188.44337C433.33334 188.09132 434.66666 187.74065 436.0 187.3913C437.33334 187.04193 438.66666 186.69392 440.0 186.34723C441.33334 186.00052 442.66666 185.65515 444.0 185.31105C445.33334 184.96696 446.66666 184.62419 448.0 184.28267C449.33334 183.94115 450.66666 183.60092 452.0 183.26193C453.33334 182.92294 454.66666 182.58524 456.0 182.24875C457.33334 181.91226 458.66666 181.57703 460.0 181.243C461.33334 180.90897 462.66666 180.57619 464.0 180.24458C465.33334 179.91298 466.66666 179.5826 468.0 179.25339C469.33334 178.92418 470.66666 178.59616 472.0 178.2693C473.33334 177.94246 474.66666 177.61679 476.0 177.29225C477.33334 176.96771 478.66666 176.64435 480.0 176.32211C481.33334 175.99986 482.66666 175.67877 484.0 175.35878C485.33334 175.0388 486.66666 174.71996 488.0 174.40219C489.33334 174.08443 490.66666 173.76779 492.0 173.45222C493.33334 173.13666 494.66666 172.8222 496.0 172.5088C497.33334 172.1954 498.66666 171.88309 500.0 171.57182C501.33334 171.26057 502.66666 170.95038 504.0 170.64122C505.33334 170.33206 506.66666 170.02397 508.0 169.71689C509.33334 169.40982 510.66666 169.10378 512.0 168.79875C513.3333 168.49373 514.6667 168.18973 516.0 167.88673C517.3333 167.58372 518.6667 167.28174 520.0 166.98073C521.3333 166.67973 522.6667 166.37973 524.0 166.08069C525.3333 165.78166 526.6667 165.48361 528.0 165.18652C529.3333 164.88943 530.6667 164.59332 532.0 164.29814C533.3333 164.00298 534.6667 163.70877 536.0 163.4155C537.3333 163.12222 538.6667 162.8299 540.0 162.5385C541.3333 162.24709 542.6667 161.95663 544.0 161.66707C545.3333 161.37752 546.6667 161.08888 548.0 160.80116C549.3333 160.51343 550.6667 160.22661 552.0 159.94067C553.3333 159.65474 554.6667 159.36972 556.0 159.08557C557.3333 158.80142 558.6667 158.51816 560.0 158.23576C561.3333 157.95337 562.6667 157.67186 564.0 157.3912C565.3333 157.11053 566.6667 156.83075 568.0 156.5518C569.3333 156.27286 570.6667 155.99478 572.0 155.71753C573.3333 155.44028 574.6667 155.16386 576.0 154.88829C577.3333 154.61272 578.6667 154.33797 580.0 154.06404C581.3333 153.79012 582.6667 153.51701 584.0 153.24472C585.3333 152.97243 586.6667 152.70096 588.0 152.43028C589.3333 152.1596 590.6667 151.88972 592.0 151.62065C593.3333 151.35156 594.6667 151.08328 596.0 150.81577C597.3333 150.54826 598.6667 150.28154 600.0 150.0156C601.3333 149.74963 602.6667 149.48447 604.0 149.22006C605.3333 148.95564 606.6667 148.69202 608.0 148.42912C609.3333 148.16623 610.6667 147.9041 612.0 147.64272C613.3333 147.38133 614.6667 147.1207 616.0 146.86081C617.3333 146.6009 618.6667 146.34175 620.0 146.08333C621.3333 145.8249 622.6667 145.56721 624.0 145.31024C625.3333 145.05327 626.6667 144.79703 628.0 144.54149C629.3333 144.28595 630.6667 144.03114 632.0 143.77702C633.3333 143.52292 634.6667 143.26952 636.0 143.0168C637.3333 142.7641 638.6667 142.5121 640.0 142.26077C641.3333 142.00946 642.6667 141.75883 644.0 141.5089C645.3333 141.25896 646.6667 141.0097 648.0 140.76112C649.3333 140.51254 650.6667 140.26465 652.0 140.01741C653.3333 139.77017 654.6667 139.5236 656.0 139.27771C657.3333 139.0318 658.6667 138.78656 660.0 138.54198C661.3333 138.2974 662.6667 138.05347 664.0 137.81018C665.3333 137.5669 666.6667 137.32426 668.0 137.08226C669.3333 136.84027 670.6667 136.59892 672.0 136.3582C673.3333 136.11748 674.6667 135.8774 676.0 135.63794C677.3333 135.39848 678.6667 135.15965 680.0 134.92145C681.3333 134.68323 682.6667 134.44565 684.0 134.20868C685.3333 133.97171 686.6667 133.73535 688.0 133.4996C689.3333 133.26385 690.6667 133.02872 692.0 132.79417C693.3333 132.55963 694.6667 132.3257 696.0 132.09236C697.3333 131.85902 698.6667 131.62628 700.0 131.39412C701.3333 131.16197 702.6667 130.9304 704.0 130.69942C705.3333 130.46844 706.6667 130.23805 708.0 130.00822C709.3333 129.77841 710.6667 129.54918 712.0 129.32051C713.3333 129.09184 714.6667 128.86374 716.0 128.63622C717.3333 128.40869 718.6667 128.18173 720.0 127.95533C721.3333 127.72893 722.6667 127.50309 724.0 127.2778C725.3333 127.05252 726.6667 126.8278 728.0 126.603615C729.3333 126.37943 732.0 125.93273 732.0 125.93273" fill-rule="nonzero"/><path fill="#ff0000" clip-path="url(#id_0)" d="M98.80199 340.4111C98.80199 342.8964 96.78727 344.9111 94.30199 344.9111C91.8167 344.9111 89.80199 342.8964 89.80199 340.4111C89.80199 337.92584 91.8167 335.9111 94.30199 335.9111C96.78727 335.9111 98.80199 337.92584 98.80199 340.4111Z" fill-rule="nonzero"/><path fill="#ff0000" clip-path="url(#id_0)" d="M280.05798 244.13333C280.05798 246.61862 278.04327 248.63333 275.55798 248.63333C273.07272 248.63333 271.05798 246.61862 271.05798 244.13333C271.05798 241.64806 273.07272 239.63333 275.55798 239.63333C278.04327 239.63333 280.05798 241.64806 280.05798 244.13333Z" fill-rule="nonzero"/><path fill="#ff0000" clip-path="url(#id_0)" d="M642.57 147.85556C642.57 150.34084 640.5553 152.35556 638.07 152.35556C635.5847 152.35556 633.57 150.34084 633.57 147.85556C633.57 145.37027 635.5847 143.35556 638.07 143.35556C640.5553 143.35556 642.57 145.37027 642.57 147.85556Z" fill-rule="nonzero"/><path fill="#4285f4" clip-path="url(#id_0)" d="M189.43 277.2529C189.43 279.73816 187.41527 281.7529 184.93 281.7529C182.4447 281.7529 180.43 279.73816 180.43 277.2529C180.43 274.7676 182.4447 272.7529 184.93 272.7529C187.41527 272.7529 189.43 274.7676 189.43 277.2529Z" fill-rule="nonzero"/><path fill="#4285f4" clip-path="url(#id_0)" d="M370.686 206.87384C370.686 209.35912 368.67126 211.37384 366.186 211.37384C363.7007 211.37384 361.686 209.35912 361.686 206.87384C361.686 204.38855 363.7007 202.37384 366.186 202.37384C368.67126 202.37384 370.686 204.38855 370.686 206.87384Z" fill-rule="nonzero"/><path fill="#4285f4" clip-path="url(#id_0)" d="M461.314 181.55278C461.314 184.03806 459.2993 186.05278 456.814 186.05278C454.32874 186.05278 452.314 184.03806 452.314 181.55278C452.314 179.06749 454.32874 177.05278 456.814 177.05278C459.2993 177.05278 461.314 179.06749 461.314 181.55278Z" fill-rule="nonzero"/><path fill="#4285f4" clip-path="url(#id_0)" d="M551.942 161.04561C551.942 163.5309 549.9273 165.54561 547.442 165.54561C544.9567 165.54561 542.942 163.5309 542.942 161.04561C542.942 158.56033 544.9567 156.54561 547.442 156.54561C549.9273 156.54561 551.942 158.56033 551.942 161.04561Z" fill-rule="nonzero"/><path fill="#4285f4" clip-path="url(#id_0)" d="M733.198 126.77072C733.198 129.256 731.1833 131.27072 728.698 131.27072C726.2127 131.27072 724.198 129.256 724.198 126.77072C724.198 124.28544 726.2127 122.27072 728.698 122.27072C731.1833 122.27072 733.198 124.28544 733.198 126.77072Z" fill-rule="nonzero"/><path fill="#000000" d="M409.5625 442.55L408.42188 442.55L408.42188 432.53436L409.64062 432.53436L409.64062 436.09686Q410.42188 435.1281 411.64062 435.1281Q412.3125 435.1281 412.90625 435.39374Q413.5 435.65936 413.89062 436.15936Q414.28125 436.64374 414.5 437.33124Q414.71875 438.01874 414.71875 438.8156Q414.71875 440.675 413.78125 441.70624Q412.85938 442.72186 411.57812 442.72186Q410.29688 442.72186 409.5625 441.64374L409.5625 442.55ZM409.54688 438.8625Q409.54688 440.175 409.90625 440.7531Q410.48438 441.70624 411.46875 441.70624Q412.28125 441.70624 412.85938 441.0031Q413.45312 440.3 413.45312 438.90936Q413.45312 437.4875 412.89062 436.8156Q412.32812 436.14374 411.53125 436.14374Q410.71875 436.14374 410.125 436.84686Q409.54688 437.53436 409.54688 438.8625Z" fill-rule="nonzero"/><path fill="#000000" d="M36.44999 294.52396L26.434362 294.52396L26.434362 287.27396L27.606237 287.27396L27.606237 293.19583L30.684362 293.19583L30.684362 287.64896L31.856237 287.64896L31.856237 293.19583L35.26249 293.19583L35.26249 287.03958L36.44999 287.03958L36.44999 294.52396ZM36.44999 286.52396L32.66874 283.88333L29.184362 286.33646L29.184362 284.78958L30.887487 283.6802Q31.371862 283.3677 31.699987 283.1802Q31.246862 282.8677 30.903112 282.6177L29.184362 281.39896L29.184362 279.9302L32.60624 282.4302L36.44999 279.7427L36.44999 281.2427L34.19999 282.7427L33.590614 283.13333L36.44999 285.03958L36.44999 286.52396ZM35.35624 277.02396L36.434364 276.85208Q36.54374 277.3677 36.54374 277.77396Q36.54374 278.44583 36.340614 278.82083Q36.121864 279.1802 35.778114 279.33646Q35.434364 279.47708 34.32499 279.47708L30.153112 279.47708L30.153112 280.38333L29.184362 280.38333L29.184362 279.47708L27.387487 279.47708L26.653112 278.25833L29.184362 278.25833L29.184362 277.02396L30.153112 277.02396L30.153112 278.25833L34.38749 278.25833Q34.91874 278.25833 35.07499 278.19583Q35.215614 278.13333 35.309364 277.9927Q35.403114 277.83646 35.403114 277.57083Q35.403114 277.35208 35.35624 277.02396ZM36.44999 275.72708L29.184362 275.72708L29.184362 274.6177L30.293737 274.6177Q29.512487 274.19583 29.278112 273.83646Q29.028112 273.47708 29.028112 273.03958Q29.028112 272.41458 29.418737 271.77396L30.559362 272.19583Q30.293737 272.64896 30.293737 273.10208Q30.293737 273.50833 30.543737 273.83646Q30.778112 274.14896 31.215612 274.28958Q31.871862 274.4927 32.653114 274.4927L36.44999 274.4927L36.44999 275.72708ZM35.559364 265.97708Q36.13749 266.64896 36.38749 267.28958Q36.621864 267.91458 36.621864 268.64896Q36.621864 269.83646 36.04374 270.4927Q35.44999 271.13333 34.528114 271.13333Q33.996864 271.13333 33.559364 270.89896Q33.121864 270.64896 32.85624 270.25833Q32.590614 269.85208 32.44999 269.3677Q32.35624 269.00833 32.26249 268.27396Q32.090614 266.77396 31.840612 266.07083Q31.590612 266.07083 31.528112 266.07083Q30.762487 266.07083 30.465612 266.41458Q30.043737 266.88333 30.043737 267.82083Q30.043737 268.6802 30.356237 269.10208Q30.653112 269.50833 31.418737 269.71146L31.262487 270.91458Q30.481237 270.75833 30.012487 270.38333Q29.543737 269.9927 29.293737 269.28958Q29.028112 268.57083 29.028112 267.63333Q29.028112 266.71146 29.246862 266.13333Q29.465612 265.5552 29.793737 265.28958Q30.121862 265.00833 30.637487 264.89896Q30.949987 264.83646 31.762487 264.83646L33.403114 264.83646Q35.121864 264.83646 35.57499 264.75833Q36.028114 264.6802 36.44999 264.44583L36.44999 265.72708Q36.059364 265.91458 35.559364 265.97708ZM32.809364 266.07083Q33.07499 266.7427 33.278114 268.08646Q33.38749 268.83646 33.528114 269.16458Q33.653114 269.47708 33.91874 269.64896Q34.184364 269.82083 34.496864 269.82083Q34.996864 269.82083 35.32499 269.44583Q35.653114 269.07083 35.653114 268.35208Q35.653114 267.63333 35.340614 267.08646Q35.028114 266.53958 34.48124 266.27396Q34.07499 266.07083 33.26249 266.07083L32.809364 266.07083ZM35.559364 253.97708Q36.13749 254.64896 36.38749 255.28958Q36.621864 255.91458 36.621864 256.64896Q36.621864 257.83646 36.04374 258.4927Q35.44999 259.13333 34.528114 259.13333Q33.996864 259.13333 33.559364 258.89896Q33.121864 258.64896 32.85624 258.25833Q32.590614 257.85208 32.44999 257.3677Q32.35624 257.00833 32.26249 256.27396Q32.090614 254.77396 31.840612 254.07083Q31.590612 254.07083 31.528112 254.07083Q30.762487 254.07083 30.465612 254.41458Q30.043737 254.88333 30.043737 255.82083Q30.043737 256.6802 30.356237 257.10208Q30.653112 257.50833 31.418737 257.71146L31.262487 258.91458Q30.481237 258.75833 30.012487 258.38333Q29.543737 257.9927 29.293737 257.28958Q29.028112 256.57083 29.028112 255.63333Q29.028112 254.71146 29.246862 254.13333Q29.465612 253.5552 29.793737 253.28958Q30.121862 253.00833 30.637487 252.89896Q30.949987 252.83646 31.762487 252.83646L33.403114 252.83646Q35.121864 252.83646 35.57499 252.75833Q36.028114 252.6802 36.44999 252.44583L36.44999 253.72708Q36.059364 253.91458 35.559364 253.97708ZM32.809364 254.07083Q33.07499 254.7427 33.278114 256.08646Q33.38749 256.83646 33.528114 257.16458Q33.653114 257.47708 33.91874 257.64896Q34.184364 257.82083 34.496864 257.82083Q34.996864 257.82083 35.32499 257.44583Q35.653114 257.07083 35.653114 256.35208Q35.653114 255.63333 35.340614 255.08646Q35.028114 254.53958 34.48124 254.27396Q34.07499 254.07083 33.26249 254.07083L32.809364 254.07083ZM35.35624 248.02396L36.434364 247.85208Q36.54374 248.3677 36.54374 248.77396Q36.54374 249.44583 36.340614 249.82083Q36.121864 250.1802 35.778114 250.33646Q35.434364 250.47708 34.32499 250.47708L30.153112 250.47708L30.153112 251.38333L29.184362 251.38333L29.184362 250.47708L27.387487 250.47708L26.653112 249.25833L29.184362 249.25833L29.184362 248.02396L30.153112 248.02396L30.153112 249.25833L34.38749 249.25833Q34.91874 249.25833 35.07499 249.19583Q35.215614 249.13333 35.309364 248.9927Q35.403114 248.83646 35.403114 248.57083Q35.403114 248.35208 35.35624 248.02396ZM35.35624 244.02396L36.434364 243.85208Q36.54374 244.3677 36.54374 244.77396Q36.54374 245.44583 36.340614 245.82083Q36.121864 246.1802 35.778114 246.33646Q35.434364 246.47708 34.32499 246.47708L30.153112 246.47708L30.153112 247.38333L29.184362 247.38333L29.184362 246.47708L27.387487 246.47708L26.653112 245.25833L29.184362 245.25833L29.184362 244.02396L30.153112 244.02396L30.153112 245.25833L34.38749 245.25833Q34.91874 245.25833 35.07499 245.19583Q35.215614 245.13333 35.309364 244.9927Q35.403114 244.83646 35.403114 244.57083Q35.403114 244.35208 35.35624 244.02396ZM34.10624 237.7427L34.26249 236.46146Q35.38749 236.77396 36.01249 237.58646Q36.621864 238.39896 36.621864 239.66458Q36.621864 241.25833 35.63749 242.19583Q34.653114 243.1177 32.88749 243.1177Q31.043737 243.1177 30.043737 242.1802Q29.028112 241.22708 29.028112 239.72708Q29.028112 238.27396 30.028112 237.35208Q31.012487 236.4302 32.809364 236.4302Q32.91874 236.4302 33.13749 236.4302L33.13749 241.85208Q34.32499 241.77396 34.965614 241.1802Q35.60624 240.57083 35.60624 239.64896Q35.60624 238.97708 35.246864 238.50833Q34.88749 238.02396 34.10624 237.7427ZM32.121864 241.77396L32.121864 237.72708Q31.199987 237.8052 30.746862 238.19583Q30.043737 238.77396 30.043737 239.71146Q30.043737 240.57083 30.606237 241.14896Q31.168737 241.71146 32.121864 241.77396ZM36.44999 234.71146L29.184362 234.71146L29.184362 233.60208L30.215612 233.60208Q29.668737 233.27396 29.356237 232.71146Q29.028112 232.13333 29.028112 231.41458Q29.028112 230.60208 29.371862 230.08646Q29.699987 229.57083 30.293737 229.35208Q29.028112 228.4927 29.028112 227.1177Q29.028112 226.03958 29.621862 225.46146Q30.215612 224.8677 31.465612 224.8677L36.44999 224.8677L36.44999 226.10208L31.871862 226.10208Q31.137487 226.10208 30.809362 226.22708Q30.481237 226.33646 30.293737 226.64896Q30.090612 226.96146 30.090612 227.38333Q30.090612 228.14896 30.606237 228.66458Q31.106237 229.16458 32.23124 229.16458L36.44999 229.16458L36.44999 230.39896L31.731237 230.39896Q30.918737 230.39896 30.512487 230.69583Q30.090612 230.9927 30.090612 231.6802Q30.090612 232.19583 30.371862 232.64896Q30.637487 233.08646 31.168737 233.28958Q31.684362 233.47708 32.684364 233.47708L36.44999 233.47708L36.44999 234.71146ZM39.23124 223.71146L29.184362 223.71146L29.184362 222.58646L30.137487 222.58646Q29.574987 222.19583 29.309362 221.69583Q29.028112 221.19583 29.028112 220.47708Q29.028112 219.5552 29.512487 218.85208Q29.981237 218.13333 30.856237 217.77396Q31.731237 217.41458 32.76249 217.41458Q33.871864 217.41458 34.778114 217.82083Q35.66874 218.21146 36.153114 218.97708Q36.621864 219.72708 36.621864 220.57083Q36.621864 221.1802 36.35624 221.6802Q36.090614 222.16458 35.69999 222.47708L39.23124 222.47708L39.23124 223.71146ZM32.85624 222.60208Q34.26249 222.60208 34.934364 222.03958Q35.60624 221.46146 35.60624 220.64896Q35.60624 219.83646 34.91874 219.25833Q34.215614 218.66458 32.76249 218.66458Q31.371862 218.66458 30.684362 219.2427Q29.996862 219.8052 29.996862 220.60208Q29.996862 221.38333 30.731237 221.9927Q31.465612 222.60208 32.85624 222.60208ZM35.35624 213.02396L36.434364 212.85208Q36.54374 213.3677 36.54374 213.77396Q36.54374 214.44583 36.340614 214.82083Q36.121864 215.1802 35.778114 215.33646Q35.434364 215.47708 34.32499 215.47708L30.153112 215.47708L30.153112 216.38333L29.184362 216.38333L29.184362 215.47708L27.387487 215.47708L26.653112 214.25833L29.184362 214.25833L29.184362 213.02396L30.153112 213.02396L30.153112 214.25833L34.38749 214.25833Q34.91874 214.25833 35.07499 214.19583Q35.215614 214.13333 35.309364 213.9927Q35.403114 213.83646 35.403114 213.57083Q35.403114 213.35208 35.35624 213.02396ZM34.278114 212.19583L34.090614 210.9927Q34.82499 210.88333 35.215614 210.41458Q35.60624 209.94583 35.60624 209.10208Q35.60624 208.25833 35.26249 207.85208Q34.91874 207.4302 34.44999 207.4302Q34.028114 207.4302 33.79374 207.8052Q33.621864 208.0552 33.371864 209.0552Q33.028114 210.41458 32.778114 210.94583Q32.528114 211.46146 32.090614 211.72708Q31.653112 211.9927 31.121862 211.9927Q30.637487 211.9927 30.231237 211.77396Q29.809362 211.5552 29.528112 211.16458Q29.324987 210.88333 29.184362 210.39896Q29.028112 209.89896 29.028112 209.32083Q29.028112 208.47708 29.278112 207.83646Q29.512487 207.1802 29.934362 206.8677Q30.356237 206.5552 31.059362 206.44583L31.231237 207.64896Q30.668737 207.72708 30.356237 208.13333Q30.043737 208.52396 30.043737 209.2427Q30.043737 210.08646 30.324987 210.44583Q30.590612 210.8052 30.981237 210.8052Q31.215612 210.8052 31.403112 210.66458Q31.606237 210.50833 31.731237 210.1802Q31.793737 210.00833 32.04374 209.10208Q32.403114 207.78958 32.621864 207.27396Q32.840614 206.75833 33.26249 206.47708Q33.684364 206.1802 34.309364 206.1802Q34.934364 206.1802 35.48124 206.53958Q36.01249 206.88333 36.32499 207.57083Q36.621864 208.2427 36.621864 209.10208Q36.621864 210.50833 36.028114 211.25833Q35.434364 211.9927 34.278114 212.19583Z" fill-rule="nonzero"/><path fill="#000000" d="M64.95 388.3156Q64.95 386.78436 65.2625 385.8625Q65.575 384.925 66.18437 384.425Q66.80937 383.925 67.74687 383.925Q68.43437 383.925 68.95 384.20624Q69.48125 384.4875 69.825 385.01874Q70.16875 385.53436 70.35625 386.28436Q70.54375 387.03436 70.54375 388.3156Q70.54375 389.83124 70.23125 390.7531Q69.93437 391.675 69.30937 392.1906Q68.7 392.6906 67.74687 392.6906Q66.5125 392.6906 65.79375 391.8Q64.95 390.7375 64.95 388.3156ZM66.02812 388.3156Q66.02812 390.425 66.52812 391.1281Q67.02812 391.83124 67.74687 391.83124Q68.48125 391.83124 68.96562 391.1281Q69.46562 390.425 69.46562 388.3156Q69.46562 386.1906 68.96562 385.5031Q68.48125 384.8 67.73125 384.8Q67.0125 384.8 66.575 385.40936Q66.02812 386.1906 66.02812 388.3156ZM72.54375 392.55L72.54375 391.34686L73.74687 391.34686L73.74687 392.55L72.54375 392.55ZM74.95 390.3L76.05937 390.20624Q76.18437 391.01874 76.62187 391.425Q77.075 391.83124 77.71562 391.83124Q78.46562 391.83124 78.99687 391.2531Q79.52812 390.675 79.52812 389.7375Q79.52812 388.83124 79.0125 388.3156Q78.5125 387.78436 77.68437 387.78436Q77.18437 387.78436 76.7625 388.01874Q76.35625 388.2531 76.12187 388.6125L75.1375 388.4875L75.96562 384.08124L80.24687 384.08124L80.24687 385.08124L76.80937 385.08124L76.35625 387.39374Q77.12187 386.84686 77.96562 386.84686Q79.09062 386.84686 79.85625 387.6281Q80.6375 388.40936 80.6375 389.64374Q80.6375 390.8 79.96562 391.65936Q79.1375 392.6906 77.71562 392.6906Q76.54375 392.6906 75.79375 392.03436Q75.05937 391.3781 74.95 390.3Z" fill-rule="nonzero"/><path fill="#000000" d="M68.91875 296.27222L67.87187 296.27222L67.87187 289.55347Q67.48125 289.91284 66.85625 290.28784Q66.24687 290.64722 65.7625 290.8191L65.7625 289.80347Q66.6375 289.3816 67.29375 288.80347Q67.96562 288.20972 68.24687 287.64722L68.91875 287.64722L68.91875 296.27222ZM72.54375 296.27222L72.54375 295.0691L73.74687 295.0691L73.74687 296.27222L72.54375 296.27222ZM74.95 294.02222L76.05937 293.92847Q76.18437 294.74097 76.62187 295.14722Q77.075 295.55347 77.71562 295.55347Q78.46562 295.55347 78.99687 294.97534Q79.52812 294.39722 79.52812 293.45972Q79.52812 292.55347 79.0125 292.03784Q78.5125 291.5066 77.68437 291.5066Q77.18437 291.5066 76.7625 291.74097Q76.35625 291.97534 76.12187 292.33472L75.1375 292.20972L75.96562 287.80347L80.24687 287.80347L80.24687 288.80347L76.80937 288.80347L76.35625 291.11597Q77.12187 290.5691 77.96562 290.5691Q79.09062 290.5691 79.85625 291.35034Q80.6375 292.1316 80.6375 293.36597Q80.6375 294.52222 79.96562 295.3816Q79.1375 296.41284 77.71562 296.41284Q76.54375 296.41284 75.79375 295.7566Q75.05937 295.10034 74.95 294.02222Z" fill-rule="nonzero"/><path fill="#000000" d="M70.49687 198.97882L70.49687 199.99445L64.80937 199.99445Q64.80937 199.61945 64.93437 199.26007Q65.15312 198.68195 65.62187 198.11945Q66.10625 197.55695 67.0125 196.82257Q68.41875 195.66632 68.90312 194.99445Q69.40312 194.32257 69.40312 193.72882Q69.40312 193.10382 68.95 192.68195Q68.49687 192.24445 67.77812 192.24445Q67.0125 192.24445 66.55937 192.69757Q66.10625 193.1507 66.09062 193.9632L65.0125 193.85382Q65.12187 192.63507 65.84062 192.01007Q66.575 191.36945 67.80937 191.36945Q69.04375 191.36945 69.7625 192.05695Q70.48125 192.74445 70.48125 193.76007Q70.48125 194.2757 70.2625 194.7757Q70.05937 195.26007 69.55937 195.82257Q69.075 196.36945 67.95 197.32257Q66.99687 198.11945 66.71562 198.41632Q66.45 198.69757 66.27812 198.97882L70.49687 198.97882ZM72.54375 199.99445L72.54375 198.79132L73.74687 198.79132L73.74687 199.99445L72.54375 199.99445ZM74.95 197.74445L76.05937 197.6507Q76.18437 198.4632 76.62187 198.86945Q77.075 199.2757 77.71562 199.2757Q78.46562 199.2757 78.99687 198.69757Q79.52812 198.11945 79.52812 197.18195Q79.52812 196.2757 79.0125 195.76007Q78.5125 195.22882 77.68437 195.22882Q77.18437 195.22882 76.7625 195.4632Q76.35625 195.69757 76.12187 196.05695L75.1375 195.93195L75.96562 191.5257L80.24687 191.5257L80.24687 192.5257L76.80937 192.5257L76.35625 194.8382Q77.12187 194.29132 77.96562 194.29132Q79.09062 194.29132 79.85625 195.07257Q80.6375 195.85382 80.6375 197.0882Q80.6375 198.24445 79.96562 199.10382Q79.1375 200.13507 77.71562 200.13507Q76.54375 200.13507 75.79375 199.47882Q75.05937 198.82257 74.95 197.74445Z" fill-rule="nonzero"/><path fill="#000000" d="M64.95 101.45104L66.0125 101.31042Q66.18437 102.20104 66.62187 102.60729Q67.05937 102.99792 67.68437 102.99792Q68.43437 102.99792 68.95 102.48229Q69.46562 101.96667 69.46562 101.20104Q69.46562 100.48229 68.98125 100.01354Q68.5125 99.52917 67.77812 99.52917Q67.48125 99.52917 67.02812 99.65417L67.15312 98.71667Q67.2625 98.73229 67.325 98.73229Q67.99687 98.73229 68.52812 98.38854Q69.075 98.02917 69.075 97.29479Q69.075 96.71667 68.68437 96.34167Q68.29375 95.95104 67.66875 95.95104Q67.05937 95.95104 66.6375 96.34167Q66.23125 96.73229 66.12187 97.49792L65.05937 97.31042Q65.24687 96.26354 65.93437 95.68542Q66.62187 95.09167 67.6375 95.09167Q68.34062 95.09167 68.93437 95.40417Q69.52812 95.70104 69.84062 96.21667Q70.15312 96.73229 70.15312 97.32604Q70.15312 97.87292 69.85625 98.34167Q69.55937 98.79479 68.98125 99.06042Q69.73125 99.23229 70.15312 99.79479Q70.575 100.34167 70.575 101.18542Q70.575 102.31042 69.74687 103.09167Q68.93437 103.87292 67.68437 103.87292Q66.55937 103.87292 65.80937 103.20104Q65.05937 102.51354 64.95 101.45104ZM72.54375 103.71667L72.54375 102.51354L73.74687 102.51354L73.74687 103.71667L72.54375 103.71667ZM74.95 101.46667L76.05937 101.37292Q76.18437 102.18542 76.62187 102.59167Q77.075 102.99792 77.71562 102.99792Q78.46562 102.99792 78.99687 102.41979Q79.52812 101.84167 79.52812 100.90417Q79.52812 99.99792 79.0125 99.48229Q78.5125 98.95104 77.68437 98.95104Q77.18437 98.95104 76.7625 99.18542Q76.35625 99.41979 76.12187 99.77917L75.1375 99.65417L75.96562 95.24792L80.24687 95.24792L80.24687 96.24792L76.80937 96.24792L76.35625 98.56042Q77.12187 98.01354 77.96562 98.01354Q79.09062 98.01354 79.85625 98.79479Q80.6375 99.57604 80.6375 100.81042Q80.6375 101.96667 79.96562 102.82604Q79.1375 103.85729 77.71562 103.85729Q76.54375 103.85729 75.79375 103.20104Q75.05937 102.54479 74.95 101.46667Z" fill-rule="nonzero"/><path fill="#000000" d="M96.84886 404.53436L96.84886 405.55L91.16136 405.55Q91.16136 405.175 91.28636 404.8156Q91.50511 404.2375 91.97386 403.675Q92.45824 403.1125 93.36449 402.3781Q94.77074 401.22186 95.25511 400.55Q95.75511 399.8781 95.75511 399.28436Q95.75511 398.65936 95.30199 398.2375Q94.84886 397.8 94.13011 397.8Q93.36449 397.8 92.91136 398.2531Q92.45824 398.70624 92.44261 399.51874L91.36449 399.40936Q91.47386 398.1906 92.19261 397.5656Q92.92699 396.925 94.16136 396.925Q95.39574 396.925 96.11449 397.6125Q96.83324 398.3 96.83324 399.3156Q96.83324 399.83124 96.61449 400.33124Q96.41136 400.8156 95.91136 401.3781Q95.42699 401.925 94.30199 402.8781Q93.34886 403.675 93.06761 403.97186Q92.80199 404.2531 92.63011 404.53436L96.84886 404.53436Z" fill-rule="nonzero"/><path fill="#000000" d="M275.93298 405.55L275.93298 403.4875L272.21423 403.4875L272.21423 402.51874L276.1361 396.95624L276.99548 396.95624L276.99548 402.51874L278.15173 402.51874L278.15173 403.4875L276.99548 403.4875L276.99548 405.55L275.93298 405.55ZM275.93298 402.51874L275.93298 398.65936L273.24548 402.51874L275.93298 402.51874Z" fill-rule="nonzero"/><path fill="#000000" d="M459.28275 399.0656L458.23587 399.14374Q458.09525 398.51874 457.84525 398.2375Q457.40775 397.78436 456.78275 397.78436Q456.28275 397.78436 455.89212 398.0656Q455.40775 398.4406 455.11087 399.14374Q454.82962 399.83124 454.814 401.1125Q455.189 400.53436 455.73587 400.2531Q456.29837 399.97186 456.90775 399.97186Q457.95462 399.97186 458.689 400.7531Q459.439 401.53436 459.439 402.7531Q459.439 403.5656 459.07962 404.26874Q458.73587 404.95624 458.1265 405.33124Q457.51712 405.6906 456.7515 405.6906Q455.42337 405.6906 454.59525 404.72186Q453.76712 403.7531 453.76712 401.53436Q453.76712 399.03436 454.689 397.90936Q455.48587 396.925 456.84525 396.925Q457.86087 396.925 458.5015 397.5031Q459.15775 398.0656 459.28275 399.0656ZM454.98587 402.76874Q454.98587 403.3156 455.20462 403.8156Q455.439 404.3 455.84525 404.5656Q456.26712 404.83124 456.73587 404.83124Q457.39212 404.83124 457.8765 404.3Q458.36087 403.7531 458.36087 402.83124Q458.36087 401.9406 457.8765 401.425Q457.40775 400.90936 456.689 400.90936Q455.97025 400.90936 455.47025 401.425Q454.98587 401.9406 454.98587 402.76874Z" fill-rule="nonzero"/><path fill="#000000" d="M636.695 400.89374Q636.03876 400.64374 635.71063 400.20624Q635.39813 399.7531 635.39813 399.14374Q635.39813 398.20624 636.07 397.5656Q636.7575 396.925 637.8669 396.925Q638.9919 396.925 639.6794 397.58124Q640.3669 398.2375 640.3669 399.175Q640.3669 399.76874 640.0544 400.20624Q639.7419 400.64374 639.10126 400.89374Q639.89813 401.14374 640.3044 401.72186Q640.71063 402.3 640.71063 403.09686Q640.71063 404.1906 639.9294 404.9406Q639.16376 405.6906 637.8825 405.6906Q636.6169 405.6906 635.83563 404.9406Q635.0544 404.1906 635.0544 403.0656Q635.0544 402.22186 635.47626 401.65936Q635.91376 401.09686 636.695 400.89374ZM636.47626 399.09686Q636.47626 399.70624 636.8669 400.09686Q637.27313 400.4875 637.89813 400.4875Q638.5075 400.4875 638.89813 400.1125Q639.28876 399.72186 639.28876 399.15936Q639.28876 398.58124 638.8825 398.1906Q638.47626 397.78436 637.8825 397.78436Q637.27313 397.78436 636.8669 398.175Q636.47626 398.5656 636.47626 399.09686ZM636.14813 403.0656Q636.14813 403.51874 636.35126 403.9406Q636.57 404.3625 636.9919 404.59686Q637.41376 404.83124 637.89813 404.83124Q638.64813 404.83124 639.1325 404.34686Q639.6325 403.8625 639.6325 403.1125Q639.6325 402.34686 639.1325 401.84686Q638.6325 401.34686 637.8669 401.34686Q637.1169 401.34686 636.6325 401.84686Q636.14813 402.33124 636.14813 403.0656Z" fill-rule="nonzero"/><path fill="#ff0000" d="M288.0 70.083336C288.0 73.39704 285.31372 76.083336 282.0 76.083336C278.68628 76.083336 276.0 73.39704 276.0 70.083336C276.0 66.76962 278.68628 64.083336 282.0 64.083336C285.31372 64.083336 288.0 66.76962 288.0 70.083336Z" fill-rule="nonzero"/><path fill="#1a1a1a" d="M296.92188 74.083336L296.92188 65.489586L300.17188 65.489586Q301.01562 65.489586 301.46875 65.56771Q302.10938 65.677086 302.53125 65.97396Q302.96875 66.270836 303.21875 66.802086Q303.48438 67.333336 303.48438 67.97396Q303.48438 69.06771 302.78125 69.833336Q302.09375 70.583336 300.26562 70.583336L298.0625 70.583336L298.0625 74.083336L296.92188 74.083336ZM298.0625 69.583336L300.28125 69.583336Q301.39062 69.583336 301.84375 69.177086Q302.3125 68.75521 302.3125 68.00521Q302.3125 67.47396 302.03125 67.09896Q301.76562 66.708336 301.32812 66.583336Q301.03125 66.50521 300.26562 66.50521L298.0625 66.50521L298.0625 69.583336ZM304.40625 70.97396Q304.40625 69.239586 305.35938 68.41146Q306.15625 67.72396 307.3125 67.72396Q308.59375 67.72396 309.40625 68.56771Q310.23438 69.395836 310.23438 70.88021Q310.23438 72.083336 309.875 72.770836Q309.51562 73.458336 308.8125 73.84896Q308.125 74.22396 307.3125 74.22396Q306.01562 74.22396 305.20312 73.395836Q304.40625 72.552086 304.40625 70.97396ZM305.48438 70.97396Q305.48438 72.16146 306.0 72.75521Q306.53125 73.34896 307.3125 73.34896Q308.10938 73.34896 308.625 72.75521Q309.14062 72.16146 309.14062 70.94271Q309.14062 69.78646 308.60938 69.19271Q308.09375 68.59896 307.3125 68.59896Q306.53125 68.59896 306.0 69.19271Q305.48438 69.770836 305.48438 70.97396ZM312.9375 74.083336L311.03125 67.864586L312.125 67.864586L313.10938 71.458336L313.48438 72.78646Q313.51562 72.69271 313.8125 71.50521L314.79688 67.864586L315.875 67.864586L316.8125 71.47396L317.125 72.66146L317.48438 71.458336L318.54688 67.864586L319.57812 67.864586L317.625 74.083336L316.53125 74.083336L315.54688 70.34896L315.29688 69.302086L314.04688 74.083336L312.9375 74.083336ZM325.04688 72.083336L326.14062 72.208336Q325.89062 73.16146 325.1875 73.69271Q324.48438 74.22396 323.40625 74.22396Q322.04688 74.22396 321.23438 73.38021Q320.4375 72.53646 320.4375 71.020836Q320.4375 69.458336 321.25 68.59896Q322.0625 67.72396 323.34375 67.72396Q324.59375 67.72396 325.375 68.56771Q326.17188 69.41146 326.17188 70.958336Q326.17188 71.052086 326.17188 71.239586L321.53125 71.239586Q321.59375 72.270836 322.10938 72.81771Q322.625 73.34896 323.40625 73.34896Q323.98438 73.34896 324.39062 73.052086Q324.8125 72.739586 325.04688 72.083336ZM321.59375 70.38021L325.0625 70.38021Q325.0 69.583336 324.67188 69.19271Q324.15625 68.583336 323.35938 68.583336Q322.625 68.583336 322.125 69.06771Q321.64062 69.552086 321.59375 70.38021ZM327.78125 74.083336L327.78125 67.864586L328.73438 67.864586L328.73438 68.802086Q329.09375 68.145836 329.39062 67.94271Q329.70312 67.72396 330.07812 67.72396Q330.60938 67.72396 331.15625 68.052086L330.79688 69.03646Q330.40625 68.802086 330.03125 68.802086Q329.67188 68.802086 329.39062 69.020836Q329.125 69.22396 329.01562 69.59896Q328.82812 70.16146 328.82812 70.81771L328.82812 74.083336L327.78125 74.083336ZM331.375 72.22396L332.40625 72.06771Q332.5 72.69271 332.89062 73.020836Q333.29688 73.34896 334.03125 73.34896Q334.75 73.34896 335.09375 73.06771Q335.45312 72.770836 335.45312 72.364586Q335.45312 72.00521 335.14062 71.802086Q334.92188 71.66146 334.0625 71.44271Q332.90625 71.145836 332.45312 70.94271Q332.01562 70.72396 331.78125 70.34896Q331.54688 69.97396 331.54688 69.50521Q331.54688 69.09896 331.73438 68.739586Q331.92188 68.38021 332.25 68.145836Q332.5 67.97396 332.92188 67.84896Q333.34375 67.72396 333.84375 67.72396Q334.5625 67.72396 335.10938 67.94271Q335.67188 68.145836 335.9375 68.50521Q336.20312 68.864586 336.29688 69.458336L335.26562 69.59896Q335.20312 69.13021 334.85938 68.864586Q334.53125 68.583336 333.90625 68.583336Q333.1875 68.583336 332.875 68.833336Q332.5625 69.06771 332.5625 69.395836Q332.5625 69.59896 332.6875 69.75521Q332.82812 69.927086 333.09375 70.03646Q333.25 70.09896 334.03125 70.302086Q335.15625 70.614586 335.59375 70.802086Q336.03125 70.989586 336.28125 71.34896Q336.53125 71.708336 336.53125 72.25521Q336.53125 72.78646 336.21875 73.25521Q335.92188 73.708336 335.34375 73.97396Q334.76562 74.22396 334.03125 74.22396Q332.8125 74.22396 332.17188 73.72396Q331.54688 73.208336 331.375 72.22396ZM341.40625 70.97396Q341.40625 69.239586 342.35938 68.41146Q343.15625 67.72396 344.3125 67.72396Q345.59375 67.72396 346.40625 68.56771Q347.23438 69.395836 347.23438 70.88021Q347.23438 72.083336 346.875 72.770836Q346.51562 73.458336 345.8125 73.84896Q345.125 74.22396 344.3125 74.22396Q343.01562 74.22396 342.20312 73.395836Q341.40625 72.552086 341.40625 70.97396ZM342.48438 70.97396Q342.48438 72.16146 343.0 72.75521Q343.53125 73.34896 344.3125 73.34896Q345.10938 73.34896 345.625 72.75521Q346.14062 72.16146 346.14062 70.94271Q346.14062 69.78646 345.60938 69.19271Q345.09375 68.59896 344.3125 68.59896Q343.53125 68.59896 343.0 69.19271Q342.48438 69.770836 342.48438 70.97396ZM349.04688 74.083336L349.04688 68.677086L348.10938 68.677086L348.10938 67.864586L349.04688 67.864586L349.04688 67.19271Q349.04688 66.56771 349.15625 66.270836Q349.3125 65.84896 349.6875 65.59896Q350.07812 65.34896 350.76562 65.34896Q351.21875 65.34896 351.75 65.458336L351.59375 66.364586Q351.26562 66.31771 350.96875 66.31771Q350.48438 66.31771 350.28125 66.520836Q350.09375 66.72396 350.09375 67.28646L350.09375 67.864586L351.3125 67.864586L351.3125 68.677086L350.09375 68.677086L350.09375 74.083336L349.04688 74.083336ZM360.04688 73.06771L360.04688 74.083336L354.35938 74.083336Q354.35938 73.708336 354.48438 73.34896Q354.70312 72.770836 355.17188 72.208336Q355.65625 71.645836 356.5625 70.91146Q357.96875 69.75521 358.45312 69.083336Q358.95312 68.41146 358.95312 67.81771Q358.95312 67.19271 358.5 66.770836Q358.04688 66.333336 357.32812 66.333336Q356.5625 66.333336 356.10938 66.78646Q355.65625 67.239586 355.64062 68.052086L354.5625 67.94271Q354.67188 66.72396 355.39062 66.09896Q356.125 65.458336 357.35938 65.458336Q358.59375 65.458336 359.3125 66.145836Q360.03125 66.833336 360.03125 67.84896Q360.03125 68.364586 359.8125 68.864586Q359.60938 69.34896 359.10938 69.91146Q358.625 70.458336 357.5 71.41146Q356.54688 72.208336 356.26562 72.50521Q356.0 72.78646 355.82812 73.06771L360.04688 73.06771Z" fill-rule="nonzero"/><path fill="#4285f4" d="M389.0 70.083336C389.0 73.39704 386.31372 76.083336 383.0 76.083336C379.68628 76.083336 377.0 73.39704 377.0 70.083336C377.0 66.76962 379.68628 64.083336 383.0 64.083336C386.31372 64.083336 389.0 66.76962 389.0 70.083336Z" fill-rule="nonzero"/><path fill="#1a1a1a" d="M397.92188 74.083336L397.92188 65.489586L399.07812 65.489586L403.59375 72.239586L403.59375 65.489586L404.6875 65.489586L404.6875 74.083336L403.51562 74.083336L399.0 67.333336L399.0 74.083336L397.92188 74.083336ZM406.40625 70.97396Q406.40625 69.239586 407.35938 68.41146Q408.15625 67.72396 409.3125 67.72396Q410.59375 67.72396 411.40625 68.56771Q412.23438 69.395836 412.23438 70.88021Q412.23438 72.083336 411.875 72.770836Q411.51562 73.458336 410.8125 73.84896Q410.125 74.22396 409.3125 74.22396Q408.01562 74.22396 407.20312 73.395836Q406.40625 72.552086 406.40625 70.97396ZM407.48438 70.97396Q407.48438 72.16146 408.0 72.75521Q408.53125 73.34896 409.3125 73.34896Q410.10938 73.34896 410.625 72.75521Q411.14062 72.16146 411.14062 70.94271Q411.14062 69.78646 410.60938 69.19271Q410.09375 68.59896 409.3125 68.59896Q408.53125 68.59896 408.0 69.19271Q407.48438 69.770836 407.48438 70.97396ZM416.09375 73.145836L416.25 74.06771Q415.79688 74.16146 415.45312 74.16146Q414.875 74.16146 414.5625 73.989586Q414.25 73.802086 414.10938 73.50521Q413.98438 73.208336 413.98438 72.25521L413.98438 68.677086L413.21875 68.677086L413.21875 67.864586L413.98438 67.864586L413.98438 66.31771L415.03125 65.69271L415.03125 67.864586L416.09375 67.864586L416.09375 68.677086L415.03125 68.677086L415.03125 72.31771Q415.03125 72.770836 415.07812 72.895836Q415.14062 73.020836 415.26562 73.09896Q415.39062 73.177086 415.625 73.177086Q415.8125 73.177086 416.09375 73.145836ZM419.79688 76.47396L419.79688 67.864586L420.75 67.864586L420.75 68.66146Q421.09375 68.19271 421.51562 67.958336Q421.95312 67.72396 422.5625 67.72396Q423.35938 67.72396 423.96875 68.13021Q424.57812 68.53646 424.875 69.28646Q425.1875 70.03646 425.1875 70.927086Q425.1875 71.88021 424.84375 72.645836Q424.51562 73.41146 423.85938 73.81771Q423.20312 74.22396 422.48438 74.22396Q421.95312 74.22396 421.53125 74.00521Q421.10938 73.770836 420.84375 73.44271L420.84375 76.47396L419.79688 76.47396ZM420.75 71.00521Q420.75 72.208336 421.23438 72.78646Q421.71875 73.34896 422.40625 73.34896Q423.10938 73.34896 423.60938 72.75521Q424.10938 72.16146 424.10938 70.91146Q424.10938 69.72396 423.625 69.145836Q423.14062 68.552086 422.45312 68.552086Q421.78125 68.552086 421.26562 69.177086Q420.75 69.802086 420.75 71.00521ZM426.40625 70.97396Q426.40625 69.239586 427.35938 68.41146Q428.15625 67.72396 429.3125 67.72396Q430.59375 67.72396 431.40625 68.56771Q432.23438 69.395836 432.23438 70.88021Q432.23438 72.083336 431.875 72.770836Q431.51562 73.458336 430.8125 73.84896Q430.125 74.22396 429.3125 74.22396Q428.01562 74.22396 427.20312 73.395836Q426.40625 72.552086 426.40625 70.97396ZM427.48438 70.97396Q427.48438 72.16146 428.0 72.75521Q428.53125 73.34896 429.3125 73.34896Q430.10938 73.34896 430.625 72.75521Q431.14062 72.16146 431.14062 70.94271Q431.14062 69.78646 430.60938 69.19271Q430.09375 68.59896 429.3125 68.59896Q428.53125 68.59896 428.0 69.19271Q427.48438 69.770836 427.48438 70.97396ZM434.9375 74.083336L433.03125 67.864586L434.125 67.864586L435.10938 71.458336L435.48438 72.78646Q435.51562 72.69271 435.8125 71.50521L436.79688 67.864586L437.875 67.864586L438.8125 71.47396L439.125 72.66146L439.48438 71.458336L440.54688 67.864586L441.57812 67.864586L439.625 74.083336L438.53125 74.083336L437.54688 70.34896L437.29688 69.302086L436.04688 74.083336L434.9375 74.083336ZM447.04688 72.083336L448.14062 72.208336Q447.89062 73.16146 447.1875 73.69271Q446.48438 74.22396 445.40625 74.22396Q444.04688 74.22396 443.23438 73.38021Q442.4375 72.53646 442.4375 71.020836Q442.4375 69.458336 443.25 68.59896Q444.0625 67.72396 445.34375 67.72396Q446.59375 67.72396 447.375 68.56771Q448.17188 69.41146 448.17188 70.958336Q448.17188 71.052086 448.17188 71.239586L443.53125 71.239586Q443.59375 72.270836 444.10938 72.81771Q444.625 73.34896 445.40625 73.34896Q445.98438 73.34896 446.39062 73.052086Q446.8125 72.739586 447.04688 72.083336ZM443.59375 70.38021L447.0625 70.38021Q447.0 69.583336 446.67188 69.19271Q446.15625 68.583336 445.35938 68.583336Q444.625 68.583336 444.125 69.06771Q443.64062 69.552086 443.59375 70.38021ZM449.78125 74.083336L449.78125 67.864586L450.73438 67.864586L450.73438 68.802086Q451.09375 68.145836 451.39062 67.94271Q451.70312 67.72396 452.07812 67.72396Q452.60938 67.72396 453.15625 68.052086L452.79688 69.03646Q452.40625 68.802086 452.03125 68.802086Q451.67188 68.802086 451.39062 69.020836Q451.125 69.22396 451.01562 69.59896Q450.82812 70.16146 450.82812 70.81771L450.82812 74.083336L449.78125 74.083336ZM453.375 72.22396L454.40625 72.06771Q454.5 72.69271 454.89062 73.020836Q455.29688 73.34896 456.03125 73.34896Q456.75 73.34896 457.09375 73.06771Q457.45312 72.770836 457.45312 72.364586Q457.45312 72.00521 457.14062 71.802086Q456.92188 71.66146 456.0625 71.44271Q454.90625 71.145836 454.45312 70.94271Q454.01562 70.72396 453.78125 70.34896Q453.54688 69.97396 453.54688 69.50521Q453.54688 69.09896 453.73438 68.739586Q453.92188 68.38021 454.25 68.145836Q454.5 67.97396 454.92188 67.84896Q455.34375 67.72396 455.84375 67.72396Q456.5625 67.72396 457.10938 67.94271Q457.67188 68.145836 457.9375 68.50521Q458.20312 68.864586 458.29688 69.458336L457.26562 69.59896Q457.20312 69.13021 456.85938 68.864586Q456.53125 68.583336 455.90625 68.583336Q455.1875 68.583336 454.875 68.833336Q454.5625 69.06771 454.5625 69.395836Q454.5625 69.59896 454.6875 69.75521Q454.82812 69.927086 455.09375 70.03646Q455.25 70.09896 456.03125 70.302086Q457.15625 70.614586 457.59375 70.802086Q458.03125 70.989586 458.28125 71.34896Q458.53125 71.708336 458.53125 72.25521Q458.53125 72.78646 458.21875 73.25521Q457.92188 73.708336 457.34375 73.97396Q456.76562 74.22396 456.03125 74.22396Q454.8125 74.22396 454.17188 73.72396Q453.54688 73.208336 453.375 72.22396ZM463.40625 70.97396Q463.40625 69.239586 464.35938 68.41146Q465.15625 67.72396 466.3125 67.72396Q467.59375 67.72396 468.40625 68.56771Q469.23438 69.395836 469.23438 70.88021Q469.23438 72.083336 468.875 72.770836Q468.51562 73.458336 467.8125 73.84896Q467.125 74.22396 466.3125 74.22396Q465.01562 74.22396 464.20312 73.395836Q463.40625 72.552086 463.40625 70.97396ZM464.48438 70.97396Q464.48438 72.16146 465.0 72.75521Q465.53125 73.34896 466.3125 73.34896Q467.10938 73.34896 467.625 72.75521Q468.14062 72.16146 468.14062 70.94271Q468.14062 69.78646 467.60938 69.19271Q467.09375 68.59896 466.3125 68.59896Q465.53125 68.59896 465.0 69.19271Q464.48438 69.770836 464.48438 70.97396ZM471.04688 74.083336L471.04688 68.677086L470.10938 68.677086L470.10938 67.864586L471.04688 67.864586L471.04688 67.19271Q471.04688 66.56771 471.15625 66.270836Q471.3125 65.84896 471.6875 65.59896Q472.07812 65.34896 472.76562 65.34896Q473.21875 65.34896 473.75 65.458336L473.59375 66.364586Q473.26562 66.31771 472.96875 66.31771Q472.48438 66.31771 472.28125 66.520836Q472.09375 66.72396 472.09375 67.28646L472.09375 67.864586L473.3125 67.864586L473.3125 68.677086L472.09375 68.677086L472.09375 74.083336L471.04688 74.083336ZM482.04688 73.06771L482.04688 74.083336L476.35938 74.083336Q476.35938 73.708336 476.48438 73.34896Q476.70312 72.770836 477.17188 72.208336Q477.65625 71.645836 478.5625 70.91146Q479.96875 69.75521 480.45312 69.083336Q480.95312 68.41146 480.95312 67.81771Q480.95312 67.19271 480.5 66.770836Q480.04688 66.333336 479.32812 66.333336Q478.5625 66.333336 478.10938 66.78646Q477.65625 67.239586 477.64062 68.052086L476.5625 67.94271Q476.67188 66.72396 477.39062 66.09896Q478.125 65.458336 479.35938 65.458336Q480.59375 65.458336 481.3125 66.145836Q482.03125 66.833336 482.03125 67.84896Q482.03125 68.364586 481.8125 68.864586Q481.60938 69.34896 481.10938 69.91146Q480.625 70.458336 479.5 71.41146Q478.54688 72.208336 478.26562 72.50521Q478.0 72.78646 477.82812 73.06771L482.04688 73.06771Z" fill-rule="nonzero"/><path fill="#757575" d="M24.121876 37.2625Q24.121876 34.3875 25.715626 32.996876Q27.059376 31.840626 28.98125 31.840626Q31.121876 31.840626 32.465626 33.246876Q33.825 34.653126 33.825 37.121876Q33.825 39.121876 33.23125 40.278126Q32.6375 41.41875 31.48125 42.059376Q30.340626 42.684376 28.98125 42.684376Q26.79375 42.684376 25.45 41.29375Q24.121876 39.8875 24.121876 37.2625ZM25.91875 37.2625Q25.91875 39.2625 26.778126 40.246876Q27.653126 41.23125 28.98125 41.23125Q30.29375 41.23125 31.153126 40.246876Q32.028126 39.246876 32.028126 37.2Q32.028126 35.278126 31.153126 34.29375Q30.278126 33.29375 28.98125 33.29375Q27.653126 33.29375 26.778126 34.29375Q25.91875 35.278126 25.91875 37.2625ZM35.7625 46.41875L35.7625 32.075L37.371876 32.075L37.371876 33.41875Q37.934376 32.6375 38.6375 32.246876Q39.35625 31.840626 40.371876 31.840626Q41.7 31.840626 42.715626 32.528126Q43.73125 33.215626 44.246876 34.465626Q44.778126 35.7 44.778126 37.184376Q44.778126 38.778126 44.2 40.059376Q43.6375 41.325 42.54375 42.0125Q41.45 42.684376 40.246876 42.684376Q39.371876 42.684376 38.66875 42.309376Q37.98125 41.934376 37.528126 41.371876L37.528126 46.41875L35.7625 46.41875ZM37.35625 37.325Q37.35625 39.325 38.16875 40.278126Q38.98125 41.23125 40.1375 41.23125Q41.309376 41.23125 42.1375 40.246876Q42.98125 39.2625 42.98125 37.16875Q42.98125 35.2 42.153126 34.215626Q41.340626 33.215626 40.215626 33.215626Q39.090626 33.215626 38.215626 34.278126Q37.35625 35.325 37.35625 37.325ZM50.60625 40.871876L50.85625 42.434376Q50.121876 42.590626 49.528126 42.590626Q48.575 42.590626 48.04375 42.29375Q47.528126 41.98125 47.309376 41.496876Q47.090626 40.996876 47.090626 39.41875L47.090626 33.45L45.809376 33.45L45.809376 32.075L47.090626 32.075L47.090626 29.5125L48.840626 28.45L48.840626 32.075L50.60625 32.075L50.60625 33.45L48.840626 33.45L48.840626 39.5125Q48.840626 40.2625 48.934376 40.48125Q49.028126 40.684376 49.23125 40.825Q49.45 40.95 49.840626 40.95Q50.121876 40.95 50.60625 40.871876ZM52.778126 30.153126L52.778126 28.1375L54.54375 28.1375L54.54375 30.153126L52.778126 30.153126ZM52.778126 42.45L52.778126 32.075L54.54375 32.075L54.54375 42.45L52.778126 42.45ZM56.121876 37.2625Q56.121876 34.3875 57.715626 32.996876Q59.059376 31.840626 60.98125 31.840626Q63.121876 31.840626 64.46562 33.246876Q65.825 34.653126 65.825 37.121876Q65.825 39.121876 65.23125 40.278126Q64.6375 41.41875 63.48125 42.059376Q62.340626 42.684376 60.98125 42.684376Q58.79375 42.684376 57.45 41.29375Q56.121876 39.8875 56.121876 37.2625ZM57.91875 37.2625Q57.91875 39.2625 58.778126 40.246876Q59.653126 41.23125 60.98125 41.23125Q62.29375 41.23125 63.153126 40.246876Q64.02812 39.246876 64.02812 37.2Q64.02812 35.278126 63.153126 34.29375Q62.278126 33.29375 60.98125 33.29375Q59.653126 33.29375 58.778126 34.29375Q57.91875 35.278126 57.91875 37.2625ZM67.7625 42.45L67.7625 32.075L69.35625 32.075L69.35625 33.559376Q70.49687 31.840626 72.65312 31.840626Q73.59062 31.840626 74.37187 32.184376Q75.16875 32.5125 75.55937 33.059376Q75.95 33.60625 76.10625 34.35625Q76.2 34.85625 76.2 36.075L76.2 42.45L74.43437 42.45L74.43437 36.1375Q74.43437 35.059376 74.23125 34.528126Q74.02812 33.996876 73.49687 33.684376Q72.98125 33.371876 72.27812 33.371876Q71.15312 33.371876 70.34062 34.090626Q69.52812 34.79375 69.52812 36.778126L69.52812 42.45L67.7625 42.45ZM77.05937 39.35625L78.80937 39.075Q78.95 40.121876 79.62187 40.684376Q80.29375 41.23125 81.49687 41.23125Q82.7 41.23125 83.27812 40.746876Q83.87187 40.246876 83.87187 39.590626Q83.87187 38.996876 83.35625 38.653126Q82.99687 38.41875 81.55937 38.059376Q79.62187 37.559376 78.87187 37.215626Q78.1375 36.85625 77.74687 36.23125Q77.35625 35.590626 77.35625 34.825Q77.35625 34.1375 77.66875 33.54375Q77.99687 32.95 78.54375 32.559376Q78.95 32.2625 79.65312 32.059376Q80.37187 31.840626 81.18437 31.840626Q82.40312 31.840626 83.325 32.2Q84.24687 32.54375 84.68437 33.153126Q85.12187 33.746876 85.29375 34.746876L83.575 34.98125Q83.45 34.184376 82.8875 33.746876Q82.325 33.29375 81.30937 33.29375Q80.09062 33.29375 79.575 33.7Q79.05937 34.090626 79.05937 34.621876Q79.05937 34.965626 79.27812 35.246876Q79.48125 35.528126 79.95 35.715626Q80.21562 35.809376 81.49687 36.153126Q83.37187 36.653126 84.10625 36.98125Q84.84062 37.29375 85.2625 37.903126Q85.68437 38.496876 85.68437 39.403126Q85.68437 40.278126 85.16875 41.059376Q84.65312 41.840626 83.68437 42.2625Q82.71562 42.684376 81.49687 42.684376Q79.48125 42.684376 78.41875 41.840626Q77.35625 40.996876 77.05937 39.35625ZM103.0125 34.028126L93.55937 34.028126L93.55937 32.3875L103.0125 32.3875L103.0125 34.028126ZM103.0125 38.371876L93.55937 38.371876L93.55937 36.73125L103.0125 36.73125L103.0125 38.371876ZM120.5125 40.7625L120.5125 42.45L111.05937 42.45Q111.04375 41.809376 111.2625 41.23125Q111.62187 40.2625 112.41875 39.325Q113.21562 38.3875 114.71562 37.153126Q117.05937 35.246876 117.87187 34.1375Q118.7 33.0125 118.7 32.0125Q118.7 30.965626 117.95 30.246876Q117.2 29.528126 115.99687 29.528126Q114.73125 29.528126 113.96562 30.29375Q113.2 31.059376 113.2 32.403126L111.3875 32.215626Q111.575 30.2 112.77812 29.1375Q113.99687 28.075 116.04375 28.075Q118.09062 28.075 119.29375 29.215626Q120.49687 30.35625 120.49687 32.04375Q120.49687 32.903126 120.1375 33.746876Q119.79375 34.575 118.98125 35.496876Q118.16875 36.403126 116.27812 38.0125Q114.68437 39.340626 114.23125 39.809376Q113.79375 40.278126 113.49687 40.7625L120.5125 40.7625ZM123.23125 42.45L123.23125 40.45L125.23125 40.45L125.23125 42.45Q125.23125 43.559376 124.84062 44.23125Q124.45 44.91875 123.60625 45.278126L123.10625 44.528126Q123.66875 44.29375 123.93437 43.809376Q124.2 43.340626 124.23125 42.45L123.23125 42.45ZM141.54375 41.16875Q140.55937 41.996876 139.65312 42.340626Q138.74687 42.684376 137.71562 42.684376Q136.0125 42.684376 135.09062 41.85625Q134.16875 41.0125 134.16875 39.715626Q134.16875 38.95 134.5125 38.325Q134.87187 37.7 135.43437 37.325Q135.99687 36.934376 136.7 36.73125Q137.21562 36.60625 138.2625 36.465626Q140.3875 36.215626 141.3875 35.871876Q141.40312 35.5125 141.40312 35.403126Q141.40312 34.340626 140.90312 33.8875Q140.23125 33.29375 138.90312 33.29375Q137.65312 33.29375 137.05937 33.73125Q136.48125 34.16875 136.2 35.278126L134.48125 35.04375Q134.71562 33.934376 135.24687 33.2625Q135.77812 32.575 136.79375 32.215626Q137.80937 31.840626 139.15312 31.840626Q140.48125 31.840626 141.30937 32.153126Q142.1375 32.465626 142.52812 32.95Q142.91875 33.41875 143.075 34.1375Q143.16875 34.590626 143.16875 35.7625L143.16875 38.10625Q143.16875 40.559376 143.27812 41.215626Q143.3875 41.85625 143.73125 42.45L141.8875 42.45Q141.62187 41.903126 141.54375 41.16875ZM141.3875 37.246876Q140.43437 37.6375 138.5125 37.903126Q137.43437 38.059376 136.98125 38.2625Q136.54375 38.45 136.29375 38.825Q136.04375 39.2 136.04375 39.66875Q136.04375 40.371876 136.575 40.840626Q137.10625 41.309376 138.1375 41.309376Q139.15312 41.309376 139.93437 40.871876Q140.73125 40.41875 141.10625 39.653126Q141.3875 39.04375 141.3875 37.8875L141.3875 37.246876ZM161.0125 34.028126L151.55937 34.028126L151.55937 32.3875L161.0125 32.3875L161.0125 34.028126ZM161.0125 38.371876L151.55937 38.371876L151.55937 36.73125L161.0125 36.73125L161.0125 38.371876ZM175.90312 42.45L174.1375 42.45L174.1375 31.246876Q173.5125 31.85625 172.48125 32.465626Q171.45 33.059376 170.62187 33.371876L170.62187 31.66875Q172.10625 30.98125 173.2 29.996876Q174.30937 28.996876 174.7625 28.075L175.90312 28.075L175.90312 42.45Z" fill-rule="nonzero"/></svg>