<svg version="1.1" viewBox="0.0 0.0 759.0 469.0" fill="none" stroke="none" stroke-linecap="square" stroke-miterlimit="10" width="759" height="469" xmlns:xlink="http://www.w3.org/1999/xlink" xmlns="http://www.w3.org/2000/svg"><path fill="#ffffff" d="M0 0L759.0 0L759.0 469.0L0 469.0L0 0Z" fill-rule="nonzero"/><path stroke="#cccccc" stroke-width="1.0" stroke-linecap="butt" d="M94.5 101.5L94.5 388.5" fill-rule="nonzero"/><path stroke="#cccccc" stroke-width="1.0" stroke-linecap="butt" d="M221.5 101.5L221.5 388.5" fill-rule="nonzero"/><path stroke="#cccccc" stroke-width="1.0" stroke-linecap="butt" d="M348.5 101.5L348.5 388.5" fill-rule="nonzero"/><path stroke="#cccccc" stroke-width="1.0" stroke-linecap="butt" d="M474.5 101.5L474.5 388.5" fill-rule="nonzero"/><path stroke="#cccccc" stroke-width="1.0" stroke-linecap="butt" d="M601.5 101.5L601.5 388.5" fill-rule="nonzero"/><path stroke="#cccccc" stroke-width="1.0" stroke-linecap="butt" d="M728.5 101.5L728.5 388.5" fill-rule="nonzero"/><path stroke="#cccccc" stroke-width="1.0" stroke-linecap="butt" d="M87.5 388.5L735.5 388.5" fill-rule="nonzero"/><path stroke="#cccccc" stroke-width="1.0" stroke-linecap="butt" d="M87.5 331.5L735.5 331.5" fill-rule="nonzero"/><path stroke="#cccccc" stroke-width="1.0" stroke-linecap="butt" d="M87.5 273.5L735.5 273.5" fill-rule="nonzero"/><path stroke="#cccccc" stroke-width="1.0" stroke-linecap="butt" d="M87.5 216.5L735.5 216.5" fill-rule="nonzero"/><path stroke="#cccccc" stroke-width="1.0" stroke-linecap="butt" d="M87.5 159.5L735.5 159.5" fill-rule="nonzero"/><path stroke="#cccccc" stroke-width="1.0" stroke-linecap="butt" d="M87.5 101.5L735.5 101.5" fill-rule="nonzero"/><clipPath id="id_0"><path d="M87.45 101.71667L735.55 101.71667L735.55 388.55L87.45 388.55L87.45 101.71667Z" clip-rule="nonzero"/></clipPath><path stroke="#4285f4" stroke-width="2.0" stroke-linecap="butt" stroke-opacity="0.4" clip-path="url(#id_0)" d="M0 403.20453C0 403.20453 2.6666667 401.75723 4.0 401.03534C5.3333335 400.31348 6.6666665 399.59274 8.0 398.87323C9.333333 398.15372 10.666667 397.43536 12.0 396.7182C13.333333 396.001 14.666667 395.28503 16.0 394.57022C17.333334 393.8554 18.666666 393.14178 20.0 392.42932C21.333334 391.71686 22.666666 391.00558 24.0 390.2955C25.333334 389.5854 26.666666 388.87646 28.0 388.16873C29.333334 387.46097 30.666666 386.75443 32.0 386.04904C33.333332 385.34366 34.666668 384.63943 36.0 383.9364C37.333332 383.2334 38.666668 382.53152 40.0 381.83087C41.333332 381.1302 42.666668 380.4307 44.0 379.7324C45.333332 379.03406 46.666668 378.3369 48.0 377.64096C49.333332 376.945 50.666668 376.25024 52.0 375.55664C53.333332 374.86304 54.666668 374.1706 56.0 373.47937C57.333332 372.78812 58.666668 372.09805 60.0 371.40915C61.333332 370.72028 62.666668 370.03256 64.0 369.346C65.333336 368.6595 66.666664 367.97415 68.0 367.28995C69.333336 366.60577 70.666664 365.9228 72.0 365.24097C73.333336 364.55914 74.666664 363.8785 76.0 363.19904C77.333336 362.5196 78.666664 361.8413 80.0 361.16418C81.333336 360.4871 82.666664 359.81116 84.0 359.1364C85.333336 358.46167 86.666664 357.7881 88.0 357.1157C89.333336 356.44333 90.666664 355.7721 92.0 355.10205C93.333336 354.43204 94.666664 353.76318 96.0 353.0955C97.333336 352.42783 98.666664 351.76132 100.0 351.09598C101.333336 350.43066 102.666664 349.76654 104.0 349.10358C105.333336 348.44058 106.666664 347.7788 108.0 347.1182C109.333336 346.45758 110.666664 345.79816 112.0 345.13992C113.333336 344.48166 114.666664 343.8246 116.0 343.1687C117.333336 342.5128 118.666664 341.85806 120.0 341.20453C121.333336 340.551 122.666664 339.89865 124.0 339.24747C125.333336 338.59628 126.666664 337.94626 128.0 337.29745C129.33333 336.64862 130.66667 336.00098 132.0 335.3545C133.33333 334.70804 134.66667 334.06274 136.0 333.41864C137.33333 332.77454 138.66667 332.1316 140.0 331.48984C141.33333 330.84808 142.66667 330.2075 144.0 329.5681C145.33333 328.9287 146.66667 328.2905 148.0 327.65344C149.33333 327.0164 150.66667 326.38052 152.0 325.74585C153.33333 325.11118 154.66667 324.47766 156.0 323.84534C157.33333 323.213 158.66667 322.58185 160.0 321.95187C161.33333 321.3219 162.66667 320.6931 164.0 320.0655C165.33333 319.4379 166.66667 318.81143 168.0 318.1862C169.33333 317.5609 170.66667 316.93686 172.0 316.31393C173.33333 315.69104 174.66667 315.0693 176.0 314.44876C177.33333 313.82822 178.66667 313.20886 180.0 312.59067C181.33333 311.97247 182.66667 311.35547 184.0 310.73965C185.33333 310.1238 186.66667 309.50916 188.0 308.8957C189.33333 308.2822 190.66667 307.66992 192.0 307.05878C193.33333 306.44766 194.66667 305.83774 196.0 305.22897C197.33333 304.6202 198.66667 304.01263 200.0 303.40622C201.33333 302.7998 202.66667 302.19458 204.0 301.59055C205.33333 300.98648 206.66667 300.3836 208.0 299.78192C209.33333 299.18024 210.66667 298.5797 212.0 297.98038C213.33333 297.38104 214.66667 296.7829 216.0 296.1859C217.33333 295.58893 218.66667 294.99313 220.0 294.39853C221.33333 293.8039 222.66667 293.21045 224.0 292.6182C225.33333 292.0259 226.66667 291.43484 228.0 290.84494C229.33333 290.255 230.66667 289.6663 232.0 289.07874C233.33333 288.49118 234.66667 287.90482 236.0 287.3196C237.33333 286.7344 238.66667 286.1504 240.0 285.56757C241.33333 284.9847 242.66667 284.40308 244.0 283.82257C245.33333 283.2421 246.66667 282.6628 248.0 282.0847C249.33333 281.50656 250.66667 280.9296 252.0 280.35382C253.33333 279.77808 254.66667 279.20346 256.0 278.63007C257.33334 278.05664 258.66666 277.4844 260.0 276.91336C261.33334 276.34232 262.66666 275.77243 264.0 275.20374C265.33334 274.63504 266.66666 274.0675 268.0 273.50116C269.33334 272.9348 270.66666 272.36966 272.0 271.8057C273.33334 271.2417 274.66666 270.6789 276.0 270.11725C277.33334 269.55563 278.66666 268.99518 280.0 268.4359C281.33334 267.87665 282.66666 267.31854 284.0 266.76163C285.33334 266.2047 286.66666 265.649 288.0 265.09442C289.33334 264.53986 290.66666 263.98648 292.0 263.43427C293.33334 262.88208 294.66666 262.33105 296.0 261.78122C297.33334 261.23135 298.66666 260.6827 300.0 260.1352C301.33334 259.5877 302.66666 259.0414 304.0 258.49628C305.33334 257.95114 306.66666 257.4072 308.0 256.8644C309.33334 256.32166 310.66666 255.78004 312.0 255.23962C313.33334 254.6992 314.66666 254.15997 316.0 253.6219C317.33334 253.08385 318.66666 252.54697 320.0 252.01126C321.33334 251.47556 322.66666 250.94102 324.0 250.40767C325.33334 249.87433 326.66666 249.34216 328.0 248.81117C329.33334 248.28017 330.66666 247.75037 332.0 247.22173C333.33334 246.69308 334.66666 246.16563 336.0 245.63936C337.33334 245.11308 338.66666 244.58798 340.0 244.06406C341.33334 243.54013 342.66666 243.0174 344.0 242.49582C345.33334 241.97426 346.66666 241.45387 348.0 240.93466C349.33334 240.41545 350.66666 239.89743 352.0 239.38057C353.33334 238.86372 354.66666 238.34805 356.0 237.83356C357.33334 237.31906 358.66666 236.80574 360.0 236.29361C361.33334 235.78146 362.66666 235.27051 364.0 234.76073C365.33334 234.25095 366.66666 233.74234 368.0 233.23491C369.33334 232.7275 370.66666 232.22124 372.0 231.71617C373.33334 231.2111 374.66666 230.70721 376.0 230.2045C377.33334 229.7018 378.66666 229.20026 380.0 228.6999C381.33334 228.19955 382.66666 227.70038 384.0 227.20238C385.33334 226.70438 386.66666 226.20755 388.0 225.71191C389.33334 225.21628 390.66666 224.72182 392.0 224.22853C393.33334 223.73524 394.66666 223.24313 396.0 222.7522C397.33334 222.26128 398.66666 221.77153 400.0 221.28296C401.33334 220.79439 402.66666 220.30699 404.0 219.82077C405.33334 219.33456 406.66666 218.84952 408.0 218.36566C409.33334 217.8818 410.66666 217.39912 412.0 216.91762C413.33334 216.43613 414.66666 215.9558 416.0 215.47665C417.33334 214.99751 418.66666 214.51955 420.0 214.04276C421.33334 213.56596 422.66666 213.09036 424.0 212.61592C425.33334 212.1415 426.66666 211.66824 428.0 211.19617C429.33334 210.72409 430.66666 210.25319 432.0 209.78348C433.33334 209.31375 434.66666 208.84521 436.0 208.37785C437.33334 207.91049 438.66666 207.4443 440.0 206.97931C441.33334 206.5143 442.66666 206.05048 444.0 205.58783C445.33334 205.12518 446.66666 204.66371 448.0 204.20341C449.33334 203.74312 450.66666 203.28401 452.0 202.82608C453.33334 202.36815 454.66666 201.91139 456.0 201.45581C457.33334 201.00023 458.66666 200.54582 460.0 200.0926C461.33334 199.63939 462.66666 199.18735 464.0 198.73648C465.33334 198.28561 466.66666 197.83592 468.0 197.38742C469.33334 196.9389 470.66666 196.49158 472.0 196.04543C473.33334 195.59927 474.66666 195.1543 476.0 194.71051C477.33334 194.26671 478.66666 193.8241 480.0 193.38266C481.33334 192.94122 482.66666 192.50096 484.0 192.06187C485.33334 191.6228 486.66666 191.18489 488.0 190.74817C489.33334 190.31145 490.66666 189.8759 492.0 189.44153C493.33334 189.00716 494.66666 188.57397 496.0 188.14197C497.33334 187.70995 498.66666 187.27911 500.0 186.84946C501.33334 186.4198 502.66666 185.99133 504.0 185.56403C505.33334 185.13673 506.66666 184.71062 508.0 184.28568C509.33334 183.86073 510.66666 183.43697 512.0 183.01439C513.3333 182.5918 514.6667 182.1704 516.0 181.75017C517.3333 181.32994 518.6667 180.91089 520.0 180.49301C521.3333 180.07515 522.6667 179.65845 524.0 179.24294C525.3333 178.82742 526.6667 178.41309 528.0 177.99992C529.3333 177.58676 530.6667 177.17479 532.0 176.76399C533.3333 176.35318 534.6667 175.94356 536.0 175.53511C537.3333 175.12668 538.6667 174.7194 540.0 174.31332C541.3333 173.90723 542.6667 173.50232 544.0 173.09859C545.3333 172.69485 546.6667 172.2923 548.0 171.89093C549.3333 171.48955 550.6667 171.08936 552.0 170.69034C553.3333 170.29132 554.6667 169.89348 556.0 169.49683C557.3333 169.10016 558.6667 168.70468 560.0 168.31036C561.3333 167.91606 562.6667 167.52293 564.0 167.131C565.3333 166.73904 566.6667 166.34827 568.0 165.95868C569.3333 165.56909 570.6667 165.18068 572.0 164.79344C573.3333 164.4062 574.6667 164.02016 576.0 163.63527C577.3333 163.2504 578.6667 162.8667 580.0 162.48418C581.3333 162.10165 582.6667 161.7203 584.0 161.34015C585.3333 160.95998 586.6667 160.581 588.0 160.20319C589.3333 159.82538 590.6667 159.44875 592.0 159.0733C593.3333 158.69785 594.6667 158.32358 596.0 157.95049C597.3333 157.57738 598.6667 157.20546 600.0 156.83473C601.3333 156.46399 602.6667 156.09444 604.0 155.72604C605.3333 155.35767 606.6667 154.99046 608.0 154.62444C609.3333 154.25842 610.6667 153.89357 612.0 153.5299C613.3333 153.16623 614.6667 152.80374 616.0 152.44243C617.3333 152.08112 618.6667 151.721 620.0 151.36203C621.3333 151.00308 622.6667 150.64531 624.0 150.28871C625.3333 149.93211 626.6667 149.57669 628.0 149.22244C629.3333 148.86821 630.6667 148.51514 632.0 148.16325C633.3333 147.81137 634.6667 147.46066 636.0 147.11113C637.3333 146.76161 638.6667 146.41325 640.0 146.06609C641.3333 145.71892 642.6667 145.37292 644.0 145.0281C645.3333 144.68329 646.6667 144.33966 648.0 143.99721C649.3333 143.65474 650.6667 143.31346 652.0 142.97336C653.3333 142.63326 654.6667 142.29434 656.0 141.95659C657.3333 141.61885 658.6667 141.28229 660.0 140.9469C661.3333 140.61151 662.6667 140.2773 664.0 139.94426C665.3333 139.61124 666.6667 139.27937 668.0 138.9487C669.3333 138.61803 670.6667 138.28853 672.0 137.96022C673.3333 137.6319 674.6667 137.30476 676.0 136.9788C677.3333 136.65283 678.6667 136.32805 680.0 136.00446C681.3333 135.68085 682.6667 135.35841 684.0 135.03717C685.3333 134.71593 686.6667 134.39586 688.0 134.07697C689.3333 133.75807 690.6667 133.44035 692.0 133.12383C693.3333 132.80728 694.6667 132.49193 696.0 132.17775C697.3333 131.86357 698.6667 131.55058 700.0 131.23875C701.3333 130.92694 702.6667 130.61629 704.0 130.30682C705.3333 129.99736 706.6667 129.68907 708.0 129.38197C709.3333 129.07486 710.6667 128.76894 712.0 128.46417C713.3333 128.15942 714.6667 127.85586 716.0 127.55346C717.3333 127.25107 718.6667 126.94985 720.0 126.64981C721.3333 126.34978 722.6667 126.05091 724.0 125.753235C725.3333 125.45555 726.6667 125.15905 728.0 124.86372C729.3333 124.5684 732.0 123.981285 732.0 123.981285" fill-rule="nonzero"/><path fill="#ff0000" clip-path="url(#id_0)" d="M98.80199 372.14313C98.80199 374.62842 96.78727 376.64313 94.30199 376.64313C91.8167 376.64313 89.80199 374.62842 89.80199 372.14313C89.80199 369.65784 91.8167 367.64313 94.30199 367.64313C96.78727 367.64313 98.80199 369.65784 98.80199 372.14313Z" fill-rule="nonzero"/><path fill="#ff0000" clip-path="url(#id_0)" d="M606.3188 162.52533C606.3188 165.01062 604.3041 167.02533 601.8188 167.02533C599.33356 167.02533 597.3188 165.01062 597.3188 162.52533C597.3188 160.04005 599.33356 158.02533 601.8188 158.02533C604.3041 158.02533 606.3188 160.04005 606.3188 162.52533Z" fill-rule="nonzero"/><path fill="#4285f4" clip-path="url(#id_0)" d="M225.6812 296.41913C225.6812 298.90442 223.66647 300.91913 221.1812 300.91913C218.6959 300.91913 216.6812 298.90442 216.6812 296.41913C216.6812 293.93384 218.6959 291.91913 221.1812 291.91913C223.66647 291.91913 225.6812 293.93384 225.6812 296.41913Z" fill-rule="nonzero"/><path fill="#4285f4" clip-path="url(#id_0)" d="M352.5604 234.11893C352.5604 236.60422 350.5457 238.61893 348.0604 238.61893C345.5751 238.61893 343.5604 236.60422 343.5604 234.11893C343.5604 231.63365 345.5751 229.61893 348.0604 229.61893C350.5457 229.61893 352.5604 231.63365 352.5604 234.11893Z" fill-rule="nonzero"/><path fill="#4285f4" clip-path="url(#id_0)" d="M479.4396 200.15787C479.4396 202.64314 477.4249 204.65787 474.9396 204.65787C472.4543 204.65787 470.4396 202.64314 470.4396 200.15787C470.4396 197.67259 472.4543 195.65787 474.9396 195.65787C477.4249 195.65787 479.4396 197.67259 479.4396 200.15787Z" fill-rule="nonzero"/><path fill="#4285f4" clip-path="url(#id_0)" d="M733.198 123.8602C733.198 126.34548 731.1833 128.3602 728.698 128.3602C726.2127 128.3602 724.198 126.34548 724.198 123.8602C724.198 121.374916 726.2127 119.3602 728.698 119.3602C731.1833 119.3602 733.198 121.374916 733.198 123.8602Z" fill-rule="nonzero"/><path fill="#000000" d="M409.5625 442.55L408.42188 442.55L408.42188 432.53436L409.64062 432.53436L409.64062 436.09686Q410.42188 435.1281 411.64062 435.1281Q412.3125 435.1281 412.90625 435.39374Q413.5 435.65936 413.89062 436.15936Q414.28125 436.64374 414.5 437.33124Q414.71875 438.01874 414.71875 438.8156Q414.71875 440.675 413.78125 441.70624Q412.85938 442.72186 411.57812 442.72186Q410.29688 442.72186 409.5625 441.64374L409.5625 442.55ZM409.54688 438.8625Q409.54688 440.175 409.90625 440.7531Q410.48438 441.70624 411.46875 441.70624Q412.28125 441.70624 412.85938 441.0031Q413.45312 440.3 413.45312 438.90936Q413.45312 437.4875 412.89062 436.8156Q412.32812 436.14374 411.53125 436.14374Q410.71875 436.14374 410.125 436.84686Q409.54688 437.53436 409.54688 438.8625Z" fill-rule="nonzero"/><path fill="#000000" d="M36.44999 295.52396L26.434362 295.52396L26.434362 288.27396L27.606237 288.27396L27.606237 294.19583L30.684362 294.19583L30.684362 288.64896L31.856237 288.64896L31.856237 294.19583L35.26249 294.19583L35.26249 288.03958L36.44999 288.03958L36.44999 295.52396ZM36.44999 287.52396L32.66874 284.88333L29.184362 287.33646L29.184362 285.78958L30.887487 284.6802Q31.371862 284.3677 31.699987 284.1802Q31.246862 283.8677 30.903112 283.6177L29.184362 282.39896L29.184362 280.9302L32.60624 283.4302L36.44999 280.7427L36.44999 282.2427L34.19999 283.7427L33.590614 284.13333L36.44999 286.03958L36.44999 287.52396ZM35.35624 278.02396L36.434364 277.85208Q36.54374 278.3677 36.54374 278.77396Q36.54374 279.44583 36.340614 279.82083Q36.121864 280.1802 35.778114 280.33646Q35.434364 280.47708 34.32499 280.47708L30.153112 280.47708L30.153112 281.38333L29.184362 281.38333L29.184362 280.47708L27.387487 280.47708L26.653112 279.25833L29.184362 279.25833L29.184362 278.02396L30.153112 278.02396L30.153112 279.25833L34.38749 279.25833Q34.91874 279.25833 35.07499 279.19583Q35.215614 279.13333 35.309364 278.9927Q35.403114 278.83646 35.403114 278.57083Q35.403114 278.35208 35.35624 278.02396ZM36.44999 276.72708L29.184362 276.72708L29.184362 275.6177L30.293737 275.6177Q29.512487 275.19583 29.278112 274.83646Q29.028112 274.47708 29.028112 274.03958Q29.028112 273.41458 29.418737 272.77396L30.559362 273.19583Q30.293737 273.64896 30.293737 274.10208Q30.293737 274.50833 30.543737 274.83646Q30.778112 275.14896 31.215612 275.28958Q31.871862 275.4927 32.653114 275.4927L36.44999 275.4927L36.44999 276.72708ZM35.559364 266.97708Q36.13749 267.64896 36.38749 268.28958Q36.621864 268.91458 36.621864 269.64896Q36.621864 270.83646 36.04374 271.4927Q35.44999 272.13333 34.528114 272.13333Q33.996864 272.13333 33.559364 271.89896Q33.121864 271.64896 32.85624 271.25833Q32.590614 270.85208 32.44999 270.3677Q32.35624 270.00833 32.26249 269.27396Q32.090614 267.77396 31.840612 267.07083Q31.590612 267.07083 31.528112 267.07083Q30.762487 267.07083 30.465612 267.41458Q30.043737 267.88333 30.043737 268.82083Q30.043737 269.6802 30.356237 270.10208Q30.653112 270.50833 31.418737 270.71146L31.262487 271.91458Q30.481237 271.75833 30.012487 271.38333Q29.543737 270.9927 29.293737 270.28958Q29.028112 269.57083 29.028112 268.63333Q29.028112 267.71146 29.246862 267.13333Q29.465612 266.5552 29.793737 266.28958Q30.121862 266.00833 30.637487 265.89896Q30.949987 265.83646 31.762487 265.83646L33.403114 265.83646Q35.121864 265.83646 35.57499 265.75833Q36.028114 265.6802 36.44999 265.44583L36.44999 266.72708Q36.059364 266.91458 35.559364 266.97708ZM32.809364 267.07083Q33.07499 267.7427 33.278114 269.08646Q33.38749 269.83646 33.528114 270.16458Q33.653114 270.47708 33.91874 270.64896Q34.184364 270.82083 34.496864 270.82083Q34.996864 270.82083 35.32499 270.44583Q35.653114 270.07083 35.653114 269.35208Q35.653114 268.63333 35.340614 268.08646Q35.028114 267.53958 34.48124 267.27396Q34.07499 267.07083 33.26249 267.07083L32.809364 267.07083ZM35.559364 254.97708Q36.13749 255.64896 36.38749 256.28958Q36.621864 256.91458 36.621864 257.64896Q36.621864 258.83646 36.04374 259.4927Q35.44999 260.13333 34.528114 260.13333Q33.996864 260.13333 33.559364 259.89896Q33.121864 259.64896 32.85624 259.25833Q32.590614 258.85208 32.44999 258.3677Q32.35624 258.00833 32.26249 257.27396Q32.090614 255.77396 31.840612 255.07083Q31.590612 255.07083 31.528112 255.07083Q30.762487 255.07083 30.465612 255.41458Q30.043737 255.88333 30.043737 256.82083Q30.043737 257.6802 30.356237 258.10208Q30.653112 258.50833 31.418737 258.71146L31.262487 259.91458Q30.481237 259.75833 30.012487 259.38333Q29.543737 258.9927 29.293737 258.28958Q29.028112 257.57083 29.028112 256.63333Q29.028112 255.71146 29.246862 255.13333Q29.465612 254.5552 29.793737 254.28958Q30.121862 254.00833 30.637487 253.89896Q30.949987 253.83646 31.762487 253.83646L33.403114 253.83646Q35.121864 253.83646 35.57499 253.75833Q36.028114 253.6802 36.44999 253.44583L36.44999 254.72708Q36.059364 254.91458 35.559364 254.97708ZM32.809364 255.07083Q33.07499 255.7427 33.278114 257.08646Q33.38749 257.83646 33.528114 258.16458Q33.653114 258.47708 33.91874 258.64896Q34.184364 258.82083 34.496864 258.82083Q34.996864 258.82083 35.32499 258.44583Q35.653114 258.07083 35.653114 257.35208Q35.653114 256.63333 35.340614 256.08646Q35.028114 255.53958 34.48124 255.27396Q34.07499 255.07083 33.26249 255.07083L32.809364 255.07083ZM35.35624 249.02396L36.434364 248.85208Q36.54374 249.3677 36.54374 249.77396Q36.54374 250.44583 36.340614 250.82083Q36.121864 251.1802 35.778114 251.33646Q35.434364 251.47708 34.32499 251.47708L30.153112 251.47708L30.153112 252.38333L29.184362 252.38333L29.184362 251.47708L27.387487 251.47708L26.653112 250.25833L29.184362 250.25833L29.184362 249.02396L30.153112 249.02396L30.153112 250.25833L34.38749 250.25833Q34.91874 250.25833 35.07499 250.19583Q35.215614 250.13333 35.309364 249.9927Q35.403114 249.83646 35.403114 249.57083Q35.403114 249.35208 35.35624 249.02396ZM35.35624 245.02396L36.434364 244.85208Q36.54374 245.3677 36.54374 245.77396Q36.54374 246.44583 36.340614 246.82083Q36.121864 247.1802 35.778114 247.33646Q35.434364 247.47708 34.32499 247.47708L30.153112 247.47708L30.153112 248.38333L29.184362 248.38333L29.184362 247.47708L27.387487 247.47708L26.653112 246.25833L29.184362 246.25833L29.184362 245.02396L30.153112 245.02396L30.153112 246.25833L34.38749 246.25833Q34.91874 246.25833 35.07499 246.19583Q35.215614 246.13333 35.309364 245.9927Q35.403114 245.83646 35.403114 245.57083Q35.403114 245.35208 35.35624 245.02396ZM34.10624 238.7427L34.26249 237.46146Q35.38749 237.77396 36.01249 238.58646Q36.621864 239.39896 36.621864 240.66458Q36.621864 242.25833 35.63749 243.19583Q34.653114 244.1177 32.88749 244.1177Q31.043737 244.1177 30.043737 243.1802Q29.028112 242.22708 29.028112 240.72708Q29.028112 239.27396 30.028112 238.35208Q31.012487 237.4302 32.809364 237.4302Q32.91874 237.4302 33.13749 237.4302L33.13749 242.85208Q34.32499 242.77396 34.965614 242.1802Q35.60624 241.57083 35.60624 240.64896Q35.60624 239.97708 35.246864 239.50833Q34.88749 239.02396 34.10624 238.7427ZM32.121864 242.77396L32.121864 238.72708Q31.199987 238.8052 30.746862 239.19583Q30.043737 239.77396 30.043737 240.71146Q30.043737 241.57083 30.606237 242.14896Q31.168737 242.71146 32.121864 242.77396ZM36.44999 235.71146L29.184362 235.71146L29.184362 234.60208L30.215612 234.60208Q29.668737 234.27396 29.356237 233.71146Q29.028112 233.13333 29.028112 232.41458Q29.028112 231.60208 29.371862 231.08646Q29.699987 230.57083 30.293737 230.35208Q29.028112 229.4927 29.028112 228.1177Q29.028112 227.03958 29.621862 226.46146Q30.215612 225.8677 31.465612 225.8677L36.44999 225.8677L36.44999 227.10208L31.871862 227.10208Q31.137487 227.10208 30.809362 227.22708Q30.481237 227.33646 30.293737 227.64896Q30.090612 227.96146 30.090612 228.38333Q30.090612 229.14896 30.606237 229.66458Q31.106237 230.16458 32.23124 230.16458L36.44999 230.16458L36.44999 231.39896L31.731237 231.39896Q30.918737 231.39896 30.512487 231.69583Q30.090612 231.9927 30.090612 232.6802Q30.090612 233.19583 30.371862 233.64896Q30.637487 234.08646 31.168737 234.28958Q31.684362 234.47708 32.684364 234.47708L36.44999 234.47708L36.44999 235.71146ZM39.23124 224.71146L29.184362 224.71146L29.184362 223.58646L30.137487 223.58646Q29.574987 223.19583 29.309362 222.69583Q29.028112 222.19583 29.028112 221.47708Q29.028112 220.5552 29.512487 219.85208Q29.981237 219.13333 30.856237 218.77396Q31.731237 218.41458 32.76249 218.41458Q33.871864 218.41458 34.778114 218.82083Q35.66874 219.21146 36.153114 219.97708Q36.621864 220.72708 36.621864 221.57083Q36.621864 222.1802 36.35624 222.6802Q36.090614 223.16458 35.69999 223.47708L39.23124 223.47708L39.23124 224.71146ZM32.85624 223.60208Q34.26249 223.60208 34.934364 223.03958Q35.60624 222.46146 35.60624 221.64896Q35.60624 220.83646 34.91874 220.25833Q34.215614 219.66458 32.76249 219.66458Q31.371862 219.66458 30.684362 220.2427Q29.996862 220.8052 29.996862 221.60208Q29.996862 222.38333 30.731237 222.9927Q31.465612 223.60208 32.85624 223.60208ZM35.35624 214.02396L36.434364 213.85208Q36.54374 214.3677 36.54374 214.77396Q36.54374 215.44583 36.340614 215.82083Q36.121864 216.1802 35.778114 216.33646Q35.434364 216.47708 34.32499 216.47708L30.153112 216.47708L30.153112 217.38333L29.184362 217.38333L29.184362 216.47708L27.387487 216.47708L26.653112 215.25833L29.184362 215.25833L29.184362 214.02396L30.153112 214.02396L30.153112 215.25833L34.38749 215.25833Q34.91874 215.25833 35.07499 215.19583Q35.215614 215.13333 35.309364 214.9927Q35.403114 214.83646 35.403114 214.57083Q35.403114 214.35208 35.35624 214.02396ZM34.278114 213.19583L34.090614 211.9927Q34.82499 211.88333 35.215614 211.41458Q35.60624 210.94583 35.60624 210.10208Q35.60624 209.25833 35.26249 208.85208Q34.91874 208.4302 34.44999 208.4302Q34.028114 208.4302 33.79374 208.8052Q33.621864 209.0552 33.371864 210.0552Q33.028114 211.41458 32.778114 211.94583Q32.528114 212.46146 32.090614 212.72708Q31.653112 212.9927 31.121862 212.9927Q30.637487 212.9927 30.231237 212.77396Q29.809362 212.5552 29.528112 212.16458Q29.324987 211.88333 29.184362 211.39896Q29.028112 210.89896 29.028112 210.32083Q29.028112 209.47708 29.278112 208.83646Q29.512487 208.1802 29.934362 207.8677Q30.356237 207.5552 31.059362 207.44583L31.231237 208.64896Q30.668737 208.72708 30.356237 209.13333Q30.043737 209.52396 30.043737 210.2427Q30.043737 211.08646 30.324987 211.44583Q30.590612 211.8052 30.981237 211.8052Q31.215612 211.8052 31.403112 211.66458Q31.606237 211.50833 31.731237 211.1802Q31.793737 211.00833 32.04374 210.10208Q32.403114 208.78958 32.621864 208.27396Q32.840614 207.75833 33.26249 207.47708Q33.684364 207.1802 34.309364 207.1802Q34.934364 207.1802 35.48124 207.53958Q36.01249 207.88333 36.32499 208.57083Q36.621864 209.2427 36.621864 210.10208Q36.621864 211.50833 36.028114 212.25833Q35.434364 212.9927 34.278114 213.19583Z" fill-rule="nonzero"/><path fill="#000000" d="M70.49687 391.53436L70.49687 392.55L64.80937 392.55Q64.80937 392.175 64.93437 391.8156Q65.15312 391.2375 65.62187 390.675Q66.10625 390.1125 67.0125 389.3781Q68.41875 388.22186 68.90312 387.55Q69.40312 386.8781 69.40312 386.28436Q69.40312 385.65936 68.95 385.2375Q68.49687 384.8 67.77812 384.8Q67.0125 384.8 66.55937 385.2531Q66.10625 385.70624 66.09062 386.51874L65.0125 386.40936Q65.12187 385.1906 65.84062 384.5656Q66.575 383.925 67.80937 383.925Q69.04375 383.925 69.7625 384.6125Q70.48125 385.3 70.48125 386.3156Q70.48125 386.83124 70.2625 387.33124Q70.05937 387.8156 69.55937 388.3781Q69.075 388.925 67.95 389.8781Q66.99687 390.675 66.71562 390.97186Q66.45 391.2531 66.27812 391.53436L70.49687 391.53436ZM72.54375 392.55L72.54375 391.34686L73.74687 391.34686L73.74687 392.55L72.54375 392.55ZM74.95 390.3L76.05937 390.20624Q76.18437 391.01874 76.62187 391.425Q77.075 391.83124 77.71562 391.83124Q78.46562 391.83124 78.99687 391.2531Q79.52812 390.675 79.52812 389.7375Q79.52812 388.83124 79.0125 388.3156Q78.5125 387.78436 77.68437 387.78436Q77.18437 387.78436 76.7625 388.01874Q76.35625 388.2531 76.12187 388.6125L75.1375 388.4875L75.96562 384.08124L80.24687 384.08124L80.24687 385.08124L76.80937 385.08124L76.35625 387.39374Q77.12187 386.84686 77.96562 386.84686Q79.09062 386.84686 79.85625 387.6281Q80.6375 388.40936 80.6375 389.64374Q80.6375 390.8 79.96562 391.65936Q79.1375 392.6906 77.71562 392.6906Q76.54375 392.6906 75.79375 392.03436Q75.05937 391.3781 74.95 390.3Z" fill-rule="nonzero"/><path fill="#000000" d="M64.95 332.9177L66.0125 332.77707Q66.18437 333.6677 66.62187 334.07394Q67.05937 334.46457 67.68437 334.46457Q68.43437 334.46457 68.95 333.94894Q69.46562 333.43332 69.46562 332.6677Q69.46562 331.94894 68.98125 331.4802Q68.5125 330.99582 67.77812 330.99582Q67.48125 330.99582 67.02812 331.12082L67.15312 330.18332Q67.2625 330.19894 67.325 330.19894Q67.99687 330.19894 68.52812 329.8552Q69.075 329.49582 69.075 328.76144Q69.075 328.18332 68.68437 327.80832Q68.29375 327.4177 67.66875 327.4177Q67.05937 327.4177 66.6375 327.80832Q66.23125 328.19894 66.12187 328.96457L65.05937 328.77707Q65.24687 327.7302 65.93437 327.15207Q66.62187 326.55832 67.6375 326.55832Q68.34062 326.55832 68.93437 326.87082Q69.52812 327.1677 69.84062 327.68332Q70.15312 328.19894 70.15312 328.7927Q70.15312 329.33957 69.85625 329.80832Q69.55937 330.26144 68.98125 330.52707Q69.73125 330.69894 70.15312 331.26144Q70.575 331.80832 70.575 332.65207Q70.575 333.77707 69.74687 334.55832Q68.93437 335.33957 67.68437 335.33957Q66.55937 335.33957 65.80937 334.6677Q65.05937 333.9802 64.95 332.9177ZM72.54375 335.18332L72.54375 333.9802L73.74687 333.9802L73.74687 335.18332L72.54375 335.18332ZM74.95 330.94894Q74.95 329.4177 75.2625 328.49582Q75.575 327.55832 76.18437 327.05832Q76.80937 326.55832 77.74687 326.55832Q78.43437 326.55832 78.95 326.83957Q79.48125 327.12082 79.825 327.65207Q80.16875 328.1677 80.35625 328.9177Q80.54375 329.6677 80.54375 330.94894Q80.54375 332.46457 80.23125 333.38644Q79.93437 334.30832 79.30937 334.82394Q78.7 335.32394 77.74687 335.32394Q76.5125 335.32394 75.79375 334.43332Q74.95 333.37082 74.95 330.94894ZM76.02812 330.94894Q76.02812 333.05832 76.52812 333.76144Q77.02812 334.46457 77.74687 334.46457Q78.48125 334.46457 78.96562 333.76144Q79.46562 333.05832 79.46562 330.94894Q79.46562 328.82394 78.96562 328.13644Q78.48125 327.43332 77.73125 327.43332Q77.0125 327.43332 76.575 328.0427Q76.02812 328.82394 76.02812 330.94894Z" fill-rule="nonzero"/><path fill="#000000" d="M64.95 275.55106L66.0125 275.41043Q66.18437 276.30106 66.62187 276.7073Q67.05937 277.09793 67.68437 277.09793Q68.43437 277.09793 68.95 276.5823Q69.46562 276.06668 69.46562 275.30106Q69.46562 274.5823 68.98125 274.11356Q68.5125 273.62918 67.77812 273.62918Q67.48125 273.62918 67.02812 273.75418L67.15312 272.81668Q67.2625 272.8323 67.325 272.8323Q67.99687 272.8323 68.52812 272.48856Q69.075 272.12918 69.075 271.3948Q69.075 270.81668 68.68437 270.44168Q68.29375 270.05106 67.66875 270.05106Q67.05937 270.05106 66.6375 270.44168Q66.23125 270.8323 66.12187 271.59793L65.05937 271.41043Q65.24687 270.36356 65.93437 269.78543Q66.62187 269.19168 67.6375 269.19168Q68.34062 269.19168 68.93437 269.50418Q69.52812 269.80106 69.84062 270.31668Q70.15312 270.8323 70.15312 271.42606Q70.15312 271.97293 69.85625 272.44168Q69.55937 272.8948 68.98125 273.16043Q69.73125 273.3323 70.15312 273.8948Q70.575 274.44168 70.575 275.28543Q70.575 276.41043 69.74687 277.19168Q68.93437 277.97293 67.68437 277.97293Q66.55937 277.97293 65.80937 277.30106Q65.05937 276.61356 64.95 275.55106ZM72.54375 277.81668L72.54375 276.61356L73.74687 276.61356L73.74687 277.81668L72.54375 277.81668ZM74.95 275.56668L76.05937 275.47293Q76.18437 276.28543 76.62187 276.69168Q77.075 277.09793 77.71562 277.09793Q78.46562 277.09793 78.99687 276.5198Q79.52812 275.94168 79.52812 275.00418Q79.52812 274.09793 79.0125 273.5823Q78.5125 273.05106 77.68437 273.05106Q77.18437 273.05106 76.7625 273.28543Q76.35625 273.5198 76.12187 273.87918L75.1375 273.75418L75.96562 269.34793L80.24687 269.34793L80.24687 270.34793L76.80937 270.34793L76.35625 272.66043Q77.12187 272.11356 77.96562 272.11356Q79.09062 272.11356 79.85625 272.8948Q80.6375 273.67606 80.6375 274.91043Q80.6375 276.06668 79.96562 276.92606Q79.1375 277.9573 77.71562 277.9573Q76.54375 277.9573 75.79375 277.30106Q75.05937 276.6448 74.95 275.56668Z" fill-rule="nonzero"/><path fill="#000000" d="M68.325 220.45L68.325 218.3875L64.60625 218.3875L64.60625 217.41875L68.52812 211.85625L69.3875 211.85625L69.3875 217.41875L70.54375 217.41875L70.54375 218.3875L69.3875 218.3875L69.3875 220.45L68.325 220.45ZM68.325 217.41875L68.325 213.55937L65.6375 217.41875L68.325 217.41875ZM72.54375 220.45L72.54375 219.24687L73.74687 219.24687L73.74687 220.45L72.54375 220.45ZM74.95 216.21562Q74.95 214.68437 75.2625 213.7625Q75.575 212.825 76.18437 212.325Q76.80937 211.825 77.74687 211.825Q78.43437 211.825 78.95 212.10625Q79.48125 212.3875 79.825 212.91875Q80.16875 213.43437 80.35625 214.18437Q80.54375 214.93437 80.54375 216.21562Q80.54375 217.73125 80.23125 218.65312Q79.93437 219.575 79.30937 220.09062Q78.7 220.59062 77.74687 220.59062Q76.5125 220.59062 75.79375 219.7Q74.95 218.6375 74.95 216.21562ZM76.02812 216.21562Q76.02812 218.325 76.52812 219.02812Q77.02812 219.73125 77.74687 219.73125Q78.48125 219.73125 78.96562 219.02812Q79.46562 218.325 79.46562 216.21562Q79.46562 214.09062 78.96562 213.40312Q78.48125 212.7 77.73125 212.7Q77.0125 212.7 76.575 213.30937Q76.02812 214.09062 76.02812 216.21562Z" fill-rule="nonzero"/><path fill="#000000" d="M68.325 163.08333L68.325 161.02083L64.60625 161.02083L64.60625 160.05208L68.52812 154.48958L69.3875 154.48958L69.3875 160.05208L70.54375 160.05208L70.54375 161.02083L69.3875 161.02083L69.3875 163.08333L68.325 163.08333ZM68.325 160.05208L68.325 156.1927L65.6375 160.05208L68.325 160.05208ZM72.54375 163.08333L72.54375 161.8802L73.74687 161.8802L73.74687 163.08333L72.54375 163.08333ZM74.95 160.83333L76.05937 160.73958Q76.18437 161.55208 76.62187 161.95833Q77.075 162.36458 77.71562 162.36458Q78.46562 162.36458 78.99687 161.78645Q79.52812 161.20833 79.52812 160.27083Q79.52812 159.36458 79.0125 158.84895Q78.5125 158.3177 77.68437 158.3177Q77.18437 158.3177 76.7625 158.55208Q76.35625 158.78645 76.12187 159.14583L75.1375 159.02083L75.96562 154.61458L80.24687 154.61458L80.24687 155.61458L76.80937 155.61458L76.35625 157.92708Q77.12187 157.3802 77.96562 157.3802Q79.09062 157.3802 79.85625 158.16145Q80.6375 158.9427 80.6375 160.17708Q80.6375 161.33333 79.96562 162.1927Q79.1375 163.22395 77.71562 163.22395Q76.54375 163.22395 75.79375 162.5677Q75.05937 161.91145 74.95 160.83333Z" fill-rule="nonzero"/><path fill="#000000" d="M64.95 103.46667L66.05937 103.37292Q66.18437 104.18542 66.62187 104.59167Q67.075 104.99792 67.71562 104.99792Q68.46562 104.99792 68.99687 104.41979Q69.52812 103.84167 69.52812 102.90417Q69.52812 101.99792 69.0125 101.48229Q68.5125 100.95104 67.68437 100.95104Q67.18437 100.95104 66.7625 101.18542Q66.35625 101.41979 66.12187 101.77917L65.1375 101.65417L65.96562 97.24792L70.24687 97.24792L70.24687 98.24792L66.80937 98.24792L66.35625 100.56042Q67.12187 100.01354 67.96562 100.01354Q69.09062 100.01354 69.85625 100.79479Q70.6375 101.57604 70.6375 102.81042Q70.6375 103.96667 69.96562 104.82604Q69.1375 105.85729 67.71562 105.85729Q66.54375 105.85729 65.79375 105.20104Q65.05937 104.54479 64.95 103.46667ZM72.54375 105.71667L72.54375 104.51354L73.74687 104.51354L73.74687 105.71667L72.54375 105.71667ZM74.95 101.48229Q74.95 99.95104 75.2625 99.02917Q75.575 98.09167 76.18437 97.59167Q76.80937 97.09167 77.74687 97.09167Q78.43437 97.09167 78.95 97.37292Q79.48125 97.65417 79.825 98.18542Q80.16875 98.70104 80.35625 99.45104Q80.54375 100.20104 80.54375 101.48229Q80.54375 102.99792 80.23125 103.91979Q79.93437 104.84167 79.30937 105.35729Q78.7 105.85729 77.74687 105.85729Q76.5125 105.85729 75.79375 104.96667Q74.95 103.90417 74.95 101.48229ZM76.02812 101.48229Q76.02812 103.59167 76.52812 104.29479Q77.02812 104.99792 77.74687 104.99792Q78.48125 104.99792 78.96562 104.29479Q79.46562 103.59167 79.46562 101.48229Q79.46562 99.35729 78.96562 98.66979Q78.48125 97.96667 77.73125 97.96667Q77.0125 97.96667 76.575 98.57604Q76.02812 99.35729 76.02812 101.48229Z" fill-rule="nonzero"/><path fill="#000000" d="M94.67699 405.55L94.67699 403.4875L90.95824 403.4875L90.95824 402.51874L94.88011 396.95624L95.73949 396.95624L95.73949 402.51874L96.89574 402.51874L96.89574 403.4875L95.73949 403.4875L95.73949 405.55L94.67699 405.55ZM94.67699 402.51874L94.67699 398.65936L91.98949 402.51874L94.67699 402.51874Z" fill-rule="nonzero"/><path fill="#000000" d="M218.1812 403.3L219.29057 403.20624Q219.41557 404.01874 219.85307 404.425Q220.3062 404.83124 220.94682 404.83124Q221.69682 404.83124 222.22807 404.2531Q222.75932 403.675 222.75932 402.7375Q222.75932 401.83124 222.2437 401.3156Q221.7437 400.78436 220.91557 400.78436Q220.41557 400.78436 219.9937 401.01874Q219.58745 401.2531 219.35307 401.6125L218.3687 401.4875L219.19682 397.08124L223.47807 397.08124L223.47807 398.08124L220.04057 398.08124L219.58745 400.39374Q220.35307 399.84686 221.19682 399.84686Q222.32182 399.84686 223.08745 400.6281Q223.8687 401.40936 223.8687 402.64374Q223.8687 403.8 223.19682 404.65936Q222.3687 405.6906 220.94682 405.6906Q219.77495 405.6906 219.02495 405.03436Q218.29057 404.3781 218.1812 403.3Z" fill-rule="nonzero"/><path fill="#000000" d="M350.52914 399.0656L349.48227 399.14374Q349.34164 398.51874 349.09164 398.2375Q348.65414 397.78436 348.02914 397.78436Q347.52914 397.78436 347.13852 398.0656Q346.65414 398.4406 346.35727 399.14374Q346.07602 399.83124 346.0604 401.1125Q346.4354 400.53436 346.98227 400.2531Q347.54477 399.97186 348.15414 399.97186Q349.20102 399.97186 349.9354 400.7531Q350.6854 401.53436 350.6854 402.7531Q350.6854 403.5656 350.32602 404.26874Q349.98227 404.95624 349.3729 405.33124Q348.76352 405.6906 347.9979 405.6906Q346.66977 405.6906 345.84164 404.72186Q345.01352 403.7531 345.01352 401.53436Q345.01352 399.03436 345.9354 397.90936Q346.73227 396.925 348.09164 396.925Q349.10727 396.925 349.7479 397.5031Q350.40414 398.0656 350.52914 399.0656ZM346.23227 402.76874Q346.23227 403.3156 346.45102 403.8156Q346.6854 404.3 347.09164 404.5656Q347.51352 404.83124 347.98227 404.83124Q348.63852 404.83124 349.1229 404.3Q349.60727 403.7531 349.60727 402.83124Q349.60727 401.9406 349.1229 401.425Q348.65414 400.90936 347.9354 400.90936Q347.21664 400.90936 346.71664 401.425Q346.23227 401.9406 346.23227 402.76874Z" fill-rule="nonzero"/><path fill="#000000" d="M472.0021 398.08124L472.0021 397.0656L477.5646 397.0656L477.5646 397.89374Q476.7521 398.76874 475.9396 400.22186Q475.14273 401.65936 474.70523 403.1906Q474.3771 404.26874 474.29898 405.55L473.20523 405.55Q473.22086 404.53436 473.59586 403.09686Q473.98648 401.65936 474.6896 400.33124Q475.40836 399.0031 476.22086 398.08124L472.0021 398.08124Z" fill-rule="nonzero"/><path fill="#000000" d="M600.4438 400.89374Q599.78754 400.64374 599.4594 400.20624Q599.1469 399.7531 599.1469 399.14374Q599.1469 398.20624 599.8188 397.5656Q600.5063 396.925 601.61566 396.925Q602.74066 396.925 603.42816 397.58124Q604.11566 398.2375 604.11566 399.175Q604.11566 399.76874 603.80316 400.20624Q603.49066 400.64374 602.85004 400.89374Q603.6469 401.14374 604.05316 401.72186Q604.4594 402.3 604.4594 403.09686Q604.4594 404.1906 603.67816 404.9406Q602.91254 405.6906 601.6313 405.6906Q600.36566 405.6906 599.5844 404.9406Q598.80316 404.1906 598.80316 403.0656Q598.80316 402.22186 599.22504 401.65936Q599.66254 401.09686 600.4438 400.89374ZM600.22504 399.09686Q600.22504 399.70624 600.61566 400.09686Q601.0219 400.4875 601.6469 400.4875Q602.2563 400.4875 602.6469 400.1125Q603.03754 399.72186 603.03754 399.15936Q603.03754 398.58124 602.6313 398.1906Q602.22504 397.78436 601.6313 397.78436Q601.0219 397.78436 600.61566 398.175Q600.22504 398.5656 600.22504 399.09686ZM599.8969 403.0656Q599.8969 403.51874 600.10004 403.9406Q600.3188 404.3625 600.74066 404.59686Q601.16254 404.83124 601.6469 404.83124Q602.3969 404.83124 602.8813 404.34686Q603.3813 403.8625 603.3813 403.1125Q603.3813 402.34686 602.8813 401.84686Q602.3813 401.34686 601.61566 401.34686Q600.86566 401.34686 600.3813 401.84686Q599.8969 402.33124 599.8969 403.0656Z" fill-rule="nonzero"/><path fill="#000000" d="M725.85425 403.5656L726.8699 403.47186Q726.9949 404.1906 727.35425 404.51874Q727.72925 404.83124 728.29175 404.83124Q728.7761 404.83124 729.1355 404.6125Q729.5105 404.3781 729.7449 404.01874Q729.97925 403.64374 730.1355 403.01874Q730.29175 402.3781 730.29175 401.72186Q730.29175 401.64374 730.29175 401.5031Q729.97925 402.0031 729.4324 402.33124Q728.8855 402.64374 728.2449 402.64374Q727.16675 402.64374 726.4324 401.8781Q725.698 401.09686 725.698 399.83124Q725.698 398.51874 726.4636 397.72186Q727.2449 396.925 728.4011 396.925Q729.22925 396.925 729.91675 397.3781Q730.6199 397.83124 730.97925 398.675Q731.3386 399.5031 731.3386 401.08124Q731.3386 402.72186 730.97925 403.70624Q730.6355 404.675 729.91675 405.1906Q729.2136 405.6906 728.2761 405.6906Q727.2605 405.6906 726.6199 405.14374Q725.97925 404.58124 725.85425 403.5656ZM730.16675 399.76874Q730.16675 398.8625 729.6824 398.33124Q729.2136 397.8 728.5261 397.8Q727.823 397.8 727.29175 398.3781Q726.7761 398.9406 726.7761 399.8625Q726.7761 400.675 727.2761 401.1906Q727.7761 401.70624 728.4949 401.70624Q729.22925 401.70624 729.698 401.1906Q730.16675 400.675 730.16675 399.76874Z" fill-rule="nonzero"/><path fill="#ff0000" d="M277.5 71.083336C277.5 74.39704 274.81372 77.083336 271.5 77.083336C268.18628 77.083336 265.5 74.39704 265.5 71.083336C265.5 67.76962 268.18628 65.083336 271.5 65.083336C274.81372 65.083336 277.5 67.76962 277.5 71.083336Z" fill-rule="nonzero"/><path fill="#1a1a1a" d="M286.57812 76.083336L286.57812 66.06771L290.35938 66.06771Q291.35938 66.06771 291.89062 66.16146Q292.625 66.28646 293.125 66.63021Q293.625 66.97396 293.92188 67.59896Q294.23438 68.208336 294.23438 68.958336Q294.23438 70.239586 293.42188 71.13021Q292.60938 72.00521 290.48438 72.00521L287.90625 72.00521L287.90625 76.083336L286.57812 76.083336ZM287.90625 70.833336L290.5 70.833336Q291.78125 70.833336 292.3125 70.34896Q292.85938 69.864586 292.85938 69.00521Q292.85938 68.364586 292.54688 67.927086Q292.23438 67.47396 291.70312 67.333336Q291.375 67.239586 290.46875 67.239586L287.90625 67.239586L287.90625 70.833336ZM294.96875 72.458336Q294.96875 70.44271 296.09375 69.458336Q297.01562 68.66146 298.375 68.66146Q299.85938 68.66146 300.8125 69.645836Q301.76562 70.614586 301.76562 72.34896Q301.76562 73.75521 301.34375 74.56771Q300.92188 75.364586 300.10938 75.81771Q299.3125 76.25521 298.375 76.25521Q296.84375 76.25521 295.90625 75.270836Q294.96875 74.28646 294.96875 72.458336ZM296.23438 72.458336Q296.23438 73.84896 296.84375 74.552086Q297.45312 75.239586 298.375 75.239586Q299.28125 75.239586 299.89062 74.53646Q300.5 73.833336 300.5 72.41146Q300.5 71.06771 299.89062 70.38021Q299.28125 69.677086 298.375 69.677086Q297.45312 69.677086 296.84375 70.364586Q296.23438 71.052086 296.23438 72.458336ZM304.76562 76.083336L302.54688 68.81771L303.8125 68.81771L304.96875 73.020836L305.40625 74.56771Q305.42188 74.458336 305.78125 73.06771L306.9375 68.81771L308.1875 68.81771L309.28125 73.03646L309.64062 74.427086L310.0625 73.020836L311.3125 68.81771L312.5 68.81771L310.23438 76.083336L308.95312 76.083336L307.79688 71.739586L307.51562 70.50521L306.04688 76.083336L304.76562 76.083336ZM317.39062 73.739586L318.67188 73.895836Q318.35938 75.020836 317.54688 75.645836Q316.73438 76.25521 315.46875 76.25521Q313.875 76.25521 312.9375 75.270836Q312.01562 74.28646 312.01562 72.520836Q312.01562 70.677086 312.95312 69.677086Q313.90625 68.66146 315.40625 68.66146Q316.85938 68.66146 317.78125 69.66146Q318.70312 70.645836 318.70312 72.44271Q318.70312 72.552086 318.70312 72.770836L313.28125 72.770836Q313.35938 73.958336 313.95312 74.59896Q314.5625 75.239586 315.48438 75.239586Q316.15625 75.239586 316.625 74.88021Q317.10938 74.520836 317.39062 73.739586ZM313.35938 71.75521L317.40625 71.75521Q317.32812 70.833336 316.9375 70.38021Q316.35938 69.677086 315.42188 69.677086Q314.5625 69.677086 313.98438 70.239586Q313.42188 70.802086 313.35938 71.75521ZM320.40625 76.083336L320.40625 68.81771L321.51562 68.81771L321.51562 69.927086Q321.9375 69.145836 322.29688 68.91146Q322.65625 68.66146 323.09375 68.66146Q323.71875 68.66146 324.35938 69.052086L323.9375 70.19271Q323.48438 69.927086 323.03125 69.927086Q322.625 69.927086 322.29688 70.177086Q321.98438 70.41146 321.84375 70.84896Q321.64062 71.50521 321.64062 72.28646L321.64062 76.083336L320.40625 76.083336ZM324.9375 73.91146L326.14062 73.72396Q326.25 74.458336 326.71875 74.84896Q327.1875 75.239586 328.03125 75.239586Q328.875 75.239586 329.28125 74.895836Q329.70312 74.552086 329.70312 74.083336Q329.70312 73.66146 329.32812 73.427086Q329.07812 73.25521 328.07812 73.00521Q326.71875 72.66146 326.1875 72.41146Q325.67188 72.16146 325.40625 71.72396Q325.14062 71.28646 325.14062 70.75521Q325.14062 70.270836 325.35938 69.864586Q325.57812 69.44271 325.96875 69.16146Q326.25 68.958336 326.73438 68.81771Q327.23438 68.66146 327.8125 68.66146Q328.65625 68.66146 329.29688 68.91146Q329.95312 69.145836 330.26562 69.56771Q330.57812 69.989586 330.6875 70.69271L329.48438 70.864586Q329.40625 70.302086 329.0 69.989586Q328.60938 69.677086 327.89062 69.677086Q327.04688 69.677086 326.6875 69.958336Q326.32812 70.22396 326.32812 70.614586Q326.32812 70.84896 326.46875 71.03646Q326.625 71.239586 326.95312 71.364586Q327.125 71.427086 328.03125 71.677086Q329.34375 72.03646 329.85938 72.25521Q330.375 72.47396 330.65625 72.895836Q330.95312 73.31771 330.95312 73.94271Q330.95312 74.56771 330.59375 75.114586Q330.25 75.645836 329.5625 75.958336Q328.89062 76.25521 328.03125 76.25521Q326.625 76.25521 325.875 75.66146Q325.14062 75.06771 324.9375 73.91146ZM335.96875 72.458336Q335.96875 70.44271 337.09375 69.458336Q338.01562 68.66146 339.375 68.66146Q340.85938 68.66146 341.8125 69.645836Q342.76562 70.614586 342.76562 72.34896Q342.76562 73.75521 342.34375 74.56771Q341.92188 75.364586 341.10938 75.81771Q340.3125 76.25521 339.375 76.25521Q337.84375 76.25521 336.90625 75.270836Q335.96875 74.28646 335.96875 72.458336ZM337.23438 72.458336Q337.23438 73.84896 337.84375 74.552086Q338.45312 75.239586 339.375 75.239586Q340.28125 75.239586 340.89062 74.53646Q341.5 73.833336 341.5 72.41146Q341.5 71.06771 340.89062 70.38021Q340.28125 69.677086 339.375 69.677086Q338.45312 69.677086 337.84375 70.364586Q337.23438 71.052086 337.23438 72.458336ZM344.71875 76.083336L344.71875 69.78646L343.625 69.78646L343.625 68.81771L344.71875 68.81771L344.71875 68.052086Q344.71875 67.31771 344.84375 66.958336Q345.03125 66.489586 345.46875 66.19271Q345.92188 65.895836 346.73438 65.895836Q347.25 65.895836 347.875 66.020836L347.6875 67.083336Q347.3125 67.020836 346.96875 67.020836Q346.40625 67.020836 346.17188 67.25521Q345.9375 67.489586 345.9375 68.145836L345.9375 68.81771L347.35938 68.81771L347.35938 69.78646L345.9375 69.78646L345.9375 76.083336L344.71875 76.083336ZM358.54688 74.895836L358.54688 76.083336L351.92188 76.083336Q351.90625 75.645836 352.0625 75.22396Q352.32812 74.552086 352.875 73.895836Q353.4375 73.239586 354.48438 72.38021Q356.125 71.03646 356.6875 70.25521Q357.26562 69.47396 357.26562 68.770836Q357.26562 68.03646 356.73438 67.53646Q356.21875 67.03646 355.39062 67.03646Q354.5 67.03646 353.95312 67.56771Q353.42188 68.09896 353.42188 69.052086L352.15625 68.91146Q352.28125 67.50521 353.125 66.770836Q353.98438 66.020836 355.40625 66.020836Q356.85938 66.020836 357.6875 66.81771Q358.53125 67.614586 358.53125 68.802086Q358.53125 69.41146 358.28125 69.989586Q358.04688 70.56771 357.46875 71.208336Q356.90625 71.84896 355.57812 72.97396Q354.46875 73.895836 354.15625 74.239586Q353.84375 74.56771 353.64062 74.895836L358.54688 74.895836Z" fill-rule="nonzero"/><path fill="#4285f4" d="M387.5 71.083336C387.5 74.39704 384.81372 77.083336 381.5 77.083336C378.18628 77.083336 375.5 74.39704 375.5 71.083336C375.5 67.76962 378.18628 65.083336 381.5 65.083336C384.81372 65.083336 387.5 67.76962 387.5 71.083336Z" fill-rule="nonzero"/><path fill="#1a1a1a" d="M396.5625 76.083336L396.5625 66.06771L397.92188 66.06771L403.1875 73.927086L403.1875 66.06771L404.46875 66.06771L404.46875 76.083336L403.10938 76.083336L397.84375 68.208336L397.84375 76.083336L396.5625 76.083336ZM404.96875 72.458336Q404.96875 70.44271 406.09375 69.458336Q407.01562 68.66146 408.375 68.66146Q409.85938 68.66146 410.8125 69.645836Q411.76562 70.614586 411.76562 72.34896Q411.76562 73.75521 411.34375 74.56771Q410.92188 75.364586 410.10938 75.81771Q409.3125 76.25521 408.375 76.25521Q406.84375 76.25521 405.90625 75.270836Q404.96875 74.28646 404.96875 72.458336ZM406.23438 72.458336Q406.23438 73.84896 406.84375 74.552086Q407.45312 75.239586 408.375 75.239586Q409.28125 75.239586 409.89062 74.53646Q410.5 73.833336 410.5 72.41146Q410.5 71.06771 409.89062 70.38021Q409.28125 69.677086 408.375 69.677086Q407.45312 69.677086 406.84375 70.364586Q406.23438 71.052086 406.23438 72.458336ZM416.10938 74.989586L416.28125 76.06771Q415.76562 76.177086 415.35938 76.177086Q414.6875 76.177086 414.3125 75.97396Q413.95312 75.75521 413.79688 75.41146Q413.65625 75.06771 413.65625 73.958336L413.65625 69.78646L412.75 69.78646L412.75 68.81771L413.65625 68.81771L413.65625 67.020836L414.875 66.28646L414.875 68.81771L416.10938 68.81771L416.10938 69.78646L414.875 69.78646L414.875 74.020836Q414.875 74.552086 414.9375 74.708336Q415.0 74.84896 415.14062 74.94271Q415.29688 75.03646 415.5625 75.03646Q415.78125 75.03646 416.10938 74.989586ZM421.42188 78.864586L421.42188 68.81771L422.54688 68.81771L422.54688 69.770836Q422.9375 69.208336 423.4375 68.94271Q423.9375 68.66146 424.65625 68.66146Q425.57812 68.66146 426.28125 69.145836Q427.0 69.614586 427.35938 70.489586Q427.71875 71.364586 427.71875 72.395836Q427.71875 73.50521 427.3125 74.41146Q426.92188 75.302086 426.15625 75.78646Q425.40625 76.25521 424.5625 76.25521Q423.95312 76.25521 423.45312 75.989586Q422.96875 75.72396 422.65625 75.333336L422.65625 78.864586L421.42188 78.864586ZM422.53125 72.489586Q422.53125 73.895836 423.09375 74.56771Q423.67188 75.239586 424.48438 75.239586Q425.29688 75.239586 425.875 74.552086Q426.46875 73.84896 426.46875 72.395836Q426.46875 71.00521 425.89062 70.31771Q425.32812 69.63021 424.53125 69.63021Q423.75 69.63021 423.14062 70.364586Q422.53125 71.09896 422.53125 72.489586ZM428.96875 72.458336Q428.96875 70.44271 430.09375 69.458336Q431.01562 68.66146 432.375 68.66146Q433.85938 68.66146 434.8125 69.645836Q435.76562 70.614586 435.76562 72.34896Q435.76562 73.75521 435.34375 74.56771Q434.92188 75.364586 434.10938 75.81771Q433.3125 76.25521 432.375 76.25521Q430.84375 76.25521 429.90625 75.270836Q428.96875 74.28646 428.96875 72.458336ZM430.23438 72.458336Q430.23438 73.84896 430.84375 74.552086Q431.45312 75.239586 432.375 75.239586Q433.28125 75.239586 433.89062 74.53646Q434.5 73.833336 434.5 72.41146Q434.5 71.06771 433.89062 70.38021Q433.28125 69.677086 432.375 69.677086Q431.45312 69.677086 430.84375 70.364586Q430.23438 71.052086 430.23438 72.458336ZM438.76562 76.083336L436.54688 68.81771L437.8125 68.81771L438.96875 73.020836L439.40625 74.56771Q439.42188 74.458336 439.78125 73.06771L440.9375 68.81771L442.1875 68.81771L443.28125 73.03646L443.64062 74.427086L444.0625 73.020836L445.3125 68.81771L446.5 68.81771L444.23438 76.083336L442.95312 76.083336L441.79688 71.739586L441.51562 70.50521L440.04688 76.083336L438.76562 76.083336ZM451.39062 73.739586L452.67188 73.895836Q452.35938 75.020836 451.54688 75.645836Q450.73438 76.25521 449.46875 76.25521Q447.875 76.25521 446.9375 75.270836Q446.01562 74.28646 446.01562 72.520836Q446.01562 70.677086 446.95312 69.677086Q447.90625 68.66146 449.40625 68.66146Q450.85938 68.66146 451.78125 69.66146Q452.70312 70.645836 452.70312 72.44271Q452.70312 72.552086 452.70312 72.770836L447.28125 72.770836Q447.35938 73.958336 447.95312 74.59896Q448.5625 75.239586 449.48438 75.239586Q450.15625 75.239586 450.625 74.88021Q451.10938 74.520836 451.39062 73.739586ZM447.35938 71.75521L451.40625 71.75521Q451.32812 70.833336 450.9375 70.38021Q450.35938 69.677086 449.42188 69.677086Q448.5625 69.677086 447.98438 70.239586Q447.42188 70.802086 447.35938 71.75521ZM454.40625 76.083336L454.40625 68.81771L455.51562 68.81771L455.51562 69.927086Q455.9375 69.145836 456.29688 68.91146Q456.65625 68.66146 457.09375 68.66146Q457.71875 68.66146 458.35938 69.052086L457.9375 70.19271Q457.48438 69.927086 457.03125 69.927086Q456.625 69.927086 456.29688 70.177086Q455.98438 70.41146 455.84375 70.84896Q455.64062 71.50521 455.64062 72.28646L455.64062 76.083336L454.40625 76.083336ZM458.9375 73.91146L460.14062 73.72396Q460.25 74.458336 460.71875 74.84896Q461.1875 75.239586 462.03125 75.239586Q462.875 75.239586 463.28125 74.895836Q463.70312 74.552086 463.70312 74.083336Q463.70312 73.66146 463.32812 73.427086Q463.07812 73.25521 462.07812 73.00521Q460.71875 72.66146 460.1875 72.41146Q459.67188 72.16146 459.40625 71.72396Q459.14062 71.28646 459.14062 70.75521Q459.14062 70.270836 459.35938 69.864586Q459.57812 69.44271 459.96875 69.16146Q460.25 68.958336 460.73438 68.81771Q461.23438 68.66146 461.8125 68.66146Q462.65625 68.66146 463.29688 68.91146Q463.95312 69.145836 464.26562 69.56771Q464.57812 69.989586 464.6875 70.69271L463.48438 70.864586Q463.40625 70.302086 463.0 69.989586Q462.60938 69.677086 461.89062 69.677086Q461.04688 69.677086 460.6875 69.958336Q460.32812 70.22396 460.32812 70.614586Q460.32812 70.84896 460.46875 71.03646Q460.625 71.239586 460.95312 71.364586Q461.125 71.427086 462.03125 71.677086Q463.34375 72.03646 463.85938 72.25521Q464.375 72.47396 464.65625 72.895836Q464.95312 73.31771 464.95312 73.94271Q464.95312 74.56771 464.59375 75.114586Q464.25 75.645836 463.5625 75.958336Q462.89062 76.25521 462.03125 76.25521Q460.625 76.25521 459.875 75.66146Q459.14062 75.06771 458.9375 73.91146ZM469.96875 72.458336Q469.96875 70.44271 471.09375 69.458336Q472.01562 68.66146 473.375 68.66146Q474.85938 68.66146 475.8125 69.645836Q476.76562 70.614586 476.76562 72.34896Q476.76562 73.75521 476.34375 74.56771Q475.92188 75.364586 475.10938 75.81771Q474.3125 76.25521 473.375 76.25521Q471.84375 76.25521 470.90625 75.270836Q469.96875 74.28646 469.96875 72.458336ZM471.23438 72.458336Q471.23438 73.84896 471.84375 74.552086Q472.45312 75.239586 473.375 75.239586Q474.28125 75.239586 474.89062 74.53646Q475.5 73.833336 475.5 72.41146Q475.5 71.06771 474.89062 70.38021Q474.28125 69.677086 473.375 69.677086Q472.45312 69.677086 471.84375 70.364586Q471.23438 71.052086 471.23438 72.458336ZM478.71875 76.083336L478.71875 69.78646L477.625 69.78646L477.625 68.81771L478.71875 68.81771L478.71875 68.052086Q478.71875 67.31771 478.84375 66.958336Q479.03125 66.489586 479.46875 66.19271Q479.92188 65.895836 480.73438 65.895836Q481.25 65.895836 481.875 66.020836L481.6875 67.083336Q481.3125 67.020836 480.96875 67.020836Q480.40625 67.020836 480.17188 67.25521Q479.9375 67.489586 479.9375 68.145836L479.9375 68.81771L481.35938 68.81771L481.35938 69.78646L479.9375 69.78646L479.9375 76.083336L478.71875 76.083336ZM492.54688 74.895836L492.54688 76.083336L485.92188 76.083336Q485.90625 75.645836 486.0625 75.22396Q486.32812 74.552086 486.875 73.895836Q487.4375 73.239586 488.48438 72.38021Q490.125 71.03646 490.6875 70.25521Q491.26562 69.47396 491.26562 68.770836Q491.26562 68.03646 490.73438 67.53646Q490.21875 67.03646 489.39062 67.03646Q488.5 67.03646 487.95312 67.56771Q487.42188 68.09896 487.42188 69.052086L486.15625 68.91146Q486.28125 67.50521 487.125 66.770836Q487.98438 66.020836 489.40625 66.020836Q490.85938 66.020836 491.6875 66.81771Q492.53125 67.614586 492.53125 68.802086Q492.53125 69.41146 492.28125 69.989586Q492.04688 70.56771 491.46875 71.208336Q490.90625 71.84896 489.57812 72.97396Q488.46875 73.895836 488.15625 74.239586Q487.84375 74.56771 487.64062 74.895836L492.54688 74.895836Z" fill-rule="nonzero"/><path fill="#757575" d="M24.121876 37.2625Q24.121876 34.3875 25.715626 32.996876Q27.059376 31.840626 28.98125 31.840626Q31.121876 31.840626 32.465626 33.246876Q33.825 34.653126 33.825 37.121876Q33.825 39.121876 33.23125 40.278126Q32.6375 41.41875 31.48125 42.059376Q30.340626 42.684376 28.98125 42.684376Q26.79375 42.684376 25.45 41.29375Q24.121876 39.8875 24.121876 37.2625ZM25.91875 37.2625Q25.91875 39.2625 26.778126 40.246876Q27.653126 41.23125 28.98125 41.23125Q30.29375 41.23125 31.153126 40.246876Q32.028126 39.246876 32.028126 37.2Q32.028126 35.278126 31.153126 34.29375Q30.278126 33.29375 28.98125 33.29375Q27.653126 33.29375 26.778126 34.29375Q25.91875 35.278126 25.91875 37.2625ZM35.7625 46.41875L35.7625 32.075L37.371876 32.075L37.371876 33.41875Q37.934376 32.6375 38.6375 32.246876Q39.35625 31.840626 40.371876 31.840626Q41.7 31.840626 42.715626 32.528126Q43.73125 33.215626 44.246876 34.465626Q44.778126 35.7 44.778126 37.184376Q44.778126 38.778126 44.2 40.059376Q43.6375 41.325 42.54375 42.0125Q41.45 42.684376 40.246876 42.684376Q39.371876 42.684376 38.66875 42.309376Q37.98125 41.934376 37.528126 41.371876L37.528126 46.41875L35.7625 46.41875ZM37.35625 37.325Q37.35625 39.325 38.16875 40.278126Q38.98125 41.23125 40.1375 41.23125Q41.309376 41.23125 42.1375 40.246876Q42.98125 39.2625 42.98125 37.16875Q42.98125 35.2 42.153126 34.215626Q41.340626 33.215626 40.215626 33.215626Q39.090626 33.215626 38.215626 34.278126Q37.35625 35.325 37.35625 37.325ZM50.60625 40.871876L50.85625 42.434376Q50.121876 42.590626 49.528126 42.590626Q48.575 42.590626 48.04375 42.29375Q47.528126 41.98125 47.309376 41.496876Q47.090626 40.996876 47.090626 39.41875L47.090626 33.45L45.809376 33.45L45.809376 32.075L47.090626 32.075L47.090626 29.5125L48.840626 28.45L48.840626 32.075L50.60625 32.075L50.60625 33.45L48.840626 33.45L48.840626 39.5125Q48.840626 40.2625 48.934376 40.48125Q49.028126 40.684376 49.23125 40.825Q49.45 40.95 49.840626 40.95Q50.121876 40.95 50.60625 40.871876ZM52.778126 30.153126L52.778126 28.1375L54.54375 28.1375L54.54375 30.153126L52.778126 30.153126ZM52.778126 42.45L52.778126 32.075L54.54375 32.075L54.54375 42.45L52.778126 42.45ZM56.121876 37.2625Q56.121876 34.3875 57.715626 32.996876Q59.059376 31.840626 60.98125 31.840626Q63.121876 31.840626 64.46562 33.246876Q65.825 34.653126 65.825 37.121876Q65.825 39.121876 65.23125 40.278126Q64.6375 41.41875 63.48125 42.059376Q62.340626 42.684376 60.98125 42.684376Q58.79375 42.684376 57.45 41.29375Q56.121876 39.8875 56.121876 37.2625ZM57.91875 37.2625Q57.91875 39.2625 58.778126 40.246876Q59.653126 41.23125 60.98125 41.23125Q62.29375 41.23125 63.153126 40.246876Q64.02812 39.246876 64.02812 37.2Q64.02812 35.278126 63.153126 34.29375Q62.278126 33.29375 60.98125 33.29375Q59.653126 33.29375 58.778126 34.29375Q57.91875 35.278126 57.91875 37.2625ZM67.7625 42.45L67.7625 32.075L69.35625 32.075L69.35625 33.559376Q70.49687 31.840626 72.65312 31.840626Q73.59062 31.840626 74.37187 32.184376Q75.16875 32.5125 75.55937 33.059376Q75.95 33.60625 76.10625 34.35625Q76.2 34.85625 76.2 36.075L76.2 42.45L74.43437 42.45L74.43437 36.1375Q74.43437 35.059376 74.23125 34.528126Q74.02812 33.996876 73.49687 33.684376Q72.98125 33.371876 72.27812 33.371876Q71.15312 33.371876 70.34062 34.090626Q69.52812 34.79375 69.52812 36.778126L69.52812 42.45L67.7625 42.45ZM77.05937 39.35625L78.80937 39.075Q78.95 40.121876 79.62187 40.684376Q80.29375 41.23125 81.49687 41.23125Q82.7 41.23125 83.27812 40.746876Q83.87187 40.246876 83.87187 39.590626Q83.87187 38.996876 83.35625 38.653126Q82.99687 38.41875 81.55937 38.059376Q79.62187 37.559376 78.87187 37.215626Q78.1375 36.85625 77.74687 36.23125Q77.35625 35.590626 77.35625 34.825Q77.35625 34.1375 77.66875 33.54375Q77.99687 32.95 78.54375 32.559376Q78.95 32.2625 79.65312 32.059376Q80.37187 31.840626 81.18437 31.840626Q82.40312 31.840626 83.325 32.2Q84.24687 32.54375 84.68437 33.153126Q85.12187 33.746876 85.29375 34.746876L83.575 34.98125Q83.45 34.184376 82.8875 33.746876Q82.325 33.29375 81.30937 33.29375Q80.09062 33.29375 79.575 33.7Q79.05937 34.090626 79.05937 34.621876Q79.05937 34.965626 79.27812 35.246876Q79.48125 35.528126 79.95 35.715626Q80.21562 35.809376 81.49687 36.153126Q83.37187 36.653126 84.10625 36.98125Q84.84062 37.29375 85.2625 37.903126Q85.68437 38.496876 85.68437 39.403126Q85.68437 40.278126 85.16875 41.059376Q84.65312 41.840626 83.68437 42.2625Q82.71562 42.684376 81.49687 42.684376Q79.48125 42.684376 78.41875 41.840626Q77.35625 40.996876 77.05937 39.35625ZM103.0125 34.028126L93.55937 34.028126L93.55937 32.3875L103.0125 32.3875L103.0125 34.028126ZM103.0125 38.371876L93.55937 38.371876L93.55937 36.73125L103.0125 36.73125L103.0125 38.371876ZM120.5125 40.7625L120.5125 42.45L111.05937 42.45Q111.04375 41.809376 111.2625 41.23125Q111.62187 40.2625 112.41875 39.325Q113.21562 38.3875 114.71562 37.153126Q117.05937 35.246876 117.87187 34.1375Q118.7 33.0125 118.7 32.0125Q118.7 30.965626 117.95 30.246876Q117.2 29.528126 115.99687 29.528126Q114.73125 29.528126 113.96562 30.29375Q113.2 31.059376 113.2 32.403126L111.3875 32.215626Q111.575 30.2 112.77812 29.1375Q113.99687 28.075 116.04375 28.075Q118.09062 28.075 119.29375 29.215626Q120.49687 30.35625 120.49687 32.04375Q120.49687 32.903126 120.1375 33.746876Q119.79375 34.575 118.98125 35.496876Q118.16875 36.403126 116.27812 38.0125Q114.68437 39.340626 114.23125 39.809376Q113.79375 40.278126 113.49687 40.7625L120.5125 40.7625ZM123.23125 42.45L123.23125 40.45L125.23125 40.45L125.23125 42.45Q125.23125 43.559376 124.84062 44.23125Q124.45 44.91875 123.60625 45.278126L123.10625 44.528126Q123.66875 44.29375 123.93437 43.809376Q124.2 43.340626 124.23125 42.45L123.23125 42.45ZM141.54375 41.16875Q140.55937 41.996876 139.65312 42.340626Q138.74687 42.684376 137.71562 42.684376Q136.0125 42.684376 135.09062 41.85625Q134.16875 41.0125 134.16875 39.715626Q134.16875 38.95 134.5125 38.325Q134.87187 37.7 135.43437 37.325Q135.99687 36.934376 136.7 36.73125Q137.21562 36.60625 138.2625 36.465626Q140.3875 36.215626 141.3875 35.871876Q141.40312 35.5125 141.40312 35.403126Q141.40312 34.340626 140.90312 33.8875Q140.23125 33.29375 138.90312 33.29375Q137.65312 33.29375 137.05937 33.73125Q136.48125 34.16875 136.2 35.278126L134.48125 35.04375Q134.71562 33.934376 135.24687 33.2625Q135.77812 32.575 136.79375 32.215626Q137.80937 31.840626 139.15312 31.840626Q140.48125 31.840626 141.30937 32.153126Q142.1375 32.465626 142.52812 32.95Q142.91875 33.41875 143.075 34.1375Q143.16875 34.590626 143.16875 35.7625L143.16875 38.10625Q143.16875 40.559376 143.27812 41.215626Q143.3875 41.85625 143.73125 42.45L141.8875 42.45Q141.62187 41.903126 141.54375 41.16875ZM141.3875 37.246876Q140.43437 37.6375 138.5125 37.903126Q137.43437 38.059376 136.98125 38.2625Q136.54375 38.45 136.29375 38.825Q136.04375 39.2 136.04375 39.66875Q136.04375 40.371876 136.575 40.840626Q137.10625 41.309376 138.1375 41.309376Q139.15312 41.309376 139.93437 40.871876Q140.73125 40.41875 141.10625 39.653126Q141.3875 39.04375 141.3875 37.8875L141.3875 37.246876ZM161.0125 34.028126L151.55937 34.028126L151.55937 32.3875L161.0125 32.3875L161.0125 34.028126ZM161.0125 38.371876L151.55937 38.371876L151.55937 36.73125L161.0125 36.73125L161.0125 38.371876ZM178.5125 40.7625L178.5125 42.45L169.05937 42.45Q169.04375 41.809376 169.2625 41.23125Q169.62187 40.2625 170.41875 39.325Q171.21562 38.3875 172.71562 37.153126Q175.05937 35.246876 175.87187 34.1375Q176.7 33.0125 176.7 32.0125Q176.7 30.965626 175.95 30.246876Q175.2 29.528126 173.99687 29.528126Q172.73125 29.528126 171.96562 30.29375Q171.2 31.059376 171.2 32.403126L169.3875 32.215626Q169.575 30.2 170.77812 29.1375Q171.99687 28.075 174.04375 28.075Q176.09062 28.075 177.29375 29.215626Q178.49687 30.35625 178.49687 32.04375Q178.49687 32.903126 178.1375 33.746876Q177.79375 34.575 176.98125 35.496876Q176.16875 36.403126 174.27812 38.0125Q172.68437 39.340626 172.23125 39.809376Q171.79375 40.278126 171.49687 40.7625L178.5125 40.7625Z" fill-rule="nonzero"/></svg>