<svg version="1.1" viewBox="0.0 0.0 759.0 469.0" fill="none" stroke="none" stroke-linecap="square" stroke-miterlimit="10" width="759" height="469" xmlns:xlink="http://www.w3.org/1999/xlink" xmlns="http://www.w3.org/2000/svg"><path fill="#ffffff" d="M0 0L759.0 0L759.0 469.0L0 469.0L0 0Z" fill-rule="nonzero"/><path stroke="#cccccc" stroke-width="1.0" stroke-linecap="butt" d="M87.5 70.5L87.5 388.5" fill-rule="nonzero"/><path stroke="#cccccc" stroke-width="1.0" stroke-linecap="butt" d="M272.5 70.5L272.5 388.5" fill-rule="nonzero"/><path stroke="#cccccc" stroke-width="1.0" stroke-linecap="butt" d="M457.5 70.5L457.5 388.5" fill-rule="nonzero"/><path stroke="#cccccc" stroke-width="1.0" stroke-linecap="butt" d="M642.5 70.5L642.5 388.5" fill-rule="nonzero"/><path stroke="#cccccc" stroke-width="1.0" stroke-linecap="butt" d="M87.5 388.5L735.5 388.5" fill-rule="nonzero"/><path stroke="#cccccc" stroke-width="1.0" stroke-linecap="butt" d="M87.5 282.5L735.5 282.5" fill-rule="nonzero"/><path stroke="#cccccc" stroke-width="1.0" stroke-linecap="butt" d="M87.5 176.5L735.5 176.5" fill-rule="nonzero"/><path stroke="#cccccc" stroke-width="1.0" stroke-linecap="butt" d="M87.5 70.5L735.5 70.5" fill-rule="nonzero"/><clipPath id="id_0"><path d="M87.45 70.083336L735.55 70.083336L735.55 388.55L87.45 388.55L87.45 70.083336Z" clip-rule="nonzero"/></clipPath><path stroke="#ff0000" stroke-width="2.0" stroke-linecap="butt" clip-path="url(#id_0)" d="M87.45 335.47223L180.03572 265.83417L272.62143 229.31667L365.20715 188.23447L457.79285 160.31555L550.3786 137.70442L642.9643 123.16111L735.55 99.91305" fill-rule="nonzero"/><path fill="#000000" fill-opacity="0.0" clip-path="url(#id_0)" d="M90.45 335.47223C90.45 337.1291 89.10686 338.47223 87.45 338.47223C85.793144 338.47223 84.45 337.1291 84.45 335.47223C84.45 333.81537 85.793144 332.47223 87.45 332.47223C89.10686 332.47223 90.45 333.81537 90.45 335.47223Z" fill-rule="nonzero"/><path fill="#000000" fill-opacity="0.0" clip-path="url(#id_0)" d="M183.03572 265.83417C183.03572 267.49103 181.69257 268.83417 180.03572 268.83417C178.37886 268.83417 177.03572 267.49103 177.03572 265.83417C177.03572 264.17734 178.37886 262.83417 180.03572 262.83417C181.69257 262.83417 183.03572 264.17734 183.03572 265.83417Z" fill-rule="nonzero"/><path fill="#000000" fill-opacity="0.0" clip-path="url(#id_0)" d="M275.62143 229.31667C275.62143 230.97353 274.2783 232.31667 272.62143 232.31667C270.96457 232.31667 269.62143 230.97353 269.62143 229.31667C269.62143 227.6598 270.96457 226.31667 272.62143 226.31667C274.2783 226.31667 275.62143 227.6598 275.62143 229.31667Z" fill-rule="nonzero"/><path fill="#000000" fill-opacity="0.0" clip-path="url(#id_0)" d="M368.20715 188.23447C368.20715 189.89133 366.86398 191.23447 365.20715 191.23447C363.5503 191.23447 362.20715 189.89133 362.20715 188.23447C362.20715 186.5776 363.5503 185.23447 365.20715 185.23447C366.86398 185.23447 368.20715 186.5776 368.20715 188.23447Z" fill-rule="nonzero"/><path fill="#000000" fill-opacity="0.0" clip-path="url(#id_0)" d="M460.79285 160.31555C460.79285 161.97241 459.4497 163.31555 457.79285 163.31555C456.13602 163.31555 454.79285 161.97241 454.79285 160.31555C454.79285 158.6587 456.13602 157.31555 457.79285 157.31555C459.4497 157.31555 460.79285 158.6587 460.79285 160.31555Z" fill-rule="nonzero"/><path fill="#000000" fill-opacity="0.0" clip-path="url(#id_0)" d="M553.3786 137.70442C553.3786 139.36128 552.0354 140.70442 550.3786 140.70442C548.72174 140.70442 547.3786 139.36128 547.3786 137.70442C547.3786 136.04756 548.72174 134.70442 550.3786 134.70442C552.0354 134.70442 553.3786 136.04756 553.3786 137.70442Z" fill-rule="nonzero"/><path fill="#000000" fill-opacity="0.0" clip-path="url(#id_0)" d="M645.9643 123.16111C645.9643 124.81796 644.62115 126.16111 642.9643 126.16111C641.30743 126.16111 639.9643 124.81796 639.9643 123.16111C639.9643 121.50426 641.30743 120.16111 642.9643 120.16111C644.62115 120.16111 645.9643 121.50426 645.9643 123.16111Z" fill-rule="nonzero"/><path fill="#000000" fill-opacity="0.0" clip-path="url(#id_0)" d="M738.55 99.91305C738.55 101.5699 737.20685 102.91305 735.55 102.91305C733.8931 102.91305 732.55 101.5699 732.55 99.91305C732.55 98.25619 733.8931 96.91305 735.55 96.91305C737.20685 96.91305 738.55 98.25619 738.55 99.91305Z" fill-rule="nonzero"/><path fill="#000000" d="M409.5625 442.55L408.42188 442.55L408.42188 432.53436L409.64062 432.53436L409.64062 436.09686Q410.42188 435.1281 411.64062 435.1281Q412.3125 435.1281 412.90625 435.39374Q413.5 435.65936 413.89062 436.15936Q414.28125 436.64374 414.5 437.33124Q414.71875 438.01874 414.71875 438.8156Q414.71875 440.675 413.78125 441.70624Q412.85938 442.72186 411.57812 442.72186Q410.29688 442.72186 409.5625 441.64374L409.5625 442.55ZM409.54688 438.8625Q409.54688 440.175 409.90625 440.7531Q410.48438 441.70624 411.46875 441.70624Q412.28125 441.70624 412.85938 441.0031Q413.45312 440.3 413.45312 438.90936Q413.45312 437.4875 412.89062 436.8156Q412.32812 436.14374 411.53125 436.14374Q410.71875 436.14374 410.125 436.84686Q409.54688 437.53436 409.54688 438.8625Z" fill-rule="nonzero"/><path fill="#000000" d="M36.44999 279.70728L26.434362 279.70728L26.434362 272.45728L27.606237 272.45728L27.606237 278.37915L30.684362 278.37915L30.684362 272.83228L31.856237 272.83228L31.856237 278.37915L35.26249 278.37915L35.26249 272.2229L36.44999 272.2229L36.44999 279.70728ZM36.44999 271.70728L32.66874 269.06665L29.184362 271.51978L29.184362 269.9729L30.887487 268.86353Q31.371862 268.55103 31.699987 268.36353Q31.246862 268.05103 30.903112 267.80103L29.184362 266.58228L29.184362 265.11353L32.60624 267.61353L36.44999 264.92603L36.44999 266.42603L34.19999 267.92603L33.590614 268.31665L36.44999 270.2229L36.44999 271.70728ZM35.35624 262.20728L36.434364 262.0354Q36.54374 262.55103 36.54374 262.95728Q36.54374 263.62915 36.340614 264.00415Q36.121864 264.36353 35.778114 264.51978Q35.434364 264.6604 34.32499 264.6604L30.153112 264.6604L30.153112 265.56665L29.184362 265.56665L29.184362 264.6604L27.387487 264.6604L26.653112 263.44165L29.184362 263.44165L29.184362 262.20728L30.153112 262.20728L30.153112 263.44165L34.38749 263.44165Q34.91874 263.44165 35.07499 263.37915Q35.215614 263.31665 35.309364 263.17603Q35.403114 263.01978 35.403114 262.75415Q35.403114 262.5354 35.35624 262.20728ZM36.44999 260.9104L29.184362 260.9104L29.184362 259.80103L30.293737 259.80103Q29.512487 259.37915 29.278112 259.01978Q29.028112 258.6604 29.028112 258.2229Q29.028112 257.5979 29.418737 256.95728L30.559362 257.37915Q30.293737 257.83228 30.293737 258.2854Q30.293737 258.69165 30.543737 259.01978Q30.778112 259.33228 31.215612 259.4729Q31.871862 259.67603 32.653114 259.67603L36.44999 259.67603L36.44999 260.9104ZM35.559364 251.16042Q36.13749 251.83229 36.38749 252.47292Q36.621864 253.09792 36.621864 253.83229Q36.621864 255.01979 36.04374 255.67604Q35.44999 256.31665 34.528114 256.31665Q33.996864 256.31665 33.559364 256.08228Q33.121864 255.83229 32.85624 255.44167Q32.590614 255.03542 32.44999 254.55104Q32.35624 254.19167 32.26249 253.45729Q32.090614 251.95729 31.840612 251.25417Q31.590612 251.25417 31.528112 251.25417Q30.762487 251.25417 30.465612 251.59792Q30.043737 252.06667 30.043737 253.00417Q30.043737 253.86354 30.356237 254.28542Q30.653112 254.69167 31.418737 254.89479L31.262487 256.0979Q30.481237 255.94167 30.012487 255.56667Q29.543737 255.17604 29.293737 254.47292Q29.028112 253.75417 29.028112 252.81667Q29.028112 251.89479 29.246862 251.31667Q29.465612 250.73854 29.793737 250.47292Q30.121862 250.19167 30.637487 250.08229Q30.949987 250.01979 31.762487 250.01979L33.403114 250.01979Q35.121864 250.01979 35.57499 249.94167Q36.028114 249.86354 36.44999 249.62917L36.44999 250.91042Q36.059364 251.09792 35.559364 251.16042ZM32.809364 251.25417Q33.07499 251.92604 33.278114 253.26979Q33.38749 254.01979 33.528114 254.34792Q33.653114 254.66042 33.91874 254.83229Q34.184364 255.00417 34.496864 255.00417Q34.996864 255.00417 35.32499 254.62917Q35.653114 254.25417 35.653114 253.53542Q35.653114 252.81667 35.340614 252.26979Q35.028114 251.72292 34.48124 251.45729Q34.07499 251.25417 33.26249 251.25417L32.809364 251.25417ZM35.559364 239.16042Q36.13749 239.83229 36.38749 240.47292Q36.621864 241.09792 36.621864 241.83229Q36.621864 243.01979 36.04374 243.67604Q35.44999 244.31667 34.528114 244.31667Q33.996864 244.31667 33.559364 244.08229Q33.121864 243.83229 32.85624 243.44167Q32.590614 243.03542 32.44999 242.55104Q32.35624 242.19167 32.26249 241.45729Q32.090614 239.95729 31.840612 239.25417Q31.590612 239.25417 31.528112 239.25417Q30.762487 239.25417 30.465612 239.59792Q30.043737 240.06667 30.043737 241.00417Q30.043737 241.86354 30.356237 242.28542Q30.653112 242.69167 31.418737 242.89479L31.262487 244.09792Q30.481237 243.94167 30.012487 243.56667Q29.543737 243.17604 29.293737 242.47292Q29.028112 241.75417 29.028112 240.81667Q29.028112 239.89479 29.246862 239.31667Q29.465612 238.73854 29.793737 238.47292Q30.121862 238.19167 30.637487 238.08229Q30.949987 238.01979 31.762487 238.01979L33.403114 238.01979Q35.121864 238.01979 35.57499 237.94167Q36.028114 237.86354 36.44999 237.62917L36.44999 238.91042Q36.059364 239.09792 35.559364 239.16042ZM32.809364 239.25417Q33.07499 239.92604 33.278114 241.26979Q33.38749 242.01979 33.528114 242.34792Q33.653114 242.66042 33.91874 242.83229Q34.184364 243.00417 34.496864 243.00417Q34.996864 243.00417 35.32499 242.62917Q35.653114 242.25417 35.653114 241.53542Q35.653114 240.81667 35.340614 240.26979Q35.028114 239.72292 34.48124 239.45729Q34.07499 239.25417 33.26249 239.25417L32.809364 239.25417ZM35.35624 233.20729L36.434364 233.03542Q36.54374 233.55104 36.54374 233.95729Q36.54374 234.62917 36.340614 235.00417Q36.121864 235.36354 35.778114 235.51979Q35.434364 235.66042 34.32499 235.66042L30.153112 235.66042L30.153112 236.56667L29.184362 236.56667L29.184362 235.66042L27.387487 235.66042L26.653112 234.44167L29.184362 234.44167L29.184362 233.20729L30.153112 233.20729L30.153112 234.44167L34.38749 234.44167Q34.91874 234.44167 35.07499 234.37917Q35.215614 234.31667 35.309364 234.17604Q35.403114 234.01979 35.403114 233.75417Q35.403114 233.53542 35.35624 233.20729ZM35.35624 229.20729L36.434364 229.03542Q36.54374 229.55104 36.54374 229.95729Q36.54374 230.62917 36.340614 231.00417Q36.121864 231.36354 35.778114 231.51979Q35.434364 231.66042 34.32499 231.66042L30.153112 231.66042L30.153112 232.56667L29.184362 232.56667L29.184362 231.66042L27.387487 231.66042L26.653112 230.44167L29.184362 230.44167L29.184362 229.20729L30.153112 229.20729L30.153112 230.44167L34.38749 230.44167Q34.91874 230.44167 35.07499 230.37917Q35.215614 230.31667 35.309364 230.17604Q35.403114 230.01979 35.403114 229.75417Q35.403114 229.53542 35.35624 229.20729ZM34.10624 222.92604L34.26249 221.64479Q35.38749 221.95729 36.01249 222.76979Q36.621864 223.58229 36.621864 224.84792Q36.621864 226.44167 35.63749 227.37917Q34.653114 228.30104 32.88749 228.30104Q31.043737 228.30104 30.043737 227.36354Q29.028112 226.41042 29.028112 224.91042Q29.028112 223.45729 30.028112 222.53542Q31.012487 221.61354 32.809364 221.61354Q32.91874 221.61354 33.13749 221.61354L33.13749 227.03542Q34.32499 226.95729 34.965614 226.36354Q35.60624 225.75417 35.60624 224.83229Q35.60624 224.16042 35.246864 223.69167Q34.88749 223.20729 34.10624 222.92604ZM32.121864 226.95729L32.121864 222.91042Q31.199987 222.98854 30.746862 223.37917Q30.043737 223.95729 30.043737 224.89479Q30.043737 225.75417 30.606237 226.33229Q31.168737 226.89479 32.121864 226.95729ZM36.44999 219.89479L29.184362 219.89479L29.184362 218.78542L30.215612 218.78542Q29.668737 218.45729 29.356237 217.89479Q29.028112 217.31667 29.028112 216.59792Q29.028112 215.78542 29.371862 215.26979Q29.699987 214.75417 30.293737 214.53542Q29.028112 213.67604 29.028112 212.30104Q29.028112 211.22292 29.621862 210.64479Q30.215612 210.05104 31.465612 210.05104L36.44999 210.05104L36.44999 211.28542L31.871862 211.28542Q31.137487 211.28542 30.809362 211.41042Q30.481237 211.51979 30.293737 211.83229Q30.090612 212.14479 30.090612 212.56667Q30.090612 213.33229 30.606237 213.84792Q31.106237 214.34792 32.23124 214.34792L36.44999 214.34792L36.44999 215.58229L31.731237 215.58229Q30.918737 215.58229 30.512487 215.87917Q30.090612 216.17604 30.090612 216.86354Q30.090612 217.37917 30.371862 217.83229Q30.637487 218.26979 31.168737 218.47292Q31.684362 218.66042 32.684364 218.66042L36.44999 218.66042L36.44999 219.89479ZM39.23124 208.89479L29.184362 208.89479L29.184362 207.76979L30.137487 207.76979Q29.574987 207.37917 29.309362 206.87917Q29.028112 206.37917 29.028112 205.66042Q29.028112 204.73854 29.512487 204.03542Q29.981237 203.31667 30.856237 202.95729Q31.731237 202.59792 32.76249 202.59792Q33.871864 202.59792 34.778114 203.00417Q35.66874 203.39479 36.153114 204.16042Q36.621864 204.91042 36.621864 205.75417Q36.621864 206.36354 36.35624 206.86354Q36.090614 207.34792 35.69999 207.66042L39.23124 207.66042L39.23124 208.89479ZM32.85624 207.78542Q34.26249 207.78542 34.934364 207.22292Q35.60624 206.64479 35.60624 205.83229Q35.60624 205.01979 34.91874 204.44167Q34.215614 203.84792 32.76249 203.84792Q31.371862 203.84792 30.684362 204.42604Q29.996862 204.98854 29.996862 205.78542Q29.996862 206.56667 30.731237 207.17604Q31.465612 207.78542 32.85624 207.78542ZM35.35624 198.20729L36.434364 198.03542Q36.54374 198.55104 36.54374 198.95729Q36.54374 199.62917 36.340614 200.00417Q36.121864 200.36354 35.778114 200.51979Q35.434364 200.66042 34.32499 200.66042L30.153112 200.66042L30.153112 201.56667L29.184362 201.56667L29.184362 200.66042L27.387487 200.66042L26.653112 199.44167L29.184362 199.44167L29.184362 198.20729L30.153112 198.20729L30.153112 199.44167L34.38749 199.44167Q34.91874 199.44167 35.07499 199.37917Q35.215614 199.31667 35.309364 199.17604Q35.403114 199.01979 35.403114 198.75417Q35.403114 198.53542 35.35624 198.20729ZM34.278114 197.37917L34.090614 196.17604Q34.82499 196.06667 35.215614 195.59792Q35.60624 195.12917 35.60624 194.28542Q35.60624 193.44167 35.26249 193.03542Q34.91874 192.61354 34.44999 192.61354Q34.028114 192.61354 33.79374 192.98854Q33.621864 193.23854 33.371864 194.23854Q33.028114 195.59792 32.778114 196.12917Q32.528114 196.64479 32.090614 196.91042Q31.653112 197.17604 31.121862 197.17604Q30.637487 197.17604 30.231237 196.95729Q29.809362 196.73854 29.528112 196.34792Q29.324987 196.06667 29.184362 195.58229Q29.028112 195.08229 29.028112 194.50417Q29.028112 193.66042 29.278112 193.01979Q29.512487 192.36354 29.934362 192.05104Q30.356237 191.73854 31.059362 191.62917L31.231237 192.83229Q30.668737 192.91042 30.356237 193.31667Q30.043737 193.70729 30.043737 194.42604Q30.043737 195.26979 30.324987 195.62917Q30.590612 195.98854 30.981237 195.98854Q31.215612 195.98854 31.403112 195.84792Q31.606237 195.69167 31.731237 195.36354Q31.793737 195.19167 32.04374 194.28542Q32.403114 192.97292 32.621864 192.45729Q32.840614 191.94167 33.26249 191.66042Q33.684364 191.36354 34.309364 191.36354Q34.934364 191.36354 35.48124 191.72292Q36.01249 192.06667 36.32499 192.75417Q36.621864 193.42604 36.621864 194.28542Q36.621864 195.69167 36.028114 196.44167Q35.434364 197.17604 34.278114 197.37917Z" fill-rule="nonzero"/><path fill="#000000" d="M64.95 388.3156Q64.95 386.78436 65.2625 385.8625Q65.575 384.925 66.18437 384.425Q66.80937 383.925 67.74687 383.925Q68.43437 383.925 68.95 384.20624Q69.48125 384.4875 69.825 385.01874Q70.16875 385.53436 70.35625 386.28436Q70.54375 387.03436 70.54375 388.3156Q70.54375 389.83124 70.23125 390.7531Q69.93437 391.675 69.30937 392.1906Q68.7 392.6906 67.74687 392.6906Q66.5125 392.6906 65.79375 391.8Q64.95 390.7375 64.95 388.3156ZM66.02812 388.3156Q66.02812 390.425 66.52812 391.1281Q67.02812 391.83124 67.74687 391.83124Q68.48125 391.83124 68.96562 391.1281Q69.46562 390.425 69.46562 388.3156Q69.46562 386.1906 68.96562 385.5031Q68.48125 384.8 67.73125 384.8Q67.0125 384.8 66.575 385.40936Q66.02812 386.1906 66.02812 388.3156ZM72.54375 392.55L72.54375 391.34686L73.74687 391.34686L73.74687 392.55L72.54375 392.55ZM74.95 390.3L76.05937 390.20624Q76.18437 391.01874 76.62187 391.425Q77.075 391.83124 77.71562 391.83124Q78.46562 391.83124 78.99687 391.2531Q79.52812 390.675 79.52812 389.7375Q79.52812 388.83124 79.0125 388.3156Q78.5125 387.78436 77.68437 387.78436Q77.18437 387.78436 76.7625 388.01874Q76.35625 388.2531 76.12187 388.6125L75.1375 388.4875L75.96562 384.08124L80.24687 384.08124L80.24687 385.08124L76.80937 385.08124L76.35625 387.39374Q77.12187 386.84686 77.96562 386.84686Q79.09062 386.84686 79.85625 387.6281Q80.6375 388.40936 80.6375 389.64374Q80.6375 390.8 79.96562 391.65936Q79.1375 392.6906 77.71562 392.6906Q76.54375 392.6906 75.79375 392.03436Q75.05937 391.3781 74.95 390.3Z" fill-rule="nonzero"/><path fill="#000000" d="M68.91875 286.39444L67.87187 286.39444L67.87187 279.6757Q67.48125 280.03506 66.85625 280.41006Q66.24687 280.76944 65.7625 280.9413L65.7625 279.9257Q66.6375 279.5038 67.29375 278.9257Q67.96562 278.33194 68.24687 277.76944L68.91875 277.76944L68.91875 286.39444ZM72.54375 286.39444L72.54375 285.1913L73.74687 285.1913L73.74687 286.39444L72.54375 286.39444ZM74.95 284.14444L76.05937 284.0507Q76.18437 284.8632 76.62187 285.26944Q77.075 285.6757 77.71562 285.6757Q78.46562 285.6757 78.99687 285.09756Q79.52812 284.51944 79.52812 283.58194Q79.52812 282.6757 79.0125 282.16006Q78.5125 281.6288 77.68437 281.6288Q77.18437 281.6288 76.7625 281.8632Q76.35625 282.09756 76.12187 282.45694L75.1375 282.33194L75.96562 277.9257L80.24687 277.9257L80.24687 278.9257L76.80937 278.9257L76.35625 281.2382Q77.12187 280.6913 77.96562 280.6913Q79.09062 280.6913 79.85625 281.47256Q80.6375 282.2538 80.6375 283.4882Q80.6375 284.64444 79.96562 285.5038Q79.1375 286.53506 77.71562 286.53506Q76.54375 286.53506 75.79375 285.8788Q75.05937 285.22256 74.95 284.14444Z" fill-rule="nonzero"/><path fill="#000000" d="M70.49687 179.22327L70.49687 180.23889L64.80937 180.23889Q64.80937 179.86389 64.93437 179.50452Q65.15312 178.92639 65.62187 178.36389Q66.10625 177.80139 67.0125 177.06702Q68.41875 175.91077 68.90312 175.23889Q69.40312 174.56702 69.40312 173.97327Q69.40312 173.34827 68.95 172.92639Q68.49687 172.48889 67.77812 172.48889Q67.0125 172.48889 66.55937 172.94202Q66.10625 173.39514 66.09062 174.20764L65.0125 174.09827Q65.12187 172.87952 65.84062 172.25452Q66.575 171.61389 67.80937 171.61389Q69.04375 171.61389 69.7625 172.30139Q70.48125 172.98889 70.48125 174.00452Q70.48125 174.52014 70.2625 175.02014Q70.05937 175.50452 69.55937 176.06702Q69.075 176.61389 67.95 177.56702Q66.99687 178.36389 66.71562 178.66077Q66.45 178.94202 66.27812 179.22327L70.49687 179.22327ZM72.54375 180.23889L72.54375 179.03577L73.74687 179.03577L73.74687 180.23889L72.54375 180.23889ZM74.95 177.98889L76.05937 177.89514Q76.18437 178.70764 76.62187 179.11389Q77.075 179.52014 77.71562 179.52014Q78.46562 179.52014 78.99687 178.94202Q79.52812 178.36389 79.52812 177.42639Q79.52812 176.52014 79.0125 176.00452Q78.5125 175.47327 77.68437 175.47327Q77.18437 175.47327 76.7625 175.70764Q76.35625 175.94202 76.12187 176.30139L75.1375 176.17639L75.96562 171.77014L80.24687 171.77014L80.24687 172.77014L76.80937 172.77014L76.35625 175.08264Q77.12187 174.53577 77.96562 174.53577Q79.09062 174.53577 79.85625 175.31702Q80.6375 176.09827 80.6375 177.33264Q80.6375 178.48889 79.96562 179.34827Q79.1375 180.37952 77.71562 180.37952Q76.54375 180.37952 75.79375 179.72327Q75.05937 179.06702 74.95 177.98889Z" fill-rule="nonzero"/><path fill="#000000" d="M64.95 71.81771L66.0125 71.677086Q66.18437 72.56771 66.62187 72.97396Q67.05937 73.364586 67.68437 73.364586Q68.43437 73.364586 68.95 72.84896Q69.46562 72.333336 69.46562 71.56771Q69.46562 70.84896 68.98125 70.38021Q68.5125 69.895836 67.77812 69.895836Q67.48125 69.895836 67.02812 70.020836L67.15312 69.083336Q67.2625 69.09896 67.325 69.09896Q67.99687 69.09896 68.52812 68.75521Q69.075 68.395836 69.075 67.66146Q69.075 67.083336 68.68437 66.708336Q68.29375 66.31771 67.66875 66.31771Q67.05937 66.31771 66.6375 66.708336Q66.23125 67.09896 66.12187 67.864586L65.05937 67.677086Q65.24687 66.63021 65.93437 66.052086Q66.62187 65.458336 67.6375 65.458336Q68.34062 65.458336 68.93437 65.770836Q69.52812 66.06771 69.84062 66.583336Q70.15312 67.09896 70.15312 67.69271Q70.15312 68.239586 69.85625 68.708336Q69.55937 69.16146 68.98125 69.427086Q69.73125 69.59896 70.15312 70.16146Q70.575 70.708336 70.575 71.552086Q70.575 72.677086 69.74687 73.458336Q68.93437 74.239586 67.68437 74.239586Q66.55937 74.239586 65.80937 73.56771Q65.05937 72.88021 64.95 71.81771ZM72.54375 74.083336L72.54375 72.88021L73.74687 72.88021L73.74687 74.083336L72.54375 74.083336ZM74.95 71.833336L76.05937 71.739586Q76.18437 72.552086 76.62187 72.958336Q77.075 73.364586 77.71562 73.364586Q78.46562 73.364586 78.99687 72.78646Q79.52812 72.208336 79.52812 71.270836Q79.52812 70.364586 79.0125 69.84896Q78.5125 69.31771 77.68437 69.31771Q77.18437 69.31771 76.7625 69.552086Q76.35625 69.78646 76.12187 70.145836L75.1375 70.020836L75.96562 65.614586L80.24687 65.614586L80.24687 66.614586L76.80937 66.614586L76.35625 68.927086Q77.12187 68.38021 77.96562 68.38021Q79.09062 68.38021 79.85625 69.16146Q80.6375 69.94271 80.6375 71.177086Q80.6375 72.333336 79.96562 73.19271Q79.1375 74.22396 77.71562 74.22396Q76.54375 74.22396 75.79375 73.56771Q75.05937 72.91146 74.95 71.833336Z" fill-rule="nonzero"/><path fill="#000000" d="M89.99687 404.53436L89.99687 405.55L84.30937 405.55Q84.30937 405.175 84.43437 404.8156Q84.65312 404.2375 85.12187 403.675Q85.60625 403.1125 86.5125 402.3781Q87.91875 401.22186 88.40312 400.55Q88.90312 399.8781 88.90312 399.28436Q88.90312 398.65936 88.45 398.2375Q87.99687 397.8 87.27812 397.8Q86.5125 397.8 86.05937 398.2531Q85.60625 398.70624 85.59062 399.51874L84.5125 399.40936Q84.62187 398.1906 85.34062 397.5656Q86.075 396.925 87.30937 396.925Q88.54375 396.925 89.2625 397.6125Q89.98125 398.3 89.98125 399.3156Q89.98125 399.83124 89.7625 400.33124Q89.55937 400.8156 89.05937 401.3781Q88.575 401.925 87.45 402.8781Q86.49687 403.675 86.21562 403.97186Q85.95 404.2531 85.77812 404.53436L89.99687 404.53436Z" fill-rule="nonzero"/><path fill="#000000" d="M272.99643 405.55L272.99643 403.4875L269.27768 403.4875L269.27768 402.51874L273.19955 396.95624L274.05893 396.95624L274.05893 402.51874L275.21518 402.51874L275.21518 403.4875L274.05893 403.4875L274.05893 405.55L272.99643 405.55ZM272.99643 402.51874L272.99643 398.65936L270.30893 402.51874L272.99643 402.51874Z" fill-rule="nonzero"/><path fill="#000000" d="M460.2616 399.0656L459.21472 399.14374Q459.0741 398.51874 458.8241 398.2375Q458.3866 397.78436 457.7616 397.78436Q457.2616 397.78436 456.87097 398.0656Q456.3866 398.4406 456.08972 399.14374Q455.80847 399.83124 455.79285 401.1125Q456.16785 400.53436 456.71472 400.2531Q457.27722 399.97186 457.8866 399.97186Q458.93347 399.97186 459.66785 400.7531Q460.41785 401.53436 460.41785 402.7531Q460.41785 403.5656 460.05847 404.26874Q459.71472 404.95624 459.10535 405.33124Q458.49597 405.6906 457.73035 405.6906Q456.40222 405.6906 455.5741 404.72186Q454.74597 403.7531 454.74597 401.53436Q454.74597 399.03436 455.66785 397.90936Q456.46472 396.925 457.8241 396.925Q458.83972 396.925 459.48035 397.5031Q460.1366 398.0656 460.2616 399.0656ZM455.96472 402.76874Q455.96472 403.3156 456.18347 403.8156Q456.41785 404.3 456.8241 404.5656Q457.24597 404.83124 457.71472 404.83124Q458.37097 404.83124 458.85535 404.3Q459.33972 403.7531 459.33972 402.83124Q459.33972 401.9406 458.85535 401.425Q458.3866 400.90936 457.66785 400.90936Q456.9491 400.90936 456.4491 401.425Q455.96472 401.9406 455.96472 402.76874Z" fill-rule="nonzero"/><path fill="#000000" d="M641.5893 400.89374Q640.93304 400.64374 640.6049 400.20624Q640.2924 399.7531 640.2924 399.14374Q640.2924 398.20624 640.9643 397.5656Q641.6518 396.925 642.76117 396.925Q643.88617 396.925 644.57367 397.58124Q645.26117 398.2375 645.26117 399.175Q645.26117 399.76874 644.94867 400.20624Q644.63617 400.64374 643.99554 400.89374Q644.7924 401.14374 645.19867 401.72186Q645.6049 402.3 645.6049 403.09686Q645.6049 404.1906 644.82367 404.9406Q644.05804 405.6906 642.7768 405.6906Q641.51117 405.6906 640.7299 404.9406Q639.94867 404.1906 639.94867 403.0656Q639.94867 402.22186 640.37054 401.65936Q640.80804 401.09686 641.5893 400.89374ZM641.37054 399.09686Q641.37054 399.70624 641.76117 400.09686Q642.1674 400.4875 642.7924 400.4875Q643.4018 400.4875 643.7924 400.1125Q644.18304 399.72186 644.18304 399.15936Q644.18304 398.58124 643.7768 398.1906Q643.37054 397.78436 642.7768 397.78436Q642.1674 397.78436 641.76117 398.175Q641.37054 398.5656 641.37054 399.09686ZM641.0424 403.0656Q641.0424 403.51874 641.24554 403.9406Q641.4643 404.3625 641.88617 404.59686Q642.30804 404.83124 642.7924 404.83124Q643.5424 404.83124 644.0268 404.34686Q644.5268 403.8625 644.5268 403.1125Q644.5268 402.34686 644.0268 401.84686Q643.5268 401.34686 642.76117 401.34686Q642.01117 401.34686 641.5268 401.84686Q641.0424 402.33124 641.0424 403.0656Z" fill-rule="nonzero"/><path fill="#757575" d="M24.121876 37.2625Q24.121876 34.3875 25.715626 32.996876Q27.059376 31.840626 28.98125 31.840626Q31.121876 31.840626 32.465626 33.246876Q33.825 34.653126 33.825 37.121876Q33.825 39.121876 33.23125 40.278126Q32.6375 41.41875 31.48125 42.059376Q30.340626 42.684376 28.98125 42.684376Q26.79375 42.684376 25.45 41.29375Q24.121876 39.8875 24.121876 37.2625ZM25.91875 37.2625Q25.91875 39.2625 26.778126 40.246876Q27.653126 41.23125 28.98125 41.23125Q30.29375 41.23125 31.153126 40.246876Q32.028126 39.246876 32.028126 37.2Q32.028126 35.278126 31.153126 34.29375Q30.278126 33.29375 28.98125 33.29375Q27.653126 33.29375 26.778126 34.29375Q25.91875 35.278126 25.91875 37.2625ZM35.7625 46.41875L35.7625 32.075L37.371876 32.075L37.371876 33.41875Q37.934376 32.6375 38.6375 32.246876Q39.35625 31.840626 40.371876 31.840626Q41.7 31.840626 42.715626 32.528126Q43.73125 33.215626 44.246876 34.465626Q44.778126 35.7 44.778126 37.184376Q44.778126 38.778126 44.2 40.059376Q43.6375 41.325 42.54375 42.0125Q41.45 42.684376 40.246876 42.684376Q39.371876 42.684376 38.66875 42.309376Q37.98125 41.934376 37.528126 41.371876L37.528126 46.41875L35.7625 46.41875ZM37.35625 37.325Q37.35625 39.325 38.16875 40.278126Q38.98125 41.23125 40.1375 41.23125Q41.309376 41.23125 42.1375 40.246876Q42.98125 39.2625 42.98125 37.16875Q42.98125 35.2 42.153126 34.215626Q41.340626 33.215626 40.215626 33.215626Q39.090626 33.215626 38.215626 34.278126Q37.35625 35.325 37.35625 37.325ZM50.60625 40.871876L50.85625 42.434376Q50.121876 42.590626 49.528126 42.590626Q48.575 42.590626 48.04375 42.29375Q47.528126 41.98125 47.309376 41.496876Q47.090626 40.996876 47.090626 39.41875L47.090626 33.45L45.809376 33.45L45.809376 32.075L47.090626 32.075L47.090626 29.5125L48.840626 28.45L48.840626 32.075L50.60625 32.075L50.60625 33.45L48.840626 33.45L48.840626 39.5125Q48.840626 40.2625 48.934376 40.48125Q49.028126 40.684376 49.23125 40.825Q49.45 40.95 49.840626 40.95Q50.121876 40.95 50.60625 40.871876ZM52.778126 30.153126L52.778126 28.1375L54.54375 28.1375L54.54375 30.153126L52.778126 30.153126ZM52.778126 42.45L52.778126 32.075L54.54375 32.075L54.54375 42.45L52.778126 42.45ZM56.121876 37.2625Q56.121876 34.3875 57.715626 32.996876Q59.059376 31.840626 60.98125 31.840626Q63.121876 31.840626 64.46562 33.246876Q65.825 34.653126 65.825 37.121876Q65.825 39.121876 65.23125 40.278126Q64.6375 41.41875 63.48125 42.059376Q62.340626 42.684376 60.98125 42.684376Q58.79375 42.684376 57.45 41.29375Q56.121876 39.8875 56.121876 37.2625ZM57.91875 37.2625Q57.91875 39.2625 58.778126 40.246876Q59.653126 41.23125 60.98125 41.23125Q62.29375 41.23125 63.153126 40.246876Q64.02812 39.246876 64.02812 37.2Q64.02812 35.278126 63.153126 34.29375Q62.278126 33.29375 60.98125 33.29375Q59.653126 33.29375 58.778126 34.29375Q57.91875 35.278126 57.91875 37.2625ZM67.7625 42.45L67.7625 32.075L69.35625 32.075L69.35625 33.559376Q70.49687 31.840626 72.65312 31.840626Q73.59062 31.840626 74.37187 32.184376Q75.16875 32.5125 75.55937 33.059376Q75.95 33.60625 76.10625 34.35625Q76.2 34.85625 76.2 36.075L76.2 42.45L74.43437 42.45L74.43437 36.1375Q74.43437 35.059376 74.23125 34.528126Q74.02812 33.996876 73.49687 33.684376Q72.98125 33.371876 72.27812 33.371876Q71.15312 33.371876 70.34062 34.090626Q69.52812 34.79375 69.52812 36.778126L69.52812 42.45L67.7625 42.45ZM77.05937 39.35625L78.80937 39.075Q78.95 40.121876 79.62187 40.684376Q80.29375 41.23125 81.49687 41.23125Q82.7 41.23125 83.27812 40.746876Q83.87187 40.246876 83.87187 39.590626Q83.87187 38.996876 83.35625 38.653126Q82.99687 38.41875 81.55937 38.059376Q79.62187 37.559376 78.87187 37.215626Q78.1375 36.85625 77.74687 36.23125Q77.35625 35.590626 77.35625 34.825Q77.35625 34.1375 77.66875 33.54375Q77.99687 32.95 78.54375 32.559376Q78.95 32.2625 79.65312 32.059376Q80.37187 31.840626 81.18437 31.840626Q82.40312 31.840626 83.325 32.2Q84.24687 32.54375 84.68437 33.153126Q85.12187 33.746876 85.29375 34.746876L83.575 34.98125Q83.45 34.184376 82.8875 33.746876Q82.325 33.29375 81.30937 33.29375Q80.09062 33.29375 79.575 33.7Q79.05937 34.090626 79.05937 34.621876Q79.05937 34.965626 79.27812 35.246876Q79.48125 35.528126 79.95 35.715626Q80.21562 35.809376 81.49687 36.153126Q83.37187 36.653126 84.10625 36.98125Q84.84062 37.29375 85.2625 37.903126Q85.68437 38.496876 85.68437 39.403126Q85.68437 40.278126 85.16875 41.059376Q84.65312 41.840626 83.68437 42.2625Q82.71562 42.684376 81.49687 42.684376Q79.48125 42.684376 78.41875 41.840626Q77.35625 40.996876 77.05937 39.35625ZM103.0125 34.028126L93.55937 34.028126L93.55937 32.3875L103.0125 32.3875L103.0125 34.028126ZM103.0125 38.371876L93.55937 38.371876L93.55937 36.73125L103.0125 36.73125L103.0125 38.371876ZM120.5125 40.7625L120.5125 42.45L111.05937 42.45Q111.04375 41.809376 111.2625 41.23125Q111.62187 40.2625 112.41875 39.325Q113.21562 38.3875 114.71562 37.153126Q117.05937 35.246876 117.87187 34.1375Q118.7 33.0125 118.7 32.0125Q118.7 30.965626 117.95 30.246876Q117.2 29.528126 115.99687 29.528126Q114.73125 29.528126 113.96562 30.29375Q113.2 31.059376 113.2 32.403126L111.3875 32.215626Q111.575 30.2 112.77812 29.1375Q113.99687 28.075 116.04375 28.075Q118.09062 28.075 119.29375 29.215626Q120.49687 30.35625 120.49687 32.04375Q120.49687 32.903126 120.1375 33.746876Q119.79375 34.575 118.98125 35.496876Q118.16875 36.403126 116.27812 38.0125Q114.68437 39.340626 114.23125 39.809376Q113.79375 40.278126 113.49687 40.7625L120.5125 40.7625ZM123.23125 42.45L123.23125 40.45L125.23125 40.45L125.23125 42.45Q125.23125 43.559376 124.84062 44.23125Q124.45 44.91875 123.60625 45.278126L123.10625 44.528126Q123.66875 44.29375 123.93437 43.809376Q124.2 43.340626 124.23125 42.45L123.23125 42.45ZM141.54375 41.16875Q140.55937 41.996876 139.65312 42.340626Q138.74687 42.684376 137.71562 42.684376Q136.0125 42.684376 135.09062 41.85625Q134.16875 41.0125 134.16875 39.715626Q134.16875 38.95 134.5125 38.325Q134.87187 37.7 135.43437 37.325Q135.99687 36.934376 136.7 36.73125Q137.21562 36.60625 138.2625 36.465626Q140.3875 36.215626 141.3875 35.871876Q141.40312 35.5125 141.40312 35.403126Q141.40312 34.340626 140.90312 33.8875Q140.23125 33.29375 138.90312 33.29375Q137.65312 33.29375 137.05937 33.73125Q136.48125 34.16875 136.2 35.278126L134.48125 35.04375Q134.71562 33.934376 135.24687 33.2625Q135.77812 32.575 136.79375 32.215626Q137.80937 31.840626 139.15312 31.840626Q140.48125 31.840626 141.30937 32.153126Q142.1375 32.465626 142.52812 32.95Q142.91875 33.41875 143.075 34.1375Q143.16875 34.590626 143.16875 35.7625L143.16875 38.10625Q143.16875 40.559376 143.27812 41.215626Q143.3875 41.85625 143.73125 42.45L141.8875 42.45Q141.62187 41.903126 141.54375 41.16875ZM141.3875 37.246876Q140.43437 37.6375 138.5125 37.903126Q137.43437 38.059376 136.98125 38.2625Q136.54375 38.45 136.29375 38.825Q136.04375 39.2 136.04375 39.66875Q136.04375 40.371876 136.575 40.840626Q137.10625 41.309376 138.1375 41.309376Q139.15312 41.309376 139.93437 40.871876Q140.73125 40.41875 141.10625 39.653126Q141.3875 39.04375 141.3875 37.8875L141.3875 37.246876ZM161.0125 34.028126L151.55937 34.028126L151.55937 32.3875L161.0125 32.3875L161.0125 34.028126ZM161.0125 38.371876L151.55937 38.371876L151.55937 36.73125L161.0125 36.73125L161.0125 38.371876ZM175.90312 42.45L174.1375 42.45L174.1375 31.246876Q173.5125 31.85625 172.48125 32.465626Q171.45 33.059376 170.62187 33.371876L170.62187 31.66875Q172.10625 30.98125 173.2 29.996876Q174.30937 28.996876 174.7625 28.075L175.90312 28.075L175.90312 42.45Z" fill-rule="nonzero"/></svg>