<svg version="1.1" viewBox="0.0 0.0 759.0 469.0" fill="none" stroke="none" stroke-linecap="square" stroke-miterlimit="10" width="759" height="469" xmlns:xlink="http://www.w3.org/1999/xlink" xmlns="http://www.w3.org/2000/svg"><path fill="#ffffff" d="M0 0L759.0 0L759.0 469.0L0 469.0L0 0Z" fill-rule="nonzero"/><path stroke="#cccccc" stroke-width="1.0" stroke-linecap="butt" d="M94.5 101.5L94.5 388.5" fill-rule="nonzero"/><path stroke="#cccccc" stroke-width="1.0" stroke-linecap="butt" d="M275.5 101.5L275.5 388.5" fill-rule="nonzero"/><path stroke="#cccccc" stroke-width="1.0" stroke-linecap="butt" d="M456.5 101.5L456.5 388.5" fill-rule="nonzero"/><path stroke="#cccccc" stroke-width="1.0" stroke-linecap="butt" d="M638.5 101.5L638.5 388.5" fill-rule="nonzero"/><path stroke="#cccccc" stroke-width="1.0" stroke-linecap="butt" d="M87.5 388.5L735.5 388.5" fill-rule="nonzero"/><path stroke="#cccccc" stroke-width="1.0" stroke-linecap="butt" d="M87.5 292.5L735.5 292.5" fill-rule="nonzero"/><path stroke="#cccccc" stroke-width="1.0" stroke-linecap="butt" d="M87.5 197.5L735.5 197.5" fill-rule="nonzero"/><path stroke="#cccccc" stroke-width="1.0" stroke-linecap="butt" d="M87.5 101.5L735.5 101.5" fill-rule="nonzero"/><clipPath id="id_0"><path d="M87.45 101.71667L735.55 101.71667L735.55 388.55L87.45 388.55L87.45 101.71667Z" clip-rule="nonzero"/></clipPath><path stroke="#4285f4" stroke-width="2.0" stroke-linecap="butt" stroke-opacity="0.4" clip-path="url(#id_0)" d="M0 432.913C0 432.913 2.6666667 428.7892 4.0 426.79318C5.3333335 424.79718 6.6666665 422.84866 8.0 420.93683C9.333333 419.025 10.666667 417.15665 12.0 415.32217C13.333333 413.4877 14.666667 411.69315 16.0 409.93002C17.333334 408.16687 18.666666 406.44052 20.0 404.7434C21.333334 403.0463 22.666666 401.38315 24.0 399.74728C25.333334 398.1114 26.666666 396.50702 28.0 394.9281C29.333334 393.34918 30.666666 391.79956 32.0 390.27377C33.333332 388.748 34.666668 387.2495 36.0 385.7734C37.333332 384.2973 38.666668 382.8467 40.0 381.41714C41.333332 379.98755 42.666668 378.58188 44.0 377.19598C45.333332 375.81012 46.666668 374.44666 48.0 373.10187C49.333332 371.7571 50.666668 370.4334 52.0 369.12735C53.333332 367.82132 54.666668 366.53513 56.0 365.26566C57.333332 363.99615 58.666668 362.7454 60.0 361.5105C61.333332 360.2756 62.666668 359.05838 64.0 357.8562C65.333336 356.65405 66.666664 355.46863 68.0 354.2975C69.333336 353.12637 70.666664 351.97113 72.0 350.8295C73.333336 349.68787 74.666664 348.56128 76.0 347.4477C77.333336 346.33408 78.666664 345.2348 80.0 344.1479C81.333336 343.06097 82.666664 341.98767 84.0 340.9262C85.333336 339.86475 86.666664 338.81625 88.0 337.77905C89.333336 336.74188 90.666664 335.71707 92.0 334.70306C93.333336 333.68906 94.666664 332.6869 96.0 331.69507C97.333336 330.70322 98.666664 329.72272 100.0 328.7521C101.333336 327.78152 102.666664 326.82172 104.0 325.87146C105.333336 324.9212 106.666664 323.98132 108.0 323.05054C109.333336 322.11978 110.666664 321.19897 112.0 320.28693C113.333336 319.37488 114.666664 318.47238 116.0 317.5783C117.333336 316.68427 118.666664 315.79935 120.0 314.92258C121.333336 314.0458 122.666664 313.17783 124.0 312.31766C125.333336 311.45752 126.666664 310.60583 128.0 309.7617C129.33333 308.91757 130.66667 308.08157 132.0 307.25287C133.33333 306.42413 134.66667 305.60327 136.0 304.78943C137.33333 303.9756 138.66667 303.1693 140.0 302.3698C141.33333 301.5703 142.66667 300.7781 144.0 299.99246C145.33333 299.20682 146.66667 298.42822 148.0 297.65594C149.33333 296.8837 150.66667 296.11823 152.0 295.3589C153.33333 294.59955 154.66667 293.84677 156.0 293.09995C157.33333 292.35312 158.66667 291.6126 160.0 290.8779C161.33333 290.14316 162.66667 289.41455 164.0 288.69153C165.33333 287.9685 166.66667 287.25143 168.0 286.53976C169.33333 285.8281 170.66667 285.12216 172.0 284.42148C173.33333 283.72083 174.66667 283.0257 176.0 282.3357C177.33333 281.64566 178.66667 280.96106 180.0 280.28137C181.33333 279.60168 182.66667 278.92725 184.0 278.25763C185.33333 277.58798 186.66667 276.9234 188.0 276.26352C189.33333 275.6036 190.66667 274.94864 192.0 274.29822C193.33333 273.64777 194.66667 273.00214 196.0 272.3609C197.33333 271.71967 198.66667 271.08307 200.0 270.45078C201.33333 269.81848 202.66667 269.1907 204.0 268.5671C205.33333 267.94348 206.66667 267.32428 208.0 266.70914C209.33333 266.094 210.66667 265.48312 212.0 264.8762C213.33333 264.2693 214.66667 263.66653 216.0 263.06763C217.33333 262.46872 218.66667 261.87387 220.0 261.28278C221.33333 260.69168 222.66667 260.10455 224.0 259.52106C225.33333 258.93756 226.66667 258.3579 228.0 257.78183C229.33333 257.20575 230.66667 256.63342 232.0 256.06458C233.33333 255.4957 234.66667 254.9305 236.0 254.3687C237.33333 253.80688 238.66667 253.24864 240.0 252.6937C241.33333 252.13876 242.66667 251.58731 244.0 251.03908C245.33333 250.49084 246.66667 249.94601 248.0 249.40433C249.33333 248.86266 250.66667 248.32428 252.0 247.789C253.33333 247.25371 254.66667 246.72165 256.0 246.19261C257.33334 245.66356 258.66666 245.13768 260.0 244.61473C261.33334 244.0918 262.66666 243.57193 264.0 243.05495C265.33334 242.53796 266.66666 242.02399 268.0 241.51283C269.33334 241.00168 270.66666 240.49347 272.0 239.988C273.33334 239.48254 274.66666 238.97997 276.0 238.48007C277.33334 237.9802 278.66666 237.48311 280.0 236.98868C281.33334 236.49423 282.66666 236.00255 284.0 235.51344C285.33334 235.02434 286.66666 234.53792 288.0 234.05403C289.33334 233.57014 290.66666 233.08888 292.0 232.6101C293.33334 232.13132 294.66666 231.65512 296.0 231.18134C297.33334 230.70757 298.66666 230.2363 300.0 229.76743C301.33334 229.29854 302.66666 228.83212 304.0 228.36804C305.33334 227.90396 306.66666 227.44229 308.0 226.98291C309.33334 226.52353 310.66666 226.06651 312.0 225.61174C313.33334 225.15697 314.66666 224.70451 316.0 224.25424C317.33334 223.80399 318.66666 223.356 320.0 222.91016C321.33334 222.46432 322.66666 222.02072 324.0 221.57922C325.33334 221.13773 326.66666 220.69843 328.0 220.26117C329.33334 219.82393 330.66666 219.38884 332.0 218.95578C333.33334 218.5227 334.66666 218.09175 336.0 217.66278C337.33334 217.23381 338.66666 216.8069 340.0 216.38196C341.33334 215.957 342.66666 215.53407 344.0 215.11307C345.33334 214.69206 346.66666 214.27304 348.0 213.85591C349.33334 213.43878 350.66666 213.02359 352.0 212.61026C353.33334 212.19693 354.66666 211.7855 356.0 211.37592C357.33334 210.96631 358.66666 210.5586 360.0 210.15265C361.33334 209.74672 362.66666 209.34264 364.0 208.94029C365.33334 208.53796 366.66666 208.13745 368.0 207.73865C369.33334 207.33986 370.66666 206.94284 372.0 206.54752C373.33334 206.1522 374.66666 205.75864 376.0 205.36673C377.33334 204.97482 378.66666 204.58464 380.0 204.19609C381.33334 203.80754 382.66666 203.42068 384.0 203.03545C385.33334 202.65019 386.66666 202.26662 388.0 201.88461C389.33334 201.50261 390.66666 201.12224 392.0 200.74342C393.33334 200.36461 394.66666 199.98741 396.0 199.61174C397.33334 199.23605 398.66666 198.86197 400.0 198.48938C401.33334 198.11679 402.66666 197.74576 404.0 197.3762C405.33334 197.00665 406.66666 196.63863 408.0 196.27206C409.33334 195.90549 410.66666 195.54044 412.0 195.1768C413.33334 194.81317 414.66666 194.45103 416.0 194.0903C417.33334 193.72957 418.66666 193.37029 420.0 193.01239C421.33334 192.65451 422.66666 192.29805 424.0 191.94296C425.33334 191.58788 426.66666 191.2342 428.0 190.88187C429.33334 190.52954 430.66666 190.1786 432.0 189.829C433.33334 189.47939 434.66666 189.13113 436.0 188.7842C437.33334 188.43726 438.66666 188.09166 440.0 187.74736C441.33334 187.40306 442.66666 187.06007 444.0 186.71837C445.33334 186.37665 446.66666 186.03625 448.0 185.6971C449.33334 185.35794 450.66666 185.02007 452.0 184.68343C453.33334 184.34679 454.66666 184.01141 456.0 183.67726C457.33334 183.34311 458.66666 183.0102 460.0 182.67848C461.33334 182.34677 462.66666 182.01628 464.0 181.68698C465.33334 181.35767 466.66666 181.02957 468.0 180.70264C469.33334 180.3757 470.66666 180.04997 472.0 179.72537C473.33334 179.40079 474.66666 179.07738 476.0 178.75508C477.33334 178.4328 478.66666 178.11168 480.0 177.79166C481.33334 177.47165 482.66666 177.15279 484.0 176.835C485.33334 176.51724 486.66666 176.20059 488.0 175.88504C489.33334 175.56947 490.66666 175.25504 492.0 174.94165C493.33334 174.62827 494.66666 174.316 496.0 174.00476C497.33334 173.69353 498.66666 173.38338 500.0 173.07428C501.33334 172.76517 502.66666 172.45712 504.0 172.15012C505.33334 171.8431 506.66666 171.53714 508.0 171.23218C509.33334 170.92723 510.66666 170.62332 512.0 170.3204C513.3333 170.01749 514.6667 169.71559 516.0 169.41469C517.3333 169.11378 518.6667 168.81389 520.0 168.51497C521.3333 168.21605 522.6667 167.91812 524.0 167.62115C525.3333 167.32419 526.6667 167.02821 528.0 166.73318C529.3333 166.43814 530.6667 166.14409 532.0 165.85095C533.3333 165.55783 534.6667 165.26567 536.0 164.97443C537.3333 164.68318 538.6667 164.39288 540.0 164.10349C541.3333 163.8141 542.6667 163.52565 544.0 163.2381C545.3333 162.95055 546.6667 162.66393 548.0 162.37819C549.3333 162.09244 550.6667 161.80762 552.0 161.52367C553.3333 161.23972 554.6667 160.95667 556.0 160.67447C557.3333 160.39229 558.6667 160.111 560.0 159.83055C561.3333 159.55011 562.6667 159.27055 564.0 158.99184C565.3333 158.71312 566.6667 158.43527 568.0 158.15825C569.3333 157.88124 570.6667 157.60509 572.0 157.32974C573.3333 157.05441 574.6667 156.77992 576.0 156.50626C577.3333 156.23259 578.6667 155.95975 580.0 155.68771C581.3333 155.4157 582.6667 155.14449 584.0 154.87408C585.3333 154.60367 586.6667 154.33408 588.0 154.06528C589.3333 153.79646 590.6667 153.52846 592.0 153.26125C593.3333 152.99402 594.6667 152.7276 596.0 152.46194C597.3333 152.19627 598.6667 151.93141 600.0 151.6673C601.3333 151.4032 602.6667 151.13986 604.0 150.87727C605.3333 150.6147 606.6667 150.35289 608.0 150.09181C609.3333 149.83075 610.6667 149.57043 612.0 149.31085C613.3333 149.05128 614.6667 148.79247 616.0 148.53436C617.3333 148.27626 618.6667 148.0189 620.0 147.76227C621.3333 147.50563 622.6667 147.24973 624.0 146.99454C625.3333 146.73933 626.6667 146.48486 628.0 146.23111C629.3333 145.97734 630.6667 145.72429 632.0 145.47194C633.3333 145.21957 634.6667 144.96794 636.0 144.71698C637.3333 144.46602 638.6667 144.21576 640.0 143.96619C641.3333 143.71661 642.6667 143.46773 644.0 143.21951C645.3333 142.9713 646.6667 142.72377 648.0 142.47691C649.3333 142.23006 650.6667 141.98387 652.0 141.73834C653.3333 141.49283 654.6667 141.24797 656.0 141.00377C657.3333 140.75957 658.6667 140.51602 660.0 140.27313C661.3333 140.03024 662.6667 139.78801 664.0 139.5464C665.3333 139.3048 666.6667 139.06384 668.0 138.82353C669.3333 138.5832 670.6667 138.34354 672.0 138.10448C673.3333 137.86542 674.6667 137.627 676.0 137.3892C677.3333 137.1514 678.6667 136.91423 680.0 136.67767C681.3333 136.44112 682.6667 136.20517 684.0 135.96985C685.3333 135.73451 686.6667 135.49979 688.0 135.26567C689.3333 135.03156 690.6667 134.79805 692.0 134.56512C693.3333 134.33221 694.6667 134.0999 696.0 133.86818C697.3333 133.63644 698.6667 133.40532 700.0 133.17477C701.3333 132.94423 702.6667 132.71426 704.0 132.48488C705.3333 132.25551 706.6667 132.0267 708.0 131.79848C709.3333 131.57025 710.6667 131.3426 712.0 131.11551C713.3333 130.88843 714.6667 130.66193 716.0 130.43596C717.3333 130.21 718.6667 129.98462 720.0 129.7598C721.3333 129.53496 722.6667 129.31068 724.0 129.08696C725.3333 128.86324 726.6667 128.64006 728.0 128.41743C729.3333 128.19481 732.0 127.7512 732.0 127.7512" fill-rule="nonzero"/><path fill="#ff0000" clip-path="url(#id_0)" d="M98.80199 340.74445C98.80199 343.22974 96.78727 345.24445 94.30199 345.24445C91.8167 345.24445 89.80199 343.22974 89.80199 340.74445C89.80199 338.25916 91.8167 336.24445 94.30199 336.24445C96.78727 336.24445 98.80199 338.25916 98.80199 340.74445Z" fill-rule="nonzero"/><path fill="#ff0000" clip-path="url(#id_0)" d="M280.05798 245.13333C280.05798 247.61862 278.04327 249.63333 275.55798 249.63333C273.07272 249.63333 271.05798 247.61862 271.05798 245.13333C271.05798 242.64806 273.07272 240.63333 275.55798 240.63333C278.04327 240.63333 280.05798 242.64806 280.05798 245.13333Z" fill-rule="nonzero"/><path fill="#ff0000" clip-path="url(#id_0)" d="M642.57 149.52222C642.57 152.0075 640.5553 154.02222 638.07 154.02222C635.5847 154.02222 633.57 152.0075 633.57 149.52222C633.57 147.03694 635.5847 145.02222 638.07 145.02222C640.5553 145.02222 642.57 147.03694 642.57 149.52222Z" fill-rule="nonzero"/><path fill="#4285f4" clip-path="url(#id_0)" d="M189.43 278.02356C189.43 280.50885 187.41527 282.52356 184.93 282.52356C182.4447 282.52356 180.43 280.50885 180.43 278.02356C180.43 275.53827 182.4447 273.52356 184.93 273.52356C187.41527 273.52356 189.43 275.53827 189.43 278.02356Z" fill-rule="nonzero"/><path fill="#4285f4" clip-path="url(#id_0)" d="M370.686 208.13184C370.686 210.61711 368.67126 212.63184 366.186 212.63184C363.7007 212.63184 361.686 210.61711 361.686 208.13184C361.686 205.64655 363.7007 203.63184 366.186 203.63184C368.67126 203.63184 370.686 205.64655 370.686 208.13184Z" fill-rule="nonzero"/><path fill="#4285f4" clip-path="url(#id_0)" d="M461.314 182.98611C461.314 185.47139 459.2993 187.48611 456.814 187.48611C454.32874 187.48611 452.314 185.47139 452.314 182.98611C452.314 180.50082 454.32874 178.48611 456.814 178.48611C459.2993 178.48611 461.314 180.50082 461.314 182.98611Z" fill-rule="nonzero"/><path fill="#4285f4" clip-path="url(#id_0)" d="M551.942 162.62094C551.942 165.10623 549.9273 167.12094 547.442 167.12094C544.9567 167.12094 542.942 165.10623 542.942 162.62094C542.942 160.13567 544.9567 158.12094 547.442 158.12094C549.9273 158.12094 551.942 160.13567 551.942 162.62094Z" fill-rule="nonzero"/><path fill="#4285f4" clip-path="url(#id_0)" d="M733.198 128.58339C733.198 131.06866 731.1833 133.08339 728.698 133.08339C726.2127 133.08339 724.198 131.06866 724.198 128.58339C724.198 126.09811 726.2127 124.08339 728.698 124.08339C731.1833 124.08339 733.198 126.09811 733.198 128.58339Z" fill-rule="nonzero"/><path fill="#000000" d="M409.5625 442.55L408.42188 442.55L408.42188 432.53436L409.64062 432.53436L409.64062 436.09686Q410.42188 435.1281 411.64062 435.1281Q412.3125 435.1281 412.90625 435.39374Q413.5 435.65936 413.89062 436.15936Q414.28125 436.64374 414.5 437.33124Q414.71875 438.01874 414.71875 438.8156Q414.71875 440.675 413.78125 441.70624Q412.85938 442.72186 411.57812 442.72186Q410.29688 442.72186 409.5625 441.64374L409.5625 442.55ZM409.54688 438.8625Q409.54688 440.175 409.90625 440.7531Q410.48438 441.70624 411.46875 441.70624Q412.28125 441.70624 412.85938 441.0031Q413.45312 440.3 413.45312 438.90936Q413.45312 437.4875 412.89062 436.8156Q412.32812 436.14374 411.53125 436.14374Q410.71875 436.14374 410.125 436.84686Q409.54688 437.53436 409.54688 438.8625Z" fill-rule="nonzero"/><path fill="#000000" d="M36.44999 295.52396L26.434362 295.52396L26.434362 288.27396L27.606237 288.27396L27.606237 294.19583L30.684362 294.19583L30.684362 288.64896L31.856237 288.64896L31.856237 294.19583L35.26249 294.19583L35.26249 288.03958L36.44999 288.03958L36.44999 295.52396ZM36.44999 287.52396L32.66874 284.88333L29.184362 287.33646L29.184362 285.78958L30.887487 284.6802Q31.371862 284.3677 31.699987 284.1802Q31.246862 283.8677 30.903112 283.6177L29.184362 282.39896L29.184362 280.9302L32.60624 283.4302L36.44999 280.7427L36.44999 282.2427L34.19999 283.7427L33.590614 284.13333L36.44999 286.03958L36.44999 287.52396ZM35.35624 278.02396L36.434364 277.85208Q36.54374 278.3677 36.54374 278.77396Q36.54374 279.44583 36.340614 279.82083Q36.121864 280.1802 35.778114 280.33646Q35.434364 280.47708 34.32499 280.47708L30.153112 280.47708L30.153112 281.38333L29.184362 281.38333L29.184362 280.47708L27.387487 280.47708L26.653112 279.25833L29.184362 279.25833L29.184362 278.02396L30.153112 278.02396L30.153112 279.25833L34.38749 279.25833Q34.91874 279.25833 35.07499 279.19583Q35.215614 279.13333 35.309364 278.9927Q35.403114 278.83646 35.403114 278.57083Q35.403114 278.35208 35.35624 278.02396ZM36.44999 276.72708L29.184362 276.72708L29.184362 275.6177L30.293737 275.6177Q29.512487 275.19583 29.278112 274.83646Q29.028112 274.47708 29.028112 274.03958Q29.028112 273.41458 29.418737 272.77396L30.559362 273.19583Q30.293737 273.64896 30.293737 274.10208Q30.293737 274.50833 30.543737 274.83646Q30.778112 275.14896 31.215612 275.28958Q31.871862 275.4927 32.653114 275.4927L36.44999 275.4927L36.44999 276.72708ZM35.559364 266.97708Q36.13749 267.64896 36.38749 268.28958Q36.621864 268.91458 36.621864 269.64896Q36.621864 270.83646 36.04374 271.4927Q35.44999 272.13333 34.528114 272.13333Q33.996864 272.13333 33.559364 271.89896Q33.121864 271.64896 32.85624 271.25833Q32.590614 270.85208 32.44999 270.3677Q32.35624 270.00833 32.26249 269.27396Q32.090614 267.77396 31.840612 267.07083Q31.590612 267.07083 31.528112 267.07083Q30.762487 267.07083 30.465612 267.41458Q30.043737 267.88333 30.043737 268.82083Q30.043737 269.6802 30.356237 270.10208Q30.653112 270.50833 31.418737 270.71146L31.262487 271.91458Q30.481237 271.75833 30.012487 271.38333Q29.543737 270.9927 29.293737 270.28958Q29.028112 269.57083 29.028112 268.63333Q29.028112 267.71146 29.246862 267.13333Q29.465612 266.5552 29.793737 266.28958Q30.121862 266.00833 30.637487 265.89896Q30.949987 265.83646 31.762487 265.83646L33.403114 265.83646Q35.121864 265.83646 35.57499 265.75833Q36.028114 265.6802 36.44999 265.44583L36.44999 266.72708Q36.059364 266.91458 35.559364 266.97708ZM32.809364 267.07083Q33.07499 267.7427 33.278114 269.08646Q33.38749 269.83646 33.528114 270.16458Q33.653114 270.47708 33.91874 270.64896Q34.184364 270.82083 34.496864 270.82083Q34.996864 270.82083 35.32499 270.44583Q35.653114 270.07083 35.653114 269.35208Q35.653114 268.63333 35.340614 268.08646Q35.028114 267.53958 34.48124 267.27396Q34.07499 267.07083 33.26249 267.07083L32.809364 267.07083ZM35.559364 254.97708Q36.13749 255.64896 36.38749 256.28958Q36.621864 256.91458 36.621864 257.64896Q36.621864 258.83646 36.04374 259.4927Q35.44999 260.13333 34.528114 260.13333Q33.996864 260.13333 33.559364 259.89896Q33.121864 259.64896 32.85624 259.25833Q32.590614 258.85208 32.44999 258.3677Q32.35624 258.00833 32.26249 257.27396Q32.090614 255.77396 31.840612 255.07083Q31.590612 255.07083 31.528112 255.07083Q30.762487 255.07083 30.465612 255.41458Q30.043737 255.88333 30.043737 256.82083Q30.043737 257.6802 30.356237 258.10208Q30.653112 258.50833 31.418737 258.71146L31.262487 259.91458Q30.481237 259.75833 30.012487 259.38333Q29.543737 258.9927 29.293737 258.28958Q29.028112 257.57083 29.028112 256.63333Q29.028112 255.71146 29.246862 255.13333Q29.465612 254.5552 29.793737 254.28958Q30.121862 254.00833 30.637487 253.89896Q30.949987 253.83646 31.762487 253.83646L33.403114 253.83646Q35.121864 253.83646 35.57499 253.75833Q36.028114 253.6802 36.44999 253.44583L36.44999 254.72708Q36.059364 254.91458 35.559364 254.97708ZM32.809364 255.07083Q33.07499 255.7427 33.278114 257.08646Q33.38749 257.83646 33.528114 258.16458Q33.653114 258.47708 33.91874 258.64896Q34.184364 258.82083 34.496864 258.82083Q34.996864 258.82083 35.32499 258.44583Q35.653114 258.07083 35.653114 257.35208Q35.653114 256.63333 35.340614 256.08646Q35.028114 255.53958 34.48124 255.27396Q34.07499 255.07083 33.26249 255.07083L32.809364 255.07083ZM35.35624 249.02396L36.434364 248.85208Q36.54374 249.3677 36.54374 249.77396Q36.54374 250.44583 36.340614 250.82083Q36.121864 251.1802 35.778114 251.33646Q35.434364 251.47708 34.32499 251.47708L30.153112 251.47708L30.153112 252.38333L29.184362 252.38333L29.184362 251.47708L27.387487 251.47708L26.653112 250.25833L29.184362 250.25833L29.184362 249.02396L30.153112 249.02396L30.153112 250.25833L34.38749 250.25833Q34.91874 250.25833 35.07499 250.19583Q35.215614 250.13333 35.309364 249.9927Q35.403114 249.83646 35.403114 249.57083Q35.403114 249.35208 35.35624 249.02396ZM35.35624 245.02396L36.434364 244.85208Q36.54374 245.3677 36.54374 245.77396Q36.54374 246.44583 36.340614 246.82083Q36.121864 247.1802 35.778114 247.33646Q35.434364 247.47708 34.32499 247.47708L30.153112 247.47708L30.153112 248.38333L29.184362 248.38333L29.184362 247.47708L27.387487 247.47708L26.653112 246.25833L29.184362 246.25833L29.184362 245.02396L30.153112 245.02396L30.153112 246.25833L34.38749 246.25833Q34.91874 246.25833 35.07499 246.19583Q35.215614 246.13333 35.309364 245.9927Q35.403114 245.83646 35.403114 245.57083Q35.403114 245.35208 35.35624 245.02396ZM34.10624 238.7427L34.26249 237.46146Q35.38749 237.77396 36.01249 238.58646Q36.621864 239.39896 36.621864 240.66458Q36.621864 242.25833 35.63749 243.19583Q34.653114 244.1177 32.88749 244.1177Q31.043737 244.1177 30.043737 243.1802Q29.028112 242.22708 29.028112 240.72708Q29.028112 239.27396 30.028112 238.35208Q31.012487 237.4302 32.809364 237.4302Q32.91874 237.4302 33.13749 237.4302L33.13749 242.85208Q34.32499 242.77396 34.965614 242.1802Q35.60624 241.57083 35.60624 240.64896Q35.60624 239.97708 35.246864 239.50833Q34.88749 239.02396 34.10624 238.7427ZM32.121864 242.77396L32.121864 238.72708Q31.199987 238.8052 30.746862 239.19583Q30.043737 239.77396 30.043737 240.71146Q30.043737 241.57083 30.606237 242.14896Q31.168737 242.71146 32.121864 242.77396ZM36.44999 235.71146L29.184362 235.71146L29.184362 234.60208L30.215612 234.60208Q29.668737 234.27396 29.356237 233.71146Q29.028112 233.13333 29.028112 232.41458Q29.028112 231.60208 29.371862 231.08646Q29.699987 230.57083 30.293737 230.35208Q29.028112 229.4927 29.028112 228.1177Q29.028112 227.03958 29.621862 226.46146Q30.215612 225.8677 31.465612 225.8677L36.44999 225.8677L36.44999 227.10208L31.871862 227.10208Q31.137487 227.10208 30.809362 227.22708Q30.481237 227.33646 30.293737 227.64896Q30.090612 227.96146 30.090612 228.38333Q30.090612 229.14896 30.606237 229.66458Q31.106237 230.16458 32.23124 230.16458L36.44999 230.16458L36.44999 231.39896L31.731237 231.39896Q30.918737 231.39896 30.512487 231.69583Q30.090612 231.9927 30.090612 232.6802Q30.090612 233.19583 30.371862 233.64896Q30.637487 234.08646 31.168737 234.28958Q31.684362 234.47708 32.684364 234.47708L36.44999 234.47708L36.44999 235.71146ZM39.23124 224.71146L29.184362 224.71146L29.184362 223.58646L30.137487 223.58646Q29.574987 223.19583 29.309362 222.69583Q29.028112 222.19583 29.028112 221.47708Q29.028112 220.5552 29.512487 219.85208Q29.981237 219.13333 30.856237 218.77396Q31.731237 218.41458 32.76249 218.41458Q33.871864 218.41458 34.778114 218.82083Q35.66874 219.21146 36.153114 219.97708Q36.621864 220.72708 36.621864 221.57083Q36.621864 222.1802 36.35624 222.6802Q36.090614 223.16458 35.69999 223.47708L39.23124 223.47708L39.23124 224.71146ZM32.85624 223.60208Q34.26249 223.60208 34.934364 223.03958Q35.60624 222.46146 35.60624 221.64896Q35.60624 220.83646 34.91874 220.25833Q34.215614 219.66458 32.76249 219.66458Q31.371862 219.66458 30.684362 220.2427Q29.996862 220.8052 29.996862 221.60208Q29.996862 222.38333 30.731237 222.9927Q31.465612 223.60208 32.85624 223.60208ZM35.35624 214.02396L36.434364 213.85208Q36.54374 214.3677 36.54374 214.77396Q36.54374 215.44583 36.340614 215.82083Q36.121864 216.1802 35.778114 216.33646Q35.434364 216.47708 34.32499 216.47708L30.153112 216.47708L30.153112 217.38333L29.184362 217.38333L29.184362 216.47708L27.387487 216.47708L26.653112 215.25833L29.184362 215.25833L29.184362 214.02396L30.153112 214.02396L30.153112 215.25833L34.38749 215.25833Q34.91874 215.25833 35.07499 215.19583Q35.215614 215.13333 35.309364 214.9927Q35.403114 214.83646 35.403114 214.57083Q35.403114 214.35208 35.35624 214.02396ZM34.278114 213.19583L34.090614 211.9927Q34.82499 211.88333 35.215614 211.41458Q35.60624 210.94583 35.60624 210.10208Q35.60624 209.25833 35.26249 208.85208Q34.91874 208.4302 34.44999 208.4302Q34.028114 208.4302 33.79374 208.8052Q33.621864 209.0552 33.371864 210.0552Q33.028114 211.41458 32.778114 211.94583Q32.528114 212.46146 32.090614 212.72708Q31.653112 212.9927 31.121862 212.9927Q30.637487 212.9927 30.231237 212.77396Q29.809362 212.5552 29.528112 212.16458Q29.324987 211.88333 29.184362 211.39896Q29.028112 210.89896 29.028112 210.32083Q29.028112 209.47708 29.278112 208.83646Q29.512487 208.1802 29.934362 207.8677Q30.356237 207.5552 31.059362 207.44583L31.231237 208.64896Q30.668737 208.72708 30.356237 209.13333Q30.043737 209.52396 30.043737 210.2427Q30.043737 211.08646 30.324987 211.44583Q30.590612 211.8052 30.981237 211.8052Q31.215612 211.8052 31.403112 211.66458Q31.606237 211.50833 31.731237 211.1802Q31.793737 211.00833 32.04374 210.10208Q32.403114 208.78958 32.621864 208.27396Q32.840614 207.75833 33.26249 207.47708Q33.684364 207.1802 34.309364 207.1802Q34.934364 207.1802 35.48124 207.53958Q36.01249 207.88333 36.32499 208.57083Q36.621864 209.2427 36.621864 210.10208Q36.621864 211.50833 36.028114 212.25833Q35.434364 212.9927 34.278114 213.19583Z" fill-rule="nonzero"/><path fill="#000000" d="M64.95 388.3156Q64.95 386.78436 65.2625 385.8625Q65.575 384.925 66.18437 384.425Q66.80937 383.925 67.74687 383.925Q68.43437 383.925 68.95 384.20624Q69.48125 384.4875 69.825 385.01874Q70.16875 385.53436 70.35625 386.28436Q70.54375 387.03436 70.54375 388.3156Q70.54375 389.83124 70.23125 390.7531Q69.93437 391.675 69.30937 392.1906Q68.7 392.6906 67.74687 392.6906Q66.5125 392.6906 65.79375 391.8Q64.95 390.7375 64.95 388.3156ZM66.02812 388.3156Q66.02812 390.425 66.52812 391.1281Q67.02812 391.83124 67.74687 391.83124Q68.48125 391.83124 68.96562 391.1281Q69.46562 390.425 69.46562 388.3156Q69.46562 386.1906 68.96562 385.5031Q68.48125 384.8 67.73125 384.8Q67.0125 384.8 66.575 385.40936Q66.02812 386.1906 66.02812 388.3156ZM72.54375 392.55L72.54375 391.34686L73.74687 391.34686L73.74687 392.55L72.54375 392.55ZM74.95 390.3L76.05937 390.20624Q76.18437 391.01874 76.62187 391.425Q77.075 391.83124 77.71562 391.83124Q78.46562 391.83124 78.99687 391.2531Q79.52812 390.675 79.52812 389.7375Q79.52812 388.83124 79.0125 388.3156Q78.5125 387.78436 77.68437 387.78436Q77.18437 387.78436 76.7625 388.01874Q76.35625 388.2531 76.12187 388.6125L75.1375 388.4875L75.96562 384.08124L80.24687 384.08124L80.24687 385.08124L76.80937 385.08124L76.35625 387.39374Q77.12187 386.84686 77.96562 386.84686Q79.09062 386.84686 79.85625 387.6281Q80.6375 388.40936 80.6375 389.64374Q80.6375 390.8 79.96562 391.65936Q79.1375 392.6906 77.71562 392.6906Q76.54375 392.6906 75.79375 392.03436Q75.05937 391.3781 74.95 390.3Z" fill-rule="nonzero"/><path fill="#000000" d="M68.91875 296.9389L67.87187 296.9389L67.87187 290.22015Q67.48125 290.57953 66.85625 290.95453Q66.24687 291.3139 65.7625 291.48578L65.7625 290.47015Q66.6375 290.04828 67.29375 289.47015Q67.96562 288.8764 68.24687 288.3139L68.91875 288.3139L68.91875 296.9389ZM72.54375 296.9389L72.54375 295.73578L73.74687 295.73578L73.74687 296.9389L72.54375 296.9389ZM74.95 294.6889L76.05937 294.59515Q76.18437 295.40765 76.62187 295.8139Q77.075 296.22015 77.71562 296.22015Q78.46562 296.22015 78.99687 295.64203Q79.52812 295.0639 79.52812 294.1264Q79.52812 293.22015 79.0125 292.70453Q78.5125 292.17328 77.68437 292.17328Q77.18437 292.17328 76.7625 292.40765Q76.35625 292.64203 76.12187 293.0014L75.1375 292.8764L75.96562 288.47015L80.24687 288.47015L80.24687 289.47015L76.80937 289.47015L76.35625 291.78265Q77.12187 291.23578 77.96562 291.23578Q79.09062 291.23578 79.85625 292.01703Q80.6375 292.79828 80.6375 294.03265Q80.6375 295.1889 79.96562 296.04828Q79.1375 297.07953 77.71562 297.07953Q76.54375 297.07953 75.79375 296.42328Q75.05937 295.76703 74.95 294.6889Z" fill-rule="nonzero"/><path fill="#000000" d="M70.49687 200.31215L70.49687 201.32777L64.80937 201.32777Q64.80937 200.95277 64.93437 200.5934Q65.15312 200.01527 65.62187 199.45277Q66.10625 198.89027 67.0125 198.1559Q68.41875 196.99965 68.90312 196.32777Q69.40312 195.6559 69.40312 195.06215Q69.40312 194.43715 68.95 194.01527Q68.49687 193.57777 67.77812 193.57777Q67.0125 193.57777 66.55937 194.0309Q66.10625 194.48402 66.09062 195.29652L65.0125 195.18715Q65.12187 193.9684 65.84062 193.3434Q66.575 192.70277 67.80937 192.70277Q69.04375 192.70277 69.7625 193.39027Q70.48125 194.07777 70.48125 195.0934Q70.48125 195.60902 70.2625 196.10902Q70.05937 196.5934 69.55937 197.1559Q69.075 197.70277 67.95 198.6559Q66.99687 199.45277 66.71562 199.74965Q66.45 200.0309 66.27812 200.31215L70.49687 200.31215ZM72.54375 201.32777L72.54375 200.12465L73.74687 200.12465L73.74687 201.32777L72.54375 201.32777ZM74.95 199.07777L76.05937 198.98402Q76.18437 199.79652 76.62187 200.20277Q77.075 200.60902 77.71562 200.60902Q78.46562 200.60902 78.99687 200.0309Q79.52812 199.45277 79.52812 198.51527Q79.52812 197.60902 79.0125 197.0934Q78.5125 196.56215 77.68437 196.56215Q77.18437 196.56215 76.7625 196.79652Q76.35625 197.0309 76.12187 197.39027L75.1375 197.26527L75.96562 192.85902L80.24687 192.85902L80.24687 193.85902L76.80937 193.85902L76.35625 196.17152Q77.12187 195.62465 77.96562 195.62465Q79.09062 195.62465 79.85625 196.4059Q80.6375 197.18715 80.6375 198.42152Q80.6375 199.57777 79.96562 200.43715Q79.1375 201.4684 77.71562 201.4684Q76.54375 201.4684 75.79375 200.81215Q75.05937 200.1559 74.95 199.07777Z" fill-rule="nonzero"/><path fill="#000000" d="M64.95 103.45104L66.0125 103.31042Q66.18437 104.20104 66.62187 104.60729Q67.05937 104.99792 67.68437 104.99792Q68.43437 104.99792 68.95 104.48229Q69.46562 103.96667 69.46562 103.20104Q69.46562 102.48229 68.98125 102.01354Q68.5125 101.52917 67.77812 101.52917Q67.48125 101.52917 67.02812 101.65417L67.15312 100.71667Q67.2625 100.73229 67.325 100.73229Q67.99687 100.73229 68.52812 100.38854Q69.075 100.02917 69.075 99.29479Q69.075 98.71667 68.68437 98.34167Q68.29375 97.95104 67.66875 97.95104Q67.05937 97.95104 66.6375 98.34167Q66.23125 98.73229 66.12187 99.49792L65.05937 99.31042Q65.24687 98.26354 65.93437 97.68542Q66.62187 97.09167 67.6375 97.09167Q68.34062 97.09167 68.93437 97.40417Q69.52812 97.70104 69.84062 98.21667Q70.15312 98.73229 70.15312 99.32604Q70.15312 99.87292 69.85625 100.34167Q69.55937 100.79479 68.98125 101.06042Q69.73125 101.23229 70.15312 101.79479Q70.575 102.34167 70.575 103.18542Q70.575 104.31042 69.74687 105.09167Q68.93437 105.87292 67.68437 105.87292Q66.55937 105.87292 65.80937 105.20104Q65.05937 104.51354 64.95 103.45104ZM72.54375 105.71667L72.54375 104.51354L73.74687 104.51354L73.74687 105.71667L72.54375 105.71667ZM74.95 103.46667L76.05937 103.37292Q76.18437 104.18542 76.62187 104.59167Q77.075 104.99792 77.71562 104.99792Q78.46562 104.99792 78.99687 104.41979Q79.52812 103.84167 79.52812 102.90417Q79.52812 101.99792 79.0125 101.48229Q78.5125 100.95104 77.68437 100.95104Q77.18437 100.95104 76.7625 101.18542Q76.35625 101.41979 76.12187 101.77917L75.1375 101.65417L75.96562 97.24792L80.24687 97.24792L80.24687 98.24792L76.80937 98.24792L76.35625 100.56042Q77.12187 100.01354 77.96562 100.01354Q79.09062 100.01354 79.85625 100.79479Q80.6375 101.57604 80.6375 102.81042Q80.6375 103.96667 79.96562 104.82604Q79.1375 105.85729 77.71562 105.85729Q76.54375 105.85729 75.79375 105.20104Q75.05937 104.54479 74.95 103.46667Z" fill-rule="nonzero"/><path fill="#000000" d="M96.84886 404.53436L96.84886 405.55L91.16136 405.55Q91.16136 405.175 91.28636 404.8156Q91.50511 404.2375 91.97386 403.675Q92.45824 403.1125 93.36449 402.3781Q94.77074 401.22186 95.25511 400.55Q95.75511 399.8781 95.75511 399.28436Q95.75511 398.65936 95.30199 398.2375Q94.84886 397.8 94.13011 397.8Q93.36449 397.8 92.91136 398.2531Q92.45824 398.70624 92.44261 399.51874L91.36449 399.40936Q91.47386 398.1906 92.19261 397.5656Q92.92699 396.925 94.16136 396.925Q95.39574 396.925 96.11449 397.6125Q96.83324 398.3 96.83324 399.3156Q96.83324 399.83124 96.61449 400.33124Q96.41136 400.8156 95.91136 401.3781Q95.42699 401.925 94.30199 402.8781Q93.34886 403.675 93.06761 403.97186Q92.80199 404.2531 92.63011 404.53436L96.84886 404.53436Z" fill-rule="nonzero"/><path fill="#000000" d="M275.93298 405.55L275.93298 403.4875L272.21423 403.4875L272.21423 402.51874L276.1361 396.95624L276.99548 396.95624L276.99548 402.51874L278.15173 402.51874L278.15173 403.4875L276.99548 403.4875L276.99548 405.55L275.93298 405.55ZM275.93298 402.51874L275.93298 398.65936L273.24548 402.51874L275.93298 402.51874Z" fill-rule="nonzero"/><path fill="#000000" d="M459.28275 399.0656L458.23587 399.14374Q458.09525 398.51874 457.84525 398.2375Q457.40775 397.78436 456.78275 397.78436Q456.28275 397.78436 455.89212 398.0656Q455.40775 398.4406 455.11087 399.14374Q454.82962 399.83124 454.814 401.1125Q455.189 400.53436 455.73587 400.2531Q456.29837 399.97186 456.90775 399.97186Q457.95462 399.97186 458.689 400.7531Q459.439 401.53436 459.439 402.7531Q459.439 403.5656 459.07962 404.26874Q458.73587 404.95624 458.1265 405.33124Q457.51712 405.6906 456.7515 405.6906Q455.42337 405.6906 454.59525 404.72186Q453.76712 403.7531 453.76712 401.53436Q453.76712 399.03436 454.689 397.90936Q455.48587 396.925 456.84525 396.925Q457.86087 396.925 458.5015 397.5031Q459.15775 398.0656 459.28275 399.0656ZM454.98587 402.76874Q454.98587 403.3156 455.20462 403.8156Q455.439 404.3 455.84525 404.5656Q456.26712 404.83124 456.73587 404.83124Q457.39212 404.83124 457.8765 404.3Q458.36087 403.7531 458.36087 402.83124Q458.36087 401.9406 457.8765 401.425Q457.40775 400.90936 456.689 400.90936Q455.97025 400.90936 455.47025 401.425Q454.98587 401.9406 454.98587 402.76874Z" fill-rule="nonzero"/><path fill="#000000" d="M636.695 400.89374Q636.03876 400.64374 635.71063 400.20624Q635.39813 399.7531 635.39813 399.14374Q635.39813 398.20624 636.07 397.5656Q636.7575 396.925 637.8669 396.925Q638.9919 396.925 639.6794 397.58124Q640.3669 398.2375 640.3669 399.175Q640.3669 399.76874 640.0544 400.20624Q639.7419 400.64374 639.10126 400.89374Q639.89813 401.14374 640.3044 401.72186Q640.71063 402.3 640.71063 403.09686Q640.71063 404.1906 639.9294 404.9406Q639.16376 405.6906 637.8825 405.6906Q636.6169 405.6906 635.83563 404.9406Q635.0544 404.1906 635.0544 403.0656Q635.0544 402.22186 635.47626 401.65936Q635.91376 401.09686 636.695 400.89374ZM636.47626 399.09686Q636.47626 399.70624 636.8669 400.09686Q637.27313 400.4875 637.89813 400.4875Q638.5075 400.4875 638.89813 400.1125Q639.28876 399.72186 639.28876 399.15936Q639.28876 398.58124 638.8825 398.1906Q638.47626 397.78436 637.8825 397.78436Q637.27313 397.78436 636.8669 398.175Q636.47626 398.5656 636.47626 399.09686ZM636.14813 403.0656Q636.14813 403.51874 636.35126 403.9406Q636.57 404.3625 636.9919 404.59686Q637.41376 404.83124 637.89813 404.83124Q638.64813 404.83124 639.1325 404.34686Q639.6325 403.8625 639.6325 403.1125Q639.6325 402.34686 639.1325 401.84686Q638.6325 401.34686 637.8669 401.34686Q637.1169 401.34686 636.6325 401.84686Q636.14813 402.33124 636.14813 403.0656Z" fill-rule="nonzero"/><path fill="#ff0000" d="M277.5 71.083336C277.5 74.39704 274.81372 77.083336 271.5 77.083336C268.18628 77.083336 265.5 74.39704 265.5 71.083336C265.5 67.76962 268.18628 65.083336 271.5 65.083336C274.81372 65.083336 277.5 67.76962 277.5 71.083336Z" fill-rule="nonzero"/><path fill="#1a1a1a" d="M286.57812 76.083336L286.57812 66.06771L290.35938 66.06771Q291.35938 66.06771 291.89062 66.16146Q292.625 66.28646 293.125 66.63021Q293.625 66.97396 293.92188 67.59896Q294.23438 68.208336 294.23438 68.958336Q294.23438 70.239586 293.42188 71.13021Q292.60938 72.00521 290.48438 72.00521L287.90625 72.00521L287.90625 76.083336L286.57812 76.083336ZM287.90625 70.833336L290.5 70.833336Q291.78125 70.833336 292.3125 70.34896Q292.85938 69.864586 292.85938 69.00521Q292.85938 68.364586 292.54688 67.927086Q292.23438 67.47396 291.70312 67.333336Q291.375 67.239586 290.46875 67.239586L287.90625 67.239586L287.90625 70.833336ZM294.96875 72.458336Q294.96875 70.44271 296.09375 69.458336Q297.01562 68.66146 298.375 68.66146Q299.85938 68.66146 300.8125 69.645836Q301.76562 70.614586 301.76562 72.34896Q301.76562 73.75521 301.34375 74.56771Q300.92188 75.364586 300.10938 75.81771Q299.3125 76.25521 298.375 76.25521Q296.84375 76.25521 295.90625 75.270836Q294.96875 74.28646 294.96875 72.458336ZM296.23438 72.458336Q296.23438 73.84896 296.84375 74.552086Q297.45312 75.239586 298.375 75.239586Q299.28125 75.239586 299.89062 74.53646Q300.5 73.833336 300.5 72.41146Q300.5 71.06771 299.89062 70.38021Q299.28125 69.677086 298.375 69.677086Q297.45312 69.677086 296.84375 70.364586Q296.23438 71.052086 296.23438 72.458336ZM304.76562 76.083336L302.54688 68.81771L303.8125 68.81771L304.96875 73.020836L305.40625 74.56771Q305.42188 74.458336 305.78125 73.06771L306.9375 68.81771L308.1875 68.81771L309.28125 73.03646L309.64062 74.427086L310.0625 73.020836L311.3125 68.81771L312.5 68.81771L310.23438 76.083336L308.95312 76.083336L307.79688 71.739586L307.51562 70.50521L306.04688 76.083336L304.76562 76.083336ZM317.39062 73.739586L318.67188 73.895836Q318.35938 75.020836 317.54688 75.645836Q316.73438 76.25521 315.46875 76.25521Q313.875 76.25521 312.9375 75.270836Q312.01562 74.28646 312.01562 72.520836Q312.01562 70.677086 312.95312 69.677086Q313.90625 68.66146 315.40625 68.66146Q316.85938 68.66146 317.78125 69.66146Q318.70312 70.645836 318.70312 72.44271Q318.70312 72.552086 318.70312 72.770836L313.28125 72.770836Q313.35938 73.958336 313.95312 74.59896Q314.5625 75.239586 315.48438 75.239586Q316.15625 75.239586 316.625 74.88021Q317.10938 74.520836 317.39062 73.739586ZM313.35938 71.75521L317.40625 71.75521Q317.32812 70.833336 316.9375 70.38021Q316.35938 69.677086 315.42188 69.677086Q314.5625 69.677086 313.98438 70.239586Q313.42188 70.802086 313.35938 71.75521ZM320.40625 76.083336L320.40625 68.81771L321.51562 68.81771L321.51562 69.927086Q321.9375 69.145836 322.29688 68.91146Q322.65625 68.66146 323.09375 68.66146Q323.71875 68.66146 324.35938 69.052086L323.9375 70.19271Q323.48438 69.927086 323.03125 69.927086Q322.625 69.927086 322.29688 70.177086Q321.98438 70.41146 321.84375 70.84896Q321.64062 71.50521 321.64062 72.28646L321.64062 76.083336L320.40625 76.083336ZM324.9375 73.91146L326.14062 73.72396Q326.25 74.458336 326.71875 74.84896Q327.1875 75.239586 328.03125 75.239586Q328.875 75.239586 329.28125 74.895836Q329.70312 74.552086 329.70312 74.083336Q329.70312 73.66146 329.32812 73.427086Q329.07812 73.25521 328.07812 73.00521Q326.71875 72.66146 326.1875 72.41146Q325.67188 72.16146 325.40625 71.72396Q325.14062 71.28646 325.14062 70.75521Q325.14062 70.270836 325.35938 69.864586Q325.57812 69.44271 325.96875 69.16146Q326.25 68.958336 326.73438 68.81771Q327.23438 68.66146 327.8125 68.66146Q328.65625 68.66146 329.29688 68.91146Q329.95312 69.145836 330.26562 69.56771Q330.57812 69.989586 330.6875 70.69271L329.48438 70.864586Q329.40625 70.302086 329.0 69.989586Q328.60938 69.677086 327.89062 69.677086Q327.04688 69.677086 326.6875 69.958336Q326.32812 70.22396 326.32812 70.614586Q326.32812 70.84896 326.46875 71.03646Q326.625 71.239586 326.95312 71.364586Q327.125 71.427086 328.03125 71.677086Q329.34375 72.03646 329.85938 72.25521Q330.375 72.47396 330.65625 72.895836Q330.95312 73.31771 330.95312 73.94271Q330.95312 74.56771 330.59375 75.114586Q330.25 75.645836 329.5625 75.958336Q328.89062 76.25521 328.03125 76.25521Q326.625 76.25521 325.875 75.66146Q325.14062 75.06771 324.9375 73.91146ZM335.96875 72.458336Q335.96875 70.44271 337.09375 69.458336Q338.01562 68.66146 339.375 68.66146Q340.85938 68.66146 341.8125 69.645836Q342.76562 70.614586 342.76562 72.34896Q342.76562 73.75521 342.34375 74.56771Q341.92188 75.364586 341.10938 75.81771Q340.3125 76.25521 339.375 76.25521Q337.84375 76.25521 336.90625 75.270836Q335.96875 74.28646 335.96875 72.458336ZM337.23438 72.458336Q337.23438 73.84896 337.84375 74.552086Q338.45312 75.239586 339.375 75.239586Q340.28125 75.239586 340.89062 74.53646Q341.5 73.833336 341.5 72.41146Q341.5 71.06771 340.89062 70.38021Q340.28125 69.677086 339.375 69.677086Q338.45312 69.677086 337.84375 70.364586Q337.23438 71.052086 337.23438 72.458336ZM344.71875 76.083336L344.71875 69.78646L343.625 69.78646L343.625 68.81771L344.71875 68.81771L344.71875 68.052086Q344.71875 67.31771 344.84375 66.958336Q345.03125 66.489586 345.46875 66.19271Q345.92188 65.895836 346.73438 65.895836Q347.25 65.895836 347.875 66.020836L347.6875 67.083336Q347.3125 67.020836 346.96875 67.020836Q346.40625 67.020836 346.17188 67.25521Q345.9375 67.489586 345.9375 68.145836L345.9375 68.81771L347.35938 68.81771L347.35938 69.78646L345.9375 69.78646L345.9375 76.083336L344.71875 76.083336ZM358.54688 74.895836L358.54688 76.083336L351.92188 76.083336Q351.90625 75.645836 352.0625 75.22396Q352.32812 74.552086 352.875 73.895836Q353.4375 73.239586 354.48438 72.38021Q356.125 71.03646 356.6875 70.25521Q357.26562 69.47396 357.26562 68.770836Q357.26562 68.03646 356.73438 67.53646Q356.21875 67.03646 355.39062 67.03646Q354.5 67.03646 353.95312 67.56771Q353.42188 68.09896 353.42188 69.052086L352.15625 68.91146Q352.28125 67.50521 353.125 66.770836Q353.98438 66.020836 355.40625 66.020836Q356.85938 66.020836 357.6875 66.81771Q358.53125 67.614586 358.53125 68.802086Q358.53125 69.41146 358.28125 69.989586Q358.04688 70.56771 357.46875 71.208336Q356.90625 71.84896 355.57812 72.97396Q354.46875 73.895836 354.15625 74.239586Q353.84375 74.56771 353.64062 74.895836L358.54688 74.895836Z" fill-rule="nonzero"/><path fill="#4285f4" d="M387.5 71.083336C387.5 74.39704 384.81372 77.083336 381.5 77.083336C378.18628 77.083336 375.5 74.39704 375.5 71.083336C375.5 67.76962 378.18628 65.083336 381.5 65.083336C384.81372 65.083336 387.5 67.76962 387.5 71.083336Z" fill-rule="nonzero"/><path fill="#1a1a1a" d="M396.5625 76.083336L396.5625 66.06771L397.92188 66.06771L403.1875 73.927086L403.1875 66.06771L404.46875 66.06771L404.46875 76.083336L403.10938 76.083336L397.84375 68.208336L397.84375 76.083336L396.5625 76.083336ZM404.96875 72.458336Q404.96875 70.44271 406.09375 69.458336Q407.01562 68.66146 408.375 68.66146Q409.85938 68.66146 410.8125 69.645836Q411.76562 70.614586 411.76562 72.34896Q411.76562 73.75521 411.34375 74.56771Q410.92188 75.364586 410.10938 75.81771Q409.3125 76.25521 408.375 76.25521Q406.84375 76.25521 405.90625 75.270836Q404.96875 74.28646 404.96875 72.458336ZM406.23438 72.458336Q406.23438 73.84896 406.84375 74.552086Q407.45312 75.239586 408.375 75.239586Q409.28125 75.239586 409.89062 74.53646Q410.5 73.833336 410.5 72.41146Q410.5 71.06771 409.89062 70.38021Q409.28125 69.677086 408.375 69.677086Q407.45312 69.677086 406.84375 70.364586Q406.23438 71.052086 406.23438 72.458336ZM416.10938 74.989586L416.28125 76.06771Q415.76562 76.177086 415.35938 76.177086Q414.6875 76.177086 414.3125 75.97396Q413.95312 75.75521 413.79688 75.41146Q413.65625 75.06771 413.65625 73.958336L413.65625 69.78646L412.75 69.78646L412.75 68.81771L413.65625 68.81771L413.65625 67.020836L414.875 66.28646L414.875 68.81771L416.10938 68.81771L416.10938 69.78646L414.875 69.78646L414.875 74.020836Q414.875 74.552086 414.9375 74.708336Q415.0 74.84896 415.14062 74.94271Q415.29688 75.03646 415.5625 75.03646Q415.78125 75.03646 416.10938 74.989586ZM421.42188 78.864586L421.42188 68.81771L422.54688 68.81771L422.54688 69.770836Q422.9375 69.208336 423.4375 68.94271Q423.9375 68.66146 424.65625 68.66146Q425.57812 68.66146 426.28125 69.145836Q427.0 69.614586 427.35938 70.489586Q427.71875 71.364586 427.71875 72.395836Q427.71875 73.50521 427.3125 74.41146Q426.92188 75.302086 426.15625 75.78646Q425.40625 76.25521 424.5625 76.25521Q423.95312 76.25521 423.45312 75.989586Q422.96875 75.72396 422.65625 75.333336L422.65625 78.864586L421.42188 78.864586ZM422.53125 72.489586Q422.53125 73.895836 423.09375 74.56771Q423.67188 75.239586 424.48438 75.239586Q425.29688 75.239586 425.875 74.552086Q426.46875 73.84896 426.46875 72.395836Q426.46875 71.00521 425.89062 70.31771Q425.32812 69.63021 424.53125 69.63021Q423.75 69.63021 423.14062 70.364586Q422.53125 71.09896 422.53125 72.489586ZM428.96875 72.458336Q428.96875 70.44271 430.09375 69.458336Q431.01562 68.66146 432.375 68.66146Q433.85938 68.66146 434.8125 69.645836Q435.76562 70.614586 435.76562 72.34896Q435.76562 73.75521 435.34375 74.56771Q434.92188 75.364586 434.10938 75.81771Q433.3125 76.25521 432.375 76.25521Q430.84375 76.25521 429.90625 75.270836Q428.96875 74.28646 428.96875 72.458336ZM430.23438 72.458336Q430.23438 73.84896 430.84375 74.552086Q431.45312 75.239586 432.375 75.239586Q433.28125 75.239586 433.89062 74.53646Q434.5 73.833336 434.5 72.41146Q434.5 71.06771 433.89062 70.38021Q433.28125 69.677086 432.375 69.677086Q431.45312 69.677086 430.84375 70.364586Q430.23438 71.052086 430.23438 72.458336ZM438.76562 76.083336L436.54688 68.81771L437.8125 68.81771L438.96875 73.020836L439.40625 74.56771Q439.42188 74.458336 439.78125 73.06771L440.9375 68.81771L442.1875 68.81771L443.28125 73.03646L443.64062 74.427086L444.0625 73.020836L445.3125 68.81771L446.5 68.81771L444.23438 76.083336L442.95312 76.083336L441.79688 71.739586L441.51562 70.50521L440.04688 76.083336L438.76562 76.083336ZM451.39062 73.739586L452.67188 73.895836Q452.35938 75.020836 451.54688 75.645836Q450.73438 76.25521 449.46875 76.25521Q447.875 76.25521 446.9375 75.270836Q446.01562 74.28646 446.01562 72.520836Q446.01562 70.677086 446.95312 69.677086Q447.90625 68.66146 449.40625 68.66146Q450.85938 68.66146 451.78125 69.66146Q452.70312 70.645836 452.70312 72.44271Q452.70312 72.552086 452.70312 72.770836L447.28125 72.770836Q447.35938 73.958336 447.95312 74.59896Q448.5625 75.239586 449.48438 75.239586Q450.15625 75.239586 450.625 74.88021Q451.10938 74.520836 451.39062 73.739586ZM447.35938 71.75521L451.40625 71.75521Q451.32812 70.833336 450.9375 70.38021Q450.35938 69.677086 449.42188 69.677086Q448.5625 69.677086 447.98438 70.239586Q447.42188 70.802086 447.35938 71.75521ZM454.40625 76.083336L454.40625 68.81771L455.51562 68.81771L455.51562 69.927086Q455.9375 69.145836 456.29688 68.91146Q456.65625 68.66146 457.09375 68.66146Q457.71875 68.66146 458.35938 69.052086L457.9375 70.19271Q457.48438 69.927086 457.03125 69.927086Q456.625 69.927086 456.29688 70.177086Q455.98438 70.41146 455.84375 70.84896Q455.64062 71.50521 455.64062 72.28646L455.64062 76.083336L454.40625 76.083336ZM458.9375 73.91146L460.14062 73.72396Q460.25 74.458336 460.71875 74.84896Q461.1875 75.239586 462.03125 75.239586Q462.875 75.239586 463.28125 74.895836Q463.70312 74.552086 463.70312 74.083336Q463.70312 73.66146 463.32812 73.427086Q463.07812 73.25521 462.07812 73.00521Q460.71875 72.66146 460.1875 72.41146Q459.67188 72.16146 459.40625 71.72396Q459.14062 71.28646 459.14062 70.75521Q459.14062 70.270836 459.35938 69.864586Q459.57812 69.44271 459.96875 69.16146Q460.25 68.958336 460.73438 68.81771Q461.23438 68.66146 461.8125 68.66146Q462.65625 68.66146 463.29688 68.91146Q463.95312 69.145836 464.26562 69.56771Q464.57812 69.989586 464.6875 70.69271L463.48438 70.864586Q463.40625 70.302086 463.0 69.989586Q462.60938 69.677086 461.89062 69.677086Q461.04688 69.677086 460.6875 69.958336Q460.32812 70.22396 460.32812 70.614586Q460.32812 70.84896 460.46875 71.03646Q460.625 71.239586 460.95312 71.364586Q461.125 71.427086 462.03125 71.677086Q463.34375 72.03646 463.85938 72.25521Q464.375 72.47396 464.65625 72.895836Q464.95312 73.31771 464.95312 73.94271Q464.95312 74.56771 464.59375 75.114586Q464.25 75.645836 463.5625 75.958336Q462.89062 76.25521 462.03125 76.25521Q460.625 76.25521 459.875 75.66146Q459.14062 75.06771 458.9375 73.91146ZM469.96875 72.458336Q469.96875 70.44271 471.09375 69.458336Q472.01562 68.66146 473.375 68.66146Q474.85938 68.66146 475.8125 69.645836Q476.76562 70.614586 476.76562 72.34896Q476.76562 73.75521 476.34375 74.56771Q475.92188 75.364586 475.10938 75.81771Q474.3125 76.25521 473.375 76.25521Q471.84375 76.25521 470.90625 75.270836Q469.96875 74.28646 469.96875 72.458336ZM471.23438 72.458336Q471.23438 73.84896 471.84375 74.552086Q472.45312 75.239586 473.375 75.239586Q474.28125 75.239586 474.89062 74.53646Q475.5 73.833336 475.5 72.41146Q475.5 71.06771 474.89062 70.38021Q474.28125 69.677086 473.375 69.677086Q472.45312 69.677086 471.84375 70.364586Q471.23438 71.052086 471.23438 72.458336ZM478.71875 76.083336L478.71875 69.78646L477.625 69.78646L477.625 68.81771L478.71875 68.81771L478.71875 68.052086Q478.71875 67.31771 478.84375 66.958336Q479.03125 66.489586 479.46875 66.19271Q479.92188 65.895836 480.73438 65.895836Q481.25 65.895836 481.875 66.020836L481.6875 67.083336Q481.3125 67.020836 480.96875 67.020836Q480.40625 67.020836 480.17188 67.25521Q479.9375 67.489586 479.9375 68.145836L479.9375 68.81771L481.35938 68.81771L481.35938 69.78646L479.9375 69.78646L479.9375 76.083336L478.71875 76.083336ZM492.54688 74.895836L492.54688 76.083336L485.92188 76.083336Q485.90625 75.645836 486.0625 75.22396Q486.32812 74.552086 486.875 73.895836Q487.4375 73.239586 488.48438 72.38021Q490.125 71.03646 490.6875 70.25521Q491.26562 69.47396 491.26562 68.770836Q491.26562 68.03646 490.73438 67.53646Q490.21875 67.03646 489.39062 67.03646Q488.5 67.03646 487.95312 67.56771Q487.42188 68.09896 487.42188 69.052086L486.15625 68.91146Q486.28125 67.50521 487.125 66.770836Q487.98438 66.020836 489.40625 66.020836Q490.85938 66.020836 491.6875 66.81771Q492.53125 67.614586 492.53125 68.802086Q492.53125 69.41146 492.28125 69.989586Q492.04688 70.56771 491.46875 71.208336Q490.90625 71.84896 489.57812 72.97396Q488.46875 73.895836 488.15625 74.239586Q487.84375 74.56771 487.64062 74.895836L492.54688 74.895836Z" fill-rule="nonzero"/><path fill="#757575" d="M24.121876 37.2625Q24.121876 34.3875 25.715626 32.996876Q27.059376 31.840626 28.98125 31.840626Q31.121876 31.840626 32.465626 33.246876Q33.825 34.653126 33.825 37.121876Q33.825 39.121876 33.23125 40.278126Q32.6375 41.41875 31.48125 42.059376Q30.340626 42.684376 28.98125 42.684376Q26.79375 42.684376 25.45 41.29375Q24.121876 39.8875 24.121876 37.2625ZM25.91875 37.2625Q25.91875 39.2625 26.778126 40.246876Q27.653126 41.23125 28.98125 41.23125Q30.29375 41.23125 31.153126 40.246876Q32.028126 39.246876 32.028126 37.2Q32.028126 35.278126 31.153126 34.29375Q30.278126 33.29375 28.98125 33.29375Q27.653126 33.29375 26.778126 34.29375Q25.91875 35.278126 25.91875 37.2625ZM35.7625 46.41875L35.7625 32.075L37.371876 32.075L37.371876 33.41875Q37.934376 32.6375 38.6375 32.246876Q39.35625 31.840626 40.371876 31.840626Q41.7 31.840626 42.715626 32.528126Q43.73125 33.215626 44.246876 34.465626Q44.778126 35.7 44.778126 37.184376Q44.778126 38.778126 44.2 40.059376Q43.6375 41.325 42.54375 42.0125Q41.45 42.684376 40.246876 42.684376Q39.371876 42.684376 38.66875 42.309376Q37.98125 41.934376 37.528126 41.371876L37.528126 46.41875L35.7625 46.41875ZM37.35625 37.325Q37.35625 39.325 38.16875 40.278126Q38.98125 41.23125 40.1375 41.23125Q41.309376 41.23125 42.1375 40.246876Q42.98125 39.2625 42.98125 37.16875Q42.98125 35.2 42.153126 34.215626Q41.340626 33.215626 40.215626 33.215626Q39.090626 33.215626 38.215626 34.278126Q37.35625 35.325 37.35625 37.325ZM50.60625 40.871876L50.85625 42.434376Q50.121876 42.590626 49.528126 42.590626Q48.575 42.590626 48.04375 42.29375Q47.528126 41.98125 47.309376 41.496876Q47.090626 40.996876 47.090626 39.41875L47.090626 33.45L45.809376 33.45L45.809376 32.075L47.090626 32.075L47.090626 29.5125L48.840626 28.45L48.840626 32.075L50.60625 32.075L50.60625 33.45L48.840626 33.45L48.840626 39.5125Q48.840626 40.2625 48.934376 40.48125Q49.028126 40.684376 49.23125 40.825Q49.45 40.95 49.840626 40.95Q50.121876 40.95 50.60625 40.871876ZM52.778126 30.153126L52.778126 28.1375L54.54375 28.1375L54.54375 30.153126L52.778126 30.153126ZM52.778126 42.45L52.778126 32.075L54.54375 32.075L54.54375 42.45L52.778126 42.45ZM56.121876 37.2625Q56.121876 34.3875 57.715626 32.996876Q59.059376 31.840626 60.98125 31.840626Q63.121876 31.840626 64.46562 33.246876Q65.825 34.653126 65.825 37.121876Q65.825 39.121876 65.23125 40.278126Q64.6375 41.41875 63.48125 42.059376Q62.340626 42.684376 60.98125 42.684376Q58.79375 42.684376 57.45 41.29375Q56.121876 39.8875 56.121876 37.2625ZM57.91875 37.2625Q57.91875 39.2625 58.778126 40.246876Q59.653126 41.23125 60.98125 41.23125Q62.29375 41.23125 63.153126 40.246876Q64.02812 39.246876 64.02812 37.2Q64.02812 35.278126 63.153126 34.29375Q62.278126 33.29375 60.98125 33.29375Q59.653126 33.29375 58.778126 34.29375Q57.91875 35.278126 57.91875 37.2625ZM67.7625 42.45L67.7625 32.075L69.35625 32.075L69.35625 33.559376Q70.49687 31.840626 72.65312 31.840626Q73.59062 31.840626 74.37187 32.184376Q75.16875 32.5125 75.55937 33.059376Q75.95 33.60625 76.10625 34.35625Q76.2 34.85625 76.2 36.075L76.2 42.45L74.43437 42.45L74.43437 36.1375Q74.43437 35.059376 74.23125 34.528126Q74.02812 33.996876 73.49687 33.684376Q72.98125 33.371876 72.27812 33.371876Q71.15312 33.371876 70.34062 34.090626Q69.52812 34.79375 69.52812 36.778126L69.52812 42.45L67.7625 42.45ZM77.05937 39.35625L78.80937 39.075Q78.95 40.121876 79.62187 40.684376Q80.29375 41.23125 81.49687 41.23125Q82.7 41.23125 83.27812 40.746876Q83.87187 40.246876 83.87187 39.590626Q83.87187 38.996876 83.35625 38.653126Q82.99687 38.41875 81.55937 38.059376Q79.62187 37.559376 78.87187 37.215626Q78.1375 36.85625 77.74687 36.23125Q77.35625 35.590626 77.35625 34.825Q77.35625 34.1375 77.66875 33.54375Q77.99687 32.95 78.54375 32.559376Q78.95 32.2625 79.65312 32.059376Q80.37187 31.840626 81.18437 31.840626Q82.40312 31.840626 83.325 32.2Q84.24687 32.54375 84.68437 33.153126Q85.12187 33.746876 85.29375 34.746876L83.575 34.98125Q83.45 34.184376 82.8875 33.746876Q82.325 33.29375 81.30937 33.29375Q80.09062 33.29375 79.575 33.7Q79.05937 34.090626 79.05937 34.621876Q79.05937 34.965626 79.27812 35.246876Q79.48125 35.528126 79.95 35.715626Q80.21562 35.809376 81.49687 36.153126Q83.37187 36.653126 84.10625 36.98125Q84.84062 37.29375 85.2625 37.903126Q85.68437 38.496876 85.68437 39.403126Q85.68437 40.278126 85.16875 41.059376Q84.65312 41.840626 83.68437 42.2625Q82.71562 42.684376 81.49687 42.684376Q79.48125 42.684376 78.41875 41.840626Q77.35625 40.996876 77.05937 39.35625ZM103.0125 34.028126L93.55937 34.028126L93.55937 32.3875L103.0125 32.3875L103.0125 34.028126ZM103.0125 38.371876L93.55937 38.371876L93.55937 36.73125L103.0125 36.73125L103.0125 38.371876ZM120.5125 40.7625L120.5125 42.45L111.05937 42.45Q111.04375 41.809376 111.2625 41.23125Q111.62187 40.2625 112.41875 39.325Q113.21562 38.3875 114.71562 37.153126Q117.05937 35.246876 117.87187 34.1375Q118.7 33.0125 118.7 32.0125Q118.7 30.965626 117.95 30.246876Q117.2 29.528126 115.99687 29.528126Q114.73125 29.528126 113.96562 30.29375Q113.2 31.059376 113.2 32.403126L111.3875 32.215626Q111.575 30.2 112.77812 29.1375Q113.99687 28.075 116.04375 28.075Q118.09062 28.075 119.29375 29.215626Q120.49687 30.35625 120.49687 32.04375Q120.49687 32.903126 120.1375 33.746876Q119.79375 34.575 118.98125 35.496876Q118.16875 36.403126 116.27812 38.0125Q114.68437 39.340626 114.23125 39.809376Q113.79375 40.278126 113.49687 40.7625L120.5125 40.7625ZM123.23125 42.45L123.23125 40.45L125.23125 40.45L125.23125 42.45Q125.23125 43.559376 124.84062 44.23125Q124.45 44.91875 123.60625 45.278126L123.10625 44.528126Q123.66875 44.29375 123.93437 43.809376Q124.2 43.340626 124.23125 42.45L123.23125 42.45ZM141.54375 41.16875Q140.55937 41.996876 139.65312 42.340626Q138.74687 42.684376 137.71562 42.684376Q136.0125 42.684376 135.09062 41.85625Q134.16875 41.0125 134.16875 39.715626Q134.16875 38.95 134.5125 38.325Q134.87187 37.7 135.43437 37.325Q135.99687 36.934376 136.7 36.73125Q137.21562 36.60625 138.2625 36.465626Q140.3875 36.215626 141.3875 35.871876Q141.40312 35.5125 141.40312 35.403126Q141.40312 34.340626 140.90312 33.8875Q140.23125 33.29375 138.90312 33.29375Q137.65312 33.29375 137.05937 33.73125Q136.48125 34.16875 136.2 35.278126L134.48125 35.04375Q134.71562 33.934376 135.24687 33.2625Q135.77812 32.575 136.79375 32.215626Q137.80937 31.840626 139.15312 31.840626Q140.48125 31.840626 141.30937 32.153126Q142.1375 32.465626 142.52812 32.95Q142.91875 33.41875 143.075 34.1375Q143.16875 34.590626 143.16875 35.7625L143.16875 38.10625Q143.16875 40.559376 143.27812 41.215626Q143.3875 41.85625 143.73125 42.45L141.8875 42.45Q141.62187 41.903126 141.54375 41.16875ZM141.3875 37.246876Q140.43437 37.6375 138.5125 37.903126Q137.43437 38.059376 136.98125 38.2625Q136.54375 38.45 136.29375 38.825Q136.04375 39.2 136.04375 39.66875Q136.04375 40.371876 136.575 40.840626Q137.10625 41.309376 138.1375 41.309376Q139.15312 41.309376 139.93437 40.871876Q140.73125 40.41875 141.10625 39.653126Q141.3875 39.04375 141.3875 37.8875L141.3875 37.246876ZM161.0125 34.028126L151.55937 34.028126L151.55937 32.3875L161.0125 32.3875L161.0125 34.028126ZM161.0125 38.371876L151.55937 38.371876L151.55937 36.73125L161.0125 36.73125L161.0125 38.371876ZM175.90312 42.45L174.1375 42.45L174.1375 31.246876Q173.5125 31.85625 172.48125 32.465626Q171.45 33.059376 170.62187 33.371876L170.62187 31.66875Q172.10625 30.98125 173.2 29.996876Q174.30937 28.996876 174.7625 28.075L175.90312 28.075L175.90312 42.45Z" fill-rule="nonzero"/></svg>