<?xml version="1.0" encoding="UTF-8" standalone="no"?>
<!DOCTYPE svg PUBLIC "-//W3C//DTD SVG 1.1//EN" "http://www.w3.org/Graphics/SVG/1.1/DTD/svg11.dtd">
<svg width="520" height="480" viewBox="0 0 520 480" version="1.1" xmlns="http://www.w3.org/2000/svg" style="fill-rule:evenodd;clip-rule:evenodd;stroke-linecap:round;stroke-linejoin:round;stroke-miterlimit:1.5;">
    <rect x="0" y="0" width="520" height="480" style="fill:#fff;"/>
    <circle cx="211.35" cy="66.332" r="4.988"/>
    <circle cx="325.1" cy="31.133" r="4.988"/>
    <circle cx="431.933" cy="87.695" r="4.988"/>
    <circle cx="466.496" cy="204.774" r="4.988"/>
    <circle cx="406.567" cy="310.904" r="4.988"/>
    <circle cx="187.371" cy="282.92" r="4.988"/>
    <circle cx="155.43" cy="169.864" r="4.988"/>
    <circle cx="142.175" cy="133.106" r="4.988"/>
    <circle cx="97.801" cy="198.908" r="4.988"/>
    <circle cx="58.794" cy="294.867" r="4.988"/>
    <circle cx="33.908" cy="391.197" r="4.988"/>
    <path d="M187.257,282.776C166.726,256.298 154.5,223.066 154.5,187C154.5,100.625 224.625,30.5 311,30.5C397.375,30.5 467.5,100.625 467.5,187C467.5,237.326 443.694,282.135 406.739,310.772" style="fill:none;stroke:#000;stroke-width:2.67px;"/>
    <path d="M406.739,310.772C380.268,331.285 347.049,343.5 311,343.5C260.691,343.5 215.895,319.71 187.257,282.776" style="fill:none;stroke:#000;stroke-width:2.67px;stroke-dasharray:0,11.2,0,0;"/>
    <path d="M17.341,470.859C40.781,352.748 60.455,268.478 97.827,198.868" style="fill:none;stroke:#000;stroke-width:2.67px;"/>
    <path d="M97.827,198.868C110.365,175.515 124.895,153.812 142.227,133.034" style="fill:none;stroke:#000;stroke-width:2.67px;stroke-dasharray:0,11.2,0,0;"/>
    <path d="M142.227,133.034C162.245,109.036 186.002,86.272 214.747,63.628" style="fill:none;stroke:#000;stroke-width:2.67px;"/>
    <g transform="matrix(1,0,0,1,-12.673,3.22918)">
        <path d="M66.642,385.662C67.736,383.917 68.434,382.862 68.738,382.498C69.181,381.951 69.591,381.58 69.969,381.385C70.346,381.189 70.722,381.092 71.095,381.092C71.572,381.092 71.954,381.228 72.241,381.502C72.527,381.775 72.67,382.142 72.67,382.602C72.67,383.045 72.555,383.396 72.325,383.657C72.095,383.917 71.802,384.047 71.446,384.047C71.012,384.047 70.678,383.796 70.444,383.292C70.288,382.971 70.114,382.81 69.923,382.81C69.723,382.81 69.519,382.923 69.311,383.149C69.103,383.375 68.304,384.594 66.915,386.808L67.84,390.935C67.97,391.534 68.115,391.925 68.276,392.107C68.436,392.289 68.634,392.381 68.868,392.381C69.554,392.381 70.435,391.521 71.512,389.803L72.15,390.167C71.377,391.556 70.615,392.548 69.864,393.142C69.114,393.737 68.46,394.034 67.905,394.034C67.306,394.034 66.861,393.824 66.57,393.403C66.279,392.982 65.891,391.591 65.405,389.23C64.233,391.339 63.304,392.715 62.618,393.357C62.132,393.809 61.559,394.034 60.9,394.034C60.379,394.034 59.958,393.876 59.637,393.559C59.315,393.242 59.155,392.845 59.155,392.368C59.155,391.986 59.276,391.667 59.519,391.411C59.762,391.155 60.058,391.026 60.405,391.026C60.665,391.026 60.884,391.087 61.062,391.209C61.24,391.33 61.39,391.552 61.512,391.873C61.616,392.142 61.7,392.309 61.765,392.374C61.831,392.439 61.915,392.472 62.019,392.472C62.21,392.472 62.397,392.363 62.579,392.146C62.97,391.686 63.816,390.345 65.118,388.123L64.181,383.826C64.111,383.496 64.003,383.251 63.855,383.09C63.708,382.93 63.517,382.849 63.282,382.849C62.623,382.849 61.946,383.678 61.251,385.336L60.587,384.946C61.195,383.461 61.792,382.448 62.377,381.905C62.963,381.363 63.556,381.092 64.155,381.092C64.719,381.092 65.157,381.311 65.47,381.749C65.782,382.187 66.173,383.492 66.642,385.662Z" style="fill-rule:nonzero;"/>
        <path d="M74.613,386.618C75.931,386.92 77.006,387.071 77.84,387.071C78.23,387.071 78.598,387.033 78.941,386.957C79.285,386.882 79.543,386.795 79.715,386.696C79.803,386.649 79.861,386.625 79.887,386.625C79.939,386.625 79.965,386.664 79.965,386.743C79.965,386.925 79.848,387.166 79.613,387.465C79.379,387.765 79.06,388.003 78.656,388.18C78.252,388.357 77.788,388.446 77.262,388.446C76.652,388.446 75.926,388.352 75.082,388.164L74.824,391.149C75.22,390.951 75.598,390.803 75.957,390.704C76.316,390.605 76.657,390.555 76.98,390.555C78.001,390.555 78.859,390.894 79.555,391.571C80.25,392.248 80.598,393.084 80.598,394.079C80.598,395.183 80.228,396.092 79.488,396.805C78.749,397.519 77.79,397.875 76.613,397.875C75.712,397.875 74.979,397.619 74.414,397.106C73.849,396.593 73.566,395.982 73.566,395.274C73.566,394.847 73.656,394.517 73.836,394.286C74.015,394.054 74.246,393.938 74.527,393.938C74.803,393.938 75.028,394.03 75.203,394.215C75.377,394.4 75.465,394.641 75.465,394.938C75.465,395.162 75.422,395.336 75.336,395.461C75.25,395.586 75.092,395.691 74.863,395.774C74.634,395.862 74.519,395.964 74.519,396.079C74.519,396.245 74.598,396.429 74.754,396.629C74.91,396.83 75.146,396.994 75.461,397.122C75.776,397.249 76.137,397.313 76.543,397.313C77.34,397.313 77.948,397.066 78.367,396.571C78.786,396.076 78.996,395.271 78.996,394.157C78.996,393.141 78.775,392.399 78.332,391.93C77.889,391.461 77.324,391.227 76.637,391.227C76.324,391.227 76.012,391.284 75.699,391.399C75.387,391.513 75.074,391.685 74.762,391.914C74.725,392.279 74.66,392.523 74.566,392.645C74.473,392.767 74.353,392.829 74.207,392.829C74.103,392.829 74.019,392.792 73.957,392.719C73.894,392.646 73.863,392.545 73.863,392.414C73.863,392.185 73.97,391.959 74.183,391.735C74.246,391.667 74.29,391.607 74.316,391.555L74.496,389.258C74.569,388.352 74.608,387.472 74.613,386.618Z" style="fill-rule:nonzero;"/>
    </g>
    <g transform="matrix(1,0,0,1,10.3768,-93.3524)">
        <path d="M66.642,385.662C67.736,383.917 68.434,382.862 68.738,382.498C69.181,381.951 69.591,381.58 69.969,381.385C70.346,381.189 70.722,381.092 71.095,381.092C71.572,381.092 71.954,381.228 72.241,381.502C72.527,381.775 72.67,382.142 72.67,382.602C72.67,383.045 72.555,383.396 72.325,383.657C72.095,383.917 71.802,384.047 71.446,384.047C71.012,384.047 70.678,383.796 70.444,383.292C70.288,382.971 70.114,382.81 69.923,382.81C69.723,382.81 69.519,382.923 69.311,383.149C69.103,383.375 68.304,384.594 66.915,386.808L67.84,390.935C67.97,391.534 68.115,391.925 68.276,392.107C68.436,392.289 68.634,392.381 68.868,392.381C69.554,392.381 70.435,391.521 71.512,389.803L72.15,390.167C71.377,391.556 70.615,392.548 69.864,393.142C69.114,393.737 68.46,394.034 67.905,394.034C67.306,394.034 66.861,393.824 66.57,393.403C66.279,392.982 65.891,391.591 65.405,389.23C64.233,391.339 63.304,392.715 62.618,393.357C62.132,393.809 61.559,394.034 60.9,394.034C60.379,394.034 59.958,393.876 59.637,393.559C59.315,393.242 59.155,392.845 59.155,392.368C59.155,391.986 59.276,391.667 59.519,391.411C59.762,391.155 60.058,391.026 60.405,391.026C60.665,391.026 60.884,391.087 61.062,391.209C61.24,391.33 61.39,391.552 61.512,391.873C61.616,392.142 61.7,392.309 61.765,392.374C61.831,392.439 61.915,392.472 62.019,392.472C62.21,392.472 62.397,392.363 62.579,392.146C62.97,391.686 63.816,390.345 65.118,388.123L64.181,383.826C64.111,383.496 64.003,383.251 63.855,383.09C63.708,382.93 63.517,382.849 63.282,382.849C62.623,382.849 61.946,383.678 61.251,385.336L60.587,384.946C61.195,383.461 61.792,382.448 62.377,381.905C62.963,381.363 63.556,381.092 64.155,381.092C64.719,381.092 65.157,381.311 65.47,381.749C65.782,382.187 66.173,383.492 66.642,385.662Z" style="fill-rule:nonzero;"/>
        <path d="M74.996,392.532C75.402,391.99 75.829,391.602 76.277,391.368C76.725,391.133 77.217,391.016 77.754,391.016C78.618,391.016 79.344,391.309 79.93,391.895C80.515,392.481 80.808,393.222 80.808,394.118C80.808,395.196 80.462,396.092 79.769,396.805C79.077,397.519 78.22,397.875 77.199,397.875C76.48,397.875 75.84,397.684 75.277,397.301C74.715,396.918 74.255,396.321 73.898,395.508C73.542,394.696 73.363,393.748 73.363,392.664C73.363,391.493 73.582,390.43 74.019,389.477C74.457,388.524 75.015,387.809 75.695,387.332C76.375,386.856 77.084,386.618 77.824,386.618C78.584,386.618 79.23,386.826 79.762,387.243C80.204,387.581 80.426,387.987 80.426,388.461C80.426,388.779 80.328,389.039 80.133,389.243C79.937,389.446 79.699,389.547 79.418,389.547C79.157,389.547 78.935,389.461 78.75,389.289C78.565,389.118 78.473,388.914 78.473,388.68C78.473,388.524 78.535,388.347 78.66,388.149C78.775,387.967 78.832,387.823 78.832,387.719C78.832,387.573 78.762,387.454 78.621,387.36C78.433,387.24 78.176,387.18 77.848,387.18C77.342,387.18 76.881,387.339 76.465,387.657C76.048,387.974 75.695,388.52 75.406,389.293C75.117,390.067 74.973,390.935 74.973,391.899C74.973,392.039 74.98,392.25 74.996,392.532ZM77.324,391.782C76.673,391.782 76.14,392.017 75.726,392.489C75.312,392.96 75.105,393.623 75.105,394.477C75.105,395.404 75.306,396.112 75.707,396.602C76.108,397.092 76.618,397.336 77.238,397.336C77.853,397.336 78.348,397.105 78.723,396.641C79.098,396.178 79.285,395.485 79.285,394.563C79.285,393.584 79.112,392.875 78.765,392.438C78.419,392 77.939,391.782 77.324,391.782Z" style="fill-rule:nonzero;"/>
    </g>
    <g transform="matrix(1,0,0,1,48.8713,-184.66)">
        <path d="M66.642,385.662C67.736,383.917 68.434,382.862 68.738,382.498C69.181,381.951 69.591,381.58 69.969,381.385C70.346,381.189 70.722,381.092 71.095,381.092C71.572,381.092 71.954,381.228 72.241,381.502C72.527,381.775 72.67,382.142 72.67,382.602C72.67,383.045 72.555,383.396 72.325,383.657C72.095,383.917 71.802,384.047 71.446,384.047C71.012,384.047 70.678,383.796 70.444,383.292C70.288,382.971 70.114,382.81 69.923,382.81C69.723,382.81 69.519,382.923 69.311,383.149C69.103,383.375 68.304,384.594 66.915,386.808L67.84,390.935C67.97,391.534 68.115,391.925 68.276,392.107C68.436,392.289 68.634,392.381 68.868,392.381C69.554,392.381 70.435,391.521 71.512,389.803L72.15,390.167C71.377,391.556 70.615,392.548 69.864,393.142C69.114,393.737 68.46,394.034 67.905,394.034C67.306,394.034 66.861,393.824 66.57,393.403C66.279,392.982 65.891,391.591 65.405,389.23C64.233,391.339 63.304,392.715 62.618,393.357C62.132,393.809 61.559,394.034 60.9,394.034C60.379,394.034 59.958,393.876 59.637,393.559C59.315,393.242 59.155,392.845 59.155,392.368C59.155,391.986 59.276,391.667 59.519,391.411C59.762,391.155 60.058,391.026 60.405,391.026C60.665,391.026 60.884,391.087 61.062,391.209C61.24,391.33 61.39,391.552 61.512,391.873C61.616,392.142 61.7,392.309 61.765,392.374C61.831,392.439 61.915,392.472 62.019,392.472C62.21,392.472 62.397,392.363 62.579,392.146C62.97,391.686 63.816,390.345 65.118,388.123L64.181,383.826C64.111,383.496 64.003,383.251 63.855,383.09C63.708,382.93 63.517,382.849 63.282,382.849C62.623,382.849 61.946,383.678 61.251,385.336L60.587,384.946C61.195,383.461 61.792,382.448 62.377,381.905C62.963,381.363 63.556,381.092 64.155,381.092C64.719,381.092 65.157,381.311 65.47,381.749C65.782,382.187 66.173,383.492 66.642,385.662Z" style="fill-rule:nonzero;"/>
        <path d="M74.223,386.625C74.733,386.756 75.285,386.821 75.879,386.821L80.738,386.821L80.738,387.18C80.025,388.435 79.491,389.497 79.137,390.364C78.782,391.231 78.514,392.06 78.332,392.852C78.15,393.644 78.03,394.566 77.973,395.618C77.92,396.487 77.871,397.025 77.824,397.231C77.777,397.437 77.682,397.595 77.539,397.707C77.396,397.819 77.209,397.875 76.98,397.875C76.72,397.875 76.517,397.787 76.371,397.61C76.225,397.433 76.152,397.154 76.152,396.774C76.152,396.435 76.212,396.012 76.332,395.504C76.452,394.997 76.725,394.237 77.152,393.227C77.72,391.873 78.212,390.808 78.629,390.032L79.707,388.047L75.473,388.047C75.16,388.047 74.927,388.157 74.773,388.375C74.62,388.594 74.436,389.248 74.223,390.336L73.66,390.336L74.223,386.625Z" style="fill-rule:nonzero;"/>
    </g>
    <g transform="matrix(1,0,0,1,35.0125,-276.269)">
        <path d="M66.642,385.662C67.736,383.917 68.434,382.862 68.738,382.498C69.181,381.951 69.591,381.58 69.969,381.385C70.346,381.189 70.722,381.092 71.095,381.092C71.572,381.092 71.954,381.228 72.241,381.502C72.527,381.775 72.67,382.142 72.67,382.602C72.67,383.045 72.555,383.396 72.325,383.657C72.095,383.917 71.802,384.047 71.446,384.047C71.012,384.047 70.678,383.796 70.444,383.292C70.288,382.971 70.114,382.81 69.923,382.81C69.723,382.81 69.519,382.923 69.311,383.149C69.103,383.375 68.304,384.594 66.915,386.808L67.84,390.935C67.97,391.534 68.115,391.925 68.276,392.107C68.436,392.289 68.634,392.381 68.868,392.381C69.554,392.381 70.435,391.521 71.512,389.803L72.15,390.167C71.377,391.556 70.615,392.548 69.864,393.142C69.114,393.737 68.46,394.034 67.905,394.034C67.306,394.034 66.861,393.824 66.57,393.403C66.279,392.982 65.891,391.591 65.405,389.23C64.233,391.339 63.304,392.715 62.618,393.357C62.132,393.809 61.559,394.034 60.9,394.034C60.379,394.034 59.958,393.876 59.637,393.559C59.315,393.242 59.155,392.845 59.155,392.368C59.155,391.986 59.276,391.667 59.519,391.411C59.762,391.155 60.058,391.026 60.405,391.026C60.665,391.026 60.884,391.087 61.062,391.209C61.24,391.33 61.39,391.552 61.512,391.873C61.616,392.142 61.7,392.309 61.765,392.374C61.831,392.439 61.915,392.472 62.019,392.472C62.21,392.472 62.397,392.363 62.579,392.146C62.97,391.686 63.816,390.345 65.118,388.123L64.181,383.826C64.111,383.496 64.003,383.251 63.855,383.09C63.708,382.93 63.517,382.849 63.282,382.849C62.623,382.849 61.946,383.678 61.251,385.336L60.587,384.946C61.195,383.461 61.792,382.448 62.377,381.905C62.963,381.363 63.556,381.092 64.155,381.092C64.719,381.092 65.157,381.311 65.47,381.749C65.782,382.187 66.173,383.492 66.642,385.662Z" style="fill-rule:nonzero;"/>
        <path d="M77.879,386.821L77.879,396.571C77.879,396.717 77.931,396.829 78.035,396.907C78.186,397.016 78.371,397.071 78.59,397.071L80.105,397.071L80.105,397.657L74.488,397.657L74.488,397.071L75.785,397.071C76.056,397.071 76.256,397.007 76.387,396.879C76.517,396.752 76.582,396.581 76.582,396.368L76.582,389C76.582,388.849 76.522,388.722 76.402,388.618C76.282,388.513 76.129,388.461 75.941,388.461L74.207,388.461L74.207,387.922C75.019,387.818 75.678,387.679 76.183,387.504C76.689,387.33 77.134,387.102 77.519,386.821L77.879,386.821Z" style="fill-rule:nonzero;"/>
        <path d="M83.121,386.625C83.631,386.756 84.183,386.821 84.777,386.821L89.637,386.821L89.637,387.18C88.923,388.435 88.389,389.497 88.035,390.364C87.681,391.231 87.413,392.06 87.23,392.852C87.048,393.644 86.928,394.566 86.871,395.618C86.819,396.487 86.769,397.025 86.723,397.231C86.676,397.437 86.581,397.595 86.437,397.707C86.294,397.819 86.108,397.875 85.879,397.875C85.618,397.875 85.415,397.787 85.269,397.61C85.124,397.433 85.051,397.154 85.051,396.774C85.051,396.435 85.111,396.012 85.23,395.504C85.35,394.997 85.624,394.237 86.051,393.227C86.618,391.873 87.111,390.808 87.527,390.032L88.605,388.047L84.371,388.047C84.058,388.047 83.825,388.157 83.672,388.375C83.518,388.594 83.334,389.248 83.121,390.336L82.558,390.336L83.121,386.625Z" style="fill-rule:nonzero;"/>
        <path d="M96.285,391.524C97.118,391.826 97.72,392.22 98.09,392.707C98.459,393.194 98.644,393.782 98.644,394.469C98.644,395.308 98.376,396.039 97.84,396.664C97.147,397.472 96.16,397.875 94.879,397.875C93.749,397.875 92.855,397.603 92.199,397.059C91.543,396.515 91.215,395.836 91.215,395.024C91.215,394.414 91.403,393.882 91.781,393.426C92.159,392.97 92.811,392.584 93.738,392.266C92.368,391.678 91.683,390.769 91.683,389.539C91.683,388.743 91.992,388.056 92.609,387.481C93.226,386.905 94.009,386.618 94.957,386.618C95.608,386.618 96.174,386.73 96.656,386.954C97.138,387.178 97.505,387.482 97.758,387.868C98.01,388.253 98.137,388.657 98.137,389.079C98.137,390.058 97.519,390.873 96.285,391.524ZM95.683,391.321C96.23,391.008 96.598,390.7 96.785,390.395C96.973,390.09 97.066,389.691 97.066,389.196C97.066,388.545 96.881,388.042 96.512,387.688C96.142,387.334 95.605,387.157 94.902,387.157C94.22,387.157 93.689,387.322 93.308,387.653C92.928,387.983 92.738,388.414 92.738,388.946C92.738,389.472 92.903,389.891 93.234,390.204C93.565,390.516 94.381,390.888 95.683,391.321ZM94.324,392.485C93.584,392.797 93.071,393.149 92.785,393.539C92.499,393.93 92.355,394.409 92.355,394.977C92.355,395.717 92.573,396.291 93.008,396.7C93.443,397.108 94.069,397.313 94.887,397.313C95.751,397.313 96.423,397.108 96.902,396.7C97.381,396.291 97.621,395.75 97.621,395.079C97.621,394.469 97.414,394.008 97,393.696C96.586,393.383 95.694,392.98 94.324,392.485Z" style="fill-rule:nonzero;"/>
        <path d="M105.238,386.821L105.746,386.821L105.746,394.211L107.543,394.211L107.543,394.875L105.746,394.875L105.746,396.539C105.746,396.685 105.803,396.803 105.918,396.891C106.084,397.011 106.277,397.071 106.496,397.071L107.16,397.071L107.16,397.657L102.824,397.657L102.824,397.071L103.629,397.071C103.9,397.071 104.099,397.013 104.226,396.899C104.354,396.784 104.418,396.618 104.418,396.399L104.418,394.875L99.996,394.875L99.996,394.125L105.238,386.821ZM104.418,388.938L100.644,394.211L104.418,394.211L104.418,388.938Z" style="fill-rule:nonzero;"/>
    </g>
    <g transform="matrix(1,0,0,1,107.552,-343.956)">
        <path d="M66.642,385.662C67.736,383.917 68.434,382.862 68.738,382.498C69.181,381.951 69.591,381.58 69.969,381.385C70.346,381.189 70.722,381.092 71.095,381.092C71.572,381.092 71.954,381.228 72.241,381.502C72.527,381.775 72.67,382.142 72.67,382.602C72.67,383.045 72.555,383.396 72.325,383.657C72.095,383.917 71.802,384.047 71.446,384.047C71.012,384.047 70.678,383.796 70.444,383.292C70.288,382.971 70.114,382.81 69.923,382.81C69.723,382.81 69.519,382.923 69.311,383.149C69.103,383.375 68.304,384.594 66.915,386.808L67.84,390.935C67.97,391.534 68.115,391.925 68.276,392.107C68.436,392.289 68.634,392.381 68.868,392.381C69.554,392.381 70.435,391.521 71.512,389.803L72.15,390.167C71.377,391.556 70.615,392.548 69.864,393.142C69.114,393.737 68.46,394.034 67.905,394.034C67.306,394.034 66.861,393.824 66.57,393.403C66.279,392.982 65.891,391.591 65.405,389.23C64.233,391.339 63.304,392.715 62.618,393.357C62.132,393.809 61.559,394.034 60.9,394.034C60.379,394.034 59.958,393.876 59.637,393.559C59.315,393.242 59.155,392.845 59.155,392.368C59.155,391.986 59.276,391.667 59.519,391.411C59.762,391.155 60.058,391.026 60.405,391.026C60.665,391.026 60.884,391.087 61.062,391.209C61.24,391.33 61.39,391.552 61.512,391.873C61.616,392.142 61.7,392.309 61.765,392.374C61.831,392.439 61.915,392.472 62.019,392.472C62.21,392.472 62.397,392.363 62.579,392.146C62.97,391.686 63.816,390.345 65.118,388.123L64.181,383.826C64.111,383.496 64.003,383.251 63.855,383.09C63.708,382.93 63.517,382.849 63.282,382.849C62.623,382.849 61.946,383.678 61.251,385.336L60.587,384.946C61.195,383.461 61.792,382.448 62.377,381.905C62.963,381.363 63.556,381.092 64.155,381.092C64.719,381.092 65.157,381.311 65.47,381.749C65.782,382.187 66.173,383.492 66.642,385.662Z" style="fill-rule:nonzero;"/>
        <path d="M77.879,386.821L77.879,396.571C77.879,396.717 77.931,396.829 78.035,396.907C78.186,397.016 78.371,397.071 78.59,397.071L80.105,397.071L80.105,397.657L74.488,397.657L74.488,397.071L75.785,397.071C76.056,397.071 76.256,397.007 76.387,396.879C76.517,396.752 76.582,396.581 76.582,396.368L76.582,389C76.582,388.849 76.522,388.722 76.402,388.618C76.282,388.513 76.129,388.461 75.941,388.461L74.207,388.461L74.207,387.922C75.019,387.818 75.678,387.679 76.183,387.504C76.689,387.33 77.134,387.102 77.519,386.821L77.879,386.821Z" style="fill-rule:nonzero;"/>
        <path d="M83.121,386.625C83.631,386.756 84.183,386.821 84.777,386.821L89.637,386.821L89.637,387.18C88.923,388.435 88.389,389.497 88.035,390.364C87.681,391.231 87.413,392.06 87.23,392.852C87.048,393.644 86.928,394.566 86.871,395.618C86.819,396.487 86.769,397.025 86.723,397.231C86.676,397.437 86.581,397.595 86.437,397.707C86.294,397.819 86.108,397.875 85.879,397.875C85.618,397.875 85.415,397.787 85.269,397.61C85.124,397.433 85.051,397.154 85.051,396.774C85.051,396.435 85.111,396.012 85.23,395.504C85.35,394.997 85.624,394.237 86.051,393.227C86.618,391.873 87.111,390.808 87.527,390.032L88.605,388.047L84.371,388.047C84.058,388.047 83.825,388.157 83.672,388.375C83.518,388.594 83.334,389.248 83.121,390.336L82.558,390.336L83.121,386.625Z" style="fill-rule:nonzero;"/>
        <path d="M96.285,391.524C97.118,391.826 97.72,392.22 98.09,392.707C98.459,393.194 98.644,393.782 98.644,394.469C98.644,395.308 98.376,396.039 97.84,396.664C97.147,397.472 96.16,397.875 94.879,397.875C93.749,397.875 92.855,397.603 92.199,397.059C91.543,396.515 91.215,395.836 91.215,395.024C91.215,394.414 91.403,393.882 91.781,393.426C92.159,392.97 92.811,392.584 93.738,392.266C92.368,391.678 91.683,390.769 91.683,389.539C91.683,388.743 91.992,388.056 92.609,387.481C93.226,386.905 94.009,386.618 94.957,386.618C95.608,386.618 96.174,386.73 96.656,386.954C97.138,387.178 97.505,387.482 97.758,387.868C98.01,388.253 98.137,388.657 98.137,389.079C98.137,390.058 97.519,390.873 96.285,391.524ZM95.683,391.321C96.23,391.008 96.598,390.7 96.785,390.395C96.973,390.09 97.066,389.691 97.066,389.196C97.066,388.545 96.881,388.042 96.512,387.688C96.142,387.334 95.605,387.157 94.902,387.157C94.22,387.157 93.689,387.322 93.308,387.653C92.928,387.983 92.738,388.414 92.738,388.946C92.738,389.472 92.903,389.891 93.234,390.204C93.565,390.516 94.381,390.888 95.683,391.321ZM94.324,392.485C93.584,392.797 93.071,393.149 92.785,393.539C92.499,393.93 92.355,394.409 92.355,394.977C92.355,395.717 92.573,396.291 93.008,396.7C93.443,397.108 94.069,397.313 94.887,397.313C95.751,397.313 96.423,397.108 96.902,396.7C97.381,396.291 97.621,395.75 97.621,395.079C97.621,394.469 97.414,394.008 97,393.696C96.586,393.383 95.694,392.98 94.324,392.485Z" style="fill-rule:nonzero;"/>
        <path d="M101.308,386.618C102.626,386.92 103.702,387.071 104.535,387.071C104.926,387.071 105.293,387.033 105.637,386.957C105.98,386.882 106.238,386.795 106.41,386.696C106.499,386.649 106.556,386.625 106.582,386.625C106.634,386.625 106.66,386.664 106.66,386.743C106.66,386.925 106.543,387.166 106.308,387.465C106.074,387.765 105.755,388.003 105.351,388.18C104.948,388.357 104.483,388.446 103.957,388.446C103.348,388.446 102.621,388.352 101.777,388.164L101.519,391.149C101.915,390.951 102.293,390.803 102.652,390.704C103.012,390.605 103.353,390.555 103.676,390.555C104.696,390.555 105.555,390.894 106.25,391.571C106.945,392.248 107.293,393.084 107.293,394.079C107.293,395.183 106.923,396.092 106.183,396.805C105.444,397.519 104.486,397.875 103.308,397.875C102.407,397.875 101.674,397.619 101.109,397.106C100.544,396.593 100.262,395.982 100.262,395.274C100.262,394.847 100.351,394.517 100.531,394.286C100.711,394.054 100.941,393.938 101.223,393.938C101.499,393.938 101.724,394.03 101.898,394.215C102.073,394.4 102.16,394.641 102.16,394.938C102.16,395.162 102.117,395.336 102.031,395.461C101.945,395.586 101.788,395.691 101.558,395.774C101.329,395.862 101.215,395.964 101.215,396.079C101.215,396.245 101.293,396.429 101.449,396.629C101.605,396.83 101.841,396.994 102.156,397.122C102.471,397.249 102.832,397.313 103.238,397.313C104.035,397.313 104.643,397.066 105.062,396.571C105.482,396.076 105.691,395.271 105.691,394.157C105.691,393.141 105.47,392.399 105.027,391.93C104.584,391.461 104.019,391.227 103.332,391.227C103.019,391.227 102.707,391.284 102.394,391.399C102.082,391.513 101.769,391.685 101.457,391.914C101.42,392.279 101.355,392.523 101.262,392.645C101.168,392.767 101.048,392.829 100.902,392.829C100.798,392.829 100.715,392.792 100.652,392.719C100.59,392.646 100.558,392.545 100.558,392.414C100.558,392.185 100.665,391.959 100.879,391.735C100.941,391.667 100.986,391.607 101.012,391.555L101.191,389.258C101.264,388.352 101.303,387.472 101.308,386.618Z" style="fill-rule:nonzero;"/>
    </g>
    <g transform="matrix(1,0,0,1,238.973,-335.745)">
        <path d="M66.642,385.662C67.736,383.917 68.434,382.862 68.738,382.498C69.181,381.951 69.591,381.58 69.969,381.385C70.346,381.189 70.722,381.092 71.095,381.092C71.572,381.092 71.954,381.228 72.241,381.502C72.527,381.775 72.67,382.142 72.67,382.602C72.67,383.045 72.555,383.396 72.325,383.657C72.095,383.917 71.802,384.047 71.446,384.047C71.012,384.047 70.678,383.796 70.444,383.292C70.288,382.971 70.114,382.81 69.923,382.81C69.723,382.81 69.519,382.923 69.311,383.149C69.103,383.375 68.304,384.594 66.915,386.808L67.84,390.935C67.97,391.534 68.115,391.925 68.276,392.107C68.436,392.289 68.634,392.381 68.868,392.381C69.554,392.381 70.435,391.521 71.512,389.803L72.15,390.167C71.377,391.556 70.615,392.548 69.864,393.142C69.114,393.737 68.46,394.034 67.905,394.034C67.306,394.034 66.861,393.824 66.57,393.403C66.279,392.982 65.891,391.591 65.405,389.23C64.233,391.339 63.304,392.715 62.618,393.357C62.132,393.809 61.559,394.034 60.9,394.034C60.379,394.034 59.958,393.876 59.637,393.559C59.315,393.242 59.155,392.845 59.155,392.368C59.155,391.986 59.276,391.667 59.519,391.411C59.762,391.155 60.058,391.026 60.405,391.026C60.665,391.026 60.884,391.087 61.062,391.209C61.24,391.33 61.39,391.552 61.512,391.873C61.616,392.142 61.7,392.309 61.765,392.374C61.831,392.439 61.915,392.472 62.019,392.472C62.21,392.472 62.397,392.363 62.579,392.146C62.97,391.686 63.816,390.345 65.118,388.123L64.181,383.826C64.111,383.496 64.003,383.251 63.855,383.09C63.708,382.93 63.517,382.849 63.282,382.849C62.623,382.849 61.946,383.678 61.251,385.336L60.587,384.946C61.195,383.461 61.792,382.448 62.377,381.905C62.963,381.363 63.556,381.092 64.155,381.092C64.719,381.092 65.157,381.311 65.47,381.749C65.782,382.187 66.173,383.492 66.642,385.662Z" style="fill-rule:nonzero;"/>
        <path d="M77.879,386.821L77.879,396.571C77.879,396.717 77.931,396.829 78.035,396.907C78.186,397.016 78.371,397.071 78.59,397.071L80.105,397.071L80.105,397.657L74.488,397.657L74.488,397.071L75.785,397.071C76.056,397.071 76.256,397.007 76.387,396.879C76.517,396.752 76.582,396.581 76.582,396.368L76.582,389C76.582,388.849 76.522,388.722 76.402,388.618C76.282,388.513 76.129,388.461 75.941,388.461L74.207,388.461L74.207,387.922C75.019,387.818 75.678,387.679 76.183,387.504C76.689,387.33 77.134,387.102 77.519,386.821L77.879,386.821Z" style="fill-rule:nonzero;"/>
        <path d="M83.121,386.625C83.631,386.756 84.183,386.821 84.777,386.821L89.637,386.821L89.637,387.18C88.923,388.435 88.389,389.497 88.035,390.364C87.681,391.231 87.413,392.06 87.23,392.852C87.048,393.644 86.928,394.566 86.871,395.618C86.819,396.487 86.769,397.025 86.723,397.231C86.676,397.437 86.581,397.595 86.437,397.707C86.294,397.819 86.108,397.875 85.879,397.875C85.618,397.875 85.415,397.787 85.269,397.61C85.124,397.433 85.051,397.154 85.051,396.774C85.051,396.435 85.111,396.012 85.23,395.504C85.35,394.997 85.624,394.237 86.051,393.227C86.618,391.873 87.111,390.808 87.527,390.032L88.605,388.047L84.371,388.047C84.058,388.047 83.825,388.157 83.672,388.375C83.518,388.594 83.334,389.248 83.121,390.336L82.558,390.336L83.121,386.625Z" style="fill-rule:nonzero;"/>
        <path d="M96.285,391.524C97.118,391.826 97.72,392.22 98.09,392.707C98.459,393.194 98.644,393.782 98.644,394.469C98.644,395.308 98.376,396.039 97.84,396.664C97.147,397.472 96.16,397.875 94.879,397.875C93.749,397.875 92.855,397.603 92.199,397.059C91.543,396.515 91.215,395.836 91.215,395.024C91.215,394.414 91.403,393.882 91.781,393.426C92.159,392.97 92.811,392.584 93.738,392.266C92.368,391.678 91.683,390.769 91.683,389.539C91.683,388.743 91.992,388.056 92.609,387.481C93.226,386.905 94.009,386.618 94.957,386.618C95.608,386.618 96.174,386.73 96.656,386.954C97.138,387.178 97.505,387.482 97.758,387.868C98.01,388.253 98.137,388.657 98.137,389.079C98.137,390.058 97.519,390.873 96.285,391.524ZM95.683,391.321C96.23,391.008 96.598,390.7 96.785,390.395C96.973,390.09 97.066,389.691 97.066,389.196C97.066,388.545 96.881,388.042 96.512,387.688C96.142,387.334 95.605,387.157 94.902,387.157C94.22,387.157 93.689,387.322 93.308,387.653C92.928,387.983 92.738,388.414 92.738,388.946C92.738,389.472 92.903,389.891 93.234,390.204C93.565,390.516 94.381,390.888 95.683,391.321ZM94.324,392.485C93.584,392.797 93.071,393.149 92.785,393.539C92.499,393.93 92.355,394.409 92.355,394.977C92.355,395.717 92.573,396.291 93.008,396.7C93.443,397.108 94.069,397.313 94.887,397.313C95.751,397.313 96.423,397.108 96.902,396.7C97.381,396.291 97.621,395.75 97.621,395.079C97.621,394.469 97.414,394.008 97,393.696C96.586,393.383 95.694,392.98 94.324,392.485Z" style="fill-rule:nonzero;"/>
        <path d="M101.691,392.532C102.098,391.99 102.525,391.602 102.973,391.368C103.42,391.133 103.913,391.016 104.449,391.016C105.314,391.016 106.039,391.309 106.625,391.895C107.211,392.481 107.504,393.222 107.504,394.118C107.504,395.196 107.157,396.092 106.465,396.805C105.772,397.519 104.915,397.875 103.894,397.875C103.176,397.875 102.535,397.684 101.973,397.301C101.41,396.918 100.95,396.321 100.594,395.508C100.237,394.696 100.058,393.748 100.058,392.664C100.058,391.493 100.277,390.43 100.715,389.477C101.152,388.524 101.711,387.809 102.39,387.332C103.07,386.856 103.78,386.618 104.519,386.618C105.28,386.618 105.926,386.826 106.457,387.243C106.9,387.581 107.121,387.987 107.121,388.461C107.121,388.779 107.023,389.039 106.828,389.243C106.633,389.446 106.394,389.547 106.113,389.547C105.853,389.547 105.63,389.461 105.445,389.289C105.26,389.118 105.168,388.914 105.168,388.68C105.168,388.524 105.23,388.347 105.355,388.149C105.47,387.967 105.527,387.823 105.527,387.719C105.527,387.573 105.457,387.454 105.316,387.36C105.129,387.24 104.871,387.18 104.543,387.18C104.038,387.18 103.577,387.339 103.16,387.657C102.743,387.974 102.39,388.52 102.101,389.293C101.812,390.067 101.668,390.935 101.668,391.899C101.668,392.039 101.676,392.25 101.691,392.532ZM104.019,391.782C103.368,391.782 102.836,392.017 102.422,392.489C102.008,392.96 101.801,393.623 101.801,394.477C101.801,395.404 102.001,396.112 102.402,396.602C102.803,397.092 103.314,397.336 103.933,397.336C104.548,397.336 105.043,397.105 105.418,396.641C105.793,396.178 105.98,395.485 105.98,394.563C105.98,393.584 105.807,392.875 105.461,392.438C105.114,392 104.634,391.782 104.019,391.782Z" style="fill-rule:nonzero;"/>
    </g>
    <g transform="matrix(1,0,0,1,312.079,-292.526)">
        <path d="M66.642,385.662C67.736,383.917 68.434,382.862 68.738,382.498C69.181,381.951 69.591,381.58 69.969,381.385C70.346,381.189 70.722,381.092 71.095,381.092C71.572,381.092 71.954,381.228 72.241,381.502C72.527,381.775 72.67,382.142 72.67,382.602C72.67,383.045 72.555,383.396 72.325,383.657C72.095,383.917 71.802,384.047 71.446,384.047C71.012,384.047 70.678,383.796 70.444,383.292C70.288,382.971 70.114,382.81 69.923,382.81C69.723,382.81 69.519,382.923 69.311,383.149C69.103,383.375 68.304,384.594 66.915,386.808L67.84,390.935C67.97,391.534 68.115,391.925 68.276,392.107C68.436,392.289 68.634,392.381 68.868,392.381C69.554,392.381 70.435,391.521 71.512,389.803L72.15,390.167C71.377,391.556 70.615,392.548 69.864,393.142C69.114,393.737 68.46,394.034 67.905,394.034C67.306,394.034 66.861,393.824 66.57,393.403C66.279,392.982 65.891,391.591 65.405,389.23C64.233,391.339 63.304,392.715 62.618,393.357C62.132,393.809 61.559,394.034 60.9,394.034C60.379,394.034 59.958,393.876 59.637,393.559C59.315,393.242 59.155,392.845 59.155,392.368C59.155,391.986 59.276,391.667 59.519,391.411C59.762,391.155 60.058,391.026 60.405,391.026C60.665,391.026 60.884,391.087 61.062,391.209C61.24,391.33 61.39,391.552 61.512,391.873C61.616,392.142 61.7,392.309 61.765,392.374C61.831,392.439 61.915,392.472 62.019,392.472C62.21,392.472 62.397,392.363 62.579,392.146C62.97,391.686 63.816,390.345 65.118,388.123L64.181,383.826C64.111,383.496 64.003,383.251 63.855,383.09C63.708,382.93 63.517,382.849 63.282,382.849C62.623,382.849 61.946,383.678 61.251,385.336L60.587,384.946C61.195,383.461 61.792,382.448 62.377,381.905C62.963,381.363 63.556,381.092 64.155,381.092C64.719,381.092 65.157,381.311 65.47,381.749C65.782,382.187 66.173,383.492 66.642,385.662Z" style="fill-rule:nonzero;"/>
        <path d="M77.879,386.821L77.879,396.571C77.879,396.717 77.931,396.829 78.035,396.907C78.186,397.016 78.371,397.071 78.59,397.071L80.105,397.071L80.105,397.657L74.488,397.657L74.488,397.071L75.785,397.071C76.056,397.071 76.256,397.007 76.387,396.879C76.517,396.752 76.582,396.581 76.582,396.368L76.582,389C76.582,388.849 76.522,388.722 76.402,388.618C76.282,388.513 76.129,388.461 75.941,388.461L74.207,388.461L74.207,387.922C75.019,387.818 75.678,387.679 76.183,387.504C76.689,387.33 77.134,387.102 77.519,386.821L77.879,386.821Z" style="fill-rule:nonzero;"/>
        <path d="M83.121,386.625C83.631,386.756 84.183,386.821 84.777,386.821L89.637,386.821L89.637,387.18C88.923,388.435 88.389,389.497 88.035,390.364C87.681,391.231 87.413,392.06 87.23,392.852C87.048,393.644 86.928,394.566 86.871,395.618C86.819,396.487 86.769,397.025 86.723,397.231C86.676,397.437 86.581,397.595 86.437,397.707C86.294,397.819 86.108,397.875 85.879,397.875C85.618,397.875 85.415,397.787 85.269,397.61C85.124,397.433 85.051,397.154 85.051,396.774C85.051,396.435 85.111,396.012 85.23,395.504C85.35,394.997 85.624,394.237 86.051,393.227C86.618,391.873 87.111,390.808 87.527,390.032L88.605,388.047L84.371,388.047C84.058,388.047 83.825,388.157 83.672,388.375C83.518,388.594 83.334,389.248 83.121,390.336L82.558,390.336L83.121,386.625Z" style="fill-rule:nonzero;"/>
        <path d="M96.285,391.524C97.118,391.826 97.72,392.22 98.09,392.707C98.459,393.194 98.644,393.782 98.644,394.469C98.644,395.308 98.376,396.039 97.84,396.664C97.147,397.472 96.16,397.875 94.879,397.875C93.749,397.875 92.855,397.603 92.199,397.059C91.543,396.515 91.215,395.836 91.215,395.024C91.215,394.414 91.403,393.882 91.781,393.426C92.159,392.97 92.811,392.584 93.738,392.266C92.368,391.678 91.683,390.769 91.683,389.539C91.683,388.743 91.992,388.056 92.609,387.481C93.226,386.905 94.009,386.618 94.957,386.618C95.608,386.618 96.174,386.73 96.656,386.954C97.138,387.178 97.505,387.482 97.758,387.868C98.01,388.253 98.137,388.657 98.137,389.079C98.137,390.058 97.519,390.873 96.285,391.524ZM95.683,391.321C96.23,391.008 96.598,390.7 96.785,390.395C96.973,390.09 97.066,389.691 97.066,389.196C97.066,388.545 96.881,388.042 96.512,387.688C96.142,387.334 95.605,387.157 94.902,387.157C94.22,387.157 93.689,387.322 93.308,387.653C92.928,387.983 92.738,388.414 92.738,388.946C92.738,389.472 92.903,389.891 93.234,390.204C93.565,390.516 94.381,390.888 95.683,391.321ZM94.324,392.485C93.584,392.797 93.071,393.149 92.785,393.539C92.499,393.93 92.355,394.409 92.355,394.977C92.355,395.717 92.573,396.291 93.008,396.7C93.443,397.108 94.069,397.313 94.887,397.313C95.751,397.313 96.423,397.108 96.902,396.7C97.381,396.291 97.621,395.75 97.621,395.079C97.621,394.469 97.414,394.008 97,393.696C96.586,393.383 95.694,392.98 94.324,392.485Z" style="fill-rule:nonzero;"/>
        <path d="M100.918,386.625C101.428,386.756 101.98,386.821 102.574,386.821L107.433,386.821L107.433,387.18C106.72,388.435 106.186,389.497 105.832,390.364C105.478,391.231 105.209,392.06 105.027,392.852C104.845,393.644 104.725,394.566 104.668,395.618C104.616,396.487 104.566,397.025 104.519,397.231C104.473,397.437 104.377,397.595 104.234,397.707C104.091,397.819 103.905,397.875 103.676,397.875C103.415,397.875 103.212,397.787 103.066,397.61C102.92,397.433 102.848,397.154 102.848,396.774C102.848,396.435 102.907,396.012 103.027,395.504C103.147,394.997 103.42,394.237 103.848,393.227C104.415,391.873 104.907,390.808 105.324,390.032L106.402,388.047L102.168,388.047C101.855,388.047 101.622,388.157 101.469,388.375C101.315,388.594 101.131,389.248 100.918,390.336L100.355,390.336L100.918,386.625Z" style="fill-rule:nonzero;"/>
    </g>
    <g transform="matrix(1,0,0,1,347.622,-187.875)">
        <path d="M66.642,385.662C67.736,383.917 68.434,382.862 68.738,382.498C69.181,381.951 69.591,381.58 69.969,381.385C70.346,381.189 70.722,381.092 71.095,381.092C71.572,381.092 71.954,381.228 72.241,381.502C72.527,381.775 72.67,382.142 72.67,382.602C72.67,383.045 72.555,383.396 72.325,383.657C72.095,383.917 71.802,384.047 71.446,384.047C71.012,384.047 70.678,383.796 70.444,383.292C70.288,382.971 70.114,382.81 69.923,382.81C69.723,382.81 69.519,382.923 69.311,383.149C69.103,383.375 68.304,384.594 66.915,386.808L67.84,390.935C67.97,391.534 68.115,391.925 68.276,392.107C68.436,392.289 68.634,392.381 68.868,392.381C69.554,392.381 70.435,391.521 71.512,389.803L72.15,390.167C71.377,391.556 70.615,392.548 69.864,393.142C69.114,393.737 68.46,394.034 67.905,394.034C67.306,394.034 66.861,393.824 66.57,393.403C66.279,392.982 65.891,391.591 65.405,389.23C64.233,391.339 63.304,392.715 62.618,393.357C62.132,393.809 61.559,394.034 60.9,394.034C60.379,394.034 59.958,393.876 59.637,393.559C59.315,393.242 59.155,392.845 59.155,392.368C59.155,391.986 59.276,391.667 59.519,391.411C59.762,391.155 60.058,391.026 60.405,391.026C60.665,391.026 60.884,391.087 61.062,391.209C61.24,391.33 61.39,391.552 61.512,391.873C61.616,392.142 61.7,392.309 61.765,392.374C61.831,392.439 61.915,392.472 62.019,392.472C62.21,392.472 62.397,392.363 62.579,392.146C62.97,391.686 63.816,390.345 65.118,388.123L64.181,383.826C64.111,383.496 64.003,383.251 63.855,383.09C63.708,382.93 63.517,382.849 63.282,382.849C62.623,382.849 61.946,383.678 61.251,385.336L60.587,384.946C61.195,383.461 61.792,382.448 62.377,381.905C62.963,381.363 63.556,381.092 64.155,381.092C64.719,381.092 65.157,381.311 65.47,381.749C65.782,382.187 66.173,383.492 66.642,385.662Z" style="fill-rule:nonzero;"/>
        <path d="M77.879,386.821L77.879,396.571C77.879,396.717 77.931,396.829 78.035,396.907C78.186,397.016 78.371,397.071 78.59,397.071L80.105,397.071L80.105,397.657L74.488,397.657L74.488,397.071L75.785,397.071C76.056,397.071 76.256,397.007 76.387,396.879C76.517,396.752 76.582,396.581 76.582,396.368L76.582,389C76.582,388.849 76.522,388.722 76.402,388.618C76.282,388.513 76.129,388.461 75.941,388.461L74.207,388.461L74.207,387.922C75.019,387.818 75.678,387.679 76.183,387.504C76.689,387.33 77.134,387.102 77.519,386.821L77.879,386.821Z" style="fill-rule:nonzero;"/>
        <path d="M83.121,386.625C83.631,386.756 84.183,386.821 84.777,386.821L89.637,386.821L89.637,387.18C88.923,388.435 88.389,389.497 88.035,390.364C87.681,391.231 87.413,392.06 87.23,392.852C87.048,393.644 86.928,394.566 86.871,395.618C86.819,396.487 86.769,397.025 86.723,397.231C86.676,397.437 86.581,397.595 86.437,397.707C86.294,397.819 86.108,397.875 85.879,397.875C85.618,397.875 85.415,397.787 85.269,397.61C85.124,397.433 85.051,397.154 85.051,396.774C85.051,396.435 85.111,396.012 85.23,395.504C85.35,394.997 85.624,394.237 86.051,393.227C86.618,391.873 87.111,390.808 87.527,390.032L88.605,388.047L84.371,388.047C84.058,388.047 83.825,388.157 83.672,388.375C83.518,388.594 83.334,389.248 83.121,390.336L82.558,390.336L83.121,386.625Z" style="fill-rule:nonzero;"/>
        <path d="M96.285,391.524C97.118,391.826 97.72,392.22 98.09,392.707C98.459,393.194 98.644,393.782 98.644,394.469C98.644,395.308 98.376,396.039 97.84,396.664C97.147,397.472 96.16,397.875 94.879,397.875C93.749,397.875 92.855,397.603 92.199,397.059C91.543,396.515 91.215,395.836 91.215,395.024C91.215,394.414 91.403,393.882 91.781,393.426C92.159,392.97 92.811,392.584 93.738,392.266C92.368,391.678 91.683,390.769 91.683,389.539C91.683,388.743 91.992,388.056 92.609,387.481C93.226,386.905 94.009,386.618 94.957,386.618C95.608,386.618 96.174,386.73 96.656,386.954C97.138,387.178 97.505,387.482 97.758,387.868C98.01,388.253 98.137,388.657 98.137,389.079C98.137,390.058 97.519,390.873 96.285,391.524ZM95.683,391.321C96.23,391.008 96.598,390.7 96.785,390.395C96.973,390.09 97.066,389.691 97.066,389.196C97.066,388.545 96.881,388.042 96.512,387.688C96.142,387.334 95.605,387.157 94.902,387.157C94.22,387.157 93.689,387.322 93.308,387.653C92.928,387.983 92.738,388.414 92.738,388.946C92.738,389.472 92.903,389.891 93.234,390.204C93.565,390.516 94.381,390.888 95.683,391.321ZM94.324,392.485C93.584,392.797 93.071,393.149 92.785,393.539C92.499,393.93 92.355,394.409 92.355,394.977C92.355,395.717 92.573,396.291 93.008,396.7C93.443,397.108 94.069,397.313 94.887,397.313C95.751,397.313 96.423,397.108 96.902,396.7C97.381,396.291 97.621,395.75 97.621,395.079C97.621,394.469 97.414,394.008 97,393.696C96.586,393.383 95.694,392.98 94.324,392.485Z" style="fill-rule:nonzero;"/>
        <path d="M105.183,391.524C106.017,391.826 106.618,392.22 106.988,392.707C107.358,393.194 107.543,393.782 107.543,394.469C107.543,395.308 107.275,396.039 106.738,396.664C106.045,397.472 105.058,397.875 103.777,397.875C102.647,397.875 101.754,397.603 101.098,397.059C100.441,396.515 100.113,395.836 100.113,395.024C100.113,394.414 100.302,393.882 100.68,393.426C101.057,392.97 101.709,392.584 102.637,392.266C101.267,391.678 100.582,390.769 100.582,389.539C100.582,388.743 100.89,388.056 101.508,387.481C102.125,386.905 102.907,386.618 103.855,386.618C104.506,386.618 105.073,386.73 105.555,386.954C106.036,387.178 106.403,387.482 106.656,387.868C106.909,388.253 107.035,388.657 107.035,389.079C107.035,390.058 106.418,390.873 105.183,391.524ZM104.582,391.321C105.129,391.008 105.496,390.7 105.683,390.395C105.871,390.09 105.965,389.691 105.965,389.196C105.965,388.545 105.78,388.042 105.41,387.688C105.04,387.334 104.504,387.157 103.801,387.157C103.118,387.157 102.587,387.322 102.207,387.653C101.827,387.983 101.637,388.414 101.637,388.946C101.637,389.472 101.802,389.891 102.133,390.204C102.463,390.516 103.28,390.888 104.582,391.321ZM103.223,392.485C102.483,392.797 101.97,393.149 101.683,393.539C101.397,393.93 101.254,394.409 101.254,394.977C101.254,395.717 101.471,396.291 101.906,396.7C102.341,397.108 102.967,397.313 103.785,397.313C104.65,397.313 105.321,397.108 105.801,396.7C106.28,396.291 106.519,395.75 106.519,395.079C106.519,394.469 106.312,394.008 105.898,393.696C105.484,393.383 104.592,392.98 103.223,392.485Z" style="fill-rule:nonzero;"/>
    </g>
    <g transform="matrix(1,0,0,1,299.529,-99.7111)">
        <path d="M66.642,385.662C67.736,383.917 68.434,382.862 68.738,382.498C69.181,381.951 69.591,381.58 69.969,381.385C70.346,381.189 70.722,381.092 71.095,381.092C71.572,381.092 71.954,381.228 72.241,381.502C72.527,381.775 72.67,382.142 72.67,382.602C72.67,383.045 72.555,383.396 72.325,383.657C72.095,383.917 71.802,384.047 71.446,384.047C71.012,384.047 70.678,383.796 70.444,383.292C70.288,382.971 70.114,382.81 69.923,382.81C69.723,382.81 69.519,382.923 69.311,383.149C69.103,383.375 68.304,384.594 66.915,386.808L67.84,390.935C67.97,391.534 68.115,391.925 68.276,392.107C68.436,392.289 68.634,392.381 68.868,392.381C69.554,392.381 70.435,391.521 71.512,389.803L72.15,390.167C71.377,391.556 70.615,392.548 69.864,393.142C69.114,393.737 68.46,394.034 67.905,394.034C67.306,394.034 66.861,393.824 66.57,393.403C66.279,392.982 65.891,391.591 65.405,389.23C64.233,391.339 63.304,392.715 62.618,393.357C62.132,393.809 61.559,394.034 60.9,394.034C60.379,394.034 59.958,393.876 59.637,393.559C59.315,393.242 59.155,392.845 59.155,392.368C59.155,391.986 59.276,391.667 59.519,391.411C59.762,391.155 60.058,391.026 60.405,391.026C60.665,391.026 60.884,391.087 61.062,391.209C61.24,391.33 61.39,391.552 61.512,391.873C61.616,392.142 61.7,392.309 61.765,392.374C61.831,392.439 61.915,392.472 62.019,392.472C62.21,392.472 62.397,392.363 62.579,392.146C62.97,391.686 63.816,390.345 65.118,388.123L64.181,383.826C64.111,383.496 64.003,383.251 63.855,383.09C63.708,382.93 63.517,382.849 63.282,382.849C62.623,382.849 61.946,383.678 61.251,385.336L60.587,384.946C61.195,383.461 61.792,382.448 62.377,381.905C62.963,381.363 63.556,381.092 64.155,381.092C64.719,381.092 65.157,381.311 65.47,381.749C65.782,382.187 66.173,383.492 66.642,385.662Z" style="fill-rule:nonzero;"/>
        <path d="M77.879,386.821L77.879,396.571C77.879,396.717 77.931,396.829 78.035,396.907C78.186,397.016 78.371,397.071 78.59,397.071L80.105,397.071L80.105,397.657L74.488,397.657L74.488,397.071L75.785,397.071C76.056,397.071 76.256,397.007 76.387,396.879C76.517,396.752 76.582,396.581 76.582,396.368L76.582,389C76.582,388.849 76.522,388.722 76.402,388.618C76.282,388.513 76.129,388.461 75.941,388.461L74.207,388.461L74.207,387.922C75.019,387.818 75.678,387.679 76.183,387.504C76.689,387.33 77.134,387.102 77.519,386.821L77.879,386.821Z" style="fill-rule:nonzero;"/>
        <path d="M83.121,386.625C83.631,386.756 84.183,386.821 84.777,386.821L89.637,386.821L89.637,387.18C88.923,388.435 88.389,389.497 88.035,390.364C87.681,391.231 87.413,392.06 87.23,392.852C87.048,393.644 86.928,394.566 86.871,395.618C86.819,396.487 86.769,397.025 86.723,397.231C86.676,397.437 86.581,397.595 86.437,397.707C86.294,397.819 86.108,397.875 85.879,397.875C85.618,397.875 85.415,397.787 85.269,397.61C85.124,397.433 85.051,397.154 85.051,396.774C85.051,396.435 85.111,396.012 85.23,395.504C85.35,394.997 85.624,394.237 86.051,393.227C86.618,391.873 87.111,390.808 87.527,390.032L88.605,388.047L84.371,388.047C84.058,388.047 83.825,388.157 83.672,388.375C83.518,388.594 83.334,389.248 83.121,390.336L82.558,390.336L83.121,386.625Z" style="fill-rule:nonzero;"/>
        <path d="M96.285,391.524C97.118,391.826 97.72,392.22 98.09,392.707C98.459,393.194 98.644,393.782 98.644,394.469C98.644,395.308 98.376,396.039 97.84,396.664C97.147,397.472 96.16,397.875 94.879,397.875C93.749,397.875 92.855,397.603 92.199,397.059C91.543,396.515 91.215,395.836 91.215,395.024C91.215,394.414 91.403,393.882 91.781,393.426C92.159,392.97 92.811,392.584 93.738,392.266C92.368,391.678 91.683,390.769 91.683,389.539C91.683,388.743 91.992,388.056 92.609,387.481C93.226,386.905 94.009,386.618 94.957,386.618C95.608,386.618 96.174,386.73 96.656,386.954C97.138,387.178 97.505,387.482 97.758,387.868C98.01,388.253 98.137,388.657 98.137,389.079C98.137,390.058 97.519,390.873 96.285,391.524ZM95.683,391.321C96.23,391.008 96.598,390.7 96.785,390.395C96.973,390.09 97.066,389.691 97.066,389.196C97.066,388.545 96.881,388.042 96.512,387.688C96.142,387.334 95.605,387.157 94.902,387.157C94.22,387.157 93.689,387.322 93.308,387.653C92.928,387.983 92.738,388.414 92.738,388.946C92.738,389.472 92.903,389.891 93.234,390.204C93.565,390.516 94.381,390.888 95.683,391.321ZM94.324,392.485C93.584,392.797 93.071,393.149 92.785,393.539C92.499,393.93 92.355,394.409 92.355,394.977C92.355,395.717 92.573,396.291 93.008,396.7C93.443,397.108 94.069,397.313 94.887,397.313C95.751,397.313 96.423,397.108 96.902,396.7C97.381,396.291 97.621,395.75 97.621,395.079C97.621,394.469 97.414,394.008 97,393.696C96.586,393.383 95.694,392.98 94.324,392.485Z" style="fill-rule:nonzero;"/>
        <path d="M105.863,392.047C105.525,392.558 105.129,392.942 104.676,393.2C104.223,393.457 103.715,393.586 103.152,393.586C102.371,393.586 101.661,393.313 101.023,392.766C100.385,392.219 100.066,391.414 100.066,390.352C100.066,389.316 100.419,388.434 101.125,387.707C101.831,386.981 102.673,386.618 103.652,386.618C104.73,386.618 105.629,387.066 106.348,387.961C107.066,388.857 107.426,390.115 107.426,391.735C107.426,393.079 107.226,394.213 106.828,395.137C106.43,396.062 105.902,396.749 105.246,397.2C104.59,397.65 103.85,397.875 103.027,397.875C102.23,397.875 101.607,397.7 101.156,397.348C100.706,396.997 100.48,396.576 100.48,396.086C100.48,395.763 100.573,395.503 100.758,395.305C100.943,395.107 101.176,395.008 101.457,395.008C101.712,395.008 101.928,395.094 102.105,395.266C102.282,395.438 102.371,395.644 102.371,395.883C102.371,396.055 102.29,396.245 102.129,396.454C102.03,396.584 101.98,396.696 101.98,396.789C101.98,396.935 102.066,397.062 102.238,397.168C102.41,397.275 102.686,397.329 103.066,397.329C103.608,397.329 104.084,397.179 104.496,396.879C104.907,396.58 105.241,396.088 105.496,395.403C105.751,394.718 105.879,393.831 105.879,392.743L105.863,392.047ZM103.676,387.18C103.092,387.18 102.613,387.424 102.238,387.911C101.863,388.398 101.676,389.131 101.676,390.11C101.676,391.006 101.863,391.674 102.238,392.114C102.613,392.554 103.103,392.774 103.707,392.774C104.306,392.774 104.81,392.537 105.219,392.063C105.627,391.589 105.832,390.925 105.832,390.071C105.832,389.185 105.62,388.482 105.195,387.961C104.771,387.441 104.264,387.18 103.676,387.18Z" style="fill-rule:nonzero;"/>
    </g>
    <g transform="matrix(1,0,0,1,135.364,-121.452)">
        <path d="M66.642,385.662C67.736,383.917 68.434,382.862 68.738,382.498C69.181,381.951 69.591,381.58 69.969,381.385C70.346,381.189 70.722,381.092 71.095,381.092C71.572,381.092 71.954,381.228 72.241,381.502C72.527,381.775 72.67,382.142 72.67,382.602C72.67,383.045 72.555,383.396 72.325,383.657C72.095,383.917 71.802,384.047 71.446,384.047C71.012,384.047 70.678,383.796 70.444,383.292C70.288,382.971 70.114,382.81 69.923,382.81C69.723,382.81 69.519,382.923 69.311,383.149C69.103,383.375 68.304,384.594 66.915,386.808L67.84,390.935C67.97,391.534 68.115,391.925 68.276,392.107C68.436,392.289 68.634,392.381 68.868,392.381C69.554,392.381 70.435,391.521 71.512,389.803L72.15,390.167C71.377,391.556 70.615,392.548 69.864,393.142C69.114,393.737 68.46,394.034 67.905,394.034C67.306,394.034 66.861,393.824 66.57,393.403C66.279,392.982 65.891,391.591 65.405,389.23C64.233,391.339 63.304,392.715 62.618,393.357C62.132,393.809 61.559,394.034 60.9,394.034C60.379,394.034 59.958,393.876 59.637,393.559C59.315,393.242 59.155,392.845 59.155,392.368C59.155,391.986 59.276,391.667 59.519,391.411C59.762,391.155 60.058,391.026 60.405,391.026C60.665,391.026 60.884,391.087 61.062,391.209C61.24,391.33 61.39,391.552 61.512,391.873C61.616,392.142 61.7,392.309 61.765,392.374C61.831,392.439 61.915,392.472 62.019,392.472C62.21,392.472 62.397,392.363 62.579,392.146C62.97,391.686 63.816,390.345 65.118,388.123L64.181,383.826C64.111,383.496 64.003,383.251 63.855,383.09C63.708,382.93 63.517,382.849 63.282,382.849C62.623,382.849 61.946,383.678 61.251,385.336L60.587,384.946C61.195,383.461 61.792,382.448 62.377,381.905C62.963,381.363 63.556,381.092 64.155,381.092C64.719,381.092 65.157,381.311 65.47,381.749C65.782,382.187 66.173,383.492 66.642,385.662Z" style="fill-rule:nonzero;"/>
        <path d="M78.074,391.883C78.819,392.066 79.4,392.368 79.816,392.789C80.348,393.326 80.613,393.99 80.613,394.782C80.613,395.678 80.295,396.396 79.66,396.938C78.936,397.563 77.993,397.875 76.832,397.875C76.134,397.875 75.534,397.761 75.031,397.532C74.528,397.303 74.152,396.993 73.902,396.602C73.652,396.211 73.527,395.771 73.527,395.282C73.527,394.886 73.624,394.573 73.816,394.344C74.009,394.115 74.251,394 74.543,394C74.808,394 75.022,394.088 75.183,394.262C75.345,394.437 75.426,394.675 75.426,394.977C75.426,395.17 75.384,395.332 75.301,395.465C75.217,395.598 75.071,395.722 74.863,395.836C74.639,395.956 74.527,396.071 74.527,396.18C74.527,396.336 74.607,396.512 74.765,396.707C74.924,396.903 75.159,397.059 75.469,397.176C75.778,397.293 76.17,397.352 76.644,397.352C77.462,397.352 78.068,397.15 78.461,396.747C78.854,396.343 79.051,395.696 79.051,394.805C79.051,393.873 78.883,393.21 78.547,392.817C78.211,392.424 77.712,392.227 77.051,392.227C76.874,392.227 76.652,392.248 76.387,392.289C76.173,392.321 76.019,392.336 75.926,392.336C75.769,392.336 75.648,392.304 75.562,392.239C75.476,392.174 75.433,392.092 75.433,391.993C75.433,391.883 75.474,391.799 75.555,391.739C75.635,391.679 75.767,391.649 75.949,391.649L76.379,391.664L76.754,391.68C77.415,391.68 77.913,391.511 78.246,391.172C78.579,390.834 78.746,390.31 78.746,389.602C78.746,388.732 78.587,388.114 78.269,387.747C77.952,387.379 77.478,387.196 76.848,387.196C76.269,387.196 75.808,387.3 75.465,387.508C75.121,387.717 74.949,387.909 74.949,388.086C74.949,388.201 75.048,388.355 75.246,388.547C75.527,388.808 75.668,389.079 75.668,389.36C75.668,389.573 75.59,389.753 75.433,389.899C75.277,390.045 75.077,390.118 74.832,390.118C74.571,390.118 74.359,390.019 74.195,389.821C74.031,389.623 73.949,389.347 73.949,388.993C73.949,388.441 74.147,387.951 74.543,387.524C75.105,386.92 75.91,386.618 76.957,386.618C77.936,386.618 78.717,386.881 79.301,387.407C79.884,387.933 80.176,388.584 80.176,389.36C80.176,389.917 80.018,390.399 79.703,390.805C79.388,391.211 78.845,391.571 78.074,391.883Z" style="fill-rule:nonzero;"/>
        <path d="M83.512,386.618C84.829,386.92 85.905,387.071 86.738,387.071C87.129,387.071 87.496,387.033 87.84,386.957C88.183,386.882 88.441,386.795 88.613,386.696C88.702,386.649 88.759,386.625 88.785,386.625C88.837,386.625 88.863,386.664 88.863,386.743C88.863,386.925 88.746,387.166 88.512,387.465C88.277,387.765 87.958,388.003 87.555,388.18C87.151,388.357 86.686,388.446 86.16,388.446C85.551,388.446 84.824,388.352 83.98,388.164L83.723,391.149C84.118,390.951 84.496,390.803 84.855,390.704C85.215,390.605 85.556,390.555 85.879,390.555C86.9,390.555 87.758,390.894 88.453,391.571C89.148,392.248 89.496,393.084 89.496,394.079C89.496,395.183 89.126,396.092 88.387,396.805C87.647,397.519 86.689,397.875 85.512,397.875C84.611,397.875 83.877,397.619 83.312,397.106C82.747,396.593 82.465,395.982 82.465,395.274C82.465,394.847 82.555,394.517 82.734,394.286C82.914,394.054 83.144,393.938 83.426,393.938C83.702,393.938 83.927,394.03 84.101,394.215C84.276,394.4 84.363,394.641 84.363,394.938C84.363,395.162 84.32,395.336 84.234,395.461C84.148,395.586 83.991,395.691 83.762,395.774C83.532,395.862 83.418,395.964 83.418,396.079C83.418,396.245 83.496,396.429 83.652,396.629C83.808,396.83 84.044,396.994 84.359,397.122C84.674,397.249 85.035,397.313 85.441,397.313C86.238,397.313 86.846,397.066 87.265,396.571C87.685,396.076 87.894,395.271 87.894,394.157C87.894,393.141 87.673,392.399 87.23,391.93C86.788,391.461 86.223,391.227 85.535,391.227C85.223,391.227 84.91,391.284 84.598,391.399C84.285,391.513 83.973,391.685 83.66,391.914C83.624,392.279 83.558,392.523 83.465,392.645C83.371,392.767 83.251,392.829 83.105,392.829C83.001,392.829 82.918,392.792 82.855,392.719C82.793,392.646 82.762,392.545 82.762,392.414C82.762,392.185 82.868,391.959 83.082,391.735C83.144,391.667 83.189,391.607 83.215,391.555L83.394,389.258C83.467,388.352 83.506,387.472 83.512,386.618Z" style="fill-rule:nonzero;"/>
        <path d="M92.793,392.532C93.199,391.99 93.626,391.602 94.074,391.368C94.522,391.133 95.014,391.016 95.551,391.016C96.415,391.016 97.14,391.309 97.726,391.895C98.312,392.481 98.605,393.222 98.605,394.118C98.605,395.196 98.259,396.092 97.566,396.805C96.874,397.519 96.017,397.875 94.996,397.875C94.277,397.875 93.637,397.684 93.074,397.301C92.512,396.918 92.052,396.321 91.695,395.508C91.338,394.696 91.16,393.748 91.16,392.664C91.16,391.493 91.379,390.43 91.816,389.477C92.254,388.524 92.812,387.809 93.492,387.332C94.172,386.856 94.881,386.618 95.621,386.618C96.381,386.618 97.027,386.826 97.558,387.243C98.001,387.581 98.223,387.987 98.223,388.461C98.223,388.779 98.125,389.039 97.93,389.243C97.734,389.446 97.496,389.547 97.215,389.547C96.954,389.547 96.732,389.461 96.547,389.289C96.362,389.118 96.269,388.914 96.269,388.68C96.269,388.524 96.332,388.347 96.457,388.149C96.571,387.967 96.629,387.823 96.629,387.719C96.629,387.573 96.558,387.454 96.418,387.36C96.23,387.24 95.973,387.18 95.644,387.18C95.139,387.18 94.678,387.339 94.262,387.657C93.845,387.974 93.492,388.52 93.203,389.293C92.914,390.067 92.769,390.935 92.769,391.899C92.769,392.039 92.777,392.25 92.793,392.532ZM95.121,391.782C94.47,391.782 93.937,392.017 93.523,392.489C93.109,392.96 92.902,393.623 92.902,394.477C92.902,395.404 93.103,396.112 93.504,396.602C93.905,397.092 94.415,397.336 95.035,397.336C95.65,397.336 96.144,397.105 96.519,396.641C96.894,396.178 97.082,395.485 97.082,394.563C97.082,393.584 96.909,392.875 96.562,392.438C96.216,392 95.736,391.782 95.121,391.782Z" style="fill-rule:nonzero;"/>
        <path d="M105.183,391.524C106.017,391.826 106.618,392.22 106.988,392.707C107.358,393.194 107.543,393.782 107.543,394.469C107.543,395.308 107.275,396.039 106.738,396.664C106.045,397.472 105.058,397.875 103.777,397.875C102.647,397.875 101.754,397.603 101.098,397.059C100.441,396.515 100.113,395.836 100.113,395.024C100.113,394.414 100.302,393.882 100.68,393.426C101.057,392.97 101.709,392.584 102.637,392.266C101.267,391.678 100.582,390.769 100.582,389.539C100.582,388.743 100.89,388.056 101.508,387.481C102.125,386.905 102.907,386.618 103.855,386.618C104.506,386.618 105.073,386.73 105.555,386.954C106.036,387.178 106.403,387.482 106.656,387.868C106.909,388.253 107.035,388.657 107.035,389.079C107.035,390.058 106.418,390.873 105.183,391.524ZM104.582,391.321C105.129,391.008 105.496,390.7 105.683,390.395C105.871,390.09 105.965,389.691 105.965,389.196C105.965,388.545 105.78,388.042 105.41,387.688C105.04,387.334 104.504,387.157 103.801,387.157C103.118,387.157 102.587,387.322 102.207,387.653C101.827,387.983 101.637,388.414 101.637,388.946C101.637,389.472 101.802,389.891 102.133,390.204C102.463,390.516 103.28,390.888 104.582,391.321ZM103.223,392.485C102.483,392.797 101.97,393.149 101.683,393.539C101.397,393.93 101.254,394.409 101.254,394.977C101.254,395.717 101.471,396.291 101.906,396.7C102.341,397.108 102.967,397.313 103.785,397.313C104.65,397.313 105.321,397.108 105.801,396.7C106.28,396.291 106.519,395.75 106.519,395.079C106.519,394.469 106.312,394.008 105.898,393.696C105.484,393.383 104.592,392.98 103.223,392.485Z" style="fill-rule:nonzero;"/>
    </g>
    <g transform="matrix(1,0,0,1,110.892,-217.522)">
        <path d="M66.642,385.662C67.736,383.917 68.434,382.862 68.738,382.498C69.181,381.951 69.591,381.58 69.969,381.385C70.346,381.189 70.722,381.092 71.095,381.092C71.572,381.092 71.954,381.228 72.241,381.502C72.527,381.775 72.67,382.142 72.67,382.602C72.67,383.045 72.555,383.396 72.325,383.657C72.095,383.917 71.802,384.047 71.446,384.047C71.012,384.047 70.678,383.796 70.444,383.292C70.288,382.971 70.114,382.81 69.923,382.81C69.723,382.81 69.519,382.923 69.311,383.149C69.103,383.375 68.304,384.594 66.915,386.808L67.84,390.935C67.97,391.534 68.115,391.925 68.276,392.107C68.436,392.289 68.634,392.381 68.868,392.381C69.554,392.381 70.435,391.521 71.512,389.803L72.15,390.167C71.377,391.556 70.615,392.548 69.864,393.142C69.114,393.737 68.46,394.034 67.905,394.034C67.306,394.034 66.861,393.824 66.57,393.403C66.279,392.982 65.891,391.591 65.405,389.23C64.233,391.339 63.304,392.715 62.618,393.357C62.132,393.809 61.559,394.034 60.9,394.034C60.379,394.034 59.958,393.876 59.637,393.559C59.315,393.242 59.155,392.845 59.155,392.368C59.155,391.986 59.276,391.667 59.519,391.411C59.762,391.155 60.058,391.026 60.405,391.026C60.665,391.026 60.884,391.087 61.062,391.209C61.24,391.33 61.39,391.552 61.512,391.873C61.616,392.142 61.7,392.309 61.765,392.374C61.831,392.439 61.915,392.472 62.019,392.472C62.21,392.472 62.397,392.363 62.579,392.146C62.97,391.686 63.816,390.345 65.118,388.123L64.181,383.826C64.111,383.496 64.003,383.251 63.855,383.09C63.708,382.93 63.517,382.849 63.282,382.849C62.623,382.849 61.946,383.678 61.251,385.336L60.587,384.946C61.195,383.461 61.792,382.448 62.377,381.905C62.963,381.363 63.556,381.092 64.155,381.092C64.719,381.092 65.157,381.311 65.47,381.749C65.782,382.187 66.173,383.492 66.642,385.662Z" style="fill-rule:nonzero;"/>
        <path d="M78.074,391.883C78.819,392.066 79.4,392.368 79.816,392.789C80.348,393.326 80.613,393.99 80.613,394.782C80.613,395.678 80.295,396.396 79.66,396.938C78.936,397.563 77.993,397.875 76.832,397.875C76.134,397.875 75.534,397.761 75.031,397.532C74.528,397.303 74.152,396.993 73.902,396.602C73.652,396.211 73.527,395.771 73.527,395.282C73.527,394.886 73.624,394.573 73.816,394.344C74.009,394.115 74.251,394 74.543,394C74.808,394 75.022,394.088 75.183,394.262C75.345,394.437 75.426,394.675 75.426,394.977C75.426,395.17 75.384,395.332 75.301,395.465C75.217,395.598 75.071,395.722 74.863,395.836C74.639,395.956 74.527,396.071 74.527,396.18C74.527,396.336 74.607,396.512 74.765,396.707C74.924,396.903 75.159,397.059 75.469,397.176C75.778,397.293 76.17,397.352 76.644,397.352C77.462,397.352 78.068,397.15 78.461,396.747C78.854,396.343 79.051,395.696 79.051,394.805C79.051,393.873 78.883,393.21 78.547,392.817C78.211,392.424 77.712,392.227 77.051,392.227C76.874,392.227 76.652,392.248 76.387,392.289C76.173,392.321 76.019,392.336 75.926,392.336C75.769,392.336 75.648,392.304 75.562,392.239C75.476,392.174 75.433,392.092 75.433,391.993C75.433,391.883 75.474,391.799 75.555,391.739C75.635,391.679 75.767,391.649 75.949,391.649L76.379,391.664L76.754,391.68C77.415,391.68 77.913,391.511 78.246,391.172C78.579,390.834 78.746,390.31 78.746,389.602C78.746,388.732 78.587,388.114 78.269,387.747C77.952,387.379 77.478,387.196 76.848,387.196C76.269,387.196 75.808,387.3 75.465,387.508C75.121,387.717 74.949,387.909 74.949,388.086C74.949,388.201 75.048,388.355 75.246,388.547C75.527,388.808 75.668,389.079 75.668,389.36C75.668,389.573 75.59,389.753 75.433,389.899C75.277,390.045 75.077,390.118 74.832,390.118C74.571,390.118 74.359,390.019 74.195,389.821C74.031,389.623 73.949,389.347 73.949,388.993C73.949,388.441 74.147,387.951 74.543,387.524C75.105,386.92 75.91,386.618 76.957,386.618C77.936,386.618 78.717,386.881 79.301,387.407C79.884,387.933 80.176,388.584 80.176,389.36C80.176,389.917 80.018,390.399 79.703,390.805C79.388,391.211 78.845,391.571 78.074,391.883Z" style="fill-rule:nonzero;"/>
        <path d="M83.512,386.618C84.829,386.92 85.905,387.071 86.738,387.071C87.129,387.071 87.496,387.033 87.84,386.957C88.183,386.882 88.441,386.795 88.613,386.696C88.702,386.649 88.759,386.625 88.785,386.625C88.837,386.625 88.863,386.664 88.863,386.743C88.863,386.925 88.746,387.166 88.512,387.465C88.277,387.765 87.958,388.003 87.555,388.18C87.151,388.357 86.686,388.446 86.16,388.446C85.551,388.446 84.824,388.352 83.98,388.164L83.723,391.149C84.118,390.951 84.496,390.803 84.855,390.704C85.215,390.605 85.556,390.555 85.879,390.555C86.9,390.555 87.758,390.894 88.453,391.571C89.148,392.248 89.496,393.084 89.496,394.079C89.496,395.183 89.126,396.092 88.387,396.805C87.647,397.519 86.689,397.875 85.512,397.875C84.611,397.875 83.877,397.619 83.312,397.106C82.747,396.593 82.465,395.982 82.465,395.274C82.465,394.847 82.555,394.517 82.734,394.286C82.914,394.054 83.144,393.938 83.426,393.938C83.702,393.938 83.927,394.03 84.101,394.215C84.276,394.4 84.363,394.641 84.363,394.938C84.363,395.162 84.32,395.336 84.234,395.461C84.148,395.586 83.991,395.691 83.762,395.774C83.532,395.862 83.418,395.964 83.418,396.079C83.418,396.245 83.496,396.429 83.652,396.629C83.808,396.83 84.044,396.994 84.359,397.122C84.674,397.249 85.035,397.313 85.441,397.313C86.238,397.313 86.846,397.066 87.265,396.571C87.685,396.076 87.894,395.271 87.894,394.157C87.894,393.141 87.673,392.399 87.23,391.93C86.788,391.461 86.223,391.227 85.535,391.227C85.223,391.227 84.91,391.284 84.598,391.399C84.285,391.513 83.973,391.685 83.66,391.914C83.624,392.279 83.558,392.523 83.465,392.645C83.371,392.767 83.251,392.829 83.105,392.829C83.001,392.829 82.918,392.792 82.855,392.719C82.793,392.646 82.762,392.545 82.762,392.414C82.762,392.185 82.868,391.959 83.082,391.735C83.144,391.667 83.189,391.607 83.215,391.555L83.394,389.258C83.467,388.352 83.506,387.472 83.512,386.618Z" style="fill-rule:nonzero;"/>
        <path d="M92.793,392.532C93.199,391.99 93.626,391.602 94.074,391.368C94.522,391.133 95.014,391.016 95.551,391.016C96.415,391.016 97.14,391.309 97.726,391.895C98.312,392.481 98.605,393.222 98.605,394.118C98.605,395.196 98.259,396.092 97.566,396.805C96.874,397.519 96.017,397.875 94.996,397.875C94.277,397.875 93.637,397.684 93.074,397.301C92.512,396.918 92.052,396.321 91.695,395.508C91.338,394.696 91.16,393.748 91.16,392.664C91.16,391.493 91.379,390.43 91.816,389.477C92.254,388.524 92.812,387.809 93.492,387.332C94.172,386.856 94.881,386.618 95.621,386.618C96.381,386.618 97.027,386.826 97.558,387.243C98.001,387.581 98.223,387.987 98.223,388.461C98.223,388.779 98.125,389.039 97.93,389.243C97.734,389.446 97.496,389.547 97.215,389.547C96.954,389.547 96.732,389.461 96.547,389.289C96.362,389.118 96.269,388.914 96.269,388.68C96.269,388.524 96.332,388.347 96.457,388.149C96.571,387.967 96.629,387.823 96.629,387.719C96.629,387.573 96.558,387.454 96.418,387.36C96.23,387.24 95.973,387.18 95.644,387.18C95.139,387.18 94.678,387.339 94.262,387.657C93.845,387.974 93.492,388.52 93.203,389.293C92.914,390.067 92.769,390.935 92.769,391.899C92.769,392.039 92.777,392.25 92.793,392.532ZM95.121,391.782C94.47,391.782 93.937,392.017 93.523,392.489C93.109,392.96 92.902,393.623 92.902,394.477C92.902,395.404 93.103,396.112 93.504,396.602C93.905,397.092 94.415,397.336 95.035,397.336C95.65,397.336 96.144,397.105 96.519,396.641C96.894,396.178 97.082,395.485 97.082,394.563C97.082,393.584 96.909,392.875 96.562,392.438C96.216,392 95.736,391.782 95.121,391.782Z" style="fill-rule:nonzero;"/>
        <path d="M105.863,392.047C105.525,392.558 105.129,392.942 104.676,393.2C104.223,393.457 103.715,393.586 103.152,393.586C102.371,393.586 101.661,393.313 101.023,392.766C100.385,392.219 100.066,391.414 100.066,390.352C100.066,389.316 100.419,388.434 101.125,387.707C101.831,386.981 102.673,386.618 103.652,386.618C104.73,386.618 105.629,387.066 106.348,387.961C107.066,388.857 107.426,390.115 107.426,391.735C107.426,393.079 107.226,394.213 106.828,395.137C106.43,396.062 105.902,396.749 105.246,397.2C104.59,397.65 103.85,397.875 103.027,397.875C102.23,397.875 101.607,397.7 101.156,397.348C100.706,396.997 100.48,396.576 100.48,396.086C100.48,395.763 100.573,395.503 100.758,395.305C100.943,395.107 101.176,395.008 101.457,395.008C101.712,395.008 101.928,395.094 102.105,395.266C102.282,395.438 102.371,395.644 102.371,395.883C102.371,396.055 102.29,396.245 102.129,396.454C102.03,396.584 101.98,396.696 101.98,396.789C101.98,396.935 102.066,397.062 102.238,397.168C102.41,397.275 102.686,397.329 103.066,397.329C103.608,397.329 104.084,397.179 104.496,396.879C104.907,396.58 105.241,396.088 105.496,395.403C105.751,394.718 105.879,393.831 105.879,392.743L105.863,392.047ZM103.676,387.18C103.092,387.18 102.613,387.424 102.238,387.911C101.863,388.398 101.676,389.131 101.676,390.11C101.676,391.006 101.863,391.674 102.238,392.114C102.613,392.554 103.103,392.774 103.707,392.774C104.306,392.774 104.81,392.537 105.219,392.063C105.627,391.589 105.832,390.925 105.832,390.071C105.832,389.185 105.62,388.482 105.195,387.961C104.771,387.441 104.264,387.18 103.676,387.18Z" style="fill-rule:nonzero;"/>
    </g>
    <g transform="matrix(1,0,0,1,154.197,-304.967)">
        <path d="M66.642,385.662C67.736,383.917 68.434,382.862 68.738,382.498C69.181,381.951 69.591,381.58 69.969,381.385C70.346,381.189 70.722,381.092 71.095,381.092C71.572,381.092 71.954,381.228 72.241,381.502C72.527,381.775 72.67,382.142 72.67,382.602C72.67,383.045 72.555,383.396 72.325,383.657C72.095,383.917 71.802,384.047 71.446,384.047C71.012,384.047 70.678,383.796 70.444,383.292C70.288,382.971 70.114,382.81 69.923,382.81C69.723,382.81 69.519,382.923 69.311,383.149C69.103,383.375 68.304,384.594 66.915,386.808L67.84,390.935C67.97,391.534 68.115,391.925 68.276,392.107C68.436,392.289 68.634,392.381 68.868,392.381C69.554,392.381 70.435,391.521 71.512,389.803L72.15,390.167C71.377,391.556 70.615,392.548 69.864,393.142C69.114,393.737 68.46,394.034 67.905,394.034C67.306,394.034 66.861,393.824 66.57,393.403C66.279,392.982 65.891,391.591 65.405,389.23C64.233,391.339 63.304,392.715 62.618,393.357C62.132,393.809 61.559,394.034 60.9,394.034C60.379,394.034 59.958,393.876 59.637,393.559C59.315,393.242 59.155,392.845 59.155,392.368C59.155,391.986 59.276,391.667 59.519,391.411C59.762,391.155 60.058,391.026 60.405,391.026C60.665,391.026 60.884,391.087 61.062,391.209C61.24,391.33 61.39,391.552 61.512,391.873C61.616,392.142 61.7,392.309 61.765,392.374C61.831,392.439 61.915,392.472 62.019,392.472C62.21,392.472 62.397,392.363 62.579,392.146C62.97,391.686 63.816,390.345 65.118,388.123L64.181,383.826C64.111,383.496 64.003,383.251 63.855,383.09C63.708,382.93 63.517,382.849 63.282,382.849C62.623,382.849 61.946,383.678 61.251,385.336L60.587,384.946C61.195,383.461 61.792,382.448 62.377,381.905C62.963,381.363 63.556,381.092 64.155,381.092C64.719,381.092 65.157,381.311 65.47,381.749C65.782,382.187 66.173,383.492 66.642,385.662Z" style="fill-rule:nonzero;"/>
        <path d="M78.074,391.883C78.819,392.066 79.4,392.368 79.816,392.789C80.348,393.326 80.613,393.99 80.613,394.782C80.613,395.678 80.295,396.396 79.66,396.938C78.936,397.563 77.993,397.875 76.832,397.875C76.134,397.875 75.534,397.761 75.031,397.532C74.528,397.303 74.152,396.993 73.902,396.602C73.652,396.211 73.527,395.771 73.527,395.282C73.527,394.886 73.624,394.573 73.816,394.344C74.009,394.115 74.251,394 74.543,394C74.808,394 75.022,394.088 75.183,394.262C75.345,394.437 75.426,394.675 75.426,394.977C75.426,395.17 75.384,395.332 75.301,395.465C75.217,395.598 75.071,395.722 74.863,395.836C74.639,395.956 74.527,396.071 74.527,396.18C74.527,396.336 74.607,396.512 74.765,396.707C74.924,396.903 75.159,397.059 75.469,397.176C75.778,397.293 76.17,397.352 76.644,397.352C77.462,397.352 78.068,397.15 78.461,396.747C78.854,396.343 79.051,395.696 79.051,394.805C79.051,393.873 78.883,393.21 78.547,392.817C78.211,392.424 77.712,392.227 77.051,392.227C76.874,392.227 76.652,392.248 76.387,392.289C76.173,392.321 76.019,392.336 75.926,392.336C75.769,392.336 75.648,392.304 75.562,392.239C75.476,392.174 75.433,392.092 75.433,391.993C75.433,391.883 75.474,391.799 75.555,391.739C75.635,391.679 75.767,391.649 75.949,391.649L76.379,391.664L76.754,391.68C77.415,391.68 77.913,391.511 78.246,391.172C78.579,390.834 78.746,390.31 78.746,389.602C78.746,388.732 78.587,388.114 78.269,387.747C77.952,387.379 77.478,387.196 76.848,387.196C76.269,387.196 75.808,387.3 75.465,387.508C75.121,387.717 74.949,387.909 74.949,388.086C74.949,388.201 75.048,388.355 75.246,388.547C75.527,388.808 75.668,389.079 75.668,389.36C75.668,389.573 75.59,389.753 75.433,389.899C75.277,390.045 75.077,390.118 74.832,390.118C74.571,390.118 74.359,390.019 74.195,389.821C74.031,389.623 73.949,389.347 73.949,388.993C73.949,388.441 74.147,387.951 74.543,387.524C75.105,386.92 75.91,386.618 76.957,386.618C77.936,386.618 78.717,386.881 79.301,387.407C79.884,387.933 80.176,388.584 80.176,389.36C80.176,389.917 80.018,390.399 79.703,390.805C79.388,391.211 78.845,391.571 78.074,391.883Z" style="fill-rule:nonzero;"/>
        <path d="M83.512,386.618C84.829,386.92 85.905,387.071 86.738,387.071C87.129,387.071 87.496,387.033 87.84,386.957C88.183,386.882 88.441,386.795 88.613,386.696C88.702,386.649 88.759,386.625 88.785,386.625C88.837,386.625 88.863,386.664 88.863,386.743C88.863,386.925 88.746,387.166 88.512,387.465C88.277,387.765 87.958,388.003 87.555,388.18C87.151,388.357 86.686,388.446 86.16,388.446C85.551,388.446 84.824,388.352 83.98,388.164L83.723,391.149C84.118,390.951 84.496,390.803 84.855,390.704C85.215,390.605 85.556,390.555 85.879,390.555C86.9,390.555 87.758,390.894 88.453,391.571C89.148,392.248 89.496,393.084 89.496,394.079C89.496,395.183 89.126,396.092 88.387,396.805C87.647,397.519 86.689,397.875 85.512,397.875C84.611,397.875 83.877,397.619 83.312,397.106C82.747,396.593 82.465,395.982 82.465,395.274C82.465,394.847 82.555,394.517 82.734,394.286C82.914,394.054 83.144,393.938 83.426,393.938C83.702,393.938 83.927,394.03 84.101,394.215C84.276,394.4 84.363,394.641 84.363,394.938C84.363,395.162 84.32,395.336 84.234,395.461C84.148,395.586 83.991,395.691 83.762,395.774C83.532,395.862 83.418,395.964 83.418,396.079C83.418,396.245 83.496,396.429 83.652,396.629C83.808,396.83 84.044,396.994 84.359,397.122C84.674,397.249 85.035,397.313 85.441,397.313C86.238,397.313 86.846,397.066 87.265,396.571C87.685,396.076 87.894,395.271 87.894,394.157C87.894,393.141 87.673,392.399 87.23,391.93C86.788,391.461 86.223,391.227 85.535,391.227C85.223,391.227 84.91,391.284 84.598,391.399C84.285,391.513 83.973,391.685 83.66,391.914C83.624,392.279 83.558,392.523 83.465,392.645C83.371,392.767 83.251,392.829 83.105,392.829C83.001,392.829 82.918,392.792 82.855,392.719C82.793,392.646 82.762,392.545 82.762,392.414C82.762,392.185 82.868,391.959 83.082,391.735C83.144,391.667 83.189,391.607 83.215,391.555L83.394,389.258C83.467,388.352 83.506,387.472 83.512,386.618Z" style="fill-rule:nonzero;"/>
        <path d="M92.019,386.625C92.53,386.756 93.082,386.821 93.676,386.821L98.535,386.821L98.535,387.18C97.821,388.435 97.288,389.497 96.933,390.364C96.579,391.231 96.311,392.06 96.129,392.852C95.946,393.644 95.827,394.566 95.769,395.618C95.717,396.487 95.668,397.025 95.621,397.231C95.574,397.437 95.479,397.595 95.336,397.707C95.193,397.819 95.006,397.875 94.777,397.875C94.517,397.875 94.314,397.787 94.168,397.61C94.022,397.433 93.949,397.154 93.949,396.774C93.949,396.435 94.009,396.012 94.129,395.504C94.249,394.997 94.522,394.237 94.949,393.227C95.517,391.873 96.009,390.808 96.426,390.032L97.504,388.047L93.269,388.047C92.957,388.047 92.724,388.157 92.57,388.375C92.417,388.594 92.233,389.248 92.019,390.336L91.457,390.336L92.019,386.625Z" style="fill-rule:nonzero;"/>
        <path d="M103.613,386.618C104.629,386.618 105.475,387.013 106.152,387.805C106.991,388.779 107.41,390.256 107.41,392.235C107.41,394.073 107.045,395.473 106.316,396.434C105.587,397.395 104.707,397.875 103.676,397.875C102.681,397.875 101.85,397.472 101.183,396.664C100.35,395.649 99.933,394.183 99.933,392.266C99.933,390.443 100.327,388.993 101.113,387.914C101.743,387.05 102.577,386.618 103.613,386.618ZM103.66,387.18C102.973,387.18 102.436,387.51 102.051,388.168C101.665,388.827 101.473,390.193 101.473,392.266C101.473,394.292 101.672,395.644 102.07,396.321C102.469,396.998 103.004,397.336 103.676,397.336C104.353,397.336 104.874,397.024 105.238,396.399C105.67,395.654 105.887,394.295 105.887,392.321C105.887,390.279 105.683,388.912 105.277,388.219C104.871,387.526 104.332,387.18 103.66,387.18Z" style="fill-rule:nonzero;"/>
    </g>
</svg>
