<?xml version="1.0" encoding="UTF-8" standalone="no"?>
<svg
   width="24px"
   height="24px"
   stroke-width="1.5"
   viewBox="0 0 24 24"
   fill="none"
   color="#000000"
   version="1.1"
   id="svg2"
   sodipodi:docname="link.svg"
   inkscape:version="1.3.2 (091e20e, 2023-11-25, custom)"
   xmlns:inkscape="http://www.inkscape.org/namespaces/inkscape"
   xmlns:sodipodi="http://sodipodi.sourceforge.net/DTD/sodipodi-0.dtd"
   xmlns="http://www.w3.org/2000/svg"
   xmlns:svg="http://www.w3.org/2000/svg">
  <defs
     id="defs2" />
  <sodipodi:namedview
     id="namedview2"
     pagecolor="#ffffff"
     bordercolor="#000000"
     borderopacity="0.25"
     inkscape:showpageshadow="2"
     inkscape:pageopacity="0.0"
     inkscape:pagecheckerboard="0"
     inkscape:deskcolor="#d1d1d1"
     inkscape:zoom="45.254834"
     inkscape:cx="6.5296892"
     inkscape:cy="10.109417"
     inkscape:window-width="2560"
     inkscape:window-height="1351"
     inkscape:window-x="-9"
     inkscape:window-y="-9"
     inkscape:window-maximized="1"
     inkscape:current-layer="svg2" />
  <path
     d="M14 11.9976C14 9.5059 11.683 7 8.85714 7C8.52241 7 7.41904 7.00001 7.14286 7.00001C4.30254 7.00001 2 9.23752 2 11.9976C2 14.376 3.70973 16.3664 6 16.8714C6.36756 16.9525 6.75006 16.9952 7.14286 16.9952"
     stroke="#000000"
     stroke-width="1.5"
     stroke-linecap="round"
     stroke-linejoin="round"
     id="path1"
     style="stroke:#00bfff;stroke-opacity:1" />
  <path
     d="M10 11.9976C10 14.4893 12.317 16.9952 15.1429 16.9952C15.4776 16.9952 16.581 16.9952 16.8571 16.9952C19.6975 16.9952 22 14.7577 22 11.9976C22 9.6192 20.2903 7.62884 18 7.12383C17.6324 7.04278 17.2499 6.99999 16.8571 6.99999"
     stroke="#000000"
     stroke-width="1.5"
     stroke-linecap="round"
     stroke-linejoin="round"
     id="path2"
     style="stroke:#00bfff;stroke-opacity:1" />
</svg>
