<?xml version="1.0" encoding="UTF-8" standalone="no"?>
<svg
   width="20.49984"
   height="21.4965"
   stroke-width="1.5"
   viewBox="0 0 20.49984 21.4965"
   fill="none"
   color="#000000"
   version="1.1"
   id="svg3"
   xmlns="http://www.w3.org/2000/svg"
   xmlns:svg="http://www.w3.org/2000/svg">
  <defs
     id="defs3" />
  <path
     d="m 15.88344,9.75 c 0.5819,5.3755 2.8664,7 2.8664,7 H 0.74984023 c 0,0 3.00000007,-2.1333 3.00000007,-9.6 0,-1.69739 0.63214,-3.32525 1.75736,-4.52548 C 6.6324203,1.42428 8.1585403,0.75 9.7498403,0.75 10.08714,0.75 10.42154,0.7803 10.74984,0.83949"
     stroke="#000000"
     stroke-width="1.5"
     stroke-linecap="round"
     stroke-linejoin="round"
     id="path1"
     style="stroke:#808080;stroke-opacity:1" />
  <path
     d="m 16.74984,6.75 c 1.6569,0 3,-1.34315 3,-3 0,-1.65685 -1.3431,-3 -3,-3 -1.6569,0 -3,1.34315 -3,3 0,1.65685 1.3431,3 3,3 z"
     stroke="#000000"
     stroke-width="1.5"
     stroke-linecap="round"
     stroke-linejoin="round"
     id="path2"
     style="stroke:#808080;stroke-opacity:1" />
  <path
     d="m 11.47984,19.75 c -0.1758,0.3031 -0.4281,0.5547 -0.7318,0.7295 -0.3036,0.1749 -0.6478,0.267 -0.9981997,0.267 -0.3504,0 -0.6946,-0.0921 -0.9982,-0.267 -0.3036,-0.1748 -0.556,-0.4264 -0.7318,-0.7295"
     stroke="#000000"
     stroke-width="1.5"
     stroke-linecap="round"
     stroke-linejoin="round"
     id="path3"
     style="stroke:#808080;stroke-opacity:1" />
</svg>
