<?xml version="1.0" encoding="UTF-8" standalone="no"?>
<svg
   width="19.49968"
   height="21.4965"
   stroke-width="1.5"
   viewBox="0 0 19.49968 21.4965"
   fill="none"
   color="#000000"
   version="1.1"
   id="svg2"
   xmlns="http://www.w3.org/2000/svg"
   xmlns:svg="http://www.w3.org/2000/svg">
  <defs
     id="defs2" />
  <path
     d="m 15.74984,7.15 c 0,-1.69739 -0.6321,-3.32525 -1.7574,-4.52548 C 12.86724,1.42428 11.34114,0.75 9.7498403,0.75 c -1.5913,0 -3.11742,0.67428 -4.24264,1.87452 -1.12522,1.20023 -1.75736,2.82809 -1.75736,4.52548 0,7.4667 -3.00000007,9.6 -3.00000007,9.6 H 18.74984 c 0,0 -3,-2.1333 -3,-9.6 z"
     stroke="#000000"
     stroke-width="1.5"
     stroke-linecap="round"
     stroke-linejoin="round"
     id="path1"
     style="stroke:#808080;stroke-opacity:1" />
  <path
     d="m 11.47984,19.75 c -0.1758,0.3031 -0.4281,0.5547 -0.7318,0.7295 -0.3036,0.1749 -0.6478,0.267 -0.9981997,0.267 -0.3504,0 -0.6946,-0.0921 -0.9982,-0.267 -0.3036,-0.1748 -0.556,-0.4264 -0.7318,-0.7295"
     stroke="#000000"
     stroke-width="1.5"
     stroke-linecap="round"
     stroke-linejoin="round"
     id="path2"
     style="stroke:#808080;stroke-opacity:1" />
</svg>
