<?xml version="1.0" encoding="UTF-8" standalone="no"?>
<!-- Created with Inkscape (http://www.inkscape.org/) -->

<svg
   width="320mm"
   height="180mm"
   viewBox="0 0 320 180"
   version="1.1"
   id="svg1"
   sodipodi:docname="2_background.svg"
   inkscape:version="1.3.2 (091e20e, 2023-11-25, custom)"
   inkscape:export-filename="background_0.svg"
   inkscape:export-xdpi="152.39999"
   inkscape:export-ydpi="152.39999"
   xmlns:inkscape="http://www.inkscape.org/namespaces/inkscape"
   xmlns:sodipodi="http://sodipodi.sourceforge.net/DTD/sodipodi-0.dtd"
   xmlns="http://www.w3.org/2000/svg"
   xmlns:svg="http://www.w3.org/2000/svg">
  <sodipodi:namedview
     id="namedview1"
     pagecolor="#ffffff"
     bordercolor="#000000"
     borderopacity="0.25"
     inkscape:showpageshadow="2"
     inkscape:pageopacity="0.0"
     inkscape:pagecheckerboard="0"
     inkscape:deskcolor="#d1d1d1"
     inkscape:document-units="mm"
     showgrid="false"
     inkscape:zoom="256"
     inkscape:cx="252.25195"
     inkscape:cy="229.56055"
     inkscape:window-width="1920"
     inkscape:window-height="991"
     inkscape:window-x="-9"
     inkscape:window-y="-9"
     inkscape:window-maximized="1"
     inkscape:current-layer="layer1">
    <inkscape:grid
       id="grid1"
       units="mm"
       originx="0"
       originy="0"
       spacingx="0.99999997"
       spacingy="1"
       empcolor="#0099e5"
       empopacity="0.30196078"
       color="#0099e5"
       opacity="0.14901961"
       empspacing="5"
       dotted="false"
       gridanglex="30"
       gridanglez="30"
       visible="false" />
  </sodipodi:namedview>
  <defs
     id="defs1" />
  <g
     inkscape:label="Layer 1"
     inkscape:groupmode="layer"
     id="layer1">
    <path
       style="opacity:0.05;fill:none;stroke:#ff0092;stroke-width:0.5;stroke-dasharray:none;stroke-opacity:1"
       id="path6"
       d="m 129.55674,0.24261429 c -0.11451,0.0688178 0.12767,-0.12901875 -0.58559,0.26189351 -2.6337,1.4434329 -8.29442,5.4004518 -10.43702,7.0828847 -2.26057,1.7750494 -4.37251,3.7316245 -6.55877,5.5974385 -4.4316,4.143398 -8.8775,8.065332 -12.834603,12.686689 -1.883839,2.200083 -3.63811,4.515482 -5.273559,6.905998 -2.193906,3.206798 -5.999309,9.112738 -6.190084,13.383381 -0.09329,2.088596 1.011654,4.057129 1.517482,6.085693 1.640546,1.770731 3.021732,3.823157 4.921641,5.312193 2.319882,1.818187 4.974894,3.181628 7.607413,4.507346 9.497,4.782636 11.40203,5.024139 20.93892,8.20911 12.23156,4.084895 7.13714,2.284246 18.70243,6.660646 2.9917,1.395932 7.517,3.080871 10.37739,5.407812 1.29879,1.056576 2.63187,2.120869 3.6519,3.448554 0.84077,1.094354 1.53843,2.360722 1.84499,3.706276 0.86664,3.803806 -0.70877,5.661277 -2.20639,9.079167 -1.45358,1.937394 -2.76147,3.993194 -4.36075,5.812164 -4.80039,5.45981 -13.17336,13.17164 -18.29199,17.8439 -8.60376,7.85347 -15.9066,14.22052 -24.88055,21.69988 -4.52091,3.76796 -9.119175,7.44214 -13.678754,11.16321 -10.939949,8.72127 -21.734353,16.43176 -33.040187,24.66687 l 3.842067,-0.002 c 11.219935,-8.94079 18.712555,-15.1786 30.020429,-24.14894 4.598903,-3.69731 9.234315,-7.34965 13.796725,-11.0919 8.0784,-6.62618 17.37427,-14.59697 25.30362,-21.4418 2.28158,-1.96952 16.53107,-14.25682 19.4319,-17.1955 1.7299,-1.75248 3.13639,-3.7971 4.70458,-5.69564 1.69601,-3.461736 3.42847,-5.275525 2.54222,-9.249384 -0.68806,-3.085229 -3.3916,-5.7754 -5.8146,-7.486248 -5.85496,-4.134099 -8.95031,-5.218439 -15.2304,-8.07236 -11.85085,-4.394361 -5.94495,-2.303681 -18.58829,-6.560439 -3.23604,-1.089507 -6.4861,-2.138048 -9.70931,-3.264958 -5.54911,-1.940105 -9.42915,-3.136137 -14.241261,-6.857549 -1.853771,-1.433605 -3.220333,-3.405327 -4.830501,-5.107994 -0.566982,-1.996648 -1.730035,-3.914561 -1.700943,-5.989948 0.06082,-4.33867 3.650235,-10.173077 5.848601,-13.46146 4.972184,-7.437532 11.357604,-13.69843 18.078374,-19.5385 2.26909,-1.803387 4.30431,-3.429823 6.64355,-5.1412211 5.45334,-3.9896904 10.42031,-6.7695219 16.71833,-9.2012405 z"
       sodipodi:nodetypes="csscssscssscssscsssccccssscsscssscsscscc" />
    <path
       style="opacity:0.05;fill:none;fill-opacity:1;stroke:#ff0092;stroke-width:0.5;stroke-linecap:butt;stroke-linejoin:miter;stroke-dasharray:none;stroke-dashoffset:0;stroke-opacity:1"
       id="path14"
       d="m 152.10396,0.24911309 c -1.47081,1.28448301 -1.73659,1.44401991 -8.02608,6.58344401 -3.21345,2.7523048 -6.36494,5.5921679 -9.30856,8.6345969 -0.61409,0.634694 -1.23195,1.267202 -1.80836,1.936293 -0.55129,0.639932 -1.04794,1.32498 -1.5719,1.987469 -1.64219,2.198609 -3.11724,4.554075 -3.97558,7.177367 -0.46231,1.412923 -0.52601,1.995689 -0.80161,3.443065 -0.29965,2.087798 -0.49012,4.199798 -0.40221,6.310506 0.0376,0.901943 0.14476,1.93548 0.22849,2.83618 0.21115,1.848244 0.46801,3.727619 1.19752,5.456118 0.12528,0.296834 0.28453,0.578157 0.42679,0.867236 0.69642,1.153252 1.52908,2.22927 2.55865,3.105494 0.70383,0.599003 1.15961,0.879263 1.92565,1.401781 0.36269,0.218447 0.72064,0.444947 1.08806,0.655343 1.43507,0.821786 2.85885,1.664761 4.31905,2.441009 0.44078,0.23432 0.91432,0.40141 1.3776,0.587343 1.74036,0.698492 3.52418,1.232395 5.31805,1.772838 4.36404,1.256583 8.76835,2.343732 13.21559,3.259699 3.15309,0.638005 6.32552,1.181478 9.47991,1.812134 0.2079,0.04156 4.31195,0.922922 4.55908,0.97595 4.01362,0.729199 7.87246,2.02479 11.72766,3.320698 3.44954,1.164087 6.85516,2.466895 10.18848,3.93071 2.29924,1.042332 3.63035,1.687804 5.8625,2.865639 0.53112,0.280257 0.59958,0.299884 0.6703,0.334307 0.29732,0.144716 0.45027,0.227612 0.54117,0.276863 3.06235,1.858991 5.49398,3.877264 8.27452,6.130294 0.52202,0.440929 1.07343,0.814284 1.59117,1.260218 1.28525,1.106988 1.98051,1.711701 3.1731,2.951541 1.61161,1.67545 3.06101,3.477567 4.48422,5.311675 1.93157,2.68316 3.71486,5.498028 5.06768,8.522491 0.27298,0.610293 0.50904,1.236437 0.76356,1.854657 1.49581,3.913978 2.38563,8.043598 2.68415,12.223808 0.10578,1.48113 0.11005,2.96777 0.16508,4.45166 -0.059,1.92953 -0.0762,3.86081 -0.17712,5.78861 -0.24116,4.60696 -0.69444,9.24855 -1.18814,13.83239 -0.82811,7.68887 -2.27086,16.81232 -3.28173,24.47852 -1.56916,10.96042 -1.4526,9.77171 -3.05672,20.72673 l 3.39102,0.005 c 0.0435,0.0435 0.63172,-7.79627 2.31401,-21.00593 1.83276,-14.10155 3.92747,-28.1906 4.82487,-42.39218 -0.0109,-3.06441 0.0693,-4.97717 -0.23959,-7.95296 -0.30725,-2.95955 -1.13381,-5.85135 -2.14748,-8.636901 -0.25156,-0.62474 -0.48495,-1.257112 -0.75469,-1.874221 -1.33821,-3.061573 -3.1127,-5.913427 -5.075,-8.609783 -1.87882,-2.425321 -3.81173,-4.829891 -6.04374,-6.945145 -0.50118,-0.474964 -1.03033,-0.919565 -1.55127,-1.372762 -0.51195,-0.445373 -1.03153,-0.881901 -1.5473,-1.32285 -2.75346,-2.266442 -5.60212,-4.441751 -8.6369,-6.320076 -1.53106,-0.886137 -3.05343,-1.787472 -4.59319,-2.658414 -2.71814,-1.537481 -5.56363,-2.855447 -8.38256,-4.192413 -3.33448,-1.44377 -6.73136,-2.745361 -10.18211,-3.885337 -0.1047,-0.03511 -3.73853,-1.254043 -3.8222,-1.280623 -2.58504,-0.82127 -5.23089,-1.4346 -7.88731,-1.974435 -4.66956,-0.98798 -9.3599,-1.867032 -14.04298,-2.788552 -4.44904,-0.926804 -8.85982,-2.015559 -13.21876,-3.304982 -1.81463,-0.572005 -3.61479,-1.156334 -5.37912,-1.875128 -0.34718,-0.141441 -0.49578,-0.229449 -0.57205,-0.274141 -0.0736,-0.04314 -0.46429,-0.306484 -0.50842,-0.337636 -0.0293,-0.02068 -0.44234,-0.267361 -0.69454,-0.452678 -0.94237,-0.620419 -0.4367,-0.281135 -1.30082,-0.968953 -0.75699,-0.602547 -1.2537,-1.48668 -1.79777,-2.28114 -0.15049,-0.274997 -0.32104,-0.539932 -0.45147,-0.824989 -0.77841,-1.701112 -1.06204,-3.566448 -1.30738,-5.403048 -0.0865,-0.82596 -0.21924,-1.996649 -0.26327,-2.821093 -0.11172,-2.09191 0.0636,-4.188902 0.33123,-6.262601 0.25531,-1.419121 0.31587,-2.01056 0.75238,-3.397308 0.81731,-2.596476 2.2244,-4.950351 3.81063,-7.144576 0.51279,-0.658525 1.00092,-1.337013 1.53837,-1.975574 0.93452,-1.110334 2.75562,-3.003321 3.75854,-4.003114 1.28905,-1.285019 3.31837,-3.204573 4.66676,-4.397022 0.84267,-0.745214 1.71323,-1.4582773 2.56985,-2.187416 3.52494,-2.8399345 5.43517,-4.6033623 9.70017,-8.37697126 z"
       sodipodi:nodetypes="ccsscscccscscsssccscccssccsscscscsscccccscscssccsccccccssscscccscscsssccc" />
    <path
       style="opacity:0.06;fill:#ff0092;fill-opacity:1;stroke:none;stroke-width:0.2;stroke-linecap:butt;stroke-linejoin:miter;stroke-miterlimit:4;stroke-dasharray:none;stroke-dashoffset:0;stroke-opacity:1"
       id="path108"
       d="m 238.75451,124.83485 c 0.88961,-0.26686 1.17132,-0.37085 2.24516,-0.55643 3.93622,-0.68023 7.94676,-0.9544 11.92314,-1.28731 0,0 -0.70461,-0.50275 -0.70461,-0.50275 v 0 c -3.96736,0.35046 -8.04844,0.63596 -11.97838,1.26216 -1.03774,0.16535 -1.41566,0.28478 -2.30125,0.52553 z" />
    <path
       style="opacity:0.06;fill:#ff0092;fill-opacity:1;stroke:none;stroke-width:0.2;stroke-linecap:butt;stroke-linejoin:miter;stroke-miterlimit:4;stroke-dasharray:none;stroke-dashoffset:0;stroke-opacity:1"
       id="path128"
       d="m 238.1186,125.51891 c 0.66763,5.58473 1.22242,11.18301 1.85465,16.77227 0.56081,4.88411 1.10989,9.76951 1.67405,14.65324 0,0 0.62983,0.31148 0.62983,0.31148 v 0 c -0.60969,-4.88463 -1.19222,-9.77234 -1.70622,-14.66817 -0.55705,-5.54036 -1.11106,-11.08143 -1.56865,-16.63082 z" />
    <path
       style="opacity:0.06;fill:#ff0092;fill-opacity:1;stroke:none;stroke-width:0.2;stroke-linecap:butt;stroke-linejoin:miter;stroke-miterlimit:4;stroke-dasharray:none;stroke-dashoffset:0;stroke-opacity:1"
       id="path129"
       d="m 251.42204,122.71742 c 0.65446,3.67062 1.83392,7.21941 2.96783,10.76221 2.53022,7.3515 5.1001,14.6919 7.83728,21.9693 0,0 0.72015,0.33441 0.72015,0.33441 v 0 c -2.81412,-7.25251 -5.38856,-14.59752 -7.85801,-21.97385 -1.08841,-3.50461 -2.23929,-7.02252 -2.77913,-10.66375 z" />
    <path
       style="opacity:0.06;fill:#ff0092;fill-opacity:1;stroke:none;stroke-width:0.2;stroke-linecap:butt;stroke-linejoin:miter;stroke-miterlimit:4;stroke-dasharray:none;stroke-dashoffset:0;stroke-opacity:1"
       id="path130"
       d="m 241.4536,160.44364 c 2.23032,-0.77854 3.97676,-1.0645 6.30431,-1.40977 2.46528,-0.3657 4.33021,-0.56781 6.79436,-0.85862 2.31725,-0.28451 4.64412,-0.4701 6.972,-0.63802 l -0.71593,-0.51157 v 0 c -2.29943,0.19786 -4.59754,0.4123 -6.88765,0.70209 -2.21508,0.26776 -4.60141,0.54704 -6.80828,0.85227 -2.38335,0.32964 -4.18055,0.57767 -6.47925,1.31844 z"
       sodipodi:nodetypes="cscccscscc" />
    <path
       style="opacity:0.06;fill:#ff0092;fill-opacity:1;stroke:none;stroke-width:0.2;stroke-linecap:butt;stroke-linejoin:miter;stroke-miterlimit:4;stroke-dasharray:none;stroke-dashoffset:0;stroke-opacity:1"
       id="path132"
       d="m 255.04404,112.09808 c -0.48381,1.70593 -1.08547,3.37757 -1.66688,5.05236 -0.50812,1.51715 -1.03506,3.02826 -1.50044,4.55938 0,0 0.84584,0.46205 0.84584,0.46205 v 0 c 0.44183,-1.53914 0.96145,-3.05375 1.46794,-4.57235 0.57494,-1.67463 1.18091,-3.33946 1.71266,-5.02828 z" />
    <path
       style="opacity:0.06;fill:#ff0092;fill-opacity:1;stroke:none;stroke-width:0.2;stroke-linecap:butt;stroke-linejoin:miter;stroke-miterlimit:4;stroke-dasharray:none;stroke-dashoffset:0;stroke-opacity:1"
       id="path133"
       d="m 255.16259,110.72221 c 0.4162,1.12999 0.85066,2.25343 1.28928,3.37503 0.71791,2.01883 1.74601,3.90698 2.76767,5.78398 1.8949,3.40635 4.15969,6.58827 6.36389,9.79746 2.60072,3.71714 5.10849,7.49604 7.51821,11.33951 1.39277,2.32227 2.66605,4.71303 3.98468,7.07752 l 0.84831,0.37856 v 0 c 0,0 -2.61817,-4.78773 -4.0485,-7.1103 -2.38101,-3.86628 -4.92778,-7.62609 -7.52909,-11.34802 -2.18799,-3.19539 -4.43571,-6.36459 -6.30552,-9.76169 -1.01249,-1.86933 -2.03252,-3.75019 -2.74268,-5.7598 -0.43226,-1.10998 -0.85094,-2.22555 -1.25568,-3.34563 z"
       sodipodi:nodetypes="cccccccasccccc" />
    <path
       style="opacity:0.06;fill:#ff0092;fill-opacity:1;stroke:none;stroke-width:0.2;stroke-linecap:butt;stroke-linejoin:miter;stroke-miterlimit:4;stroke-dasharray:none;stroke-dashoffset:0;stroke-opacity:1"
       id="path134"
       d="m 277.14752,148.25157 c -3.09142,1.89132 -6.04166,4.00564 -8.99597,6.10178 -2.44567,1.7547 -1.275,0.90424 -3.51432,2.5483 0,0 0.73077,0.46269 0.73077,0.46269 v 0 c 2.21224,-1.66165 1.05223,-0.80483 3.48367,-2.56552 2.97045,-2.10218 5.94579,-4.22195 9.11706,-6.01446 z" />
    <path
       style="opacity:0.06;fill:#ff0092;fill-opacity:1;stroke:none;stroke-width:0.2;stroke-linecap:butt;stroke-linejoin:miter;stroke-miterlimit:4;stroke-dasharray:none;stroke-dashoffset:0;stroke-opacity:1"
       id="path135"
       d="m 257.44769,111.63538 c 0.40134,0.0386 0.19376,0.0121 0.62232,0.0828 0,0 -0.78113,-0.58672 -0.78113,-0.58672 v 0 c -0.43623,-0.0679 -0.22514,-0.0396 -0.63303,-0.0866 z" />
    <path
       style="opacity:0.065;fill:#ff0092;fill-opacity:1;stroke:none;stroke-width:0.2;stroke-linecap:butt;stroke-linejoin:miter;stroke-miterlimit:4;stroke-dasharray:none;stroke-dashoffset:0;stroke-opacity:1"
       id="path136"
       d="m 258.51029,112.21351 c 0.63648,2.61303 2.04018,4.96764 3.36573,7.27833 2.46366,4.11031 5.16997,8.06659 7.83393,12.04768 2.20035,3.3609 4.43272,6.70097 6.60268,10.08167 1.09267,1.78065 2.25192,3.52706 3.21847,5.38138 0.25244,0.48512 0.47188,0.98428 0.68432,1.48754 0.0784,0.18577 0.18468,0.36944 0.21037,0.57198 -0.30562,0.21146 -0.56485,0.40575 -0.91496,0.66515 -0.28885,0.21883 -0.56309,0.45362 -0.86371,0.65595 l 0.82886,0.5291 v 0 c 0.30041,-0.21033 0.5483,-0.42727 0.8185,-0.67523 0.13766,-0.1282 0.30071,-0.24866 0.44494,-0.36652 0.13557,-0.11079 0.28314,-0.18504 0.44927,-0.26293 0.0405,-0.019 0.0944,-0.0692 0.12507,-0.10173 -0.009,-0.22892 -0.1293,-0.40231 -0.2204,-0.6109 -0.22047,-0.5048 -0.42968,-1.0145 -0.6917,-1.50042 -0.98189,-1.87171 -2.17204,-3.62556 -3.2848,-5.41997 -2.18773,-3.37984 -4.41545,-6.73361 -6.63046,-10.09558 -2.67192,-3.97249 -5.37837,-7.92616 -7.83141,-12.03985 -1.29339,-2.27874 -2.67752,-4.60463 -3.25911,-7.18818 z"
       sodipodi:nodetypes="cccccsccccscsscscccccc" />
    <path
       style="opacity:0.06;fill:#ff0092;fill-opacity:1;stroke:none;stroke-width:0.2;stroke-linecap:butt;stroke-linejoin:miter;stroke-miterlimit:4;stroke-dasharray:none;stroke-dashoffset:0;stroke-opacity:1"
       id="path137"
       d="m 242.19516,160.51797 c -0.15044,1.8719 -0.20705,3.75011 -0.27678,5.62638 0,0 0.8328,0.42773 0.8328,0.42773 v 0 c 0.0517,-1.86789 0.0979,-3.74112 0.3169,-5.59832 z" />
    <path
       style="opacity:0.06;fill:#ff0092;fill-opacity:1;stroke:none;stroke-width:0.2;stroke-linecap:butt;stroke-linejoin:miter;stroke-miterlimit:4;stroke-dasharray:none;stroke-dashoffset:0;stroke-opacity:1"
       id="path138"
       d="m 245.76927,159.56415 c 0.21968,1.54244 0.6411,3.04635 1.00032,4.56003 0.19735,0.92748 0.099,0.48453 0.29306,1.32928 0,0 0.86331,0.41494 0.86331,0.41494 v 0 c -0.20575,-0.84749 -0.10302,-0.40261 -0.30522,-1.33533 -0.35869,-1.49872 -0.78711,-2.98759 -0.97264,-4.52113 z" />
    <path
       style="opacity:0.06;fill:#ff0092;fill-opacity:1;stroke:none;stroke-width:0.2;stroke-linecap:butt;stroke-linejoin:miter;stroke-miterlimit:4;stroke-dasharray:none;stroke-dashoffset:0;stroke-opacity:1"
       id="path139"
       d="m 243.39795,166.79968 c 0.81542,0.056 1.63117,0.10656 2.44861,0.10583 0,0 -0.77996,-0.56679 -0.77996,-0.56679 v 0 c -0.82472,-0.002 -1.64691,-0.0575 -2.46907,-0.12058 z" />
    <path
       style="opacity:0.06;fill:#ff0092;fill-opacity:1;stroke:none;stroke-width:0.2;stroke-linecap:butt;stroke-linejoin:miter;stroke-miterlimit:4;stroke-dasharray:none;stroke-dashoffset:0;stroke-opacity:1"
       id="path140"
       d="m 261.23921,157.63407 c -0.25943,1.79211 -0.66309,4.52956 -0.88485,6.32699 l 1.01698,0.82524 0.009,-0.14032 c 0.019,-0.30361 0.40219,-4.77772 0.72049,-6.55137 z"
       sodipodi:nodetypes="cccscc" />
    <path
       style="opacity:0.06;fill:#ff0092;fill-opacity:1;stroke:none;stroke-width:0.2;stroke-linecap:butt;stroke-linejoin:miter;stroke-miterlimit:4;stroke-dasharray:none;stroke-dashoffset:0;stroke-opacity:1"
       id="path141"
       d="m 263.37459,158.4244 c 0.19984,0.87066 0.47999,4.63514 0.66917,5.50826 l 0.87163,-0.52059 -0.0662,-0.38011 c -0.0464,-0.26634 -0.42052,-3.3095 -0.58896,-4.1701 z"
       sodipodi:nodetypes="cccscc" />
    <path
       style="opacity:0.06;fill:#ff0092;fill-opacity:1;stroke:none;stroke-width:0.2;stroke-linecap:butt;stroke-linejoin:miter;stroke-miterlimit:4;stroke-dasharray:none;stroke-dashoffset:0;stroke-opacity:1"
       id="path142"
       d="m 262.38599,166.1846 c 0.73676,-0.11009 1.48001,-0.1604 2.21896,-0.25241 0,0 -0.78587,-0.55616 -0.78587,-0.55616 v 0 c -0.74509,0.0936 -1.49393,0.14785 -2.23864,0.24515 z" />
    <path
       style="opacity:0.06;fill:#ff0092;fill-opacity:1;stroke:none;stroke-width:0.2;stroke-linecap:butt;stroke-linejoin:miter;stroke-miterlimit:4;stroke-dasharray:none;stroke-dashoffset:0;stroke-opacity:1"
       id="path144"
       d="m 238.09728,128.64907 c -0.22129,1.96102 -0.32129,3.93316 -0.45924,5.90121 0,0 0.80959,0.41951 0.80959,0.41951 v 0 c 0.13154,-1.9599 0.23029,-3.92868 0.53119,-5.87155 z" />
    <path
       style="opacity:0.06;fill:#ff0092;fill-opacity:1;stroke:none;stroke-width:0.2;stroke-linecap:butt;stroke-linejoin:miter;stroke-miterlimit:4;stroke-dasharray:none;stroke-dashoffset:0;stroke-opacity:1"
       id="path145"
       d="m 238.33409,135.63868 c 0.56059,0.17634 1.08803,0.4267 1.61355,0.68685 0,0 -0.75731,-0.60502 -0.75731,-0.60502 v 0 c -0.53251,-0.26088 -1.07084,-0.50116 -1.63173,-0.69471 z" />
    <path
       style="opacity:0.06;fill:#ff0092;fill-opacity:1;stroke:none;stroke-width:0.2;stroke-linecap:butt;stroke-linejoin:miter;stroke-miterlimit:4;stroke-dasharray:none;stroke-dashoffset:0;stroke-opacity:1"
       id="path147"
       d="m 278.64853,150.384 c -1.13497,0.89874 -1.58434,1.31493 -2.8203,2.08227 -1.70349,1.19272 -3.54089,2.20029 -5.21116,3.43833 -1.11699,0.80191 -2.15098,1.70648 -3.19254,2.60146 l 0.78931,0.49063 v 0 c 0.45103,-0.40658 0.8985,-0.82061 1.36316,-1.21155 0.58041,-0.4883 1.19356,-0.93595 1.78625,-1.40878 1.6474,-1.25982 3.3366,-2.21982 5.03848,-3.40625 1.24949,-0.80982 1.82901,-1.13909 3.07496,-2.05733 z"
       sodipodi:nodetypes="cccccsscccc" />
    <path
       style="opacity:0.06;fill:#ff0092;fill-opacity:1;stroke:none;stroke-width:0.2;stroke-linecap:butt;stroke-linejoin:miter;stroke-miterlimit:4;stroke-dasharray:none;stroke-dashoffset:0;stroke-opacity:1"
       id="path148"
       d="m 266.99898,157.98732 c -1.44823,-0.55933 -3.00023,-0.78566 -4.52772,-1.01628 0,0 0.70385,0.52748 0.70385,0.52748 v 0 c 1.55303,0.22906 3.13706,0.46708 4.58621,1.09861 z" />
    <path
       style="opacity:0.06;fill:#ff0092;fill-opacity:1;stroke:none;stroke-width:0.2;stroke-linecap:butt;stroke-linejoin:miter;stroke-miterlimit:4;stroke-dasharray:none;stroke-dashoffset:0;stroke-opacity:1"
       id="path150"
       d="m 244.37814,156.20191 c 2.41376,-0.74419 4.9542,-0.94515 7.45464,-1.20098 1.52491,-0.13985 3.05155,-0.26282 4.58029,-0.35246 0.35668,-0.0209 0.71323,-0.0479 1.07045,-0.0554 0.65041,-0.0136 1.07222,0.0227 1.70925,0.0601 1.17512,0.0682 2.2923,0.46682 3.41116,0.80039 0,0 -0.74101,-0.57173 -0.74101,-0.57173 v 0 c -1.11973,-0.33047 -2.23852,-0.7244 -3.41548,-0.77611 -0.64531,-0.0293 -1.03286,-0.0585 -1.69333,-0.0362 -1.8655,0.0629 -3.72136,0.32389 -5.58107,0.46217 -2.54787,0.25632 -5.12653,0.44603 -7.60762,1.11517 z" />
    <path
       style="opacity:0.06;fill:#ff0092;fill-opacity:1;stroke:none;stroke-width:0.2;stroke-linecap:butt;stroke-linejoin:miter;stroke-miterlimit:4;stroke-dasharray:none;stroke-dashoffset:0;stroke-opacity:1"
       id="path151"
       d="m 238.49537,124.85402 c 0.17656,1.84828 0.52101,3.67402 0.85683,5.49834 0.70332,3.52236 1.14662,7.08765 1.61385,10.64685 0.44098,3.31798 0.78289,6.64761 1.151,9.97412 0.19109,1.61032 0.35337,3.22418 0.44284,4.84351 l 0.85061,0.42693 c -0.10911,-1.63268 -0.31234,-3.25742 -0.50799,-4.88147 -0.39885,-3.33812 -0.7787,-6.67853 -1.22301,-10.01107 -0.45675,-3.54722 -0.85752,-7.10478 -1.54404,-10.61724 -0.32031,-1.80293 -0.65792,-3.61013 -0.76177,-5.44156 z"
       sodipodi:nodetypes="ccccccccccc" />
    <path
       style="opacity:0.06;fill:#ff0092;fill-opacity:1;stroke:none;stroke-width:0.2;stroke-linecap:butt;stroke-linejoin:miter;stroke-miterlimit:4;stroke-dasharray:none;stroke-dashoffset:0;stroke-opacity:1"
       id="path152"
       d="m 242.50749,155.86096 c -0.36205,1.18732 -0.70474,2.38034 -1.06121,3.56947 0,0 0.80765,0.44154 0.80765,0.44154 v 0 c 0.35382,-1.18497 0.7078,-2.37183 1.11706,-3.53885 z" />
    <path
       style="opacity:0.06;fill:#ff0092;fill-opacity:1;stroke:none;stroke-width:0.2;stroke-linecap:butt;stroke-linejoin:miter;stroke-miterlimit:4;stroke-dasharray:none;stroke-dashoffset:0;stroke-opacity:1"
       id="path153"
       d="m 277.5382,148.72836 c 1.08122,0.0583 2.1585,0.16926 3.23565,0.27658 0,0 -0.64069,-0.47525 -0.64069,-0.47525 v 0 c -1.12861,-0.11185 -2.25645,-0.22927 -3.38069,-0.37973 z" />
    <path
       style="opacity:0.09;fill:#ff0092;fill-opacity:1;stroke:none;stroke-width:0.2;stroke-linecap:butt;stroke-linejoin:miter;stroke-miterlimit:4;stroke-dasharray:none;stroke-dashoffset:0;stroke-opacity:1"
       id="path154"
       d="m 240.29599,120.90878 c 0.003,0.32189 -0.0153,1.22406 -0.0361,1.53677 l 0.78141,0.35312 -0.003,-0.26963 c -0.0111,-0.87501 -0.0405,-1.75833 -0.15072,-3.44789 -0.18405,0.18122 -0.6545,0.69678 -0.6692,0.61198 0.0205,0.39889 0.0792,0.82407 0.078,1.21566 z"
       sodipodi:nodetypes="cccscccc" />
    <path
       style="opacity:0.09;fill:#ff0092;fill-opacity:1;stroke:none;stroke-width:0.2;stroke-linecap:butt;stroke-linejoin:miter;stroke-miterlimit:4;stroke-dasharray:none;stroke-dashoffset:0;stroke-opacity:1"
       id="path155"
       d="m 239.28323,114.52332 c -0.28002,0.2561 -0.40075,0.50217 -0.51884,0.84598 -0.0681,0.40829 -0.13428,0.74567 0.0157,1.1574 0.0899,0.24637 0.15045,0.34167 0.32308,0.53066 0.43449,0.37409 0.96099,0.80775 1.56734,0.76913 0.1937,-0.0123 0.42075,-0.0883 0.58451,-0.19048 0.10095,-0.063 0.1859,-0.14859 0.27885,-0.22289 0.24531,-0.24634 0.43409,-0.57528 0.46421,-0.90037 0.0426,-0.45978 -0.13605,-0.68358 -0.4371,-0.9377 -0.72267,-0.44205 -0.23915,-0.15635 -1.47535,-0.8137 1.42889,1.05198 0.30113,0.21962 0.65346,0.48176 0.18578,0.1471 0.40014,0.3107 0.52299,0.53767 0.0516,0.0954 0.12485,0.34252 0.12101,0.4441 -0.021,0.55664 -0.25538,0.79188 -0.42939,0.90195 -0.17401,0.11007 -0.35613,0.17162 -0.45706,0.18721 -0.20509,0.0317 -0.3813,-0.006 -0.56694,-0.0383 -0.22377,-0.10489 -0.30777,-0.19316 -0.39907,-0.31722 -0.28317,-0.38474 -0.46258,-0.72271 -0.34874,-1.27475 0.087,-0.31291 0.22475,-0.69899 0.56038,-0.82783 z"
       sodipodi:nodetypes="ccscsscscccsszscsccc" />
    <path
       style="opacity:0.09;fill:#ff0092;fill-opacity:1;stroke:none;stroke-width:0.2;stroke-linecap:butt;stroke-linejoin:miter;stroke-miterlimit:4;stroke-dasharray:none;stroke-dashoffset:0;stroke-opacity:1"
       id="path175"
       d="m 239.50705,117.18452 c -0.21093,0.22326 -0.51244,0.32839 -0.79095,0.43856 -0.32089,0.11276 -0.65292,0.19247 -0.9901,0.23711 -0.15486,0.0205 -0.286,0.0298 -0.4407,0.0428 0,0 0.36165,0.25744 0.36165,0.25744 v 0 c 0.0627,-0.007 0.38633,-0.0423 0.43631,-0.0494 0.33678,-0.0485 0.66536,-0.14079 0.98704,-0.24991 0.26585,-0.0991 0.53673,-0.19503 0.77555,-0.35191 0.0208,-0.0137 0.0643,-0.0518 0.0862,-0.0706 z" />
    <path
       style="opacity:0.09;fill:#ff0092;fill-opacity:1;stroke:none;stroke-width:0.2;stroke-linecap:butt;stroke-linejoin:miter;stroke-miterlimit:4;stroke-dasharray:none;stroke-dashoffset:0;stroke-opacity:1"
       id="path176"
       d="m 237.4227,117.89364 c -0.0284,-0.18358 -0.0415,-0.3685 -0.043,-0.55411 0.006,-0.1689 0.0296,-0.34054 0.11383,-0.49005 0.0601,-0.10665 0.0825,-0.12135 0.16401,-0.21127 0.1293,-0.11856 0.064,-0.0619 0.19559,-0.17033 0,0 -0.39495,-0.24663 -0.39495,-0.24663 v 0 c -0.13106,0.11319 -0.0654,0.0542 -0.19655,0.1773 -0.095,0.10697 -0.18062,0.2052 -0.23196,0.34215 -0.0448,0.11951 -0.0522,0.26215 -0.0635,0.3877 -0.005,0.18238 0.004,0.36411 0.0156,0.54609 z" />
    <path
       style="opacity:0.09;fill:#ff0092;fill-opacity:1;stroke:none;stroke-width:0.2;stroke-linecap:butt;stroke-linejoin:miter;stroke-miterlimit:4;stroke-dasharray:none;stroke-dashoffset:0;stroke-opacity:1"
       id="path177"
       d="m 238.50119,115.965 c -0.23051,0.024 -0.46294,0.0249 -0.69448,0.0276 -0.0963,-10e-4 -0.23666,5.2e-4 -0.33269,-0.0153 -0.26679,-0.0438 -0.51202,-0.16626 -0.75214,-0.28365 -0.17218,-0.0886 -0.12863,-0.0638 -0.28301,-0.15155 -0.0327,-0.0186 -0.13077,-0.0744 -0.0977,-0.0564 0.54727,0.29743 0.38459,0.24856 0.27352,0.12953 -0.0184,-0.0197 -0.0338,-0.0419 -0.0507,-0.0629 -0.0534,-0.0757 -0.0928,-0.15962 -0.13365,-0.24239 0,0 -0.43356,-0.19626 -0.43356,-0.19626 v 0 c 0.042,0.0836 0.0825,0.16809 0.12857,0.2496 0.16773,0.24052 0.21377,0.1996 0.58177,0.4182 0.11735,0.0697 0.24118,0.12854 0.36297,0.18978 0.24664,0.11646 0.49766,0.2361 0.77057,0.27633 0.0856,0.0126 0.24764,0.0105 0.33298,0.0111 0.24355,-0.002 0.4874,0.002 0.73075,-0.008 z" />
    <path
       style="opacity:0.09;fill:#ff0092;fill-opacity:1;stroke:none;stroke-width:0.2;stroke-linecap:butt;stroke-linejoin:miter;stroke-miterlimit:4;stroke-dasharray:none;stroke-dashoffset:0;stroke-opacity:1"
       id="path178"
       d="m 236.25839,115.04701 c 0.0506,-0.18479 0.21823,-0.30917 0.37982,-0.39548 0.0591,-0.0316 0.12206,-0.0554 0.1831,-0.0831 0.30517,-0.1229 0.63093,-0.16142 0.95598,-0.18752 0,0 -0.36999,-0.26339 -0.36999,-0.26339 v 0 c -0.32493,0.0371 -0.65183,0.0778 -0.95629,0.20513 -0.0634,0.0284 -0.1286,0.0533 -0.19033,0.0852 -0.17906,0.0927 -0.35593,0.21555 -0.4364,0.40711 z" />
    <path
       style="opacity:0.09;fill:#ff0092;fill-opacity:1;stroke:none;stroke-width:0.2;stroke-linecap:butt;stroke-linejoin:miter;stroke-miterlimit:4;stroke-dasharray:none;stroke-dashoffset:0;stroke-opacity:1"
       id="path179"
       d="m 239.07895,115.27207 c -0.14461,-0.19574 -0.32614,-0.36144 -0.49746,-0.5334 -0.26039,-0.25944 -0.44591,-0.57698 -0.55417,-0.92799 -0.0234,-0.0757 -0.0386,-0.15368 -0.0579,-0.23053 -0.0261,-0.21932 -0.0396,-0.25769 -0.0313,-0.47641 0.003,-0.0716 0.0129,-0.1428 0.0194,-0.21419 0,0 -0.39115,-0.20343 -0.39115,-0.20343 v 0 c -0.006,0.0734 -0.0147,0.14657 -0.0169,0.22013 -0.007,0.21568 0.006,0.26959 0.0277,0.48591 0.0191,0.0784 0.0343,0.15785 0.0573,0.23518 0.0675,0.2265 0.16433,0.45374 0.29389,0.65207 0.0639,0.0978 0.15209,0.1947 0.22836,0.28319 0.16244,0.16388 0.3321,0.32257 0.47279,0.50616 z" />
    <path
       style="opacity:0.09;fill:#ff0092;fill-opacity:1;stroke:none;stroke-width:0.2;stroke-linecap:butt;stroke-linejoin:miter;stroke-miterlimit:4;stroke-dasharray:none;stroke-dashoffset:0;stroke-opacity:1"
       id="path180"
       d="m 237.73077,112.68989 c 0.18548,-0.0291 0.37706,-0.049 0.5648,-0.0314 0.0648,0.006 0.12874,0.0193 0.19311,0.0289 0.22363,0.0914 0.28041,0.10413 0.49379,0.23839 0.0317,0.02 -0.13014,-0.0704 -0.10311,-0.0445 0.0659,0.0631 0.14971,0.10436 0.22274,0.15904 0.15248,0.11417 0.1884,0.1496 0.32488,0.26878 0.13276,0.12874 0.072,0.0668 0.18329,0.18465 0,0 0.43208,0.17996 0.43208,0.17996 v 0 c -0.12267,-0.12543 -0.056,-0.0596 -0.20117,-0.19654 -0.18106,-0.15522 -0.37071,-0.31653 -0.57223,-0.44435 -0.20139,-0.12773 -0.40651,-0.24957 -0.61255,-0.36967 -0.0878,-0.0512 -0.17653,-0.10132 -0.26875,-0.14405 -0.0831,-0.0385 -0.17072,-0.0661 -0.25608,-0.0991 -0.0667,-0.009 -0.13304,-0.0219 -0.20013,-0.028 -0.20113,-0.018 -0.40417,-10e-4 -0.60492,0.0128 z" />
    <path
       style="opacity:0.09;fill:#ff0092;fill-opacity:1;stroke:none;stroke-width:0.2;stroke-linecap:butt;stroke-linejoin:miter;stroke-miterlimit:4;stroke-dasharray:none;stroke-dashoffset:0;stroke-opacity:1"
       id="path181"
       d="m 240.06738,115.0457 c -0.0237,-0.28269 -0.0255,-0.56647 0.0114,-0.84824 0.0121,-0.0928 0.0304,-0.18469 0.0456,-0.27703 0.0837,-0.37973 0.2199,-0.75024 0.46121,-1.05973 0.14572,-0.1869 0.19621,-0.2142 0.3731,-0.36325 0.0603,-0.0432 0.12068,-0.0863 0.18102,-0.12953 0,0 -0.37154,-0.23509 -0.37154,-0.23509 v 0 c -0.0584,0.0456 -0.11689,0.0912 -0.17534,0.13675 -0.17287,0.15324 -0.22944,0.18866 -0.37214,0.37725 -0.23964,0.31668 -0.3787,0.69175 -0.47046,1.07462 -0.045,0.23701 -0.0613,0.29642 -0.087,0.53119 -0.0196,0.17873 -0.0161,0.22102 -0.0239,0.38965 -0.004,0.0917 -0.005,0.10257 -0.0114,0.17952 z" />
    <path
       style="opacity:0.09;fill:#ff0092;fill-opacity:1;stroke:none;stroke-width:0.2;stroke-linecap:butt;stroke-linejoin:miter;stroke-miterlimit:4;stroke-dasharray:none;stroke-dashoffset:0;stroke-opacity:1"
       id="path182"
       d="m 240.96302,112.2347 c 0.0216,0.19708 0.0731,0.38904 0.11605,0.58217 0.0789,0.3643 0.12102,0.73518 0.13848,1.10714 -7.9e-4,0.054 -0.002,0.10789 -0.003,0.16183 0,0 0.40568,0.20743 0.40568,0.20743 v 0 c 7.9e-4,-0.0551 0.001,-0.11013 0.002,-0.1652 -0.003,-0.0573 -0.004,-0.11473 -0.008,-0.17199 -0.0216,-0.3161 -0.0784,-0.62864 -0.12765,-0.94117 -0.032,-0.18609 -0.0739,-0.37205 -0.0833,-0.56106 z" />
    <path
       style="opacity:0.09;fill:#ff0092;fill-opacity:1;stroke:none;stroke-width:0.2;stroke-linecap:butt;stroke-linejoin:miter;stroke-miterlimit:4;stroke-dasharray:none;stroke-dashoffset:0;stroke-opacity:1"
       id="path183"
       d="m 241.32888,115.31446 c -0.008,-0.24252 0.0501,-0.48993 0.14846,-0.71131 0.0283,-0.0638 0.0647,-0.12377 0.0971,-0.18566 0.11272,-0.18081 0.24915,-0.33431 0.4328,-0.44579 0.14966,-0.0909 0.31615,-0.15426 0.48253,-0.20586 0.0876,-0.0272 0.17742,-0.0466 0.26614,-0.0699 0.21858,-0.0506 0.43973,-0.0859 0.66383,-0.0976 0.0608,-0.003 0.12172,-0.003 0.18257,-0.005 0,0 -0.36577,-0.26355 -0.36577,-0.26355 v 0 c -0.0599,0.003 -0.11987,0.005 -0.17963,0.01 -0.22047,0.0179 -0.43748,0.059 -0.6513,0.11546 -0.33564,0.0916 -0.6913,0.18272 -0.96019,0.41845 -0.10773,0.0944 -0.17482,0.20769 -0.25491,0.32402 -0.034,0.063 -0.0716,0.12428 -0.10202,0.18913 -0.10377,0.22106 -0.16876,0.46305 -0.19633,0.70519 z" />
    <path
       style="opacity:0.09;fill:#ff0092;fill-opacity:1;stroke:none;stroke-width:0.2;stroke-linecap:butt;stroke-linejoin:miter;stroke-miterlimit:4;stroke-dasharray:none;stroke-dashoffset:0;stroke-opacity:1"
       id="path184"
       d="m 243.18366,113.59484 c 0.009,0.17356 -0.0681,0.33867 -0.14079,0.4917 -0.0868,0.18286 -0.13562,0.2601 -0.23715,0.43776 -0.17324,0.28903 -0.36596,0.567 -0.59466,0.81496 -0.0663,0.0593 -0.0335,0.0337 -0.0974,0.0784 0,0 0.41026,0.25827 0.41026,0.25827 v 0 c 0.0622,-0.0541 0.0305,-0.0239 0.0941,-0.0917 0.21001,-0.26695 0.3828,-0.55542 0.56006,-0.84473 0.10305,-0.17352 0.15601,-0.25838 0.25071,-0.43428 0.0331,-0.0615 0.0652,-0.12351 0.0957,-0.18629 0.0478,-0.0982 0.0919,-0.19101 0.0965,-0.30121 z" />
    <path
       style="opacity:0.09;fill:#ff0092;fill-opacity:1;stroke:none;stroke-width:0.2;stroke-linecap:butt;stroke-linejoin:miter;stroke-miterlimit:4;stroke-dasharray:none;stroke-dashoffset:0;stroke-opacity:1"
       id="path193"
       d="m 242.15254,115.69459 c 0.16416,-0.0738 0.34835,-0.0993 0.52528,-0.12224 0.28338,-0.0367 0.2673,-0.0289 0.56324,-0.0395 0.10361,0.005 0.20747,0.006 0.31083,0.0143 0.10258,0.008 0.20469,0.0222 0.30658,0.0368 0.26337,0.0377 0.52677,0.0917 0.7789,0.1783 0.0645,0.0222 0.1267,0.0504 0.19005,0.0757 0.0515,0.0238 0.10305,0.0476 0.15457,0.0714 0,0 -0.35658,-0.28261 -0.35658,-0.28261 v 0 c -0.0495,-0.0212 -0.099,-0.0423 -0.14855,-0.0635 -0.062,-0.0226 -0.12313,-0.048 -0.18613,-0.0678 -0.33876,-0.10634 -0.72036,-0.16675 -1.07346,-0.19363 -0.10494,-0.008 -0.21028,-0.009 -0.31541,-0.0137 -0.30822,0.008 -0.28488,0.002 -0.58184,0.0316 -0.19484,0.0194 -0.39453,0.0396 -0.58092,0.10286 z" />
    <path
       style="opacity:0.09;fill:#ff0092;fill-opacity:1;stroke:none;stroke-width:0.2;stroke-linecap:butt;stroke-linejoin:miter;stroke-miterlimit:4;stroke-dasharray:none;stroke-dashoffset:0;stroke-opacity:1"
       id="path194"
       d="m 244.71937,115.81192 c -0.0105,0.0161 -0.0197,0.0331 -0.0315,0.0482 -0.18427,0.23634 -0.46076,0.39994 -0.70905,0.55847 -0.33865,0.20569 -0.70185,0.36518 -1.08172,0.47631 -0.0834,0.0238 -0.16874,0.037 -0.25449,0.0479 0,0 0.39447,0.27688 0.39447,0.27688 v 0 c 0.0827,-0.0168 0.16492,-0.0358 0.2449,-0.0632 0.36876,-0.13252 0.72432,-0.30006 1.05877,-0.50484 0.17003,-0.10607 0.25976,-0.15991 0.42478,-0.27111 0.13742,-0.0926 0.27096,-0.19061 0.37884,-0.31774 z" />
    <path
       style="opacity:0.09;fill:#ff0092;fill-opacity:1;stroke:none;stroke-width:0.2;stroke-linecap:butt;stroke-linejoin:miter;stroke-miterlimit:4;stroke-dasharray:none;stroke-dashoffset:0;stroke-opacity:1"
       id="path195"
       d="m 242.02366,116.31813 c 0.0166,0.006 0.0335,0.0121 0.0499,0.0192 0.10799,0.0464 0.21567,0.0997 0.31948,0.15451 0.0469,0.0248 0.18796,0.0977 0.13884,0.0777 -0.0834,-0.034 -0.16144,-0.0798 -0.24216,-0.11978 0.23078,0.19722 0.41311,0.44331 0.54164,0.71794 0.0224,0.0477 0.041,0.0971 0.0615,0.14571 0.0872,0.22555 0.11717,0.46514 0.13195,0.70469 0.008,0.10371 0.014,0.2075 0.0179,0.31146 0,0 0.42021,0.21207 0.42021,0.21207 v 0 c -0.004,-0.10339 -0.006,-0.20685 -0.0123,-0.31012 -0.0174,-0.24669 -0.0615,-0.49314 -0.143,-0.72697 -0.0204,-0.0498 -0.0388,-0.10055 -0.0612,-0.14951 -0.12805,-0.27946 -0.31283,-0.52954 -0.53728,-0.73896 -0.17749,-0.11106 -0.35368,-0.22424 -0.53248,-0.33317 -0.17189,-0.10473 -0.35957,-0.18091 -0.5369,-0.27537 z" />
    <path
       style="opacity:0.09;fill:#ff0092;fill-opacity:1;stroke:none;stroke-width:0.2;stroke-linecap:butt;stroke-linejoin:miter;stroke-miterlimit:4;stroke-dasharray:none;stroke-dashoffset:0;stroke-opacity:1"
       id="path196"
       d="m 243.06148,118.32699 c -0.17351,0.0184 -0.34853,0.024 -0.52276,0.0161 -0.26564,-0.0149 -0.52054,-0.0993 -0.76303,-0.20404 -0.18256,-0.0783 -0.69348,-0.38025 0.0774,0.062 0,0 -0.45417,-0.1751 -0.45417,-0.1751 v 0 c 0.24363,0.14082 0.48169,0.29311 0.74228,0.40122 0.24879,0.0991 0.5077,0.18106 0.77716,0.19381 0.18207,0.005 0.36434,-0.001 0.5463,-0.009 z" />
    <path
       style="opacity:0.09;fill:#ff0092;fill-opacity:1;stroke:none;stroke-width:0.2;stroke-linecap:butt;stroke-linejoin:miter;stroke-miterlimit:4;stroke-dasharray:none;stroke-dashoffset:0;stroke-opacity:1"
       id="path199"
       d="m 241.2466,117.39363 c -0.0233,0.16053 -0.0609,0.31843 -0.10082,0.47548 -0.057,0.20404 -0.1431,0.39875 -0.24682,0.58317 -0.0696,0.12368 -0.10416,0.17115 -0.1826,0.28943 -0.0754,0.10085 -0.13764,0.18913 -0.22364,0.28231 -0.0794,0.086 -0.17683,0.17268 -0.26935,0.24462 -0.10037,0.078 -0.13987,0.0989 -0.24485,0.16385 -0.16971,0.10034 -0.35793,0.16447 -0.55012,0.20533 -0.0473,0.009 -0.0953,0.0135 -0.14321,0.0171 0,0 0.39278,0.27685 0.39278,0.27685 v 0 c 0.0431,-0.01 0.0859,-0.0202 0.12706,-0.0367 0.0645,-0.0258 0.12744,-0.0538 0.1904,-0.0832 0.1081,-0.0505 0.21566,-0.10243 0.31651,-0.16669 0.0356,-0.0275 0.072,-0.0538 0.10664,-0.0825 0.13285,-0.10992 0.25629,-0.23242 0.37667,-0.35563 0.0451,-0.0462 0.0918,-0.091 0.1337,-0.14015 0.0377,-0.0442 0.0697,-0.0929 0.10455,-0.13938 0.0322,-0.048 0.0655,-0.0953 0.0966,-0.14412 0.0308,-0.0484 0.0599,-0.0979 0.0888,-0.14749 0.10727,-0.18386 0.20272,-0.37456 0.27886,-0.57353 0.0155,-0.0396 0.0314,-0.0791 0.0465,-0.11884 0.0398,-0.10506 0.0721,-0.21488 0.13006,-0.31188 z" />
    <path
       style="opacity:0.09;fill:#ff0092;fill-opacity:1;stroke:none;stroke-width:0.2;stroke-linecap:butt;stroke-linejoin:miter;stroke-miterlimit:4;stroke-dasharray:none;stroke-dashoffset:0;stroke-opacity:1"
       id="path200"
       d="m 238.97903,117.51625 c -0.0318,0.18811 -0.0516,0.37779 -0.0658,0.56795 -0.007,0.15532 -0.0138,0.31152 -5.3e-4,0.46678 0.0144,0.16876 0.0492,0.33317 0.087,0.49783 0.0396,0.15002 0.0902,0.29679 0.14032,0.44354 0.0257,0.0754 0.0485,0.14867 0.0832,0.22045 0.0118,0.0244 0.0271,0.0469 0.0407,0.0704 0,0 0.4289,0.18734 0.4289,0.18734 v 0 c -0.0175,-0.0226 -0.0376,-0.0434 -0.0526,-0.0677 -0.0413,-0.0666 -0.0724,-0.15065 -0.0994,-0.22292 -0.0543,-0.14525 -0.10261,-0.29282 -0.14629,-0.4416 -0.032,-0.12677 -0.0515,-0.19126 -0.0713,-0.32157 -0.0315,-0.20732 -0.0301,-0.41748 -0.0135,-0.62602 0.0191,-0.18051 0.0368,-0.365 0.10299,-0.53561 z" />
    <path
       style="opacity:0.11;fill:#ff0092;fill-opacity:1;stroke:none;stroke-width:0.2;stroke-linecap:butt;stroke-linejoin:miter;stroke-miterlimit:4;stroke-dasharray:none;stroke-dashoffset:0;stroke-opacity:1"
       id="path201"
       d="m 242.20376,109.82214 c 0.0679,-0.30493 0.16633,-0.60099 0.27125,-0.89474 0,0 -0.40529,-0.22426 -0.40529,-0.22426 v 0 c -0.10433,0.29489 -0.20306,0.59147 -0.2995,0.889 z" />
    <path
       style="opacity:0.11;fill:#ff0092;fill-opacity:1;stroke:none;stroke-width:0.2;stroke-linecap:butt;stroke-linejoin:miter;stroke-miterlimit:4;stroke-dasharray:none;stroke-dashoffset:0;stroke-opacity:1"
       id="path202"
       d="m 237.75108,110.84371 c -0.10098,-0.24127 -0.20026,-0.48326 -0.29775,-0.72596 0,0 -0.42699,-0.19734 -0.42699,-0.19734 v 0 c 0.0964,0.23832 0.1966,0.47543 0.2783,0.71932 z" />
    <path
       style="opacity:0.11;fill:#ff0092;fill-opacity:1;stroke:none;stroke-width:0.2;stroke-linecap:butt;stroke-linejoin:miter;stroke-miterlimit:4;stroke-dasharray:none;stroke-dashoffset:0;stroke-opacity:1"
       id="path203"
       d="m 233.93658,113.56662 c -0.21371,-0.10194 -0.43429,-0.18872 -0.65489,-0.27439 0,0 0.35535,0.27924 0.35535,0.27924 v 0 c 0.23128,0.0934 0.46456,0.1854 0.68349,0.30579 z" />
    <path
       style="opacity:0.11;fill:#ff0092;fill-opacity:1;stroke:none;stroke-width:0.2;stroke-linecap:butt;stroke-linejoin:miter;stroke-miterlimit:4;stroke-dasharray:none;stroke-dashoffset:0;stroke-opacity:1"
       id="path204"
       d="m 245.99742,113.5034 c 0.16796,-0.15422 0.34214,-0.30112 0.51695,-0.44746 0,0 -0.32125,-0.34167 -0.32125,-0.34167 v 0 c -0.17811,0.14632 -0.35648,0.29261 -0.53933,0.43297 z" />
    <path
       style="opacity:0.11;fill:#ff0092;fill-opacity:1;stroke:none;stroke-width:0.2;stroke-linecap:butt;stroke-linejoin:miter;stroke-miterlimit:4;stroke-dasharray:none;stroke-dashoffset:0;stroke-opacity:1"
       id="path205"
       d="m 235.39079,118.97754 c -0.28857,0.19955 -0.5868,0.38498 -0.88798,0.56484 0.12532,0.0646 0.16528,0.0798 0.28237,0.15623 0,0 0.60578,-0.37321 0.91247,-0.5535 z"
       sodipodi:nodetypes="cczcc" />
    <path
       style="opacity:0.11;fill:#ff0092;fill-opacity:1;stroke:none;stroke-width:0.2;stroke-linecap:butt;stroke-linejoin:miter;stroke-miterlimit:4;stroke-dasharray:none;stroke-dashoffset:0;stroke-opacity:1"
       id="path206"
       d="m 245.6258,118.89136 c 0.18748,0.17821 0.34306,0.38492 0.52695,0.56647 0.14676,0.12294 0.22404,0.29724 0.32876,0.45234 0.0178,0.0274 0.0356,0.0548 0.0534,0.0822 0,0 0.44894,0.19772 0.44894,0.19772 v 0 c -0.0173,-0.0281 -0.0346,-0.0562 -0.0519,-0.0843 -0.11242,-0.1528 -0.17938,-0.33664 -0.32789,-0.46189 -0.18637,-0.17774 -0.34151,-0.38173 -0.52321,-0.56412 z" />
    <path
       style="opacity:0.095;fill:#ff0092;fill-opacity:1;stroke:none;stroke-width:0.17556;stroke-linecap:butt;stroke-linejoin:miter;stroke-miterlimit:4;stroke-dasharray:none;stroke-dashoffset:0;stroke-opacity:1"
       id="path277"
       d="m 75.180326,73.430833 c -0.0866,-1.734736 -0.1713,-2.367344 -0.24641,-4.083532 l -0.31674,0.225861 c 0.12649,2.920681 0.10663,2.387334 0.11782,3.693301 z"
       sodipodi:nodetypes="ccccc" />
    <path
       style="opacity:0.095;fill:#ff0092;fill-opacity:1;stroke:none;stroke-width:0.2;stroke-linecap:butt;stroke-linejoin:miter;stroke-miterlimit:4;stroke-dasharray:none;stroke-dashoffset:0;stroke-opacity:1"
       id="path278"
       d="m 74.943306,64.590122 c -0.37795,0.05216 -0.7573,0.140253 -1.08726,0.341268 -0.0947,0.05769 -0.17944,0.130302 -0.26916,0.195456 -0.0777,0.08421 -0.16478,0.160633 -0.23308,0.252629 -0.21941,0.295574 -0.34321,0.664707 -0.33985,1.033753 0.003,0.342276 0.0663,0.437158 0.1784,0.753912 0.0701,0.107932 0.12764,0.225235 0.21043,0.323795 0.15481,0.18429 0.388,0.358177 0.59768,0.47521 0.30855,0.172222 0.60352,0.381264 0.96432,0.401846 0.0887,0.0051 0.17688,-0.01672 0.26532,-0.02508 0.0778,-0.04463 0.16196,-0.0796 0.23333,-0.133895 0.20067,-0.152654 0.38078,-0.410512 0.46282,-0.648335 0.0775,-0.224682 0.0587,-0.298807 0.0613,-0.535554 -0.0163,-0.100166 -0.0263,-0.201581 -0.049,-0.300495 -0.0578,-0.251767 -0.12734,-0.418843 -0.23319,-0.656331 -0.0779,-0.174844 -0.18517,-0.389911 -0.28547,-0.556067 -0.0407,-0.06736 -0.0874,-0.130855 -0.13113,-0.196281 -0.0393,-0.04467 -0.0786,-0.08933 -0.11787,-0.133998 l -0.42906,-0.179462 v 0 c 0.0435,0.04407 0.087,0.08815 0.13055,0.132223 0.0473,0.06555 0.0979,0.12877 0.14176,0.196633 0.22638,0.350237 0.4335,0.792316 0.52696,1.198843 0.0221,0.09597 0.032,0.194331 0.048,0.291497 -0.001,0.223652 0.0168,0.304109 -0.0547,0.517189 -0.0794,0.236492 -0.2449,0.477102 -0.44792,0.624335 -0.068,0.04934 -0.14845,0.07878 -0.22268,0.118178 -0.0844,0.0061 -0.17119,0.0388 -0.25326,0.01815 -0.30954,-0.07787 -0.58628,-0.213031 -0.81711,-0.437681 -0.084,-0.09541 -0.14346,-0.209825 -0.21518,-0.314738 -0.11463,-0.30776 -0.17935,-0.401074 -0.18491,-0.735443 -0.006,-0.36003 0.11551,-0.719958 0.33204,-1.00629 0.0674,-0.08919 0.15334,-0.16278 0.23001,-0.244171 0.0895,-0.06235 0.174,-0.132429 0.26838,-0.187052 0.33754,-0.195369 0.7326,-0.283591 1.11913,-0.29372 z"
       sodipodi:nodetypes="cscsccssccsscssccccscscccscsccsccscc" />
    <path
       style="opacity:0.095;fill:#ff0092;fill-opacity:1;stroke:none;stroke-width:0.2;stroke-linecap:butt;stroke-linejoin:miter;stroke-miterlimit:4;stroke-dasharray:none;stroke-dashoffset:0;stroke-opacity:1"
       id="path386"
       d="m 67.928196,57.753616 c 0.006,0.007 0.0113,0.01445 0.0175,0.02106 0.008,0.0088 0.0178,0.01664 0.0266,0.02506 0.0289,0.02775 0.0436,0.04177 0.0708,0.07271 0.0523,0.05946 0.0453,0.05317 0.0917,0.118131 0.0731,0.111059 0.13538,0.228928 0.19643,0.346919 0.0781,0.142951 0.13191,0.298357 0.16456,0.457787 0.008,0.03667 0.0128,0.07377 0.0192,0.110651 0.0211,0.157631 0.0309,0.317188 0.0263,0.47625 -7.9e-4,0.02482 -0.003,0.0496 -0.004,0.07441 -0.008,0.121798 -0.0258,0.244218 -0.0679,0.359335 -0.007,0.01934 -0.0161,0.03789 -0.0242,0.05683 0,0 0.3948,0.218702 0.3948,0.218702 v 0 c 0.0428,-0.141547 0.087,-0.28425 0.09,-0.433453 9e-5,-0.02611 7.9e-4,-0.05225 2.6e-4,-0.07837 -10e-4,-0.061 -0.005,-0.115157 -0.0103,-0.17613 -0.009,-0.105574 -0.0186,-0.211082 -0.0338,-0.315924 -0.0143,-0.09184 -0.0191,-0.130749 -0.0385,-0.221363 -0.0251,-0.117023 -0.0598,-0.231765 -0.10451,-0.3428 -0.0619,-0.121658 -0.13028,-0.239879 -0.20265,-0.355597 -0.0131,-0.02058 -0.0263,-0.04113 -0.0394,-0.06172 -0.0115,-0.0181 -0.0222,-0.03675 -0.0345,-0.05435 -0.009,-0.01352 -0.0203,-0.02598 -0.0305,-0.03891 -0.0169,-0.02135 -0.0332,-0.04429 -0.0551,-0.06099 z" />
    <path
       style="opacity:0.095;fill:#ff0092;fill-opacity:1;stroke:none;stroke-width:0.2;stroke-linecap:butt;stroke-linejoin:miter;stroke-miterlimit:4;stroke-dasharray:none;stroke-dashoffset:0;stroke-opacity:1"
       id="path387"
       d="m 67.637136,57.720139 c -0.0605,0.06541 -0.12933,0.12197 -0.19746,0.179062 -0.0797,0.06082 -0.1526,0.130159 -0.21489,0.208783 -0.0358,0.04518 -0.0747,0.10261 -0.10757,0.14969 -0.0724,0.124743 -0.14401,0.25105 -0.19387,0.386906 -0.032,0.08726 -0.0338,0.107794 -0.0546,0.197958 -0.0279,0.148942 -0.0288,0.300694 -0.0308,0.451631 -0.001,0.08199 -0.002,0.163975 -0.003,0.245962 -0.002,0.158538 -0.0134,0.318513 0.0104,0.476117 0.004,0.02336 0.009,0.04643 0.0134,0.06964 0.0316,0.130406 0.0676,0.259551 0.0902,0.391928 0.006,0.04128 0.0167,0.08111 0.0325,0.119554 0,0 0.44383,0.195924 0.44383,0.195924 v 0 c -0.009,-0.01127 -0.0233,-0.02723 -0.0307,-0.0392 -0.019,-0.03059 -0.0213,-0.04265 -0.0346,-0.07806 -0.0357,-0.131704 -0.0646,-0.265086 -0.0999,-0.396901 -0.0203,-0.07617 -0.039,-0.152755 -0.0486,-0.23119 -0.0132,-0.107128 -0.0119,-0.21534 -0.0145,-0.323009 5.3e-4,-0.227984 0.005,-0.457137 0.0439,-0.682342 0.018,-0.08405 0.0215,-0.111665 0.0489,-0.193556 0.0448,-0.134183 0.11048,-0.260514 0.19585,-0.373383 0.0416,-0.05466 0.0669,-0.09048 0.11262,-0.141224 0.0662,-0.0735 0.14216,-0.137773 0.22239,-0.195326 0.0679,-0.04966 0.13607,-0.104312 0.21033,-0.144311 0.007,-0.0035 0.0135,-0.0063 0.0202,-0.0095 z" />
    <path
       style="opacity:0.095;fill:#ff0092;fill-opacity:1;stroke:none;stroke-width:0.2;stroke-linecap:butt;stroke-linejoin:miter;stroke-miterlimit:4;stroke-dasharray:none;stroke-dashoffset:0;stroke-opacity:1"
       id="path388"
       d="m 67.224046,60.768499 c -0.14528,-0.08288 -0.28582,-0.174723 -0.43586,-0.248651 -0.03081,0.0095 -0.06563,0.01773 -0.0987,0.02667 -0.0281,0.0079 -0.0556,0.01786 -0.0832,0.02708 -0.11886,0.0396 -0.0858,0.02847 -0.20571,0.07451 -0.0891,0.03626 -0.17751,0.07398 -0.26342,0.117264 -0.041,0.02064 -0.0703,0.03454 -0.10567,0.06298 -0.0131,0.01056 -0.0244,0.0232 -0.0366,0.0348 -0.0357,0.04553 -0.0705,0.09173 -0.10535,0.137922 l 0.40849,0.239201 v 0 c 0.0271,-0.04723 0.0557,-0.09402 0.0921,-0.134757 0.0253,-0.02643 0.0377,-0.041 0.0666,-0.06439 0.0859,-0.06939 0.18568,-0.118994 0.28693,-0.16156 0.0353,-0.01209 0.0699,-0.02603 0.10578,-0.03628 0.0771,-0.02199 0.119638,-0.03347 0.199632,-0.04752 0.08223,-0.01358 0.109768,-0.01992 0.174978,-0.02727 z"
       sodipodi:nodetypes="cccccsccccscccccc" />
    <path
       style="opacity:0.095;fill:#ff0092;fill-opacity:1;stroke:none;stroke-width:0.2;stroke-linecap:butt;stroke-linejoin:miter;stroke-miterlimit:4;stroke-dasharray:none;stroke-dashoffset:0;stroke-opacity:1"
       id="path389"
       d="m 65.888476,61.041615 c 0.002,0.0089 0.003,0.01831 0.006,0.02674 0.0201,0.04764 0.0782,0.110577 0.11235,0.146169 0.0377,0.03933 0.14143,0.138647 0.17883,0.17475 0.073,0.06684 0.11937,0.112567 0.19864,0.17213 0.15685,0.117858 0.45082,0.272176 0.56353,0.330922 0.0652,0.03396 0.1805,0.059 0.25045,0.07684 0.12934,0.02696 0.26031,0.04453 0.39034,0.06764 0.0918,0.0163 0.12755,0.02418 0.21609,0.04233 0,0 -0.34124,-0.256805 -0.34124,-0.256805 v 0 c -0.1949,-0.02543 -0.39002,-0.05264 -0.58181,-0.09627 -0.042,-0.01207 -0.0846,-0.02201 -0.12591,-0.03621 -0.13392,-0.04607 -0.30135,-0.145158 0.10821,0.09046 0.0373,0.02146 -0.0736,-0.04481 -0.10862,-0.06985 -0.0828,-0.0592 -0.12095,-0.09817 -0.19561,-0.166431 -0.0847,-0.08654 -0.17018,-0.172648 -0.23139,-0.278177 z" />
    <path
       style="opacity:0.095;fill:#ff0092;fill-opacity:1;stroke:none;stroke-width:0.2;stroke-linecap:butt;stroke-linejoin:miter;stroke-miterlimit:4;stroke-dasharray:none;stroke-dashoffset:0;stroke-opacity:1"
       id="path390"
       d="m 67.485256,61.904992 c 0.008,0.03589 0.007,0.07337 0.0149,0.109332 0.005,0.02312 0.0115,0.04581 0.0178,0.06857 0.0157,0.05676 0.0283,0.09591 0.0458,0.15218 0.0238,0.07485 0.0561,0.146685 0.0962,0.214191 0.0458,0.07705 0.1006,0.148111 0.15469,0.219379 0.0811,0.09568 0.15931,0.195202 0.25559,0.276371 0,0 0.44233,0.173561 0.44233,0.173561 v 0 c -0.0107,-0.0061 -0.0217,-0.01159 -0.032,-0.01831 -0.10598,-0.06895 -0.19073,-0.165989 -0.27132,-0.261872 -0.0977,-0.12851 -0.19364,-0.261794 -0.24774,-0.415406 -0.0288,-0.09483 -0.0598,-0.19504 -0.0381,-0.294799 z" />
    <path
       style="opacity:0.095;fill:#ff0092;fill-opacity:1;stroke:none;stroke-width:0.2;stroke-linecap:butt;stroke-linejoin:miter;stroke-miterlimit:4;stroke-dasharray:none;stroke-dashoffset:0;stroke-opacity:1"
       id="path391"
       d="m 68.782936,61.831618 c 0.0248,0.08354 0.0375,0.170267 0.0308,0.257572 -0.003,0.03299 -0.009,0.0656 -0.013,0.0984 -0.01,0.03847 -0.0172,0.07766 -0.0295,0.115424 -0.0437,0.134057 -0.11683,0.265478 -0.20664,0.374147 -0.0162,0.01966 -0.0342,0.03782 -0.0513,0.05673 -0.0614,0.05781 -0.12959,0.109439 -0.20417,0.149227 -0.0196,0.01045 -0.04,0.01908 -0.0601,0.0286 0,0 0.37444,0.24656 0.37444,0.24656 v 0 c 0.0214,-0.01101 0.10455,-0.0533 0.12387,-0.06548 0.0556,-0.03508 0.103,-0.08221 0.14413,-0.133017 0.015,-0.02154 0.031,-0.04245 0.0451,-0.06463 0.036,-0.05669 0.0642,-0.112345 0.0934,-0.172979 0.0527,-0.10957 0.0992,-0.22197 0.14456,-0.334738 0.009,-0.0321 0.0185,-0.06392 0.026,-0.0963 0.0184,-0.07896 0.0252,-0.159446 0.0233,-0.240364 z" />
    <path
       style="opacity:0.095;fill:#ff0092;fill-opacity:1;stroke:none;stroke-width:0.2;stroke-linecap:butt;stroke-linejoin:miter;stroke-miterlimit:4;stroke-dasharray:none;stroke-dashoffset:0;stroke-opacity:1"
       id="path392"
       d="m 69.229816,60.286287 c 5.3e-4,-0.0063 1.7e-4,-0.01267 0.002,-0.01876 0.0174,-0.07138 0.0853,-0.140333 0.14077,-0.182918 0.0297,-0.02278 0.0623,-0.04144 0.0935,-0.06216 0.0413,-0.01916 0.0814,-0.04102 0.12379,-0.05744 0.21566,-0.08343 0.44862,-0.112924 0.67839,-0.118787 0.0616,-0.0016 0.12326,5.29e-4 0.18489,7.94e-4 0.16463,0.0054 0.32892,0.01741 0.49291,0.0324 0.0342,0.0031 0.20461,0.01958 0.24606,0.02506 0.0308,0.0041 0.0613,0.0099 0.0919,0.01492 0,0 -0.36213,-0.270031 -0.36213,-0.270031 v 0 c -0.13158,-0.01103 -0.0411,-0.0044 -0.18785,-0.01209 -0.20133,-0.01048 -0.40258,-0.0236 -0.60427,-0.02513 -0.14875,0.0013 -0.22535,-7.94e-4 -0.3743,0.01275 -0.22506,0.02061 -0.44838,0.069 -0.65558,0.16075 -0.036,0.02011 -0.0733,0.03814 -0.1081,0.06031 -0.081,0.05163 -0.15794,0.121195 -0.19908,0.209397 z" />
    <path
       style="opacity:0.095;fill:#ff0092;fill-opacity:1;stroke:none;stroke-width:0.2;stroke-linecap:butt;stroke-linejoin:miter;stroke-miterlimit:4;stroke-dasharray:none;stroke-dashoffset:0;stroke-opacity:1"
       id="path393"
       d="m 70.929456,59.752348 c 0.0138,0.09968 5.3e-4,0.201289 -0.0315,0.296632 -0.0125,0.03728 -0.0295,0.07291 -0.0443,0.109366 -0.0919,0.185684 -0.21607,0.355076 -0.36921,0.495196 -0.11728,0.107305 -0.19219,0.152305 -0.32438,0.244063 -0.30015,0.178286 -0.60851,0.347101 -0.93392,0.47531 -0.05,0.01971 -0.10111,0.03665 -0.15166,0.05498 -0.11217,0.04005 -0.22839,0.0639 -0.34522,0.08485 0,0 0.36785,0.254937 0.36785,0.254937 v 0 c 0.10921,-0.03029 0.21766,-0.06311 0.32145,-0.109403 0.0473,-0.02114 0.0951,-0.0415 0.14206,-0.06342 0.31538,-0.147135 0.61901,-0.318598 0.92088,-0.491244 0.0627,-0.03943 0.12741,-0.07577 0.18802,-0.118295 0.069,-0.04842 0.23639,-0.187299 0.29659,-0.248886 0.0374,-0.03824 0.0697,-0.0812 0.10265,-0.123314 0.0867,-0.110747 0.0913,-0.124762 0.1634,-0.24075 0.0189,-0.03621 0.0396,-0.07151 0.0567,-0.108622 0.0416,-0.09039 0.0678,-0.188693 0.0807,-0.287158 z" />
    <path
       style="opacity:0.095;fill:#ff0092;fill-opacity:1;stroke:none;stroke-width:0.2;stroke-linecap:butt;stroke-linejoin:miter;stroke-miterlimit:4;stroke-dasharray:none;stroke-dashoffset:0;stroke-opacity:1"
       id="path394"
       d="m 69.131996,58.22885 c 0.01,0.0561 0.0244,0.11125 0.0318,0.167789 0.005,0.03467 0.008,0.06952 0.01,0.104436 0.002,0.03936 0.002,0.07882 0.003,0.118234 -0.008,0.115893 -0.007,0.166892 -0.0332,0.281842 -0.0372,0.16101 -0.10394,0.313741 -0.18143,0.459058 -0.0242,0.04545 -0.0515,0.08922 -0.0773,0.133831 -0.095,0.141492 -0.0473,0.07661 -0.14132,0.195882 0,0 0.13245,0.078 0.13245,0.078 v 0 c 0.0796,-0.129188 0.0381,-0.06009 0.12396,-0.207677 0.0245,-0.04561 0.0498,-0.09075 0.0734,-0.136827 0.0513,-0.100388 0.0983,-0.198919 0.13858,-0.304379 0.0193,-0.05056 0.0381,-0.101457 0.0523,-0.153696 0.0237,-0.08769 0.0338,-0.188397 0.0455,-0.278292 0.004,-0.145608 0.003,-0.08071 0.003,-0.216397 -4e-5,-0.0249 5.3e-4,-0.04981 -1.9e-4,-0.0747 -2.7e-4,-0.01349 -0.002,-0.02692 -0.003,-0.04039 -10e-4,-0.01664 -10e-4,-0.02249 -10e-4,-0.03688 z" />
    <path
       style="opacity:0.095;fill:#ff0092;fill-opacity:1;stroke:none;stroke-width:0.2;stroke-linecap:butt;stroke-linejoin:miter;stroke-miterlimit:4;stroke-dasharray:none;stroke-dashoffset:0;stroke-opacity:1"
       id="path395"
       d="m 69.086206,60.038868 c 0.002,-0.0079 0.003,-0.01603 0.006,-0.0236 0.0209,-0.05283 0.0456,-0.09574 0.0781,-0.144071 0.0279,-0.04155 0.0564,-0.08293 0.0882,-0.12156 0.13846,-0.167987 0.17247,-0.187344 0.33997,-0.340236 0.0698,-0.0548 0.13785,-0.11189 0.20938,-0.164404 0.0666,-0.04893 0.13526,-0.09519 0.2049,-0.139748 0.11193,-0.07162 0.22554,-0.135765 0.3467,-0.19015 0.0448,-0.02013 0.0915,-0.03595 0.13724,-0.05392 0,0 -0.1145,-0.07612 -0.1145,-0.07612 v 0 c -0.0421,0.02085 -0.0851,0.03977 -0.12621,0.06251 -0.10955,0.06065 -0.22012,0.13576 -0.32169,0.207746 -0.17429,0.123512 -0.23708,0.17532 -0.40888,0.308562 -0.0743,0.06042 -0.30486,0.245475 -0.38185,0.316754 -0.0377,0.03494 -0.0714,0.074 -0.10621,0.111905 -0.0443,0.04835 -0.0888,0.09858 -0.1251,0.153501 z" />
    <path
       style="opacity:0.11;fill:#ff0092;fill-opacity:1;stroke:none;stroke-width:0.2;stroke-linecap:butt;stroke-linejoin:miter;stroke-miterlimit:4;stroke-dasharray:none;stroke-dashoffset:0;stroke-opacity:1"
       id="path399"
       d="m 67.692496,60.517113 c -0.0278,-0.06833 -0.0331,-0.145884 -0.0376,-0.218774 -0.002,-0.03508 -0.005,-0.07027 -0.004,-0.105386 0.002,-0.03978 0.009,-0.07912 0.0137,-0.118676 0.0213,-0.121118 0.0682,-0.232455 0.14175,-0.3312 0.059,-0.07928 0.13071,-0.13874 0.20778,-0.198745 0.0251,-0.0155 0.0678,-0.04991 0.10343,-0.04588 0.0137,0.0016 0.049,0.0249 0.0359,0.02061 -0.0447,-0.01466 -0.0851,-0.06081 -0.13125,-0.05187 -0.0251,0.0049 0.0192,0.04755 0.0256,0.07233 0.008,0.03255 0.0122,0.06608 0.0183,0.09912 0.0216,0.166426 0.0241,0.335064 0.003,0.501521 0,0 0.1676,0.08757 0.1676,0.08757 v 0 c 0.0133,-0.170121 0.005,-0.340868 -0.0104,-0.510646 -7.9e-4,-0.006 -0.0165,-0.159123 -0.0314,-0.174495 -0.0553,-0.05695 -0.12487,-0.09832 -0.19153,-0.141361 -0.0121,-0.0078 -0.0277,-0.01074 -0.042,-0.0094 -0.0364,0.0034 -0.0748,0.03712 -0.10141,0.0558 -0.0742,0.06339 -0.14645,0.128 -0.20401,0.207754 -0.0733,0.101547 -0.12135,0.215056 -0.14509,0.337944 -0.006,0.03984 -0.0146,0.07935 -0.0178,0.119505 -0.003,0.03474 -5.3e-4,0.0697 1.1e-4,0.104544 0.002,0.07268 0.004,0.146855 0.0189,0.218176 z" />
    <path
       style="opacity:0.11;fill:#ff0092;fill-opacity:1;stroke:none;stroke-width:0.2;stroke-linecap:butt;stroke-linejoin:miter;stroke-miterlimit:4;stroke-dasharray:none;stroke-dashoffset:0;stroke-opacity:1"
       id="path401"
       d="m 69.145276,60.615186 c 0.003,-0.0035 0.005,-0.0076 0.008,-0.01048 0.0395,-0.03566 0.0905,-0.05136 0.14186,-0.06113 0.0799,-0.01521 0.12978,-0.0141 0.21233,-0.01767 0.10353,0.0011 0.20759,0.0026 0.31058,0.01458 0.037,0.0043 0.0834,0.01111 0.11902,0.02572 0.0119,0.0049 0.0221,0.01291 0.0332,0.01937 -0.047,-0.02445 -0.0916,-0.05449 -0.14111,-0.07338 -0.007,-0.0027 0.006,0.01439 0.007,0.02207 5.3e-4,0.01032 -0.001,0.02077 -0.004,0.03067 -0.0128,0.04328 -0.0416,0.0791 -0.0687,0.113988 -0.0774,0.08368 -0.16747,0.155599 -0.26406,0.215974 -0.0296,0.01849 -0.0603,0.03506 -0.0905,0.05259 -0.13797,0.07294 -0.28671,0.127267 -0.4415,0.150651 -0.0362,0.0055 -0.0729,0.007 -0.10935,0.01053 0,0 0.12442,0.08832 0.12442,0.08832 v 0 c 0.0359,-0.0045 0.0721,-0.0072 0.10781,-0.01347 0.11711,-0.02061 0.23306,-0.05734 0.34258,-0.103256 0.0356,-0.01492 0.07,-0.0325 0.10495,-0.04875 0.0318,-0.01685 0.064,-0.03291 0.0954,-0.05056 0.0279,-0.01569 0.0551,-0.03244 0.0822,-0.04946 0.073,-0.04592 0.1439,-0.09625 0.20158,-0.16101 0.0314,-0.03965 0.0827,-0.101555 0.0887,-0.153609 0.001,-0.01035 0.005,-0.0245 -0.003,-0.0311 -0.0543,-0.04448 -0.1174,-0.07691 -0.1761,-0.115366 -0.0103,-0.0042 -0.0203,-0.0096 -0.031,-0.01259 -0.0341,-0.0095 -0.0737,-0.01206 -0.10847,-0.01386 -0.0999,-0.0052 -0.2001,-0.0035 -0.30007,-0.0052 -0.0962,0.0016 -0.13315,-5.3e-4 -0.22636,0.0113 -0.0706,0.0089 -0.081,0.0097 -0.13717,0.03567 -0.0345,0.01595 -0.0283,0.0123 -0.0483,0.03136 z" />
    <path
       style="opacity:0.11;fill:#ff0092;fill-opacity:1;stroke:none;stroke-width:0.2;stroke-linecap:butt;stroke-linejoin:miter;stroke-miterlimit:4;stroke-dasharray:none;stroke-dashoffset:0;stroke-opacity:1"
       id="path405"
       d="m 67.320416,61.108099 c -0.0389,0.01966 -0.0829,0.02553 -0.12352,0.04065 -0.0103,0.0038 -0.0202,0.0085 -0.0304,0.01283 -0.01,0.0069 -0.0201,0.01278 -0.0289,0.02077 -0.0212,0.01931 -0.0354,0.04158 -0.0488,0.06674 -0.007,0.01355 -0.0147,0.02714 -0.0193,0.04176 -0.005,0.01529 -0.008,0.03127 -0.009,0.04728 -8e-4,0.01551 0.003,0.0309 0.004,0.04636 0.006,0.01408 0.01,0.02921 0.0174,0.04221 0.0173,0.02833 0.0417,0.04754 0.0704,0.06324 0.0673,0.0368 0.13422,0.07474 0.20426,0.106034 0.0202,0.009 0.0432,0.0096 0.0649,0.01421 0.0262,0.0056 0.0524,0.01093 0.0786,0.01641 0.0933,0.01804 0.18315,0.04854 0.27283,0.07909 0,0 -0.12584,-0.09777 -0.12584,-0.09777 v 0 c -0.0916,-0.02984 -0.18337,-0.05935 -0.27744,-0.08064 -0.0278,-0.0068 -0.0557,-0.0132 -0.0833,-0.02048 -0.0229,-0.006 -0.0819,-0.03893 -0.0684,-0.01942 0.0231,0.03341 0.0687,0.04331 0.10148,0.06734 0.0126,0.0093 -0.0284,-0.01373 -0.041,-0.02297 -0.0337,-0.02458 -0.0327,-0.03199 -0.0518,-0.06727 -0.002,-0.01392 -0.007,-0.02765 -0.007,-0.04178 -1.5e-4,-0.04947 0.036,-0.109966 0.0739,-0.14053 0.008,-0.0068 0.0183,-0.01146 0.0274,-0.0172 0.01,-0.0039 0.0193,-0.0082 0.0292,-0.01167 0.0425,-0.01484 0.0883,-0.0226 0.1321,-0.03279 z" />
    <path
       style="opacity:0.11;fill:#ff0092;fill-opacity:1;stroke:none;stroke-width:0.2;stroke-linecap:butt;stroke-linejoin:miter;stroke-miterlimit:4;stroke-dasharray:none;stroke-dashoffset:0;stroke-opacity:1"
       id="path406"
       d="m 67.782696,61.774354 c 0.0547,0.04541 0.0978,0.102918 0.15004,0.151115 0.0185,0.01704 0.0382,0.03273 0.0573,0.0491 0.10657,0.06956 0.2168,0.173587 0.35135,0.161956 0.0444,-0.0038 0.0797,-0.0208 0.11578,-0.04541 0.0162,-0.01103 0.0302,-0.02498 0.0453,-0.03745 0.0378,-0.03787 0.0766,-0.07821 0.0964,-0.129018 0.008,-0.02045 0.008,-0.02775 0.0113,-0.04855 10e-4,-0.0249 10e-4,-0.01296 5.3e-4,-0.03582 0,0 -0.17448,-0.08729 -0.17448,-0.08729 v 0 c 0.003,0.02143 0.002,0.01029 0.003,0.03348 -5.2e-4,0.0069 -1.9e-4,0.01394 -0.001,0.0208 -0.009,0.05955 -0.0499,0.107492 -0.0899,0.149516 -0.0143,0.01162 -0.0274,0.02479 -0.0428,0.03489 -0.0339,0.0222 -0.0672,0.03624 -0.1083,0.03783 -0.021,7.94e-4 -0.0704,-0.0263 -0.0625,-0.0069 0.013,0.03214 0.0588,0.03747 0.0844,0.06083 0.019,0.01728 -0.0428,-0.02827 -0.0642,-0.04241 -0.0186,-0.01561 -0.0379,-0.03041 -0.0557,-0.04684 -0.0485,-0.04462 -0.0877,-0.09772 -0.13206,-0.146108 z" />
    <path
       style="opacity:0.15;fill:#ff0092;fill-opacity:1;stroke:none;stroke-width:0.2;stroke-linecap:butt;stroke-linejoin:miter;stroke-miterlimit:4;stroke-dasharray:none;stroke-dashoffset:0;stroke-opacity:1"
       id="path407"
       d="m 70.140986,62.627085 c 0.0345,0.100177 0.0168,0.04863 0.0531,0.154641 0,0 0.1751,0.08213 0.1751,0.08213 v 0 c -0.0352,-0.104934 -0.0183,-0.05418 -0.0507,-0.152236 z" />
    <path
       style="opacity:0.15;fill:#ff0092;fill-opacity:1;stroke:none;stroke-width:0.2;stroke-linecap:butt;stroke-linejoin:miter;stroke-miterlimit:4;stroke-dasharray:none;stroke-dashoffset:0;stroke-opacity:1"
       id="path408"
       d="m 71.234446,61.716956 c 0.0851,0.08652 0.13608,0.196498 0.18976,0.303511 0,0 0.17269,0.07832 0.17269,0.07832 v 0 c -0.0503,-0.105584 -0.0961,-0.219244 -0.18122,-0.302537 z" />
    <path
       style="opacity:0.15;fill:#ff0092;fill-opacity:1;stroke:none;stroke-width:0.2;stroke-linecap:butt;stroke-linejoin:miter;stroke-miterlimit:4;stroke-dasharray:none;stroke-dashoffset:0;stroke-opacity:1"
       id="path409"
       d="m 70.434816,64.044575 c 0.0404,0.117615 0.0832,0.233934 0.13384,0.34749 0,0 0.17565,0.08023 0.17565,0.08023 v 0 c -0.0517,-0.111178 -0.0937,-0.225462 -0.13232,-0.34181 z" />
    <path
       style="opacity:0.095;fill:#ff0092;fill-opacity:1;stroke:none;stroke-width:0.2;stroke-linecap:butt;stroke-linejoin:miter;stroke-miterlimit:4;stroke-dasharray:none;stroke-dashoffset:0;stroke-opacity:1"
       id="path410"
       d="m 71.868646,59.470058 c 0.0376,0.0213 0.0787,0.02708 0.12075,0.03266 0,0 -0.15592,-0.117155 -0.15592,-0.117155 v 0 c -0.0415,-0.008 -0.0819,-0.01693 -0.11889,-0.03874 z" />
    <path
       style="opacity:0.095;fill:#ff0092;fill-opacity:1;stroke:none;stroke-width:0.2;stroke-linecap:butt;stroke-linejoin:miter;stroke-miterlimit:4;stroke-dasharray:none;stroke-dashoffset:0;stroke-opacity:1"
       id="path411"
       d="m 73.995596,66.185343 c 10e-4,0.0878 8e-4,0.04195 10e-4,0.137565 0,0 0.17312,0.0882 0.17312,0.0882 v 0 c 5.3e-4,-0.09493 9e-5,-0.04949 0.001,-0.136351 z" />
    <path
       style="opacity:0.095;fill:#ff0092;fill-opacity:1;stroke:none;stroke-width:0.2;stroke-linecap:butt;stroke-linejoin:miter;stroke-miterlimit:4;stroke-dasharray:none;stroke-dashoffset:0;stroke-opacity:1"
       id="path412"
       d="m 74.987776,66.569815 c 8e-4,0.08061 5.3e-4,0.03926 8e-4,0.124026 0,0 0.17376,0.08854 0.17376,0.08854 v 0 c 2.6e-4,-0.08432 -3e-5,-0.04327 7.9e-4,-0.123142 z" />
    <path
       style="opacity:0.095;fill:#ff0092;fill-opacity:1;stroke:none;stroke-width:0.2;stroke-linecap:butt;stroke-linejoin:miter;stroke-miterlimit:4;stroke-dasharray:none;stroke-dashoffset:0;stroke-opacity:1"
       id="path413"
       d="m 74.005396,67.169098 c 0.0219,0.05474 0.0355,0.112088 0.0497,0.169124 0,0 0.17601,0.08443 0.17601,0.08443 v 0 c -0.0138,-0.05742 -0.0277,-0.114835 -0.0461,-0.171006 z" />
    <path
       style="opacity:0.095;fill:#ff0092;fill-opacity:1;stroke:none;stroke-width:0.2;stroke-linecap:butt;stroke-linejoin:miter;stroke-miterlimit:4;stroke-dasharray:none;stroke-dashoffset:0;stroke-opacity:1"
       id="path414"
       d="m 74.590506,67.384464 c 0.004,0.03666 0.004,0.07349 0.003,0.11027 0,0 0.16898,0.08674 0.16898,0.08674 v 0 c 0.001,-0.03573 0.001,-0.07156 0.005,-0.10718 z" />
    <path
       style="opacity:0.095;fill:#ff0092;fill-opacity:1;stroke:none;stroke-width:0.2;stroke-linecap:butt;stroke-linejoin:miter;stroke-miterlimit:4;stroke-dasharray:none;stroke-dashoffset:0;stroke-opacity:1"
       id="path415"
       d="m 74.663926,65.826552 c -0.0114,0.03351 -0.0159,0.06889 -0.0256,0.102852 -0.0109,0.03813 -0.0171,0.05017 -0.0324,0.08769 0,0 0.16103,0.09046 0.16103,0.09046 v 0 c 0.0168,-0.03729 0.0237,-0.0504 0.0369,-0.08816 0.0112,-0.03186 0.0174,-0.06561 0.0325,-0.09604 z" />
    <path
       style="opacity:0.095;fill:#ff0092;fill-opacity:1;stroke:none;stroke-width:0.2;stroke-linecap:butt;stroke-linejoin:miter;stroke-miterlimit:4;stroke-dasharray:none;stroke-dashoffset:0;stroke-opacity:1"
       id="path417"
       d="m 74.433546,66.657918 c 0.003,0.03022 -5.3e-4,0.05972 -0.006,0.08943 -0.004,0.02029 -0.006,0.04077 -0.01,0.06113 0,0 0.17248,0.09141 0.17248,0.09141 v 0 c 0.003,-0.02035 0.007,-0.04064 0.009,-0.06108 0.005,-0.03031 0.0105,-0.0603 0.009,-0.0912 z" />
    <path
       style="opacity:0.095;fill:#ff0092;fill-opacity:1;stroke:none;stroke-width:0.165739;stroke-linecap:butt;stroke-linejoin:miter;stroke-miterlimit:4;stroke-dasharray:none;stroke-dashoffset:0;stroke-opacity:1"
       id="path418"
       d="m 57.116084,77.443687 c 0.0742,0.94084 0.0757,1.88375 0.0774,2.82573 0,0 0.3813,0.13322 0.3813,0.13322 v 0 c -0.0147,-0.9363 -0.0209,-1.87263 -0.0242,-2.80899 z" />
    <path
       style="opacity:0.095;fill:#ff0092;fill-opacity:1;stroke:none;stroke-width:0.2;stroke-linecap:butt;stroke-linejoin:miter;stroke-miterlimit:4;stroke-dasharray:none;stroke-dashoffset:0;stroke-opacity:1"
       id="path419"
       d="m 56.791114,73.549816 c -0.15815,0.0565 -0.32299,0.12219 -0.43436,0.2546 -0.0303,0.036 -0.0524,0.078 -0.0786,0.11703 -0.10264,0.23377 -0.14973,0.50017 -0.087,0.75284 0.0445,0.17924 0.093,0.22392 0.19301,0.37201 0.2724,0.25717 0.20749,0.21905 0.7389,0.4593 0.0812,0.0367 0.38313,0.0735 0.47055,0.081 0.0731,0.006 0.14644,0.0113 0.21975,0.01 0.0652,-0.001 0.12991,-0.012 0.19487,-0.018 0.0574,-0.0288 0.12009,-0.0489 0.17219,-0.0865 0.23708,-0.17089 0.33613,-0.48784 0.38304,-0.7616 0.0122,-0.0711 0.0166,-0.14332 0.0249,-0.21498 0.008,-0.15117 0.0257,-0.3243 -0.0717,-0.45534 -0.0274,-0.0369 -0.0619,-0.0697 -0.10102,-0.0937 -0.47003,-0.28893 -0.377,-0.24731 -0.70062,-0.35276 -0.29055,-0.0576 -0.60675,-0.16302 -0.90087,-0.0615 -0.0421,0.0145 -0.08,0.0392 -0.11998,0.0587 -0.11995,0.087 -0.0666,0.0396 -0.16171,0.14024 0,0 0.41156,0.25032 0.41156,0.25032 v 0 c 0.0854,-0.0923 0.0371,-0.0488 0.14682,-0.12847 0.0371,-0.0171 0.0724,-0.0389 0.11127,-0.0514 0.28852,-0.0928 0.60076,0.0136 0.88179,0.0793 0.21671,0.0794 0.28621,0.11775 -0.10815,-0.11162 -0.0379,-0.0221 0.0768,0.0448 0.10707,0.0767 0.11215,0.11786 0.10242,0.28802 0.0989,0.43687 -0.007,0.0704 -0.01,0.14144 -0.0208,0.21136 -0.0412,0.26014 -0.13694,0.56611 -0.36805,0.72193 -0.0491,0.0331 -0.10782,0.049 -0.16173,0.0735 -0.0624,0.005 -0.12458,0.0151 -0.1872,0.0158 -0.1265,0.002 -0.3244,-0.0187 -0.44633,-0.0433 -0.0785,-0.0158 -0.19325,-0.13087 -0.23233,-0.061 -0.0381,0.068 0.11436,0.11943 0.19066,0.13549 0.0638,0.0134 -0.0993,-0.0845 -0.1489,-0.1267 -0.10069,-0.13467 -0.1573,-0.18468 -0.2038,-0.35194 -0.0664,-0.23904 -0.0182,-0.49631 0.0836,-0.71622 0.025,-0.0355 0.0461,-0.074 0.0749,-0.10651 0.10948,-0.1236 0.27409,-0.18727 0.4316,-0.2199 z" />
    <path
       style="opacity:0.095;fill:#ff0092;fill-opacity:1;stroke:none;stroke-width:0.2;stroke-linecap:butt;stroke-linejoin:miter;stroke-miterlimit:4;stroke-dasharray:none;stroke-dashoffset:0;stroke-opacity:1"
       id="path420"
       d="m 57.158074,75.548426 c -0.0798,0.38886 -0.23932,0.756391 -0.46396,1.083831 -0.0494,0.072 -0.10665,0.13844 -0.15997,0.20766 -0.23487,0.26238 -0.47072,0.38945 -0.80725,0.46328 -0.0248,0.005 -0.0496,0.011 -0.0744,0.0165 0,0 0.3996,0.27596 0.3996,0.27596 v 0 c 0.0237,-0.006 0.0475,-0.0126 0.0712,-0.019 0.33368,-0.0927 0.56983,-0.23752 0.79723,-0.50743 0.0524,-0.0714 0.10814,-0.14051 0.15718,-0.21427 0.16046,-0.24136 0.29932,-0.5058 0.40769,-0.77465 0.039,-0.0968 0.0622,-0.199341 0.1001,-0.296521 z" />
    <path
       style="opacity:0.095;fill:#ff0092;fill-opacity:1;stroke:none;stroke-width:0.2;stroke-linecap:butt;stroke-linejoin:miter;stroke-miterlimit:4;stroke-dasharray:none;stroke-dashoffset:0;stroke-opacity:1"
       id="path421"
       d="m 55.753944,77.310567 c -0.0426,-0.37171 -0.0302,-0.74475 0.001,-1.11653 0.0252,-0.20036 0.01,-0.10631 0.0435,-0.282501 0,0 -0.41989,-0.22289 -0.41989,-0.22289 v 0 c -0.0272,0.18311 -0.015,0.0859 -0.0349,0.291951 -0.0244,0.37019 -0.037,0.74001 -0.0268,1.11105 z" />
    <path
       style="opacity:0.095;fill:#ff0092;fill-opacity:1;stroke:none;stroke-width:0.2;stroke-linecap:butt;stroke-linejoin:miter;stroke-miterlimit:4;stroke-dasharray:none;stroke-dashoffset:0;stroke-opacity:1"
       id="path422"
       d="m 56.451004,75.215026 c -0.3067,0.10185 -0.61294,0.2034 -0.92597,0.28438 -0.25916,0.0713 -0.523,0.0835 -0.78712,0.0346 -0.11784,-0.0218 -0.21516,-0.0534 -0.32913,-0.087 -0.16195,-0.053 -0.57973,-0.27867 0.13036,0.10444 0.0197,0.0106 -0.0367,-0.0256 -0.0544,-0.0392 -0.0339,-0.026 -0.0663,-0.0537 -0.0997,-0.0804 -0.0146,-0.0106 -0.0292,-0.0212 -0.0438,-0.0318 0,0 -0.45575,-0.17879 -0.45575,-0.17879 v 0 c 0.0154,0.01 0.0308,0.0196 0.0462,0.0294 0.0588,0.0444 0.0428,0.031 0.10122,0.0805 0.0181,0.0153 0.0336,0.0342 0.0539,0.0464 0.23952,0.14404 0.43707,0.2788 0.69429,0.35583 0.11692,0.0312 0.20664,0.0581 0.32788,0.0772 0.26747,0.0419 0.53472,0.0228 0.79535,-0.05 0.31923,-0.0827 0.63178,-0.18814 0.95171,-0.26743 z" />
    <path
       style="opacity:0.095;fill:#ff0092;fill-opacity:1;stroke:none;stroke-width:0.2;stroke-linecap:butt;stroke-linejoin:miter;stroke-miterlimit:4;stroke-dasharray:none;stroke-dashoffset:0;stroke-opacity:1"
       id="path423"
       d="m 54.311934,75.345286 c 0.0764,-0.25516 0.20246,-0.50199 0.38154,-0.70136 0.11687,-0.13012 0.17801,-0.16273 0.31677,-0.26166 0.20162,-0.12109 0.42905,-0.18545 0.65145,-0.25624 0,0 -0.39841,-0.27017 -0.39841,-0.27017 v 0 c -0.2203,0.0781 -0.44521,0.15147 -0.64302,0.27919 -0.13877,0.1048 -0.20139,0.14167 -0.31942,0.27554 -0.18146,0.20583 -0.30365,0.45578 -0.42046,0.70132 z" />
    <path
       style="opacity:0.095;fill:#ff0092;fill-opacity:1;stroke:none;stroke-width:0.2;stroke-linecap:butt;stroke-linejoin:miter;stroke-miterlimit:4;stroke-dasharray:none;stroke-dashoffset:0;stroke-opacity:1"
       id="path424"
       d="m 56.074224,74.351416 c 0.12345,0.0694 0.24518,0.14194 0.37035,0.20819 0.0252,0.0134 -0.0474,-0.032 -0.0701,-0.0493 -0.0292,-0.0221 -0.0575,-0.0454 -0.0855,-0.0689 -0.10236,-0.086 -0.20136,-0.17304 -0.30779,-0.25421 -0.12863,-0.0998 -0.26796,-0.19131 -0.37379,-0.31696 -0.0982,-0.1166 -0.1517,-0.20428 -0.23851,-0.33308 -0.22061,-0.34114 -0.41032,-0.70124 -0.57273,-1.07338 -0.0122,-0.031 -0.0244,-0.0621 -0.0366,-0.0931 0,0 -0.43607,-0.20135 -0.43607,-0.20135 v 0 c 0.0136,0.0323 0.0272,0.0647 0.0408,0.097 0.1737,0.37347 0.372,0.73511 0.58569,1.08716 0.0492,0.0775 0.15819,0.25342 0.21831,0.33273 0.10071,0.13287 0.24216,0.22612 0.37294,0.32612 0.31826,0.23318 0.52617,0.49757 0.92164,0.64338 z" />
    <path
       style="opacity:0.095;fill:#ff0092;fill-opacity:1;stroke:none;stroke-width:0.2;stroke-linecap:butt;stroke-linejoin:miter;stroke-miterlimit:4;stroke-dasharray:none;stroke-dashoffset:0;stroke-opacity:1"
       id="path425"
       d="m 54.756974,72.194886 c 0.24972,-0.0605 0.50766,-0.11025 0.76582,-0.10427 0.0575,0.001 0.1146,0.008 0.1719,0.0128 0.19921,0.0256 0.38447,0.10534 0.55821,0.20289 0.0292,0.0164 0.11602,0.0672 0.0867,0.0509 -0.11365,-0.0632 -0.22655,-0.12781 -0.33983,-0.19171 0.0798,0.0577 0.13543,0.13867 0.19401,0.2161 0,0 0.44632,0.1919 0.44632,0.1919 v 0 c -0.0611,-0.0793 -0.11439,-0.1652 -0.19002,-0.2322 -0.28782,-0.17026 -0.62423,-0.40826 -0.96502,-0.48769 -0.0547,-0.0127 -0.11098,-0.0179 -0.16647,-0.0269 -0.0575,-0.003 -0.11501,-0.008 -0.1726,-0.008 -0.26744,2.7e-4 -0.53319,0.0516 -0.79539,0.0985 z" />
    <path
       style="opacity:0.095;fill:#ff0092;fill-opacity:1;stroke:none;stroke-width:0.2;stroke-linecap:butt;stroke-linejoin:miter;stroke-miterlimit:4;stroke-dasharray:none;stroke-dashoffset:0;stroke-opacity:1"
       id="path434"
       d="m 56.949494,73.694646 c -0.0127,-0.16496 -0.0336,-0.33078 -0.0157,-0.49633 0.006,-0.0542 0.017,-0.10772 0.0256,-0.16158 0.0655,-0.27231 0.16514,-0.53737 0.31781,-0.7736 0.0948,-0.14661 0.14019,-0.18544 0.25613,-0.3111 0.11209,-0.10187 0.23593,-0.19031 0.37296,-0.25545 0.0791,-0.0376 0.16464,-0.065 0.24731,-0.0938 0.0627,-0.0251 0.1279,-0.042 0.1933,-0.0582 0,0 -0.40211,-0.2765 -0.40211,-0.2765 v 0 c -0.0653,0.0186 -0.13049,0.0379 -0.19363,0.0632 -0.23311,0.0887 -0.43411,0.20229 -0.61314,0.38111 -0.0441,0.0496 -0.0909,0.0969 -0.13219,0.14876 -0.22248,0.27963 -0.36577,0.61317 -0.45987,0.95551 -0.0109,0.0545 -0.0246,0.10858 -0.0328,0.16359 -0.0243,0.16293 -0.009,0.32728 -0.002,0.49075 z" />
    <path
       style="opacity:0.095;fill:#ff0092;fill-opacity:1;stroke:none;stroke-width:0.2;stroke-linecap:butt;stroke-linejoin:miter;stroke-miterlimit:4;stroke-dasharray:none;stroke-dashoffset:0;stroke-opacity:1"
       id="path435"
       d="m 58.105754,71.334126 c 0.13608,0.27712 0.20765,0.58044 0.27791,0.87943 0.0338,0.18582 0.0818,0.37159 0.0916,0.56104 0.004,0.0815 -2.7e-4,0.10075 -0.008,0.18042 -0.006,0.0297 -0.0123,0.0594 -0.0185,0.0891 0,0 0.42464,0.22811 0.42464,0.22811 v 0 c 0.007,-0.0313 0.0146,-0.0626 0.0219,-0.0939 0.009,-0.0853 0.0138,-0.10315 0.009,-0.19058 -0.0115,-0.19446 -0.0703,-0.38311 -0.10436,-0.57392 -0.0663,-0.29401 -0.13176,-0.59204 -0.2465,-0.87157 z" />
    <path
       style="opacity:0.095;fill:#ff0092;fill-opacity:1;stroke:none;stroke-width:0.2;stroke-linecap:butt;stroke-linejoin:miter;stroke-miterlimit:4;stroke-dasharray:none;stroke-dashoffset:0;stroke-opacity:1"
       id="path438"
       d="m 58.316644,74.099636 c 0.053,-0.15152 0.13821,-0.28719 0.24078,-0.40998 0.0319,-0.0382 0.0632,-0.0775 0.10011,-0.11089 0.0399,-0.0361 0.0862,-0.0643 0.12922,-0.0965 0.32967,-0.19449 0.70678,-0.28489 1.07979,-0.35354 0.2211,-0.0414 0.44451,-0.0534 0.66847,-0.0381 0.0836,0.0104 0.17166,7.9e-4 0.25252,0.0289 0.0206,0.007 0.0399,0.0175 0.0598,0.0263 0.0209,0.011 0.0418,0.0221 0.0627,0.0331 0,0 -0.37995,-0.30341 -0.37995,-0.30341 v 0 c -0.0221,-0.01 -0.0441,-0.02 -0.0662,-0.03 -0.10653,-0.0346 -0.21136,-0.0415 -0.32284,-0.0438 -0.22014,-0.005 -0.43872,0.0193 -0.6548,0.0617 -0.37798,0.0754 -0.76188,0.16802 -1.09522,0.36867 -0.0455,0.0343 -0.0943,0.0645 -0.13649,0.10276 -0.0377,0.0342 -0.0692,0.0747 -0.10195,0.11371 -0.10553,0.1258 -0.19632,0.26223 -0.26544,0.41136 z" />
    <path
       style="opacity:0.095;fill:#ff0092;fill-opacity:1;stroke:none;stroke-width:0.2;stroke-linecap:butt;stroke-linejoin:miter;stroke-miterlimit:4;stroke-dasharray:none;stroke-dashoffset:0;stroke-opacity:1"
       id="path439"
       d="m 60.544634,73.074806 c 0.0175,0.18373 -0.02,0.36185 -0.0979,0.52885 -0.0242,0.0519 -0.054,0.10097 -0.081,0.15145 -0.18239,0.29569 -0.38193,0.58629 -0.63074,0.83096 -0.036,0.0354 -0.0755,0.0672 -0.11323,0.1008 -0.0944,0.0813 -0.19968,0.13778 -0.31804,0.17319 0,0 0.40337,0.27306 0.40337,0.27306 v 0 c 0.11795,-0.0461 0.22278,-0.1108 0.3151,-0.19885 0.28959,-0.28074 0.52828,-0.60981 0.74813,-0.94683 0.0288,-0.0515 0.0603,-0.1016 0.0862,-0.15457 0.0819,-0.16698 0.13149,-0.34719 0.12888,-0.53348 z" />
    <path
       style="opacity:0.095;fill:#ff0092;fill-opacity:1;stroke:none;stroke-width:0.2;stroke-linecap:butt;stroke-linejoin:miter;stroke-miterlimit:4;stroke-dasharray:none;stroke-dashoffset:0;stroke-opacity:1"
       id="path440"
       d="m 58.714804,74.738666 c 0.20045,0.0466 0.39651,0.11062 0.58703,0.188 0.0479,0.0236 0.18907,0.099 0.14381,0.0707 -0.0779,-0.0488 -0.15141,-0.11642 -0.24195,-0.13219 -0.0661,-0.0115 0.10993,0.077 0.16269,0.11839 0.15818,0.12416 0.29671,0.2667 0.43651,0.41049 0.10908,0.1418 0.26382,0.26334 0.33453,0.43243 0.01,0.0232 0.0157,0.0477 0.0235,0.0716 0.0149,0.100001 0.01,0.049 0.0145,0.153001 0,0 0.43223,0.21879 0.43223,0.21879 v 0 c -10e-4,-0.11003 0.002,-0.0554 -0.009,-0.16379 -0.0173,-0.0691 -0.0173,-0.0885 -0.0521,-0.15104 -0.0808,-0.144991 -0.21484,-0.253341 -0.31563,-0.382821 -0.0632,-0.0648 -0.21506,-0.22173 -0.2787,-0.28095 -0.29816,-0.27749 -0.65072,-0.48989 -1.02193,-0.65631 -0.19835,-0.0778 -0.40118,-0.14421 -0.60833,-0.19464 z" />
    <path
       style="opacity:0.095;fill:#ff0092;fill-opacity:1;stroke:none;stroke-width:0.2;stroke-linecap:butt;stroke-linejoin:miter;stroke-miterlimit:4;stroke-dasharray:none;stroke-dashoffset:0;stroke-opacity:1"
       id="path442"
       d="m 60.202844,76.023877 c -0.0206,0.002 -0.0416,0.003 -0.0619,0.007 -0.12124,0.0263 -0.23719,0.0812 -0.35532,0.11802 -0.17209,0.0537 -0.14777,0.0439 -0.32806,0.0807 -0.28438,0.0426 -0.57258,0.042 -0.85935,0.0372 -0.10771,-0.002 -0.21324,-0.0251 -0.31854,-0.0456 0,0 0.3893,0.29373 0.3893,0.29373 v 0 c 0.10474,0.0178 0.20998,0.0349 0.31663,0.0337 0.28554,-10e-4 0.57243,-0.004 0.8547,-0.0527 0.20834,-0.0439 0.13573,-0.0242 0.33385,-0.0826 0.11854,-0.035 0.23934,-0.0845 0.36321,-0.0981 0.0216,-0.002 0.0434,-5.3e-4 0.0651,-10e-4 z" />
    <path
       style="opacity:0.095;fill:#ff0092;fill-opacity:1;stroke:none;stroke-width:0.2;stroke-linecap:butt;stroke-linejoin:miter;stroke-miterlimit:4;stroke-dasharray:none;stroke-dashoffset:0;stroke-opacity:1"
       id="path445"
       d="m 57.861644,75.370046 c 0.12391,0.22471 0.22443,0.46129 0.32579,0.696751 0.0795,0.18285 0.1645,0.36486 0.21536,0.55843 0.0117,0.0447 0.0205,0.0901 0.0308,0.13522 0.0461,0.24162 0.0587,0.48965 0.0268,0.73373 -0.0252,0.0991 -0.0454,0.19928 -0.0805,0.29544 0,0 0.41741,0.23054 0.41741,0.23054 v 0 c 0.0332,-0.1009 0.064,-0.20393 0.0802,-0.30902 0.0108,-0.25226 -0.008,-0.50609 -0.0417,-0.75605 -0.0222,-0.11789 -0.0244,-0.14676 -0.0579,-0.25952 -0.0458,-0.15379 -0.11605,-0.2983 -0.18466,-0.44277 -0.10088,-0.2248 -0.20162,-0.449731 -0.288,-0.680631 z" />
    <path
       style="opacity:0.095;fill:#ff0092;fill-opacity:1;stroke:none;stroke-width:0.2;stroke-linecap:butt;stroke-linejoin:miter;stroke-miterlimit:4;stroke-dasharray:none;stroke-dashoffset:0;stroke-opacity:1"
       id="path446"
       d="m 56.736754,76.951567 c 0.0376,0.0904 0.0961,0.16941 0.15537,0.24654 0.0588,0.0749 0.12043,0.14778 0.19238,0.21034 0.0789,0.0602 0.16022,0.11734 0.2426,0.17275 0.1611,0.10362 0.32395,0.20674 0.49823,0.28652 0.0273,0.0125 0.0551,0.0243 0.0828,0.036 0.009,0.004 0.0174,0.008 0.026,0.0117 0.0199,0.01 0.039,0.0208 0.0591,0.0301 0.033,0.0152 0.0676,0.0274 0.10175,0.0397 0.0451,0.0115 0.088,0.0302 0.13293,0.0423 0.0135,0.004 0.0273,0.006 0.0409,0.01 0.0143,0.004 0.0286,0.007 0.0429,0.0113 0.0398,0.0106 0.0803,0.0196 0.12158,0.0221 0.0369,0.002 0.0745,1e-5 0.11146,-10e-4 0.072,-0.001 0.14362,0.007 0.21496,0.0156 0.0224,0.002 0.0439,0.005 0.0664,0.004 0,0 -0.39605,-0.28538 -0.39605,-0.28538 v 0 c -0.0177,-5.3e-4 -0.0355,7.9e-4 -0.0532,5.3e-4 -0.0683,0.002 -0.13652,-1.9e-4 -0.20468,-0.004 -0.0229,0 -0.0495,2.6e-4 -0.0724,-0.001 -0.0495,-0.003 -0.0984,-0.0122 -0.14622,-0.0252 -0.0144,-0.004 -0.0289,-0.008 -0.0432,-0.0121 -0.0609,-0.0185 -0.12006,-0.0424 -0.18064,-0.0619 -0.0236,-0.009 -0.0383,-0.0142 -0.0615,-0.025 -0.0435,-0.0201 -0.085,-0.0444 -0.1295,-0.0625 -0.0244,-0.0104 -0.0493,-0.0201 -0.0733,-0.0315 -0.01,-0.005 -0.0385,-0.0202 -0.0291,-0.0147 0.11898,0.0701 0.49417,0.28709 0.30262,0.17628 -0.0211,-0.0136 -0.0695,-0.0445 -0.0901,-0.0591 -0.0457,-0.0324 -0.0888,-0.0686 -0.13386,-0.10191 -0.003,-0.002 -0.0634,-0.0466 -0.0635,-0.0467 -0.061,-0.0488 -0.11595,-0.1056 -0.16474,-0.16651 -0.034,-0.0451 -0.065,-0.085 -0.0882,-0.13682 -0.004,-0.008 -0.016,-0.0399 -0.0181,-0.0526 -7.9e-4,-0.004 2.6e-4,-0.008 2.7e-4,-0.0127 z" />
    <path
       style="opacity:0.095;fill:#ff0092;fill-opacity:1;stroke:none;stroke-width:0.2;stroke-linecap:butt;stroke-linejoin:miter;stroke-miterlimit:4;stroke-dasharray:none;stroke-dashoffset:0;stroke-opacity:1"
       id="path450"
       d="m 56.857214,74.389196 c 0.002,0.0794 0.002,0.15889 0.002,0.23833 0,0 0.17133,0.0873 0.17133,0.0873 v 0 c 2.6e-4,-0.0787 5.2e-4,-0.1574 0.002,-0.23606 z" />
    <path
       style="opacity:0.095;fill:#ff0092;fill-opacity:1;stroke:none;stroke-width:0.2;stroke-linecap:butt;stroke-linejoin:miter;stroke-miterlimit:4;stroke-dasharray:none;stroke-dashoffset:0;stroke-opacity:1"
       id="path451"
       d="m 57.601354,74.488416 c 0.003,0.0623 0.002,0.12475 0.002,0.18713 0,0 0.17121,0.0872 0.17121,0.0872 v 0 c -5e-5,-0.0616 -2.7e-4,-0.12324 0.002,-0.1848 z" />
    <path
       style="opacity:0.095;fill:#ff0092;fill-opacity:1;stroke:none;stroke-width:0.2;stroke-linecap:butt;stroke-linejoin:miter;stroke-miterlimit:4;stroke-dasharray:none;stroke-dashoffset:0;stroke-opacity:1"
       id="path478"
       d="m 73.194266,67.316733 c -0.005,0.0085 -0.0106,0.01669 -0.0152,0.02543 -0.009,0.01701 -0.0167,0.03464 -0.0254,0.05179 -0.0389,0.07654 -0.0806,0.152178 -0.11514,0.230857 -0.0147,0.03355 -0.0273,0.06797 -0.041,0.10196 -0.0618,0.155305 -0.11542,0.313978 -0.14946,0.477827 -0.0193,0.09278 -0.03,0.169952 -0.0445,0.263501 -0.0218,0.162107 -0.0397,0.325697 -0.0348,0.489577 0.002,0.07903 0.007,0.09896 0.0176,0.173522 0.0236,0.129571 0.0965,0.238529 0.16392,0.34872 0.0248,0.0389 0.0403,0.06734 0.0723,0.100984 0.0138,0.0145 0.0275,0.02991 0.045,0.03975 0.15498,0.08748 0.3097,0.176191 0.47095,0.251467 0.0212,0.0099 0.17641,0.01363 0.19226,0.01426 0.20024,-1.96e-4 0.39951,-0.04613 0.58177,-0.129162 0.0362,-0.01648 0.0707,-0.03656 0.10598,-0.05484 0.17061,-0.09949 0.30198,-0.247102 0.43747,-0.387532 0.0362,-0.03805 0.0784,-0.07141 0.11242,-0.111639 0.0221,-0.02614 0.0389,-0.05627 0.0545,-0.08649 0.0185,-0.04053 0.01,-0.01961 0.0262,-0.06282 0,0 -0.42046,-0.234746 -0.42046,-0.234746 v 0 c -0.0165,0.03956 -0.008,0.02029 -0.0255,0.05783 -0.014,0.02695 -0.027,0.05468 -0.0442,0.07981 -0.0289,0.04226 -0.063,0.08098 -0.0951,0.120737 -0.0251,0.03002 -0.08,0.09646 -0.10513,0.123976 -0.0906,0.0993 -0.19037,0.191056 -0.30549,0.261387 -0.0338,0.01754 -0.0666,0.03695 -0.10128,0.05259 -0.18107,0.0817 -0.38004,0.117195 -0.57797,0.107673 -0.0353,-0.0039 -0.0708,-0.0058 -0.10578,-0.01156 -0.031,-0.0051 -0.11669,-0.04008 -0.0919,-0.02077 0.10092,0.07869 0.21695,0.135808 0.3258,0.203108 0.0166,0.01024 -0.0338,-0.01968 -0.049,-0.03196 -0.0418,-0.03387 -0.0476,-0.04971 -0.0777,-0.09421 -0.0672,-0.108101 -0.1385,-0.215437 -0.17821,-0.337413 -0.007,-0.02614 -0.0152,-0.05196 -0.0206,-0.07845 -0.0392,-0.19283 -0.0188,-0.390461 0.005,-0.583705 0.0161,-0.106442 0.0216,-0.154363 0.0444,-0.259572 0.0348,-0.160311 0.0869,-0.316246 0.15557,-0.465264 0.0643,-0.131033 0.1257,-0.270381 0.23348,-0.372378 z" />
    <path
       style="opacity:0.095;fill:#ff0092;fill-opacity:1;stroke:none;stroke-width:0.2;stroke-linecap:butt;stroke-linejoin:miter;stroke-miterlimit:4;stroke-dasharray:none;stroke-dashoffset:0;stroke-opacity:1"
       id="path482"
       d="m 75.568266,67.472049 c 0.008,0.115742 0.0716,0.196588 0.14055,0.285062 0.16428,0.181287 0.36503,0.324286 0.56605,0.46165 0.20257,0.122121 0.39375,0.277871 0.62481,0.338286 0.059,0.01543 0.11131,0.02312 0.17224,0.02633 0.0309,0.0016 0.0618,5.29e-4 0.0928,7.93e-4 0.17738,-0.0077 0.35487,-0.01172 0.53229,-0.01783 0.0385,-0.0042 0.0707,-0.005 0.10711,-0.01892 0.017,-0.0065 0.0324,-0.01632 0.0485,-0.02487 0.0446,-0.02373 0.0873,-0.0505 0.1308,-0.07626 0.0269,-0.01921 0.0574,-0.03467 0.083,-0.0557 0.024,-0.01971 0.0437,-0.04447 0.0626,-0.06882 0.031,-0.04338 0.0705,-0.07962 0.10834,-0.116917 0.009,-0.0085 0.0182,-0.01625 0.0261,-0.02545 0.008,-0.0098 0.0151,-0.02088 0.0227,-0.03133 0.006,-0.01183 0.0133,-0.02307 0.0179,-0.03551 0.0379,-0.101873 0.0162,-0.245266 0.003,-0.349769 -0.0117,-0.07135 -0.0159,-0.108246 -0.0347,-0.177752 -0.007,-0.02699 -0.0138,-0.05451 -0.0254,-0.07994 -0.0137,-0.03007 -0.0309,-0.05873 -0.0502,-0.08552 -0.0649,-0.0898 -0.0994,-0.104881 -0.1922,-0.178507 -0.0474,-0.03222 -0.0941,-0.06558 -0.1423,-0.09667 -0.0499,-0.03218 -0.10062,-0.06312 -0.15188,-0.09308 -0.16483,-0.09635 -0.3303,-0.191598 -0.49634,-0.285822 -0.1234,-0.07002 -0.25085,-0.132855 -0.37823,-0.195196 -0.10718,-0.05049 -0.0565,-0.0274 -0.15169,-0.06968 0,0 0.36373,0.287454 0.36373,0.287454 v 0 c 0.0821,0.03365 0.0381,0.01508 0.13173,0.0562 0.0912,0.04235 0.118,0.0537 0.21238,0.102743 0.0464,0.02413 0.18116,0.104376 0.13835,0.07426 -0.0624,-0.04393 -0.1302,-0.07995 -0.19755,-0.115914 -0.0976,-0.05213 0.36878,0.213103 0.27976,0.178779 0.0785,0.06097 0.11394,0.08007 0.17344,0.154162 0.0186,0.02307 0.0354,0.04776 0.0491,0.07404 0.0127,0.02447 0.021,0.05103 0.0295,0.07726 0.024,0.07408 0.0247,0.09556 0.0377,0.172595 0.0116,0.113057 0.0241,0.236461 -0.0303,0.341048 -0.0456,0.06233 -0.10558,0.111911 -0.15662,0.169638 -0.013,0.01373 -0.0254,0.02809 -0.039,0.04118 -0.0287,0.02753 -0.0627,0.04944 -0.0933,0.07466 -0.0834,0.05585 -0.1614,0.09976 -0.26401,0.106865 -0.172,0.01617 -0.345,0.02397 -0.51774,0.02297 -0.0307,-0.0019 -0.0615,-0.0021 -0.092,-0.0054 -0.0549,-0.0059 -0.11525,-0.01786 -0.1679,-0.03503 -0.14568,-0.04754 -0.28941,-0.158834 0.23054,0.152268 0.0299,0.01789 -0.0603,-0.03486 -0.0904,-0.05229 -0.19822,-0.12854 -0.39498,-0.265539 -0.55456,-0.44141 -0.0473,-0.06085 -0.0936,-0.119647 -0.11588,-0.194614 -0.002,-0.0081 -0.005,-0.01619 -0.006,-0.02458 -5.3e-4,-0.0071 0.002,-0.01405 0.003,-0.02106 z" />
    <path
       style="opacity:0.095;fill:#ff0092;fill-opacity:1;stroke:none;stroke-width:0.2;stroke-linecap:butt;stroke-linejoin:miter;stroke-miterlimit:4;stroke-dasharray:none;stroke-dashoffset:0;stroke-opacity:1"
       id="path489"
       d="m 75.928476,65.480554 c 0.0808,-0.13851 0.19675,-0.251426 0.33787,-0.328076 0.0398,-0.02164 0.0823,-0.03802 0.1235,-0.05703 0.0457,-0.01482 0.0905,-0.03262 0.13702,-0.04446 0.20534,-0.05224 0.45684,-0.06535 0.66779,-0.04467 0.0456,0.0045 0.0907,0.01378 0.13604,0.02069 0.04,0.01164 0.081,0.01995 0.11985,0.03492 0.0379,0.01461 0.14473,0.07399 0.10961,0.0535 -0.0931,-0.05434 -0.18369,-0.115155 -0.28381,-0.155152 -0.04,-0.01596 0.0686,0.05224 0.1,0.08171 0.0832,0.07819 0.0973,0.107818 0.16263,0.199967 0.064,0.114546 0.1332,0.242231 0.11975,0.378833 -0.006,0.06265 -0.0231,0.08333 -0.0508,0.138155 -0.0181,0.02111 -0.0346,0.04363 -0.0542,0.06338 -0.0594,0.06002 -0.10709,0.092 -0.17683,0.142322 -0.0451,0.03254 -0.0897,0.06588 -0.13597,0.09665 -0.11721,0.07787 -0.18742,0.11503 -0.30928,0.18433 -0.16214,0.08802 -0.33152,0.164952 -0.51111,0.209648 -0.069,0.01717 -0.12572,0.02508 -0.19557,0.03654 -0.12324,0.01736 -0.0626,0.0081 -0.18196,0.02762 0,0 0.38169,0.267618 0.38169,0.267618 v 0 c 0.11676,-0.02061 0.057,-0.01053 0.17915,-0.03008 0.0823,-0.0159 0.11362,-0.01966 0.19437,-0.04465 0.17486,-0.05409 0.33702,-0.141388 0.49536,-0.231637 0.2156,-0.126109 0.0942,-0.05459 0.313,-0.184648 0.14632,-0.08697 0.3021,-0.167775 0.409,-0.304556 0.0337,-0.06565 0.0509,-0.0845 0.059,-0.159721 0.0158,-0.147624 -0.056,-0.284282 -0.12294,-0.409787 -0.0626,-0.09524 -0.0779,-0.128294 -0.15782,-0.210762 -0.16416,-0.169481 -0.38331,-0.262993 -0.58845,-0.377296 -0.0359,-0.02 -0.0748,-0.03469 -0.11395,-0.04721 -0.039,-0.01246 -0.0798,-0.01834 -0.11965,-0.0275 -0.0445,-0.0045 -0.0888,-0.01114 -0.13348,-0.01349 -0.0929,-0.0048 -0.22958,-2.27e-4 -0.32041,0.0065 -0.10723,0.008 -0.25301,0.02381 -0.35787,0.04953 -0.0486,0.01193 -0.095,0.03143 -0.14251,0.04714 -0.11251,0.05272 -0.14325,0.06103 -0.24434,0.131969 -0.10213,0.07166 -0.18647,0.163803 -0.26998,0.255474 z" />
    <path
       style="opacity:0.095;fill:#ff0092;fill-opacity:1;stroke:none;stroke-width:0.2;stroke-linecap:butt;stroke-linejoin:miter;stroke-miterlimit:4;stroke-dasharray:none;stroke-dashoffset:0;stroke-opacity:1"
       id="path496"
       d="m 72.958306,64.933001 c -0.0754,-0.04599 -0.12962,-0.118914 -0.18064,-0.189246 -0.0822,-0.124978 -0.14486,-0.263297 -0.18433,-0.407659 -0.0106,-0.03893 -0.0188,-0.0785 -0.0282,-0.117758 -0.0228,-0.139983 -0.0294,-0.288563 0.0308,-0.421201 0.0339,-0.07461 0.0646,-0.102836 0.11649,-0.165195 0.11109,-0.113927 0.24741,-0.203385 0.40023,-0.250513 0.0241,-0.0074 0.0489,-0.01193 0.0734,-0.01789 0.087,-0.01421 0.17459,-0.0053 0.25668,0.02696 0.033,0.01296 0.0787,0.03795 0.10975,0.05421 0.12173,0.06734 0.32287,0.179101 -0.24591,-0.143129 -0.0278,-0.01577 0.0551,0.0326 0.0822,0.04952 0.0874,0.05447 0.16976,0.114009 0.25181,0.176175 0.12926,0.103934 0.25235,0.217855 0.3547,0.348954 0.0161,0.02061 0.0307,0.0423 0.0461,0.06344 0.044,0.06708 0.0828,0.137753 0.10954,0.213527 0.0131,0.03711 0.0163,0.05277 0.0264,0.09136 0.017,0.08594 0.0211,0.173646 0.0211,0.261022 0,0 0.42116,0.213524 0.42116,0.213524 v 0 c -0.004,-0.0898 -0.002,-0.18007 -0.0166,-0.269079 -0.003,-0.01704 -0.005,-0.03429 -0.009,-0.05108 -0.0248,-0.100645 -0.0803,-0.19078 -0.13396,-0.277998 -0.0162,-0.02268 -0.0316,-0.04598 -0.0487,-0.06803 -0.0605,-0.07801 -0.12943,-0.148632 -0.19995,-0.217426 -0.026,-0.0254 -0.0517,-0.05119 -0.0787,-0.07551 -0.0264,-0.02373 -0.0543,-0.04571 -0.0814,-0.06857 -0.0273,-0.02201 -0.054,-0.04474 -0.0819,-0.066 -0.21066,-0.160745 -0.49078,-0.307234 -0.7061,-0.430787 -0.0245,-0.01402 -0.0495,-0.02702 -0.0742,-0.04053 -0.0448,-0.0209 -0.0693,-0.03455 -0.11678,-0.04817 -0.0865,-0.02487 -0.17704,-0.02238 -0.26406,-0.0016 -0.0248,0.0079 -0.0502,0.01429 -0.0744,0.02384 -0.0471,0.01855 -0.11139,0.0539 -0.1539,0.07937 -0.091,0.05454 -0.17505,0.117589 -0.24653,0.196691 -0.0498,0.06036 -0.0942,0.106286 -0.1272,0.17865 -0.0145,0.0319 -0.0234,0.06625 -0.0311,0.100462 -0.0257,0.114443 -0.0194,0.230629 -0.001,0.345535 0.007,0.03933 0.0122,0.07899 0.0208,0.117996 0.008,0.03524 0.0182,0.06984 0.0281,0.104527 0.009,0.03209 0.018,0.06434 0.0293,0.09576 0.009,0.02633 0.0216,0.0516 0.0328,0.07723 0.0353,0.08054 0.0256,0.0591 0.0654,0.13253 0.0198,0.03199 0.0396,0.06543 0.062,0.09578 0.0224,0.03024 0.0482,0.05732 0.0733,0.08518 0.004,0.0047 0.008,0.0099 0.0121,0.01484 z" />
    <path
       style="opacity:0.095;fill:#ff0092;fill-opacity:1;stroke:none;stroke-width:0.2;stroke-linecap:butt;stroke-linejoin:miter;stroke-miterlimit:4;stroke-dasharray:none;stroke-dashoffset:0;stroke-opacity:1"
       id="path499"
       d="m 74.710406,64.34411 c -2.6e-4,-0.111456 0.0282,-0.222297 0.0721,-0.324263 0.0166,-0.03864 0.0371,-0.07553 0.0556,-0.113299 0.088,-0.159274 0.1875,-0.291346 0.33743,-0.397653 0.10671,-0.07567 0.13109,-0.07953 0.25059,-0.133163 0.0472,-0.01482 0.0937,-0.03189 0.14155,-0.04448 0.18128,-0.04773 0.39141,-0.07136 0.57852,-0.05384 0.0417,0.0039 0.0828,0.01278 0.1242,0.01918 0.0361,0.01042 0.0731,0.0181 0.10831,0.03127 0.0311,0.01164 0.11859,0.05959 0.0899,0.0429 -0.10281,-0.05978 -0.20452,-0.122272 -0.31242,-0.172287 -0.0239,-0.01109 0.0407,0.03389 0.0576,0.05416 0.0474,0.05714 0.0509,0.08505 0.0769,0.154561 0.005,0.033 0.0135,0.06567 0.0163,0.099 0.0152,0.182165 -0.0183,0.385008 -0.0675,0.560229 -0.0122,0.04341 -0.0279,0.08574 -0.0419,0.128614 -0.0513,0.138411 -0.12002,0.269668 -0.21629,0.382219 -0.0538,0.06293 -0.0768,0.07992 -0.13854,0.135485 -0.0611,0.05205 -0.1301,0.09309 -0.19766,0.135898 0,0 0.39175,0.249156 0.39175,0.249156 v 0 c 0.0619,-0.04951 0.12512,-0.09747 0.18432,-0.150294 0.0257,-0.02291 0.0528,-0.04433 0.0771,-0.06871 0.13248,-0.133025 0.21543,-0.302313 0.27255,-0.479152 0.0133,-0.0444 0.0281,-0.08838 0.0399,-0.133205 0.0223,-0.08489 0.0454,-0.202449 0.0597,-0.288761 0.007,-0.04165 0.0337,-0.227296 0.035,-0.27442 0.001,-0.03486 -0.005,-0.06955 -0.008,-0.104328 -0.0186,-0.07019 -0.0227,-0.110154 -0.0634,-0.171255 -0.0159,-0.02387 -0.0327,-0.04906 -0.0568,-0.06464 -0.0591,-0.03823 -0.369,-0.251267 -0.54813,-0.302559 -0.0346,-0.0099 -0.0705,-0.01508 -0.10572,-0.02262 -0.0405,-0.0038 -0.0808,-0.0097 -0.12146,-0.01148 -0.19041,-0.0082 -0.39647,0.01937 -0.57996,0.0697 -0.0494,0.01355 -0.0974,0.03157 -0.14604,0.04736 -0.0455,0.02085 -0.0923,0.03876 -0.13635,0.0625 -0.12243,0.06606 -0.24328,0.161166 -0.3324,0.268401 -0.0441,0.05304 -0.1072,0.160338 -0.14291,0.218382 -0.077,0.137655 -0.049,0.08245 -0.11414,0.217596 -0.0139,0.02879 -0.0292,0.05697 -0.0413,0.08654 -0.0154,0.03763 -0.0219,0.07933 -0.0358,0.117583 z" />
    <path
       style="opacity:0.095;fill:#ff0092;fill-opacity:1;stroke:none;stroke-width:0.2;stroke-linecap:butt;stroke-linejoin:miter;stroke-miterlimit:4;stroke-dasharray:none;stroke-dashoffset:0;stroke-opacity:1"
       id="path500"
       d="m 74.515556,68.111692 c 5.3e-4,0.148632 0.0236,0.294505 0.0516,0.440034 0.0261,0.12193 0.0552,0.244909 0.10386,0.360246 0.03,0.07112 0.0447,0.08973 0.0849,0.1559 0.0671,0.103593 0.13936,0.206288 0.22447,0.296178 0.0701,0.07399 0.10559,0.09947 0.18453,0.165134 0.21307,0.161901 0.45225,0.286996 0.68665,0.414126 0.0324,0.01757 0.12767,0.04796 0.16542,0.05691 0.0264,0.0062 0.0534,0.0096 0.0801,0.01437 0.10964,0.01027 0.22489,0.0063 0.32147,-0.0534 0.0582,-0.03601 0.0919,-0.07597 0.13968,-0.124267 0.14309,-0.154173 0.21639,-0.348139 0.28043,-0.544494 0.0592,-0.187195 0.0793,-0.382249 0.0941,-0.576969 0,0 -0.42465,-0.219424 -0.42465,-0.219424 v 0 c -0.007,0.192182 -0.0257,0.384685 -0.0818,0.569589 -0.0618,0.188257 -0.13334,0.376608 -0.2724,0.522764 -0.0467,0.04365 -0.0764,0.0777 -0.13323,0.107588 -0.0938,0.04934 -0.20335,0.04476 -0.3047,0.02968 -0.0679,-0.01595 -0.0866,-0.01783 -0.15177,-0.04317 -0.0276,-0.01069 -0.1061,-0.05153 -0.0813,-0.03553 0.1025,0.06601 0.20997,0.12397 0.31493,0.186012 0.0332,0.01963 -0.0673,-0.03784 -0.0998,-0.05881 -0.0345,-0.02236 -0.0673,-0.04737 -0.10098,-0.07106 -0.0666,-0.05316 -0.12141,-0.09332 -0.18067,-0.154244 -0.0224,-0.02307 -0.0418,-0.04895 -0.0625,-0.07354 -0.0581,-0.0688 -0.11633,-0.137877 -0.16249,-0.215577 -0.0318,-0.04865 -0.0642,-0.09419 -0.0889,-0.147114 -0.0523,-0.111882 -0.0823,-0.233659 -0.10841,-0.353674 -0.0278,-0.139292 -0.0536,-0.280096 -0.0378,-0.422685 z" />
    <path
       style="opacity:0.095;fill:#ff0092;fill-opacity:1;stroke:none;stroke-width:0.2;stroke-linecap:butt;stroke-linejoin:miter;stroke-miterlimit:4;stroke-dasharray:none;stroke-dashoffset:0;stroke-opacity:1"
       id="path501"
       d="m 72.833146,66.169071 c -0.12015,-0.0021 -0.24035,1.38e-4 -0.36052,0.0011 -0.11279,0.0037 -0.22631,0.0053 -0.33764,0.02625 -0.0374,0.007 -0.075,0.0141 -0.11082,0.02679 -0.0918,0.03251 -0.1346,0.06731 -0.21562,0.12001 -0.13734,0.121687 -0.24809,0.270666 -0.32574,0.436996 -0.0455,0.09739 -0.0551,0.139544 -0.087,0.241039 -0.03,0.112421 -0.0499,0.227978 -0.0524,0.344537 -7.9e-4,0.03676 -0.001,0.07373 0.003,0.110276 0.01,0.08742 0.0305,0.146505 0.0546,0.230262 0.0365,0.07899 0.0549,0.133979 0.11281,0.200408 0.0562,0.0644 0.12058,0.107479 0.19466,0.148386 0.48632,0.268521 0.31142,0.214006 0.59212,0.286608 0.18975,0.036 0.38301,0.01699 0.57386,0.0019 0.0992,-0.0055 0.19469,-0.03169 0.28802,-0.06416 0,0 -0.39987,-0.269534 -0.39987,-0.269534 v 0 c -0.0843,0.0328 -0.17086,0.05754 -0.26101,0.06834 -0.18247,0.02162 -0.36816,0.03479 -0.54939,-0.0043 -0.22009,-0.06536 -0.0932,-0.03801 0.16132,0.137041 0.0331,0.02275 -0.0722,-0.03572 -0.1057,-0.05785 -0.0727,-0.04802 -0.11226,-0.08635 -0.15912,-0.159425 -0.0204,-0.03174 -0.0348,-0.0669 -0.0522,-0.100354 -0.0294,-0.09165 -0.0442,-0.122835 -0.0563,-0.218683 -0.0188,-0.148725 0.003,-0.300821 0.035,-0.445844 0.0113,-0.03934 0.0209,-0.07925 0.034,-0.118023 0.056,-0.164851 0.14123,-0.323109 0.26469,-0.447572 0.0306,-0.0309 0.0659,-0.05684 0.0989,-0.08526 0.0931,-0.05595 0.10819,-0.07284 0.21238,-0.10473 0.1441,-0.04411 0.2978,-0.04126 0.4466,-0.04122 0.0876,0.0033 0.11257,0.0035 0.19738,0.0094 0.0561,0.0039 0.11419,0.0073 0.16929,0.01963 0.009,0.0021 0.0179,0.0053 0.0269,0.008 z" />
    <path
       style="opacity:0.095;fill:#ff0092;fill-opacity:1;stroke:none;stroke-width:0.2;stroke-linecap:butt;stroke-linejoin:miter;stroke-miterlimit:4;stroke-dasharray:none;stroke-dashoffset:0;stroke-opacity:1"
       id="path502"
       d="m 73.529536,65.363362 c 5.3e-4,-0.02717 0.001,-0.05546 -0.008,-0.08155 -0.0259,-0.07201 -0.0744,-0.129603 -0.12125,-0.1886 -0.0778,-0.08857 -0.16236,-0.169328 -0.26391,-0.230603 -0.16121,-0.09726 -0.3235,-0.192916 -0.48889,-0.28289 -0.0692,-0.03766 -0.22918,-0.09293 -0.30154,-0.119372 -0.14055,-0.04742 -0.28435,-0.08425 -0.4303,-0.110527 -0.0832,-0.01498 -0.147,-0.02553 -0.23117,-0.02503 -0.0344,2.06e-4 -0.0686,0.0049 -0.10289,0.0073 -0.12433,0.01974 -0.24295,0.06627 -0.3324,0.157808 -0.0213,0.02183 -0.042,0.04494 -0.0577,0.07108 -0.0183,0.03034 -0.0291,0.06464 -0.0436,0.09696 -0.0104,0.03599 -0.0228,0.07144 -0.0312,0.107958 -0.0338,0.147632 -0.0383,0.304882 -0.0168,0.454631 0.005,0.03549 0.0135,0.07042 0.0203,0.105634 0.0218,0.09729 0.0548,0.191506 0.0929,0.283502 0.0114,0.0275 0.0224,0.0552 0.0358,0.08178 0.033,0.06561 0.0598,0.102854 0.0997,0.163854 0.0762,0.11017 0.16928,0.206491 0.27171,0.292171 0.16036,0.12405 0.33906,0.225036 0.52678,0.3008 0,0 -0.38094,-0.300715 -0.38094,-0.300715 v 0 c -0.0168,-0.0074 -0.0653,-0.03356 -0.0495,-0.02426 0.0972,0.05694 0.53384,0.310779 0.34473,0.200842 -0.0453,-0.03382 -0.0916,-0.06745 -0.13325,-0.10577 -0.061,-0.05607 -0.117,-0.118102 -0.16786,-0.183369 -0.0179,-0.02537 -0.0369,-0.05002 -0.0537,-0.0761 -0.0863,-0.133678 -0.14428,-0.287994 -0.18829,-0.440079 -0.008,-0.03421 -0.017,-0.0681 -0.0232,-0.102619 -0.0323,-0.180125 -0.0232,-0.365913 0.0401,-0.538308 0.0148,-0.02802 0.0268,-0.05769 0.0443,-0.08407 0.063,-0.09468 0.16624,-0.15634 0.27438,-0.185026 0.0295,-0.0078 0.06,-0.01132 0.09,-0.01699 0.0323,-0.0019 0.0645,-0.0053 0.0969,-0.0053 0.075,1.27e-4 0.14244,0.0092 0.21651,0.02169 0.13988,0.02358 0.27767,0.05834 0.4117,0.104929 0.0516,0.0199 0.10394,0.03785 0.15473,0.05968 0.0513,0.02207 0.19546,0.106307 0.15144,0.07189 -0.0722,-0.05644 -0.15574,-0.09703 -0.23722,-0.138956 -0.037,-0.01905 0.0705,0.04455 0.10336,0.07009 0.0275,0.02135 0.0524,0.0459 0.0773,0.07024 0.0226,0.02215 0.0435,0.04608 0.0652,0.06912 0.0445,0.0551 0.0932,0.111554 0.10879,0.182743 0.001,0.0061 0.003,0.01233 0.003,0.0186 -7e-5,0.0054 -0.002,0.01066 -0.003,0.01598 z" />
  </g>
</svg>
