<?xml version="1.0" encoding="UTF-8" standalone="no"?>
<!-- Created with Inkscape (http://www.inkscape.org/) -->

<svg
   width="35.69001mm"
   height="5.6899524mm"
   viewBox="0 0 35.69001 5.6899524"
   version="1.1"
   id="svg1"
   xmlns="http://www.w3.org/2000/svg"
   xmlns:svg="http://www.w3.org/2000/svg">
  <defs
     id="defs1" />
  <g
     id="layer1"
     transform="translate(-44.655,-159.655)">
    <path
       style="font-size:2.75767px;font-family:'Virgil 3 YOFF';-inkscape-font-specification:'Virgil 3 YOFF';opacity:0.18;fill:none;stroke:#ffeb00;stroke-width:0.09;stroke-opacity:1"
       d="m 50.472587,162.46644 q 0.0028,-0.0193 0.0028,-0.0579 0.0028,-0.0414 0.0055,-0.0634 0.0028,-0.0248 0.0083,-0.0496 0.0083,-0.0248 0.0193,-0.0358 0.05791,-0.0496 0.16546,-0.0717 0.0193,-0.003 0.03861,0.008 0.0193,0.008 0.03033,0.0193 0.01379,0.011 0.03309,0.0331 0.0193,0.0193 0.02758,0.0276 0,0.0248 0.0083,0.0827 0.0083,0.0579 0.0083,0.0882 0.0028,0.0303 -0.01655,0.0717 -0.04688,0.0662 -0.06894,0.24543 -0.0055,0.0965 0,0.20958 0.0055,0.0193 0.02482,0.0193 0.03861,-0.0221 0.107549,-0.11307 0.06894,-0.091 0.07722,-0.0993 l 0.01655,-0.0331 q 0.0028,-0.008 0.01103,-0.0496 0.01103,-0.0414 0.02482,-0.0552 0.04964,-0.0524 0.193037,-0.0717 0.02206,0 0.04137,0.0138 0.0193,0.0138 0.02758,0.0276 0.01103,0.0138 0.02758,0.0441 0.0193,0.0303 0.02482,0.0386 0.03309,0.11582 0.03309,0.17373 l 0.03585,0.0359 h 0.0524 q 0.07446,-0.0634 0.137884,-0.13512 0.06618,-0.0745 0.157187,-0.1958 0.09376,-0.12409 0.124095,-0.15994 0.01379,-0.0248 0.121337,-0.17374 l 0.137884,-0.13788 q 0.0193,-0.0165 0.04136,-0.0193 0.02482,-0.003 0.05515,0 0.03034,0.003 0.04412,0 0.06343,0.0469 0.01655,0.17649 -0.245432,0.31989 -0.416408,0.5212 -0.129611,0.19028 -0.325405,0.38055 -0.09652,0.091 -0.234402,0.091 -0.124095,-0.0441 -0.190279,-0.19304 l -0.0193,-0.0165 q -0.04964,0.0276 -0.146156,0.12962 -0.09376,0.0993 -0.165461,0.12961 -0.0083,0 -0.03585,0 -0.02482,0.003 -0.04136,0.003 -0.01379,0 -0.03309,-0.006 -0.0193,-0.006 -0.03034,-0.0138 -0.07446,-0.0469 -0.121337,-0.20683 -0.01655,-0.0662 -0.02206,-0.14891 -0.0028,-0.0827 0.0028,-0.14616 0.0055,-0.0662 0,-0.15167 v -0.0772 q 0,-0.003 -0.0083,-0.0414 -0.0083,-0.0414 -0.0083,-0.0469 z m 2.484659,0.13789 q -0.07721,0.0331 -0.148915,0.091 -0.06894,0.0579 -0.102033,0.0965 -0.03033,0.0386 -0.104792,0.14064 -0.0717,0.10203 -0.091,0.12685 -0.04688,0.12685 -0.137883,0.20683 -0.03861,0.0193 -0.06894,0.0193 -0.06067,0 -0.08825,-0.0524 -0.0055,-0.008 -0.0193,-0.0248 -0.01379,-0.0165 -0.02482,-0.0303 l -0.0083,-0.0138 q 0,-0.008 -0.0028,-0.0359 0,-0.0303 0,-0.0469 0,-0.0193 0.0028,-0.0414 0.0055,-0.0221 0.01655,-0.0331 0.01103,-0.091 0.01379,-0.1958 0.0055,-0.10479 0.0028,-0.17373 -0.0028,-0.0717 -0.0083,-0.19856 -0.0055,-0.12685 -0.0083,-0.17924 0.0055,-0.0717 -0.0083,-0.22889 -0.01379,-0.15719 -0.0083,-0.22613 v -0.15719 q -0.0028,-0.0331 0.03033,-0.0386 0.03585,-0.006 0.05791,0.003 0.0028,0.003 0.02482,0.0248 0.02206,0.0221 0.03861,0.0441 0.0193,0.0193 0.02206,0.0359 0.07446,0.35573 0.0717,0.47156 0,0.0276 0.0083,0.2537 0.0083,0.22613 0.0083,0.25095 v 0.0524 h 0.01655 q 0.02206,-0.0193 0.184764,-0.18477 0.162703,-0.16822 0.270252,-0.23164 0.04964,-0.0193 0.110307,-0.0193 0.091,0 0.148914,0.069 0.09376,0.10203 0.137883,0.22613 0.04412,0.12133 0.0717,0.29782 0.07997,0.24544 0.0717,0.36402 l -0.0083,0.0165 q -0.0055,0.0138 -0.01103,0.0193 -0.01655,0.0193 -0.04688,0.0193 -0.02206,0 -0.07446,-0.0193 -0.08273,-0.10204 -0.140641,-0.25923 -0.06618,-0.19579 -0.06894,-0.22612 -0.04412,-0.18753 -0.12961,-0.21234 z m 1.618751,0.25922 q -0.02206,0.0165 -0.0524,0.0689 -0.146157,0.15994 -0.286798,0.25646 -0.137883,0.0938 -0.300586,0.091 -0.08549,0.011 -0.176491,-0.0221 -0.091,-0.0359 -0.143399,-0.0993 -0.02482,-0.0386 -0.03585,-0.0524 -0.0083,-0.0165 -0.02758,-0.0496 -0.0193,-0.0359 -0.02758,-0.0579 -0.0055,-0.0221 -0.01379,-0.0524 -0.0083,-0.0303 -0.0083,-0.0579 0,-0.0303 0.0083,-0.0607 0.0028,-0.0938 0.06067,-0.19028 0.06067,-0.0965 0.121337,-0.15443 0.06067,-0.0579 0.157187,-0.13789 0.0193,-0.0138 0.02758,-0.0221 0.115822,-0.0938 0.314374,-0.0938 0.04136,0 0.261979,0.0221 0.0055,0.006 0.03585,0.0193 0.03309,0.0138 0.04688,0.0303 0.01379,0.0138 0.0028,0.0386 l 0.03585,0.0359 q 0.08273,0.0359 0.104791,0.0689 0.137883,0.28128 0.242675,0.45226 0.01103,0.0138 0.06894,0.0634 0.06067,0.0469 0.0717,0.0607 0.02206,0.0166 0.0524,0.0469 0.03309,0.0276 0.05515,0.0414 0.02206,0.0138 0.04964,0.0165 0.0028,0.003 0.03585,0.0331 0.0028,0.008 -0.0028,0.0221 -0.0028,0.011 -0.0083,0.0276 -0.0055,0.0165 -0.0083,0.0221 -0.02758,0.0414 -0.121337,0.0662 -0.03309,0 -0.04688,0.003 -0.01103,0.006 -0.03861,-0.006 -0.02482,-0.008 -0.03585,-0.0138 -0.0083,-0.003 -0.03585,-0.0193 -0.02758,-0.0165 -0.04136,-0.0248 l -0.01103,-0.006 q -0.06894,-0.0579 -0.190279,-0.19856 -0.11858,-0.14339 -0.140641,-0.16821 z m -0.802482,0.0855 q 0.04964,0.0745 0.148914,0.0745 0.04688,0 0.12961,-0.0221 0.135126,-0.0496 0.245433,-0.17373 0.107549,-0.14892 0.121337,-0.26198 0,-0.008 0.01103,-0.0634 0.01103,-0.0579 0.0083,-0.08 -0.05515,0.0138 -0.159945,0.0221 -0.102034,0.006 -0.157187,0.0165 -0.0717,0.011 -0.146157,0.0689 -0.07446,0.0551 -0.113064,0.10479 -0.03861,0.0496 -0.104791,0.14064 -0.04688,0.0579 0.01655,0.17373 z m 1.980006,-0.20682 0.0055,-0.22613 q 0,-0.08 -0.01379,-0.24543 -0.01655,-0.0634 -0.03033,-0.0745 -0.182006,0.0138 -0.278525,0.0607 -0.02482,0 -0.0717,0.0193 -0.04688,0.0193 -0.07997,0.0138 -0.0193,-0.008 -0.03861,-0.0248 -0.0193,-0.0165 -0.03861,-0.0386 -0.02206,-0.0248 -0.03585,-0.0358 -0.01103,-0.0276 -0.0083,-0.0772 0.0028,-0.0496 0.0193,-0.0745 l 0.091,-0.08 q 0.143398,-0.003 0.427438,-0.0552 l 0.0193,-0.0221 0.0055,-0.43296 q 0.06343,-0.0689 0.157187,-0.0496 0.07446,0.0579 0.08273,0.1434 0.0083,0.0165 0.01103,0.13789 0.0028,0.12133 0.02206,0.14064 0.0028,0 0.02482,0.008 0.02482,0.006 0.02758,0.008 0.05515,-0.006 0.140641,-0.0193 0.08549,-0.0165 0.124095,-0.0193 0.03861,-0.003 0.140641,0.003 l 0.126853,0.006 q 0.11858,0.0165 0.08825,0.13788 -0.04688,0.0469 -0.0717,0.0524 -0.06343,0.006 -0.129611,0.0165 -0.06618,0.011 -0.16546,0.0358 -0.09652,0.0221 -0.12961,0.0276 l -0.0055,0.003 q -0.0717,0.003 -0.162702,0.0359 l -0.01379,0.0193 q 0,0.0331 -0.0055,0.11031 -0.0028,0.0745 0,0.12961 0.0028,0.0524 0.01655,0.10755 0,0.48259 0.04964,0.60117 0.05515,0.0496 0.09928,0.0524 0.02482,0 0.06343,-0.008 0.01103,-0.003 0.03309,-0.008 0.02206,-0.006 0.03033,-0.006 0.0083,-0.003 0.02482,-0.008 0.01655,-0.006 0.02206,-0.008 0.0083,-0.003 0.0193,-0.008 0.01379,-0.008 0.0193,-0.0165 0.0083,-0.008 0.0193,-0.0193 0.01103,-0.011 0.0193,-0.0248 0.01103,-0.0138 0.02206,-0.0303 0.01103,-0.0193 0.02482,-0.0414 -0.0028,-0.0138 0.0083,-0.0662 0.01103,-0.0524 0.01655,-0.0662 0.03033,-0.0855 0.110307,-0.0827 0.03861,-0.006 0.05791,0.0138 0.0193,0.0193 0.03585,0.0689 l 0.01379,0.0469 q -0.0193,0.13513 -0.04136,0.16822 -0.05515,0.1103 -0.08549,0.15167 -0.02758,0.0414 -0.102034,0.0855 -0.07446,0.0469 -0.228887,0.0965 -0.0083,0.003 -0.06343,0.0221 -0.05515,0.0221 -0.08549,0.0221 -0.126853,-0.006 -0.187521,-0.0827 -0.0083,-0.0165 -0.04964,-0.0855 -0.04136,-0.0717 -0.05791,-0.1241 -0.01655,-0.0551 -0.0083,-0.11582 -0.0028,-0.0496 -0.01379,-0.1434 -0.01103,-0.0938 -0.01379,-0.11858 -0.0028,-0.003 -0.0028,-0.006 z m 2.512239,-1.01758 q 0.01655,-0.0414 0.05791,-0.0662 0.04412,-0.0276 0.091,-0.0221 0.01655,-0.003 0.03033,0 0.01379,0.003 0.02758,0.011 0.01655,0.008 0.02482,0.0138 0.0083,0.006 0.02206,0.0248 0.01655,0.0193 0.02206,0.0248 0.0055,0.003 0.02206,0.0276 l 0.01655,0.0221 q 0.01103,0.0276 0.104792,0.12134 0.0193,0.0276 0.0193,0.0662 0.0028,0.0358 -0.0193,0.0579 h -0.06067 q -0.04688,0.008 -0.09652,-0.006 -0.04688,-0.0138 -0.126852,-0.0552 -0.07722,-0.0414 -0.08273,-0.0441 -0.04688,-0.0276 -0.06343,-0.0772 -0.01379,-0.0524 0.01103,-0.0993 z m 0.176491,1.39814 q -0.0055,-0.0331 -0.01655,-0.1434 -0.01103,-0.11307 -0.02206,-0.2344 -0.01103,-0.1241 -0.01379,-0.14616 -0.0055,-0.0745 0,-0.15719 0.04137,-0.0717 0.137883,-0.0524 0.03585,0.0165 0.0717,0.10479 0,0.0579 0.0083,0.12134 0.01103,0.0634 0.0193,0.10754 0.01103,0.0441 0.03034,0.11583 0.0193,0.0717 0.02758,0.1103 0,0.0221 -0.0055,0.0717 -0.0028,0.0469 -0.0083,0.091 -0.0028,0.0441 -0.0028,0.0469 -0.0028,0.008 -0.0083,0.0303 -0.0028,0.0221 -0.0083,0.0358 -0.0028,0.0138 -0.01379,0.0303 -0.0083,0.0138 -0.02206,0.0221 -0.07446,0.0138 -0.121338,-0.0331 -0.04688,-0.0827 -0.0524,-0.12133 z m 0.570837,-0.0552 q 0.0055,-0.011 0.02482,-0.0414 0.0193,-0.0303 0.02758,-0.0469 0.143399,0.0248 0.242675,0.12134 0.0524,0.0386 0.124095,0.0607 0.07446,0.0221 0.110307,0.0276 0.03861,0.003 0.148914,0.003 0.110307,-0.003 0.124096,-0.003 0.06067,0 0.157187,-0.0359 0.02758,-0.011 0.03309,-0.0386 0.0055,-0.0276 -0.01655,-0.0469 -0.0524,-0.0386 -0.27301,-0.14615 -0.217855,-0.10755 -0.231644,-0.11582 -0.281282,-0.0855 -0.490865,-0.24544 -0.01379,-0.0193 -0.04688,-0.0441 -0.03034,-0.0276 -0.04964,-0.0524 -0.0193,-0.0276 -0.02482,-0.0607 -0.0028,-0.10755 0.104792,-0.19028 0.01379,-0.006 0.107549,-0.0331 0.09376,-0.0276 0.137884,-0.0551 0.256463,-0.10203 0.488107,-0.11858 0.0055,0 0.03033,0.003 0.02758,0.003 0.03034,0.003 0.0055,0 0.02758,0.003 0.02206,0.003 0.02758,0.006 0.0055,0.003 0.02206,0.008 0.01655,0.006 0.02206,0.0138 0.0083,0.006 0.0193,0.0165 0.01103,0.008 0.01655,0.0221 0.0083,0.011 0.01379,0.0276 0.01655,0.0965 -0.0524,0.15719 -0.01379,0 -0.08825,0.003 -0.07446,0.003 -0.09652,0.006 -0.02206,0 -0.08273,0.008 -0.06067,0.006 -0.09376,0.0138 -0.03309,0.008 -0.07722,0.0248 -0.04412,0.0165 -0.08273,0.0386 -0.03861,0.0138 -0.0524,0.0441 -0.01103,0.0303 0.03309,0.0524 0.126853,0.0882 0.375043,0.20131 0.24819,0.11307 0.339193,0.16546 0.091,0.0579 0.157188,0.14064 0.06894,0.08 0.08549,0.18201 0.0193,0.10203 -0.08549,0.182 -0.06618,0.0524 -0.173734,0.08 -0.104791,0.0276 -0.168217,0.0331 -0.06343,0.006 -0.195795,0.008 -0.137883,0.006 -0.295071,-0.0414 -0.157187,-0.0469 -0.267494,-0.13237 -0.110306,-0.0414 -0.08549,-0.20683 z m 3.819371,-0.20406 q -0.02206,0.0165 -0.0524,0.0689 -0.146156,0.15994 -0.286797,0.25646 -0.137884,0.0938 -0.300586,0.091 -0.08549,0.011 -0.176491,-0.0221 -0.091,-0.0359 -0.143399,-0.0993 -0.02482,-0.0386 -0.03585,-0.0524 -0.0083,-0.0165 -0.02758,-0.0496 -0.0193,-0.0359 -0.02758,-0.0579 -0.0055,-0.0221 -0.01379,-0.0524 -0.0083,-0.0303 -0.0083,-0.0579 0,-0.0303 0.0083,-0.0607 0.0028,-0.0938 0.06067,-0.19028 0.06067,-0.0965 0.121338,-0.15443 0.06067,-0.0579 0.157187,-0.13789 0.0193,-0.0138 0.02758,-0.0221 0.115822,-0.0938 0.314374,-0.0938 0.04136,0 0.261979,0.0221 0.0055,0.006 0.03585,0.0193 0.03309,0.0138 0.04688,0.0303 0.01379,0.0138 0.0028,0.0386 l 0.03585,0.0359 q 0.08273,0.0359 0.104792,0.0689 0.137883,0.28128 0.242674,0.45226 0.01103,0.0138 0.06894,0.0634 0.06067,0.0469 0.0717,0.0607 0.02206,0.0166 0.0524,0.0469 0.03309,0.0276 0.05515,0.0414 0.02206,0.0138 0.04964,0.0165 0.0028,0.003 0.03585,0.0331 0.0028,0.008 -0.0028,0.0221 -0.0028,0.011 -0.0083,0.0276 -0.0055,0.0165 -0.0083,0.0221 -0.02758,0.0414 -0.121338,0.0662 -0.03309,0 -0.04688,0.003 -0.01103,0.006 -0.03861,-0.006 -0.02482,-0.008 -0.03585,-0.0138 -0.0083,-0.003 -0.03585,-0.0193 -0.02758,-0.0165 -0.04136,-0.0248 l -0.01103,-0.006 q -0.06894,-0.0579 -0.190279,-0.19856 -0.11858,-0.14339 -0.140641,-0.16821 z m -0.802482,0.0855 q 0.04964,0.0745 0.148914,0.0745 0.04688,0 0.129611,-0.0221 0.135126,-0.0496 0.245432,-0.17373 0.10755,-0.14892 0.121338,-0.26198 0,-0.008 0.01103,-0.0634 0.01103,-0.0579 0.0083,-0.08 -0.05515,0.0138 -0.159945,0.0221 -0.102034,0.006 -0.157187,0.0165 -0.0717,0.011 -0.146157,0.0689 -0.07446,0.0551 -0.113064,0.10479 -0.03861,0.0496 -0.104792,0.14064 -0.04688,0.0579 0.01655,0.17373 z m 2.994829,-1.2051 q 0.06067,-0.091 0.121337,-0.091 0.03033,0 0.0524,0.0221 0.01379,0.0138 0.03585,0.0358 0.02206,0.0193 0.03309,0.0331 0.01379,0.011 0.02758,0.0303 0.01655,0.0165 0.02758,0.0359 0.01103,0.0193 0.01655,0.0386 0.01379,0.0193 0.04964,0.0579 0.03585,0.0386 0.05791,0.0717 0.02482,0.0331 0.03309,0.0634 0,0.0358 -0.02758,0.0579 -0.02758,0.0221 -0.06067,0.011 -0.06067,-0.006 -0.16546,-0.0689 -0.104792,-0.0634 -0.113065,-0.0689 -0.0524,-0.0359 -0.07721,-0.0993 -0.02482,-0.0634 -0.01103,-0.12961 z m -0.416409,2.00759 q 0.01655,-0.0496 0.07722,-0.0855 0.06067,-0.0359 0.121338,-0.0359 0.03861,0 0.06343,0.0165 0.01655,0.0248 0.04137,0.0883 0.02206,0.0634 0.02482,0.0689 0.295071,0.2344 0.493623,0.2344 0.08549,0 0.11858,-0.0607 0.02482,-0.16546 -0.03033,-0.50741 -0.05515,-0.33919 -0.05791,-0.38055 -0.01103,-0.0552 -0.03033,-0.18201 -0.0193,-0.12961 -0.04136,-0.22889 -0.0193,-0.10203 -0.04964,-0.182 -0.0028,-0.0414 0.04136,-0.0745 0.04412,-0.0359 0.08549,-0.0331 0.115822,0.0745 0.126853,0.17373 0.132368,0.5929 0.20131,1.36229 0.01379,0.17649 -0.0717,0.29783 -0.104791,0.0744 -0.242675,0.0744 -0.113064,0 -0.281282,-0.0579 -0.06343,-0.0165 -0.135126,-0.0496 -0.06894,-0.0303 -0.115822,-0.0607 -0.04412,-0.0276 -0.121338,-0.08 -0.07997,-0.0496 -0.113064,-0.0717 -0.06067,-0.0276 -0.08825,-0.0938 -0.03033,-0.0634 -0.01655,-0.13236 z m 2.346775,-0.88797 q -0.02206,0.0165 -0.0524,0.0689 -0.146156,0.15994 -0.286797,0.25646 -0.137884,0.0938 -0.300586,0.091 -0.08549,0.011 -0.176491,-0.0221 -0.091,-0.0359 -0.143399,-0.0993 -0.02482,-0.0386 -0.03585,-0.0524 -0.0083,-0.0165 -0.02758,-0.0496 -0.0193,-0.0359 -0.02758,-0.0579 -0.0055,-0.0221 -0.01379,-0.0524 -0.0083,-0.0303 -0.0083,-0.0579 0,-0.0303 0.0083,-0.0607 0.0028,-0.0938 0.06067,-0.19028 0.06067,-0.0965 0.121338,-0.15443 0.06067,-0.0579 0.157187,-0.13789 0.0193,-0.0138 0.02758,-0.0221 0.115822,-0.0938 0.314374,-0.0938 0.04136,0 0.261979,0.0221 0.0055,0.006 0.03585,0.0193 0.03309,0.0138 0.04688,0.0303 0.01379,0.0138 0.0028,0.0386 l 0.03585,0.0359 q 0.08273,0.0359 0.104792,0.0689 0.137883,0.28128 0.242675,0.45226 0.01103,0.0138 0.06894,0.0634 0.06067,0.0469 0.0717,0.0607 0.02206,0.0166 0.0524,0.0469 0.03309,0.0276 0.05515,0.0414 0.02206,0.0138 0.04964,0.0165 0.0028,0.003 0.03585,0.0331 0.0028,0.008 -0.0028,0.0221 -0.0028,0.011 -0.0083,0.0276 -0.0055,0.0165 -0.0083,0.0221 -0.02758,0.0414 -0.121338,0.0662 -0.03309,0 -0.04688,0.003 -0.01103,0.006 -0.03861,-0.006 -0.02482,-0.008 -0.03585,-0.0138 -0.0083,-0.003 -0.03585,-0.0193 -0.02758,-0.0165 -0.04136,-0.0248 l -0.01103,-0.006 q -0.06894,-0.0579 -0.19028,-0.19856 -0.118579,-0.14339 -0.140641,-0.16821 z m -0.802482,0.0855 q 0.04964,0.0745 0.148914,0.0745 0.04688,0 0.129611,-0.0221 0.135126,-0.0496 0.245433,-0.17373 0.107549,-0.14892 0.121337,-0.26198 0,-0.008 0.01103,-0.0634 0.01103,-0.0579 0.0083,-0.08 -0.05515,0.0138 -0.159945,0.0221 -0.102034,0.006 -0.157187,0.0165 -0.0717,0.011 -0.146157,0.0689 -0.07446,0.0551 -0.113064,0.10479 -0.03861,0.0496 -0.104792,0.14064 -0.04688,0.0579 0.01655,0.17373 z m 1.582903,-0.87418 q 0.0083,-0.008 0.03033,-0.0303 0.02206,-0.0248 0.03033,-0.0303 0.01103,-0.006 0.03033,-0.0138 0.02206,-0.011 0.04964,-0.011 0.03861,-0.0138 0.08273,0.0303 0.04412,0.0414 0.05791,0.091 0.01103,0.20959 0.08549,0.50466 0.0055,0.0165 0.03033,0.0827 0.02482,0.0662 0.04137,0.10479 0.0193,0.0359 0.05515,0.0772 0.03861,0.0414 0.08273,0.0496 0.0524,0.011 0.09652,-0.0276 0.256464,-0.3061 0.339194,-0.46053 0.03309,-0.0524 0.08825,-0.18476 0.05791,-0.13513 0.104792,-0.19855 0.02482,-0.0248 0.121337,-0.0165 0.03585,0.006 0.06067,0.0441 0.02758,0.0359 0.02758,0.0772 0,0.0165 -0.0524,0.13788 -0.204068,0.36126 -0.383316,0.58463 -0.01379,0.0165 -0.04412,0.0607 -0.03033,0.0414 -0.04412,0.0607 -0.01379,0.0165 -0.04412,0.0524 -0.02758,0.0331 -0.04964,0.0524 -0.0193,0.0193 -0.04964,0.0469 -0.02758,0.0248 -0.05791,0.0441 -0.0055,0.006 -0.02206,0.0193 -0.01655,0.011 -0.0193,0.011 0,0 -0.01379,0.008 -0.01379,0.008 -0.01655,0.006 -0.0028,-0.003 -0.02206,0.003 -0.01655,0.003 -0.02758,-0.003 -0.04688,0 -0.06343,-0.006 -0.01655,-0.006 -0.04964,-0.0331 -0.05791,-0.0524 -0.104791,-0.11582 -0.04688,-0.0634 -0.0717,-0.10755 -0.02482,-0.0469 -0.06894,-0.14064 -0.06894,-0.20131 -0.104792,-0.36677 -0.0193,-0.0496 -0.121337,-0.22888 -0.0055,-0.12961 0.01655,-0.17374 z m 2.501208,0.7887 q -0.02206,0.0165 -0.0524,0.0689 -0.146156,0.15994 -0.286798,0.25646 -0.137883,0.0938 -0.300586,0.091 -0.08549,0.011 -0.176491,-0.0221 -0.091,-0.0359 -0.143398,-0.0993 -0.02482,-0.0386 -0.03585,-0.0524 -0.0083,-0.0165 -0.02758,-0.0496 -0.0193,-0.0359 -0.02758,-0.0579 -0.0055,-0.0221 -0.01379,-0.0524 -0.0083,-0.0303 -0.0083,-0.0579 0,-0.0303 0.0083,-0.0607 0.0028,-0.0938 0.06067,-0.19028 0.06067,-0.0965 0.121337,-0.15443 0.06067,-0.0579 0.157188,-0.13789 0.0193,-0.0138 0.02758,-0.0221 0.115822,-0.0938 0.314375,-0.0938 0.04136,0 0.261978,0.0221 0.0055,0.006 0.03585,0.0193 0.03309,0.0138 0.04688,0.0303 0.01379,0.0138 0.0028,0.0386 l 0.03585,0.0359 q 0.08273,0.0359 0.104791,0.0689 0.137884,0.28128 0.242675,0.45226 0.01103,0.0138 0.06894,0.0634 0.06067,0.0469 0.0717,0.0607 0.02206,0.0166 0.0524,0.0469 0.03309,0.0276 0.05515,0.0414 0.02206,0.0138 0.04964,0.0165 0.0028,0.003 0.03585,0.0331 0.0028,0.008 -0.0028,0.0221 -0.0028,0.011 -0.0083,0.0276 -0.0055,0.0165 -0.0083,0.0221 -0.02758,0.0414 -0.121338,0.0662 -0.03309,0 -0.04688,0.003 -0.01103,0.006 -0.03861,-0.006 -0.02482,-0.008 -0.03585,-0.0138 -0.0083,-0.003 -0.03585,-0.0193 -0.02758,-0.0165 -0.04136,-0.0248 l -0.01103,-0.006 q -0.06894,-0.0579 -0.190279,-0.19856 -0.11858,-0.14339 -0.140641,-0.16821 z m -0.802482,0.0855 q 0.04964,0.0745 0.148914,0.0745 0.04688,0 0.12961,-0.0221 0.135126,-0.0496 0.245433,-0.17373 0.107549,-0.14892 0.121338,-0.26198 0,-0.008 0.01103,-0.0634 0.01103,-0.0579 0.0083,-0.08 -0.05515,0.0138 -0.159945,0.0221 -0.102033,0.006 -0.157187,0.0165 -0.0717,0.011 -0.146156,0.0689 -0.07446,0.0551 -0.113065,0.10479 -0.03861,0.0496 -0.104791,0.14064 -0.04688,0.0579 0.01655,0.17373 z m 1.698724,0.11858 q 0.0055,-0.011 0.02482,-0.0414 0.0193,-0.0303 0.02758,-0.0469 0.143399,0.0248 0.242675,0.12134 0.0524,0.0386 0.124095,0.0607 0.07446,0.0221 0.110307,0.0276 0.03861,0.003 0.148914,0.003 0.110307,-0.003 0.124096,-0.003 0.06067,0 0.157187,-0.0359 0.02758,-0.011 0.03309,-0.0386 0.0055,-0.0276 -0.01655,-0.0469 -0.0524,-0.0386 -0.27301,-0.14615 -0.217855,-0.10755 -0.231644,-0.11582 -0.281282,-0.0855 -0.490865,-0.24544 -0.01379,-0.0193 -0.04688,-0.0441 -0.03033,-0.0276 -0.04964,-0.0524 -0.0193,-0.0276 -0.02482,-0.0607 -0.0028,-0.10755 0.104791,-0.19028 0.01379,-0.006 0.107549,-0.0331 0.09376,-0.0276 0.137884,-0.0551 0.256463,-0.10203 0.488107,-0.11858 0.0055,0 0.03034,0.003 0.02758,0.003 0.03033,0.003 0.0055,0 0.02758,0.003 0.02206,0.003 0.02758,0.006 0.0055,0.003 0.02206,0.008 0.01655,0.006 0.02206,0.0138 0.0083,0.006 0.0193,0.0165 0.01103,0.008 0.01655,0.0221 0.0083,0.011 0.01379,0.0276 0.01655,0.0965 -0.0524,0.15719 -0.01379,0 -0.08825,0.003 -0.07446,0.003 -0.09652,0.006 -0.02206,0 -0.08273,0.008 -0.06067,0.006 -0.09376,0.0138 -0.03309,0.008 -0.07721,0.0248 -0.04412,0.0165 -0.08273,0.0386 -0.03861,0.0138 -0.0524,0.0441 -0.01103,0.0303 0.03309,0.0524 0.126853,0.0882 0.375043,0.20131 0.24819,0.11307 0.339194,0.16546 0.091,0.0579 0.157187,0.14064 0.06894,0.08 0.08549,0.18201 0.0193,0.10203 -0.08549,0.182 -0.06618,0.0524 -0.173733,0.08 -0.104792,0.0276 -0.168218,0.0331 -0.06343,0.006 -0.195795,0.008 -0.137883,0.006 -0.295071,-0.0414 -0.157187,-0.0469 -0.267494,-0.13237 -0.110306,-0.0414 -0.08549,-0.20683 z m 1.35953,-0.34471 q 0.0193,-0.12961 0.07446,-0.21785 0.05791,-0.0883 0.170975,-0.18476 0.09376,-0.10755 0.226129,-0.16271 0.132369,-0.0551 0.261979,-0.0303 0.05791,-0.003 0.11858,0.0303 0.06343,0.0331 0.08824,0.0579 0.02758,0.0248 0.091,0.0883 0.06343,0.0855 0.0524,0.26198 -0.03585,0.0662 -0.0717,0.0689 -0.0083,0 -0.04688,0.006 -0.03861,0.003 -0.06067,-0.006 -0.0193,-0.008 -0.03033,-0.0359 -0.05515,-0.14616 -0.08549,-0.1627 -0.04136,-0.0276 -0.09652,-0.0303 -0.05515,-0.003 -0.09928,0.003 -0.06618,0.0165 -0.129611,0.0689 -0.06343,0.0496 -0.09652,0.091 -0.03033,0.0386 -0.08825,0.11858 0,0.008 -0.01103,0.0551 -0.0083,0.0469 -0.0055,0.0855 0.0055,0.0386 0.03585,0.0524 0.08825,0.10755 0.187522,0.1434 0.11858,0.0469 0.421923,0.0993 l 0.333678,0.0717 q 0.0193,0.0165 0.03585,0.0524 0.0193,0.0331 0.01655,0.0496 -0.01103,0.0358 -0.05515,0.0717 -0.04136,0.0359 -0.08549,0.0496 -0.107549,0.011 -0.278525,-0.0359 -0.300586,-0.0552 -0.40262,-0.0855 -0.270251,-0.0883 -0.402619,-0.25922 -0.08825,-0.11858 -0.06894,-0.31438 z m 1.439505,-0.2013 q 0.0193,-0.12134 0.08273,-0.20959 0.06343,-0.0882 0.179249,-0.19303 0.09928,-0.0496 0.256463,-0.0496 0.193037,0 0.317132,0.0662 0.234402,0.14616 0.333678,0.24543 0,0.008 0.0028,0.0414 0.0028,0.0331 -0.0028,0.0551 -0.0028,0.0221 -0.0193,0.0248 -0.08825,0.0138 -0.179248,-0.0276 -0.02206,-0.0138 -0.0717,-0.0414 -0.04964,-0.0303 -0.07446,-0.0441 -0.02482,-0.0138 -0.06618,-0.0276 -0.04136,-0.0138 -0.07997,-0.0165 -0.02206,0 -0.0717,0 -0.04964,-0.003 -0.07997,0 -0.02758,0 -0.06894,0.008 -0.04136,0.008 -0.07446,0.0276 l -0.01655,0.0165 q -0.09928,0.13237 -0.124095,0.20407 0.0055,0.0827 0,0.14891 -0.0055,0.0634 -0.0028,0.14616 0.0055,0.0827 0.02206,0.14615 0.0193,0.0331 0.02206,0.0662 0.0028,0.0303 -0.01379,0.0717 -0.01655,0.0414 -0.02482,0.0579 -0.0055,0.0138 -0.03585,0.0634 -0.02482,0.0331 -0.06067,0.0331 -0.03861,0 -0.07997,-0.0331 -0.06618,-0.0414 -0.104792,-0.15443 0,-0.43572 0.03585,-0.62599 z m 1.12513,-0.79697 q 0.01655,-0.0414 0.05791,-0.0662 0.04412,-0.0276 0.091,-0.0221 0.01655,-0.003 0.03033,0 0.01379,0.003 0.02758,0.011 0.01655,0.008 0.02482,0.0138 0.0083,0.006 0.02206,0.0248 0.01655,0.0193 0.02206,0.0248 0.0055,0.003 0.02206,0.0276 l 0.01655,0.0221 q 0.01103,0.0276 0.104792,0.12134 0.0193,0.0276 0.0193,0.0662 0.0028,0.0358 -0.0193,0.0579 H 75.4157 q -0.04688,0.008 -0.09652,-0.006 -0.04688,-0.0138 -0.126852,-0.0552 -0.07721,-0.0414 -0.08273,-0.0441 -0.04688,-0.0276 -0.06343,-0.0772 -0.01379,-0.0524 0.01103,-0.0993 z m 0.176491,1.39814 q -0.0055,-0.0331 -0.01655,-0.1434 -0.01103,-0.11307 -0.02206,-0.2344 -0.01103,-0.1241 -0.01379,-0.14616 -0.0055,-0.0745 0,-0.15719 0.04136,-0.0717 0.137883,-0.0524 0.03585,0.0165 0.0717,0.10479 0,0.0579 0.0083,0.12134 0.01103,0.0634 0.0193,0.10754 0.01103,0.0441 0.03033,0.11583 0.0193,0.0717 0.02758,0.1103 0,0.0221 -0.0055,0.0717 -0.0028,0.0469 -0.0083,0.091 -0.0028,0.0441 -0.0028,0.0469 -0.0028,0.008 -0.0083,0.0303 -0.0028,0.0221 -0.0083,0.0358 -0.0028,0.0138 -0.01379,0.0303 -0.0083,0.0138 -0.02206,0.0221 -0.07446,0.0138 -0.121338,-0.0331 -0.04688,-0.0827 -0.0524,-0.12133 z m 0.526714,-0.59842 q 0.04412,-0.13512 0.126853,-0.2151 0.08549,-0.08 0.223372,-0.13512 0.05791,-0.0165 0.09376,-0.0165 0.0193,0 0.091,0.011 0.325405,0.0855 0.460531,0.2868 0.176491,0.17098 0.140641,0.5212 -0.04136,0.12961 -0.195794,0.21786 -0.151672,0.0855 -0.292313,0.0772 -0.126853,0.0303 -0.242675,-0.0414 -0.113065,-0.0745 -0.228887,-0.20131 h -0.01103 q 0,0.0248 -0.0055,0.21234 -0.0028,0.18476 -0.0028,0.27576 -0.02206,0.29507 0.140641,0.5736 0.02758,0.0524 0,0.12409 -0.05515,0.0634 -0.08825,0.069 -0.02206,0.003 -0.03309,0.003 -0.01103,0.003 -0.03033,-0.0138 -0.0193,-0.0138 -0.02758,-0.0248 -0.0083,-0.008 -0.02482,-0.0276 -0.01655,-0.0193 -0.02206,-0.0248 -0.110307,-0.19855 -0.140641,-0.66184 0,-0.0221 -0.0028,-0.16546 0,-0.14064 0,-0.17649 0,-0.0359 0.0028,-0.14892 0.0028,-0.11582 0.01103,-0.17649 0.0083,-0.0634 0.02206,-0.15718 0.01379,-0.0965 0.03585,-0.18477 z m 0.386074,0.34747 q 0.01103,0.0165 0.06618,0.0745 0.05515,0.0551 0.0717,0.0662 0.05791,0.0331 0.135126,0.0331 0.16546,0 0.215098,-0.12134 0.03585,-0.11582 -0.0028,-0.20682 -0.03585,-0.0938 -0.137883,-0.19304 -0.03585,-0.0331 -0.05515,-0.0469 -0.0193,-0.0138 -0.05515,-0.0248 -0.03309,-0.0138 -0.06343,0.003 -0.115822,0.0551 -0.193036,0.25922 0,0.0138 -0.0028,0.0496 0,0.0358 0.0028,0.0607 0.0055,0.0248 0.0193,0.0469 z m 1.298863,-0.12961 0.0055,-0.22613 q 0,-0.08 -0.01379,-0.24543 -0.01655,-0.0634 -0.03033,-0.0745 -0.182007,0.0138 -0.278525,0.0607 -0.02482,0 -0.0717,0.0193 -0.04688,0.0193 -0.07997,0.0138 -0.0193,-0.008 -0.03861,-0.0248 -0.0193,-0.0165 -0.03861,-0.0386 -0.02206,-0.0248 -0.03585,-0.0358 -0.01103,-0.0276 -0.0083,-0.0772 0.0028,-0.0496 0.0193,-0.0745 l 0.091,-0.08 q 0.143399,-0.003 0.427439,-0.0552 l 0.0193,-0.0221 0.0055,-0.43296 q 0.06343,-0.0689 0.157187,-0.0496 0.07446,0.0579 0.08273,0.1434 0.0083,0.0165 0.01103,0.13789 0.0028,0.12133 0.02206,0.14064 0.0028,0 0.02482,0.008 0.02482,0.006 0.02758,0.008 0.05515,-0.006 0.140641,-0.0193 0.08549,-0.0165 0.124096,-0.0193 0.03861,-0.003 0.140641,0.003 l 0.126853,0.006 q 0.118579,0.0165 0.08825,0.13788 -0.04688,0.0469 -0.0717,0.0524 -0.06343,0.006 -0.129611,0.0165 -0.06618,0.011 -0.16546,0.0358 -0.09652,0.0221 -0.129611,0.0276 l -0.0055,0.003 q -0.0717,0.003 -0.162702,0.0359 l -0.01379,0.0193 q 0,0.0331 -0.0055,0.11031 -0.0028,0.0745 0,0.12961 0.0028,0.0524 0.01655,0.10755 0,0.48259 0.04964,0.60117 0.05515,0.0496 0.09928,0.0524 0.02482,0 0.06343,-0.008 0.01103,-0.003 0.03309,-0.008 0.02206,-0.006 0.03033,-0.006 0.0083,-0.003 0.02482,-0.008 0.01655,-0.006 0.02206,-0.008 0.0083,-0.003 0.0193,-0.008 0.01379,-0.008 0.0193,-0.0165 0.0083,-0.008 0.0193,-0.0193 0.01103,-0.011 0.0193,-0.0248 0.01103,-0.0138 0.02206,-0.0303 0.01103,-0.0193 0.02482,-0.0414 -0.0028,-0.0138 0.0083,-0.0662 0.01103,-0.0524 0.01655,-0.0662 0.03033,-0.0855 0.110307,-0.0827 0.03861,-0.006 0.05791,0.0138 0.0193,0.0193 0.03585,0.0689 l 0.01379,0.0469 q -0.0193,0.13513 -0.04136,0.16822 -0.05515,0.1103 -0.08549,0.15167 -0.02758,0.0414 -0.102034,0.0855 -0.07446,0.0469 -0.228887,0.0965 -0.0083,0.003 -0.06343,0.0221 -0.05515,0.0221 -0.08549,0.0221 -0.126853,-0.006 -0.187522,-0.0827 -0.0083,-0.0165 -0.04964,-0.0855 -0.04136,-0.0717 -0.05791,-0.1241 -0.01655,-0.0551 -0.0083,-0.11582 -0.0028,-0.0496 -0.01379,-0.1434 -0.01103,-0.0938 -0.01379,-0.11858 -0.0028,-0.003 -0.0028,-0.006 z"
       id="text1"
       aria-label="what is a javascript" />
    <path
       style="opacity:0.18;fill:none;stroke:#ffeb00;stroke-width:0.09;stroke-linecap:butt;stroke-linejoin:miter;stroke-dasharray:none;stroke-opacity:1"
       id="rect4"
       width="35"
       height="4.9999995"
       x="45.000004"
       y="159.99998"
       d="M 45.999578,159.99998 H 78.999993 A 1.0000107,1.0000107 45 0 1 80.000004,161 v 2.99998 a 1.000002,1.000002 135 0 1 -1.000002,1 H 46.000001 a 0.99999724,0.99999724 45 0 1 -0.999997,-0.99999 v -3.00043 a 0.99957447,0.99957447 135 0 1 0.999574,-0.99958 z" />
    <path
       style="opacity:0.18;fill:none;stroke:#ffeb00;stroke-width:0.09;stroke-linecap:butt;stroke-linejoin:miter;stroke-dasharray:none;stroke-opacity:1"
       id="rect4-8"
       width="35"
       height="4.9999995"
       x="45.000004"
       y="159.99998"
       d="M 45.999578,159.99998 H 78.999993 A 1.0000107,1.0000107 45 0 1 80.000004,161 v 2.99998 a 1.000002,1.000002 135 0 1 -1.000002,1 H 46.000001 a 0.99999724,0.99999724 45 0 1 -0.999997,-0.99999 v -3.00043 a 0.99957447,0.99957447 135 0 1 0.999574,-0.99958 z"
       transform="matrix(1.0170991,0,0,1.1178689,-1.0686939,-19.153703)" />
    <ellipse
       style="opacity:0.18;fill:none;fill-opacity:1;stroke:#ffeb00;stroke-width:0.09;stroke-linecap:butt;stroke-linejoin:miter;stroke-dasharray:none;stroke-opacity:1"
       id="path8"
       cx="47.430191"
       cy="162.15166"
       rx="0.9561916"
       ry="0.95619446" />
    <ellipse
       style="opacity:0.18;fill:none;fill-opacity:1;stroke:#ffeb00;stroke-width:0.09;stroke-linecap:butt;stroke-linejoin:miter;stroke-dasharray:none;stroke-opacity:1"
       id="path8-1"
       cx="47.430191"
       cy="162.15166"
       rx="0.69315451"
       ry="0.69315666" />
    <rect
       style="opacity:0.18;fill:none;fill-opacity:1;stroke:#ffeb00;stroke-width:0.0806225;stroke-linecap:butt;stroke-linejoin:miter;stroke-dasharray:none;stroke-opacity:1"
       id="rect9"
       width="0.24159537"
       height="1.1308194"
       x="-48.828896"
       y="162.81203"
       transform="rotate(-33.062239)" />
    <text
       xml:space="preserve"
       style="font-size:3.175px;font-family:'Virgil 3 YOFF';-inkscape-font-specification:'Virgil 3 YOFF';opacity:0.18;fill:none;stroke:#ffeb00;stroke-width:0.0899999;stroke-opacity:1"
       x="52.106743"
       y="162.4538"
       id="text2"><tspan
         id="tspan1"
         style="stroke:#ffeb00;stroke-width:0.09;stroke-opacity:1"
         x="52.106743"
         y="162.4538" /></text>
  </g>
</svg>
